<svg viewBox="0 0 330 200" xmlns="http://www.w3.org/2000/svg"><g><g><g><g><g><line x1="30" y1="177.50296719295082" x2="25" y2="177.50296719295082" style="visibility: inherit;" fill="rgb(0, 0, 0)" stroke="rgb(204, 204, 204)" stroke-width="1px"></line><line x1="30" y1="159.70296719295075" x2="25" y2="159.70296719295075" style="visibility: inherit;" fill="rgb(0, 0, 0)" stroke="rgb(204, 204, 204)" stroke-width="1px"></line><line x1="30" y1="141.90296719295065" x2="25" y2="141.90296719295065" style="visibility: inherit;" fill="rgb(0, 0, 0)" stroke="rgb(204, 204, 204)" stroke-width="1px"></line><line x1="30" y1="124.10296719295057" x2="25" y2="124.10296719295057" style="visibility: inherit;" fill="rgb(0, 0, 0)" stroke="rgb(204, 204, 204)" stroke-width="1px"></line><line x1="30" y1="106.30296719295049" x2="25" y2="106.30296719295049" style="visibility: inherit;" fill="rgb(0, 0, 0)" stroke="rgb(204, 204, 204)" stroke-width="1px"></line><line x1="30" y1="88.50296719295042" x2="25" y2="88.50296719295042" style="visibility: inherit;" fill="rgb(0, 0, 0)" stroke="rgb(204, 204, 204)" stroke-width="1px"></line><line x1="30" y1="70.70296719295034" x2="25" y2="70.70296719295034" style="visibility: inherit;" fill="rgb(0, 0, 0)" stroke="rgb(204, 204, 204)" stroke-width="1px"></line><line x1="30" y1="52.90296719295027" x2="25" y2="52.90296719295027" style="visibility: inherit;" fill="rgb(0, 0, 0)" stroke="rgb(204, 204, 204)" stroke-width="1px"></line><line x1="30" y1="35.102967192950196" x2="25" y2="35.102967192950196" style="visibility: inherit;" fill="rgb(0, 0, 0)" stroke="rgb(204, 204, 204)" stroke-width="1px"></line><line x1="30" y1="17.30296719295012" x2="25" y2="17.30296719295012" style="visibility: inherit;" fill="rgb(0, 0, 0)" stroke="rgb(204, 204, 204)" stroke-width="1px"></line></g><g transform="translate(20, 0)"><text x="0" y="177.50296719295082" dx="0em" dy="0.3em" style="text-anchor: end; visibility: hidden; font-family: Roboto, sans-serif; font-size: 12px; font-weight: 200;" fill="rgb(50, 49, 63)" stroke="none" stroke-width="1px">0</text><text x="0" y="159.70296719295075" dx="0em" dy="0.3em" style="text-anchor: end; visibility: inherit; font-family: Roboto, sans-serif; font-size: 12px; font-weight: 200;" fill="rgb(50, 49, 63)" stroke="none" stroke-width="1px">5</text><text x="0" y="141.90296719295065" dx="0em" dy="0.3em" style="text-anchor: end; visibility: hidden; font-family: Roboto, sans-serif; font-size: 12px; font-weight: 200;" fill="rgb(50, 49, 63)" stroke="none" stroke-width="1px">10</text><text x="0" y="124.10296719295057" dx="0em" dy="0.3em" style="text-anchor: end; visibility: inherit; font-family: Roboto, sans-serif; font-size: 12px; font-weight: 200;" fill="rgb(50, 49, 63)" stroke="none" stroke-width="1px">15</text><text x="0" y="106.30296719295049" dx="0em" dy="0.3em" style="text-anchor: end; visibility: hidden; font-family: Roboto, sans-serif; font-size: 12px; font-weight: 200;" fill="rgb(50, 49, 63)" stroke="none" stroke-width="1px">20</text><text x="0" y="88.50296719295042" dx="0em" dy="0.3em" style="text-anchor: end; visibility: inherit; font-family: Roboto, sans-serif; font-size: 12px; font-weight: 200;" fill="rgb(50, 49, 63)" stroke="none" stroke-width="1px">25</text><text x="0" y="70.70296719295034" dx="0em" dy="0.3em" style="text-anchor: end; visibility: hidden; font-family: Roboto, sans-serif; font-size: 12px; font-weight: 200;" fill="rgb(50, 49, 63)" stroke="none" stroke-width="1px">30</text><text x="0" y="52.90296719295027" dx="0em" dy="0.3em" style="text-anchor: end; visibility: inherit; font-family: Roboto, sans-serif; font-size: 12px; font-weight: 200;" fill="rgb(50, 49, 63)" stroke="none" stroke-width="1px">35</text><text x="0" y="35.102967192950196" dx="0em" dy="0.3em" style="text-anchor: end; visibility: hidden; font-family: Roboto, sans-serif; font-size: 12px; font-weight: 200;" fill="rgb(50, 49, 63)" stroke="none" stroke-width="1px">40</text><text x="0" y="17.30296719295012" dx="0em" dy="0.3em" style="text-anchor: end; visibility: inherit; font-family: Roboto, sans-serif; font-size: 12px; font-weight: 200;" fill="rgb(50, 49, 63)" stroke="none" stroke-width="1px">45</text></g><line x1="30" y1="0" x2="30" y2="178" fill="rgb(0, 0, 0)" stroke="rgb(204, 204, 204)" stroke-width="1px"></line></g></g><g transform="translate(30, 0)" clip-path="url(#clip_0)"><clipPath id="clip_0"><rect width="300" height="178"></rect></clipPath><g><g><g><line x1="16.1275211060276" y1="0" x2="16.1275211060276" y2="178" fill="rgb(0, 0, 0)" stroke="rgb(60, 60, 60)" stroke-width="1px" opacity="0.25"></line><line x1="41.12752110602757" y1="0" x2="41.12752110602757" y2="178" fill="rgb(0, 0, 0)" stroke="rgb(60, 60, 60)" stroke-width="1px" opacity="0.25"></line><line x1="66.12752110602756" y1="0" x2="66.12752110602756" y2="178" fill="rgb(0, 0, 0)" stroke="rgb(60, 60, 60)" stroke-width="1px" opacity="0.25"></line><line x1="91.12752110602753" y1="0" x2="91.12752110602753" y2="178" fill="rgb(0, 0, 0)" stroke="rgb(60, 60, 60)" stroke-width="1px" opacity="0.25"></line><line x1="116.12752110602752" y1="0" x2="116.12752110602752" y2="178" fill="rgb(0, 0, 0)" stroke="rgb(60, 60, 60)" stroke-width="1px" opacity="0.25"></line><line x1="141.12752110602747" y1="0" x2="141.12752110602747" y2="178" fill="rgb(0, 0, 0)" stroke="rgb(60, 60, 60)" stroke-width="1px" opacity="0.25"></line><line x1="166.12752110602747" y1="0" x2="166.12752110602747" y2="178" fill="rgb(0, 0, 0)" stroke="rgb(60, 60, 60)" stroke-width="1px" opacity="0.25"></line><line x1="191.12752110602742" y1="0" x2="191.12752110602742" y2="178" fill="rgb(0, 0, 0)" stroke="rgb(60, 60, 60)" stroke-width="1px" opacity="0.25"></line><line x1="216.1275211060274" y1="0" x2="216.1275211060274" y2="178" fill="rgb(0, 0, 0)" stroke="rgb(60, 60, 60)" stroke-width="1px" opacity="0.25"></line><line x1="241.12752110602736" y1="0" x2="241.12752110602736" y2="178" fill="rgb(0, 0, 0)" stroke="rgb(60, 60, 60)" stroke-width="1px" opacity="0.25"></line><line x1="266.12752110602736" y1="0" x2="266.12752110602736" y2="178" fill="rgb(0, 0, 0)" stroke="rgb(60, 60, 60)" stroke-width="1px" opacity="0.25"></line><line x1="291.1275211060273" y1="0" x2="291.1275211060273" y2="178" fill="rgb(0, 0, 0)" stroke="rgb(60, 60, 60)" stroke-width="1px" opacity="0.25"></line></g><g><line x1="0" y1="177.50296719295082" x2="300" y2="177.50296719295082" fill="rgb(0, 0, 0)" stroke="rgb(60, 60, 60)" stroke-width="1px" opacity="0.25"></line><line x1="0" y1="159.70296719295075" x2="300" y2="159.70296719295075" fill="rgb(0, 0, 0)" stroke="rgb(60, 60, 60)" stroke-width="1px" opacity="0.25"></line><line x1="0" y1="141.90296719295065" x2="300" y2="141.90296719295065" fill="rgb(0, 0, 0)" stroke="rgb(60, 60, 60)" stroke-width="1px" opacity="0.25"></line><line x1="0" y1="124.10296719295057" x2="300" y2="124.10296719295057" fill="rgb(0, 0, 0)" stroke="rgb(60, 60, 60)" stroke-width="1px" opacity="0.25"></line><line x1="0" y1="106.30296719295049" x2="300" y2="106.30296719295049" fill="rgb(0, 0, 0)" stroke="rgb(60, 60, 60)" stroke-width="1px" opacity="0.25"></line><line x1="0" y1="88.50296719295042" x2="300" y2="88.50296719295042" fill="rgb(0, 0, 0)" stroke="rgb(60, 60, 60)" stroke-width="1px" opacity="0.25"></line><line x1="0" y1="70.70296719295034" x2="300" y2="70.70296719295034" fill="rgb(0, 0, 0)" stroke="rgb(60, 60, 60)" stroke-width="1px" opacity="0.25"></line><line x1="0" y1="52.90296719295027" x2="300" y2="52.90296719295027" fill="rgb(0, 0, 0)" stroke="rgb(60, 60, 60)" stroke-width="1px" opacity="0.25"></line><line x1="0" y1="35.102967192950196" x2="300" y2="35.102967192950196" fill="rgb(0, 0, 0)" stroke="rgb(60, 60, 60)" stroke-width="1px" opacity="0.25"></line><line x1="0" y1="17.30296719295012" x2="300" y2="17.30296719295012" fill="rgb(0, 0, 0)" stroke="rgb(60, 60, 60)" stroke-width="1px" opacity="0.25"></line></g></g></g><g><g><line x1="0" y1="177.50296719295082" x2="300" y2="177.50296719295082" fill="rgb(0, 0, 0)" stroke="rgb(153, 153, 153)" stroke-width="1.5px"></line></g></g><g><g><line x1="16.1275211060276" y1="0" x2="16.1275211060276" y2="178" fill="rgb(0, 0, 0)" stroke="rgb(153, 153, 153)" stroke-width="1.5px"></line></g></g><g><g><g><g><g><path style="fill: none;" stroke="rgb(0, 119, 187)" stroke-width="2px" d="M16.1275211060276,58.17813473445421L21.127521106027597,127.26145477992571L26.12752110602759,116.67771549922495L31.127521106027586,133.18951328975237L36.12752110602758,149.8206956933169L41.12752110602757,159.60887762767365L46.12752110602757,164.31281777125886L51.127521106027565,161.43352802974275L56.127521106027565,167.59192493182712L61.12752110602756,155.68135676127957L66.12752110602756,165.57121541720917L71.12752110602754,169.94793345195347L76.12752110602753,169.89536402446325L81.12752110602754,163.53182701808504L86.12752110602753,168.967491900745L91.12752110602753,156.25675501567412L96.12752110602753,159.12165470820952L101.12752110602753,163.13896696788362L106.12752110602752,168.80067801219516L111.12752110602752,156.67354868632842L116.12752110602752,162.69080275279572L121.1275211060275,165.938033501926L126.12752110602749,169.39019046527437L131.1275211060275,156.7360181687503L136.1275211060275,126.23223610621963L141.12752110602747,139.23195206386129L146.12752110602747,170.3177629731327L151.12752110602744,164.5214081261783L156.12752110602747,163.3314994404941L161.12752110602744,168.24967341167024L166.12752110602747,167.22964267474703L171.12752110602744,120.97227513057264L176.12752110602742,124.88681660396132L181.12752110602744,141.05225846034568L186.12752110602742,136.37584053737203L191.12752110602742,103.69724285823368L196.12752110602742,119.94572499019178L201.12752110602742,150.14879967433498L206.12752110602742,86.5692718957092L211.12752110602742,136.9601508782534L216.1275211060274,85.3280372307922L221.12752110602742,123.77179405910049L226.1275211060274,121.39878891688856L231.12752110602736,118.83329968196423L236.1275211060274,87.15547329646604L241.12752110602736,22.980370299639596L246.1275211060274,1.9906377862117737L251.12752110602736,53.13411785823348L256.12752110602736,60.476767241778425L261.12752110602736,116.04253666621713" fill="none"></path></g><g><path style="fill: none;" stroke="rgb(255, 112, 67)" stroke-width="2px" d="M16.1275211060276,27.385636718096645L21.127521106027597,107.41595608455208L26.12752110602759,129.5138225243715L31.127521106027586,153.5428226731448L36.12752110602758,153.51858349544094L41.12752110602757,160.95668217402985L46.12752110602757,169.58222046596106L51.127521106027565,168.1743696759372L56.127521106027565,168.19728222590976L61.12752110602756,169.3927961896091L66.12752110602756,167.71435917598302L71.12752110602754,169.62447478992038L76.12752110602753,174.45339527589377L81.12752110602754,173.93417053920325L86.12752110602753,173.64841339808996L91.12752110602753,170.76074629527622L96.12752110602753,174.43387971622045L101.12752110602753,171.59096444350774L106.12752110602752,169.67248717052038L111.12752110602752,172.22439905387458L116.12752110602752,172.13241740924414L121.1275211060275,174.70316159230765L126.12752110602749,173.38567023498115L131.1275211060275,171.41337159854467L136.1275211060275,157.50788124782133L141.12752110602747,131.0233194802431L146.12752110602747,155.01658640605496L151.12752110602744,172.60020264369544L156.12752110602747,173.0801108620792L161.12752110602744,175.91546433550414L166.12752110602747,175.75135165792997L171.12752110602744,165.5506072781711L176.12752110602742,113.7079570458558L181.12752110602744,144.33638100368066L186.12752110602742,147.21112812739892L191.12752110602742,138.14113304835837L196.12752110602742,147.81260060054348L201.12752110602742,165.70528545123628L206.12752110602742,158.26636601192044L211.12752110602742,165.95738121730378L216.1275211060274,166.97161824924044L221.12752110602742,168.2874487755924L226.1275211060274,172.1917651150852L231.12752110602736,171.25671239596898L236.1275211060274,118.4069183037904L241.12752110602736,31.790848815264646L246.1275211060274,73.18831555110464L251.12752110602736,127.11262463313614L256.12752110602736,158.60455507976104L261.12752110602736,165.5372909234195" fill="none"></path></g></g></g></g></g></g><g transform="translate(30, 178)" clip-path="url(#clip_1)"><clipPath id="clip_1"><rect width="300" height="22"></rect></clipPath><g><g><line x1="16.1275211060276" y1="0" x2="16.1275211060276" y2="5" style="visibility: inherit;" fill="rgb(0, 0, 0)" stroke="rgb(204, 204, 204)" stroke-width="1px"></line><line x1="41.12752110602757" y1="0" x2="41.12752110602757" y2="5" style="visibility: inherit;" fill="rgb(0, 0, 0)" stroke="rgb(204, 204, 204)" stroke-width="1px"></line><line x1="66.12752110602756" y1="0" x2="66.12752110602756" y2="5" style="visibility: inherit;" fill="rgb(0, 0, 0)" stroke="rgb(204, 204, 204)" stroke-width="1px"></line><line x1="91.12752110602753" y1="0" x2="91.12752110602753" y2="5" style="visibility: inherit;" fill="rgb(0, 0, 0)" stroke="rgb(204, 204, 204)" stroke-width="1px"></line><line x1="116.12752110602752" y1="0" x2="116.12752110602752" y2="5" style="visibility: inherit;" fill="rgb(0, 0, 0)" stroke="rgb(204, 204, 204)" stroke-width="1px"></line><line x1="141.12752110602747" y1="0" x2="141.12752110602747" y2="5" style="visibility: inherit;" fill="rgb(0, 0, 0)" stroke="rgb(204, 204, 204)" stroke-width="1px"></line><line x1="166.12752110602747" y1="0" x2="166.12752110602747" y2="5" style="visibility: inherit;" fill="rgb(0, 0, 0)" stroke="rgb(204, 204, 204)" stroke-width="1px"></line><line x1="191.12752110602742" y1="0" x2="191.12752110602742" y2="5" style="visibility: inherit;" fill="rgb(0, 0, 0)" stroke="rgb(204, 204, 204)" stroke-width="1px"></line><line x1="216.1275211060274" y1="0" x2="216.1275211060274" y2="5" style="visibility: inherit;" fill="rgb(0, 0, 0)" stroke="rgb(204, 204, 204)" stroke-width="1px"></line><line x1="241.12752110602736" y1="0" x2="241.12752110602736" y2="5" style="visibility: inherit;" fill="rgb(0, 0, 0)" stroke="rgb(204, 204, 204)" stroke-width="1px"></line><line x1="266.12752110602736" y1="0" x2="266.12752110602736" y2="5" style="visibility: inherit;" fill="rgb(0, 0, 0)" stroke="rgb(204, 204, 204)" stroke-width="1px"></line><line x1="291.1275211060273" y1="0" x2="291.1275211060273" y2="5" style="visibility: inherit;" fill="rgb(0, 0, 0)" stroke="rgb(204, 204, 204)" stroke-width="1px"></line></g><g transform="translate(0, 8)"><text x="16.1275211060276" y="0" dx="0em" dy="0.95em" style="text-anchor: middle; visibility: inherit; font-family: Roboto, sans-serif; font-size: 12px; font-weight: 200;" fill="rgb(50, 49, 63)" stroke="none" stroke-width="1px">0</text><text x="41.12752110602757" y="0" dx="0em" dy="0.95em" style="text-anchor: middle; visibility: inherit; font-family: Roboto, sans-serif; font-size: 12px; font-weight: 200;" fill="rgb(50, 49, 63)" stroke="none" stroke-width="1px">5</text><text x="66.12752110602756" y="0" dx="0em" dy="0.95em" style="text-anchor: middle; visibility: inherit; font-family: Roboto, sans-serif; font-size: 12px; font-weight: 200;" fill="rgb(50, 49, 63)" stroke="none" stroke-width="1px">10</text><text x="91.12752110602753" y="0" dx="0em" dy="0.95em" style="text-anchor: middle; visibility: inherit; font-family: Roboto, sans-serif; font-size: 12px; font-weight: 200;" fill="rgb(50, 49, 63)" stroke="none" stroke-width="1px">15</text><text x="116.12752110602752" y="0" dx="0em" dy="0.95em" style="text-anchor: middle; visibility: inherit; font-family: Roboto, sans-serif; font-size: 12px; font-weight: 200;" fill="rgb(50, 49, 63)" stroke="none" stroke-width="1px">20</text><text x="141.12752110602747" y="0" dx="0em" dy="0.95em" style="text-anchor: middle; visibility: inherit; font-family: Roboto, sans-serif; font-size: 12px; font-weight: 200;" fill="rgb(50, 49, 63)" stroke="none" stroke-width="1px">25</text><text x="166.12752110602747" y="0" dx="0em" dy="0.95em" style="text-anchor: middle; visibility: inherit; font-family: Roboto, sans-serif; font-size: 12px; font-weight: 200;" fill="rgb(50, 49, 63)" stroke="none" stroke-width="1px">30</text><text x="191.12752110602742" y="0" dx="0em" dy="0.95em" style="text-anchor: middle; visibility: inherit; font-family: Roboto, sans-serif; font-size: 12px; font-weight: 200;" fill="rgb(50, 49, 63)" stroke="none" stroke-width="1px">35</text><text x="216.1275211060274" y="0" dx="0em" dy="0.95em" style="text-anchor: middle; visibility: inherit; font-family: Roboto, sans-serif; font-size: 12px; font-weight: 200;" fill="rgb(50, 49, 63)" stroke="none" stroke-width="1px">40</text><text x="241.12752110602736" y="0" dx="0em" dy="0.95em" style="text-anchor: middle; visibility: inherit; font-family: Roboto, sans-serif; font-size: 12px; font-weight: 200;" fill="rgb(50, 49, 63)" stroke="none" stroke-width="1px">45</text><text x="266.12752110602736" y="0" dx="0em" dy="0.95em" style="text-anchor: middle; visibility: inherit; font-family: Roboto, sans-serif; font-size: 12px; font-weight: 200;" fill="rgb(50, 49, 63)" stroke="none" stroke-width="1px">50</text><text x="291.1275211060273" y="0" dx="0em" dy="0.95em" style="text-anchor: middle; visibility: inherit; font-family: Roboto, sans-serif; font-size: 12px; font-weight: 200;" fill="rgb(50, 49, 63)" stroke="none" stroke-width="1px">55</text></g><line x1="0" y1="0" x2="300" y2="0" fill="rgb(0, 0, 0)" stroke="rgb(204, 204, 204)" stroke-width="1px"></line></g></g></g></g></svg>