<svg viewBox="0 0 330 200" xmlns="http://www.w3.org/2000/svg"><g><g><g><g><g><line x1="41.171875" y1="167.74426982028035" x2="36.171875" y2="167.74426982028035" style="visibility: inherit;" fill="rgb(0, 0, 0)" stroke="rgb(204, 204, 204)" stroke-width="1px"></line><line x1="41.171875" y1="152.01114393887966" x2="36.171875" y2="152.01114393887966" style="visibility: inherit;" fill="rgb(0, 0, 0)" stroke="rgb(204, 204, 204)" stroke-width="1px"></line><line x1="41.171875" y1="136.27801805747893" x2="36.171875" y2="136.27801805747893" style="visibility: inherit;" fill="rgb(0, 0, 0)" stroke="rgb(204, 204, 204)" stroke-width="1px"></line><line x1="41.171875" y1="120.54489217607825" x2="36.171875" y2="120.54489217607825" style="visibility: inherit;" fill="rgb(0, 0, 0)" stroke="rgb(204, 204, 204)" stroke-width="1px"></line><line x1="41.171875" y1="104.81176629467757" x2="36.171875" y2="104.81176629467757" style="visibility: inherit;" fill="rgb(0, 0, 0)" stroke="rgb(204, 204, 204)" stroke-width="1px"></line><line x1="41.171875" y1="89.07864041327687" x2="36.171875" y2="89.07864041327687" style="visibility: inherit;" fill="rgb(0, 0, 0)" stroke="rgb(204, 204, 204)" stroke-width="1px"></line><line x1="41.171875" y1="73.34551453187618" x2="36.171875" y2="73.34551453187618" style="visibility: inherit;" fill="rgb(0, 0, 0)" stroke="rgb(204, 204, 204)" stroke-width="1px"></line><line x1="41.171875" y1="57.61238865047547" x2="36.171875" y2="57.61238865047547" style="visibility: inherit;" fill="rgb(0, 0, 0)" stroke="rgb(204, 204, 204)" stroke-width="1px"></line><line x1="41.171875" y1="41.87926276907478" x2="36.171875" y2="41.87926276907478" style="visibility: inherit;" fill="rgb(0, 0, 0)" stroke="rgb(204, 204, 204)" stroke-width="1px"></line><line x1="41.171875" y1="26.146136887674068" x2="36.171875" y2="26.146136887674068" style="visibility: inherit;" fill="rgb(0, 0, 0)" stroke="rgb(204, 204, 204)" stroke-width="1px"></line><line x1="41.171875" y1="10.413011006273376" x2="36.171875" y2="10.413011006273376" style="visibility: inherit;" fill="rgb(0, 0, 0)" stroke="rgb(204, 204, 204)" stroke-width="1px"></line></g><g transform="translate(31.171875, 0)"><text x="0" y="167.74426982028035" dx="0em" dy="0.3em" style="text-anchor: end; visibility: inherit; font-family: Roboto, sans-serif; font-size: 12px; font-weight: 200;" fill="rgb(50, 49, 63)" stroke="none" stroke-width="1px">0</text><text x="0" y="152.01114393887966" dx="0em" dy="0.3em" style="text-anchor: end; visibility: hidden; font-family: Roboto, sans-serif; font-size: 12px; font-weight: 200;" fill="rgb(50, 49, 63)" stroke="none" stroke-width="1px">10</text><text x="0" y="136.27801805747893" dx="0em" dy="0.3em" style="text-anchor: end; visibility: inherit; font-family: Roboto, sans-serif; font-size: 12px; font-weight: 200;" fill="rgb(50, 49, 63)" stroke="none" stroke-width="1px">20</text><text x="0" y="120.54489217607825" dx="0em" dy="0.3em" style="text-anchor: end; visibility: hidden; font-family: Roboto, sans-serif; font-size: 12px; font-weight: 200;" fill="rgb(50, 49, 63)" stroke="none" stroke-width="1px">30</text><text x="0" y="104.81176629467757" dx="0em" dy="0.3em" style="text-anchor: end; visibility: inherit; font-family: Roboto, sans-serif; font-size: 12px; font-weight: 200;" fill="rgb(50, 49, 63)" stroke="none" stroke-width="1px">40</text><text x="0" y="89.07864041327687" dx="0em" dy="0.3em" style="text-anchor: end; visibility: hidden; font-family: Roboto, sans-serif; font-size: 12px; font-weight: 200;" fill="rgb(50, 49, 63)" stroke="none" stroke-width="1px">50</text><text x="0" y="73.34551453187618" dx="0em" dy="0.3em" style="text-anchor: end; visibility: inherit; font-family: Roboto, sans-serif; font-size: 12px; font-weight: 200;" fill="rgb(50, 49, 63)" stroke="none" stroke-width="1px">60</text><text x="0" y="57.61238865047547" dx="0em" dy="0.3em" style="text-anchor: end; visibility: hidden; font-family: Roboto, sans-serif; font-size: 12px; font-weight: 200;" fill="rgb(50, 49, 63)" stroke="none" stroke-width="1px">70</text><text x="0" y="41.87926276907478" dx="0em" dy="0.3em" style="text-anchor: end; visibility: inherit; font-family: Roboto, sans-serif; font-size: 12px; font-weight: 200;" fill="rgb(50, 49, 63)" stroke="none" stroke-width="1px">80</text><text x="0" y="26.146136887674068" dx="0em" dy="0.3em" style="text-anchor: end; visibility: hidden; font-family: Roboto, sans-serif; font-size: 12px; font-weight: 200;" fill="rgb(50, 49, 63)" stroke="none" stroke-width="1px">90</text><text x="0" y="10.413011006273376" dx="0em" dy="0.3em" style="text-anchor: end; visibility: inherit; font-family: Roboto, sans-serif; font-size: 12px; font-weight: 200;" fill="rgb(50, 49, 63)" stroke="none" stroke-width="1px">100</text></g><line x1="41.171875" y1="0" x2="41.171875" y2="178" fill="rgb(0, 0, 0)" stroke="rgb(204, 204, 204)" stroke-width="1px"></line></g></g><g transform="translate(41, 0)" clip-path="url(#clip_0)"><clipPath id="clip_0"><rect width="288" height="178"></rect></clipPath><g><g><g><line x1="22.886083578275873" y1="0" x2="22.886083578275873" y2="178" fill="rgb(0, 0, 0)" stroke="rgb(60, 60, 60)" stroke-width="1px" opacity="0.25"></line><line x1="56.92480454242518" y1="0" x2="56.92480454242518" y2="178" fill="rgb(0, 0, 0)" stroke="rgb(60, 60, 60)" stroke-width="1px" opacity="0.25"></line><line x1="90.96352550657448" y1="0" x2="90.96352550657448" y2="178" fill="rgb(0, 0, 0)" stroke="rgb(60, 60, 60)" stroke-width="1px" opacity="0.25"></line><line x1="125.00224647072379" y1="0" x2="125.00224647072379" y2="178" fill="rgb(0, 0, 0)" stroke="rgb(60, 60, 60)" stroke-width="1px" opacity="0.25"></line><line x1="159.04096743487307" y1="0" x2="159.04096743487307" y2="178" fill="rgb(0, 0, 0)" stroke="rgb(60, 60, 60)" stroke-width="1px" opacity="0.25"></line><line x1="193.0796883990224" y1="0" x2="193.0796883990224" y2="178" fill="rgb(0, 0, 0)" stroke="rgb(60, 60, 60)" stroke-width="1px" opacity="0.25"></line><line x1="227.11840936317165" y1="0" x2="227.11840936317165" y2="178" fill="rgb(0, 0, 0)" stroke="rgb(60, 60, 60)" stroke-width="1px" opacity="0.25"></line><line x1="261.15713032732094" y1="0" x2="261.15713032732094" y2="178" fill="rgb(0, 0, 0)" stroke="rgb(60, 60, 60)" stroke-width="1px" opacity="0.25"></line></g><g><line x1="0" y1="167.74426982028035" x2="288.828125" y2="167.74426982028035" fill="rgb(0, 0, 0)" stroke="rgb(60, 60, 60)" stroke-width="1px" opacity="0.25"></line><line x1="0" y1="152.01114393887966" x2="288.828125" y2="152.01114393887966" fill="rgb(0, 0, 0)" stroke="rgb(60, 60, 60)" stroke-width="1px" opacity="0.25"></line><line x1="0" y1="136.27801805747893" x2="288.828125" y2="136.27801805747893" fill="rgb(0, 0, 0)" stroke="rgb(60, 60, 60)" stroke-width="1px" opacity="0.25"></line><line x1="0" y1="120.54489217607825" x2="288.828125" y2="120.54489217607825" fill="rgb(0, 0, 0)" stroke="rgb(60, 60, 60)" stroke-width="1px" opacity="0.25"></line><line x1="0" y1="104.81176629467757" x2="288.828125" y2="104.81176629467757" fill="rgb(0, 0, 0)" stroke="rgb(60, 60, 60)" stroke-width="1px" opacity="0.25"></line><line x1="0" y1="89.07864041327687" x2="288.828125" y2="89.07864041327687" fill="rgb(0, 0, 0)" stroke="rgb(60, 60, 60)" stroke-width="1px" opacity="0.25"></line><line x1="0" y1="73.34551453187618" x2="288.828125" y2="73.34551453187618" fill="rgb(0, 0, 0)" stroke="rgb(60, 60, 60)" stroke-width="1px" opacity="0.25"></line><line x1="0" y1="57.61238865047547" x2="288.828125" y2="57.61238865047547" fill="rgb(0, 0, 0)" stroke="rgb(60, 60, 60)" stroke-width="1px" opacity="0.25"></line><line x1="0" y1="41.87926276907478" x2="288.828125" y2="41.87926276907478" fill="rgb(0, 0, 0)" stroke="rgb(60, 60, 60)" stroke-width="1px" opacity="0.25"></line><line x1="0" y1="26.146136887674068" x2="288.828125" y2="26.146136887674068" fill="rgb(0, 0, 0)" stroke="rgb(60, 60, 60)" stroke-width="1px" opacity="0.25"></line><line x1="0" y1="10.413011006273376" x2="288.828125" y2="10.413011006273376" fill="rgb(0, 0, 0)" stroke="rgb(60, 60, 60)" stroke-width="1px" opacity="0.25"></line></g></g></g><g><g><line x1="0" y1="167.74426982028035" x2="288.828125" y2="167.74426982028035" fill="rgb(0, 0, 0)" stroke="rgb(153, 153, 153)" stroke-width="1.5px"></line></g></g><g><g><line x1="90.96352550657448" y1="0" x2="90.96352550657448" y2="178" fill="rgb(0, 0, 0)" stroke="rgb(153, 153, 153)" stroke-width="1.5px"></line></g></g><g><g><g><g><g><path stroke="rgb(0, 153, 136)" stroke-width="2px" d="M90.96352550657448,140.53357641649205L92.66546155478196,155.5916545760316L94.36739760298941,160.06546666427695L96.06933365119689,163.22981639424103L97.77126969940433,162.17447699234586L99.4732057476118,163.2032670744103L101.17514179581927,163.3974528162976L102.87707784402673,164.87944036553753L104.5790138922342,164.50758709149005L106.28094994044167,165.25424873215093L107.98288598864913,165.54700714190653L109.6848220368566,164.40337787901132L111.38675808506407,162.28048296712348L113.08869413327152,165.54243477571822L114.79063018147899,165.41046821147063L116.49256622968646,165.74825764812303L118.19450227789392,163.00655948848637L119.89643832610139,162.41755680007256L121.59837437430886,166.22101966235758L123.30031042251632,164.71781465727577L125.00224647072379,165.50194066740278L126.70418251893126,161.768562131545L128.40611856713872,143.46768850032944L130.10805461534616,160.60601378687798L131.80999066355363,164.11697434367872L133.5119267117611,164.87031701425715L135.21386275996858,163.72289335699153L136.91579880817605,160.85353561112726L138.61773485638352,157.75435246167626L140.31967090459096,161.08659406153106L142.02160695279844,164.82590135031472L143.7235430010059,165.68630423375862L145.42547904921338,165.1268012689045L147.12741509742082,165.69284309814145L148.82935114562832,163.24366421757867L150.53128719383577,147.21411269330858L152.2332232420432,144.84267304051406L153.9351592902507,146.1350965406192L155.63709533845815,145.20328285878992L157.33903138666562,150.8718721058894L159.04096743487307,155.06215135230389L160.74290348308057,161.14483991878444L162.444839531288,153.013192646354L164.1467755794955,34.222891758999744L165.84871162770295,27.132350080073493L167.5506476759104,107.61883865652513L169.25258372411787,150.03239475130218L170.95451977232534,156.81975398583722L172.6564558205328,158.03528206126202L174.35839186874026,155.50388630124795" style="fill: none;" fill="none"></path></g><g><path stroke="rgb(238, 51, 119)" stroke-width="2px" d="M90.96352550657448,128.0976406409471L92.66546155478196,151.14423726355287L94.36739760298941,160.35135892883432L96.06933365119689,162.90940416223523L97.77126969940433,163.9842487505143L99.4732057476118,165.05427959128156L101.17514179581927,165.2121330364831L102.87707784402673,165.24271400583123L104.5790138922342,165.16986129632335L106.28094994044167,165.98768691499532L107.98288598864913,166.5060335202107L109.6848220368566,166.38630688335212L111.38675808506407,165.43155447365615L113.08869413327152,165.36031566180816L114.79063018147899,166.90129796933064L116.49256622968646,167.41180277616627L118.19450227789392,166.96600954511126L119.89643832610139,162.4273155825292L121.59837437430886,165.58242042656053L123.30031042251632,166.90722437783802L125.00224647072379,167.4034968532663L126.70418251893126,167.18091943031055L128.40611856713872,164.43495625774415L130.10805461534616,158.02680464415252L131.80999066355363,164.28542962421093L133.5119267117611,166.7492938481579L135.21386275996858,167.22562922499154L136.91579880817605,166.03965291921602L138.61773485638352,151.21315641401125L140.31967090459096,155.40017898187065L142.02160695279844,165.34741142000766L143.7235430010059,166.98605704237065L145.42547904921338,167.26970602669147L147.12741509742082,167.59505495923452L148.82935114562832,167.66902743918698L150.53128719383577,166.7553070001479L152.2332232420432,149.99906274756992L153.9351592902507,144.32253773779928L155.63709533845815,157.64876960754023L157.33903138666562,165.50240730045078L159.04096743487307,164.15404766414767L160.74290348308057,167.17494064749502L162.444839531288,167.05342451603474L164.1467755794955,156.43609609601825L165.84871162770295,3.382102330108069L167.5506476759104,108.51324367227055L169.25258372411787,147.4554580064904L170.95451977232534,164.64685379967904L172.6564558205328,164.4360898309523L174.35839186874026,165.52880376419867" style="fill: none;" fill="none"></path></g></g></g></g></g></g><g transform="translate(41, 178)" clip-path="url(#clip_1)"><clipPath id="clip_1"><rect width="288" height="22"></rect></clipPath><g><g><line x1="22.886083578275873" y1="0" x2="22.886083578275873" y2="5" style="visibility: inherit;" fill="rgb(0, 0, 0)" stroke="rgb(204, 204, 204)" stroke-width="1px"></line><line x1="56.92480454242518" y1="0" x2="56.92480454242518" y2="5" style="visibility: inherit;" fill="rgb(0, 0, 0)" stroke="rgb(204, 204, 204)" stroke-width="1px"></line><line x1="90.96352550657448" y1="0" x2="90.96352550657448" y2="5" style="visibility: inherit;" fill="rgb(0, 0, 0)" stroke="rgb(204, 204, 204)" stroke-width="1px"></line><line x1="125.00224647072379" y1="0" x2="125.00224647072379" y2="5" style="visibility: inherit;" fill="rgb(0, 0, 0)" stroke="rgb(204, 204, 204)" stroke-width="1px"></line><line x1="159.04096743487307" y1="0" x2="159.04096743487307" y2="5" style="visibility: inherit;" fill="rgb(0, 0, 0)" stroke="rgb(204, 204, 204)" stroke-width="1px"></line><line x1="193.0796883990224" y1="0" x2="193.0796883990224" y2="5" style="visibility: inherit;" fill="rgb(0, 0, 0)" stroke="rgb(204, 204, 204)" stroke-width="1px"></line><line x1="227.11840936317165" y1="0" x2="227.11840936317165" y2="5" style="visibility: inherit;" fill="rgb(0, 0, 0)" stroke="rgb(204, 204, 204)" stroke-width="1px"></line><line x1="261.15713032732094" y1="0" x2="261.15713032732094" y2="5" style="visibility: inherit;" fill="rgb(0, 0, 0)" stroke="rgb(204, 204, 204)" stroke-width="1px"></line></g><g transform="translate(0, 8)"><text x="22.886083578275873" y="0" dx="0em" dy="0.95em" style="text-anchor: middle; visibility: inherit; font-family: Roboto, sans-serif; font-size: 12px; font-weight: 200;" fill="rgb(50, 49, 63)" stroke="none" stroke-width="1px">-40</text><text x="56.92480454242518" y="0" dx="0em" dy="0.95em" style="text-anchor: middle; visibility: inherit; font-family: Roboto, sans-serif; font-size: 12px; font-weight: 200;" fill="rgb(50, 49, 63)" stroke="none" stroke-width="1px">-20</text><text x="90.96352550657448" y="0" dx="0em" dy="0.95em" style="text-anchor: middle; visibility: inherit; font-family: Roboto, sans-serif; font-size: 12px; font-weight: 200;" fill="rgb(50, 49, 63)" stroke="none" stroke-width="1px">0</text><text x="125.00224647072379" y="0" dx="0em" dy="0.95em" style="text-anchor: middle; visibility: inherit; font-family: Roboto, sans-serif; font-size: 12px; font-weight: 200;" fill="rgb(50, 49, 63)" stroke="none" stroke-width="1px">20</text><text x="159.04096743487307" y="0" dx="0em" dy="0.95em" style="text-anchor: middle; visibility: inherit; font-family: Roboto, sans-serif; font-size: 12px; font-weight: 200;" fill="rgb(50, 49, 63)" stroke="none" stroke-width="1px">40</text><text x="193.0796883990224" y="0" dx="0em" dy="0.95em" style="text-anchor: middle; visibility: inherit; font-family: Roboto, sans-serif; font-size: 12px; font-weight: 200;" fill="rgb(50, 49, 63)" stroke="none" stroke-width="1px">60</text><text x="227.11840936317165" y="0" dx="0em" dy="0.95em" style="text-anchor: middle; visibility: inherit; font-family: Roboto, sans-serif; font-size: 12px; font-weight: 200;" fill="rgb(50, 49, 63)" stroke="none" stroke-width="1px">80</text><text x="261.15713032732094" y="0" dx="0em" dy="0.95em" style="text-anchor: middle; visibility: inherit; font-family: Roboto, sans-serif; font-size: 12px; font-weight: 200;" fill="rgb(50, 49, 63)" stroke="none" stroke-width="1px">100</text></g><line x1="0" y1="0" x2="288.828125" y2="0" fill="rgb(0, 0, 0)" stroke="rgb(204, 204, 204)" stroke-width="1px"></line></g></g></g></g></svg>