<svg viewBox="0 0 1112.2000732421875 400" xmlns="http://www.w3.org/2000/svg"><g><g><g><g><g><line x1="50" y1="377.82128887156296" x2="45" y2="377.82128887156296" style="visibility: inherit;" fill="rgb(0, 0, 0)" stroke="rgb(204, 204, 204)" stroke-width="1px"></line><line x1="50" y1="340.3612647489771" x2="45" y2="340.3612647489771" style="visibility: inherit;" fill="rgb(0, 0, 0)" stroke="rgb(204, 204, 204)" stroke-width="1px"></line><line x1="50" y1="302.9012406263915" x2="45" y2="302.9012406263915" style="visibility: inherit;" fill="rgb(0, 0, 0)" stroke="rgb(204, 204, 204)" stroke-width="1px"></line><line x1="50" y1="265.44121650380555" x2="45" y2="265.44121650380555" style="visibility: inherit;" fill="rgb(0, 0, 0)" stroke="rgb(204, 204, 204)" stroke-width="1px"></line><line x1="50" y1="227.98119238121964" x2="45" y2="227.98119238121964" style="visibility: inherit;" fill="rgb(0, 0, 0)" stroke="rgb(204, 204, 204)" stroke-width="1px"></line><line x1="50" y1="190.5211682586337" x2="45" y2="190.5211682586337" style="visibility: inherit;" fill="rgb(0, 0, 0)" stroke="rgb(204, 204, 204)" stroke-width="1px"></line><line x1="50" y1="153.06114413604777" x2="45" y2="153.06114413604777" style="visibility: inherit;" fill="rgb(0, 0, 0)" stroke="rgb(204, 204, 204)" stroke-width="1px"></line><line x1="50" y1="115.60112001346185" x2="45" y2="115.60112001346185" style="visibility: inherit;" fill="rgb(0, 0, 0)" stroke="rgb(204, 204, 204)" stroke-width="1px"></line><line x1="50" y1="78.14109589087593" x2="45" y2="78.14109589087593" style="visibility: inherit;" fill="rgb(0, 0, 0)" stroke="rgb(204, 204, 204)" stroke-width="1px"></line><line x1="50" y1="40.681071768289996" x2="45" y2="40.681071768289996" style="visibility: inherit;" fill="rgb(0, 0, 0)" stroke="rgb(204, 204, 204)" stroke-width="1px"></line><line x1="50" y1="3.2210476457040245" x2="45" y2="3.2210476457040245" style="visibility: inherit;" fill="rgb(0, 0, 0)" stroke="rgb(204, 204, 204)" stroke-width="1px"></line></g><g transform="translate(40, 0)"><text x="0" y="377.82128887156296" dx="0em" dy="0.3em" style="text-anchor: end; visibility: hidden; font-family: Roboto, sans-serif; font-size: 12px; font-weight: 200;" fill="rgb(50, 49, 63)" stroke="none" stroke-width="1px">0.8</text><text x="0" y="340.3612647489771" dx="0em" dy="0.3em" style="text-anchor: end; visibility: inherit; font-family: Roboto, sans-serif; font-size: 12px; font-weight: 200;" fill="rgb(50, 49, 63)" stroke="none" stroke-width="1px">0.81</text><text x="0" y="302.9012406263915" dx="0em" dy="0.3em" style="text-anchor: end; visibility: inherit; font-family: Roboto, sans-serif; font-size: 12px; font-weight: 200;" fill="rgb(50, 49, 63)" stroke="none" stroke-width="1px">0.82</text><text x="0" y="265.44121650380555" dx="0em" dy="0.3em" style="text-anchor: end; visibility: inherit; font-family: Roboto, sans-serif; font-size: 12px; font-weight: 200;" fill="rgb(50, 49, 63)" stroke="none" stroke-width="1px">0.83</text><text x="0" y="227.98119238121964" dx="0em" dy="0.3em" style="text-anchor: end; visibility: inherit; font-family: Roboto, sans-serif; font-size: 12px; font-weight: 200;" fill="rgb(50, 49, 63)" stroke="none" stroke-width="1px">0.84</text><text x="0" y="190.5211682586337" dx="0em" dy="0.3em" style="text-anchor: end; visibility: inherit; font-family: Roboto, sans-serif; font-size: 12px; font-weight: 200;" fill="rgb(50, 49, 63)" stroke="none" stroke-width="1px">0.85</text><text x="0" y="153.06114413604777" dx="0em" dy="0.3em" style="text-anchor: end; visibility: inherit; font-family: Roboto, sans-serif; font-size: 12px; font-weight: 200;" fill="rgb(50, 49, 63)" stroke="none" stroke-width="1px">0.86</text><text x="0" y="115.60112001346185" dx="0em" dy="0.3em" style="text-anchor: end; visibility: inherit; font-family: Roboto, sans-serif; font-size: 12px; font-weight: 200;" fill="rgb(50, 49, 63)" stroke="none" stroke-width="1px">0.87</text><text x="0" y="78.14109589087593" dx="0em" dy="0.3em" style="text-anchor: end; visibility: inherit; font-family: Roboto, sans-serif; font-size: 12px; font-weight: 200;" fill="rgb(50, 49, 63)" stroke="none" stroke-width="1px">0.88</text><text x="0" y="40.681071768289996" dx="0em" dy="0.3em" style="text-anchor: end; visibility: inherit; font-family: Roboto, sans-serif; font-size: 12px; font-weight: 200;" fill="rgb(50, 49, 63)" stroke="none" stroke-width="1px">0.89</text><text x="0" y="3.2210476457040245" dx="0em" dy="0.3em" style="text-anchor: end; visibility: hidden; font-family: Roboto, sans-serif; font-size: 12px; font-weight: 200;" fill="rgb(50, 49, 63)" stroke="none" stroke-width="1px">0.9</text></g><line x1="50" y1="0" x2="50" y2="378" fill="rgb(0, 0, 0)" stroke="rgb(204, 204, 204)" stroke-width="1px"></line></g></g><g transform="translate(50, 0)" clip-path="url(#clip_0)"><clipPath id="clip_0"><rect width="1062" height="378"></rect></clipPath><g><g><g><line x1="11.067882070752058" y1="0" x2="11.067882070752058" y2="378" fill="rgb(0, 0, 0)" stroke="rgb(60, 60, 60)" stroke-width="1px" opacity="0.25"></line><line x1="116.33253186707601" y1="0" x2="116.33253186707601" y2="378" fill="rgb(0, 0, 0)" stroke="rgb(60, 60, 60)" stroke-width="1px" opacity="0.25"></line><line x1="221.5971816634" y1="0" x2="221.5971816634" y2="378" fill="rgb(0, 0, 0)" stroke="rgb(60, 60, 60)" stroke-width="1px" opacity="0.25"></line><line x1="326.86183145972393" y1="0" x2="326.86183145972393" y2="378" fill="rgb(0, 0, 0)" stroke="rgb(60, 60, 60)" stroke-width="1px" opacity="0.25"></line><line x1="432.12648125604784" y1="0" x2="432.12648125604784" y2="378" fill="rgb(0, 0, 0)" stroke="rgb(60, 60, 60)" stroke-width="1px" opacity="0.25"></line><line x1="537.3911310523717" y1="0" x2="537.3911310523717" y2="378" fill="rgb(0, 0, 0)" stroke="rgb(60, 60, 60)" stroke-width="1px" opacity="0.25"></line><line x1="642.6557808486957" y1="0" x2="642.6557808486957" y2="378" fill="rgb(0, 0, 0)" stroke="rgb(60, 60, 60)" stroke-width="1px" opacity="0.25"></line><line x1="747.9204306450197" y1="0" x2="747.9204306450197" y2="378" fill="rgb(0, 0, 0)" stroke="rgb(60, 60, 60)" stroke-width="1px" opacity="0.25"></line><line x1="853.1850804413438" y1="0" x2="853.1850804413438" y2="378" fill="rgb(0, 0, 0)" stroke="rgb(60, 60, 60)" stroke-width="1px" opacity="0.25"></line><line x1="958.4497302376676" y1="0" x2="958.4497302376676" y2="378" fill="rgb(0, 0, 0)" stroke="rgb(60, 60, 60)" stroke-width="1px" opacity="0.25"></line></g><g><line x1="0" y1="377.82128887156296" x2="1062.2" y2="377.82128887156296" fill="rgb(0, 0, 0)" stroke="rgb(60, 60, 60)" stroke-width="1px" opacity="0.25"></line><line x1="0" y1="340.3612647489771" x2="1062.2" y2="340.3612647489771" fill="rgb(0, 0, 0)" stroke="rgb(60, 60, 60)" stroke-width="1px" opacity="0.25"></line><line x1="0" y1="302.9012406263915" x2="1062.2" y2="302.9012406263915" fill="rgb(0, 0, 0)" stroke="rgb(60, 60, 60)" stroke-width="1px" opacity="0.25"></line><line x1="0" y1="265.44121650380555" x2="1062.2" y2="265.44121650380555" fill="rgb(0, 0, 0)" stroke="rgb(60, 60, 60)" stroke-width="1px" opacity="0.25"></line><line x1="0" y1="227.98119238121964" x2="1062.2" y2="227.98119238121964" fill="rgb(0, 0, 0)" stroke="rgb(60, 60, 60)" stroke-width="1px" opacity="0.25"></line><line x1="0" y1="190.5211682586337" x2="1062.2" y2="190.5211682586337" fill="rgb(0, 0, 0)" stroke="rgb(60, 60, 60)" stroke-width="1px" opacity="0.25"></line><line x1="0" y1="153.06114413604777" x2="1062.2" y2="153.06114413604777" fill="rgb(0, 0, 0)" stroke="rgb(60, 60, 60)" stroke-width="1px" opacity="0.25"></line><line x1="0" y1="115.60112001346185" x2="1062.2" y2="115.60112001346185" fill="rgb(0, 0, 0)" stroke="rgb(60, 60, 60)" stroke-width="1px" opacity="0.25"></line><line x1="0" y1="78.14109589087593" x2="1062.2" y2="78.14109589087593" fill="rgb(0, 0, 0)" stroke="rgb(60, 60, 60)" stroke-width="1px" opacity="0.25"></line><line x1="0" y1="40.681071768289996" x2="1062.2" y2="40.681071768289996" fill="rgb(0, 0, 0)" stroke="rgb(60, 60, 60)" stroke-width="1px" opacity="0.25"></line><line x1="0" y1="3.2210476457040245" x2="1062.2" y2="3.2210476457040245" fill="rgb(0, 0, 0)" stroke="rgb(60, 60, 60)" stroke-width="1px" opacity="0.25"></line></g></g></g><g><g><line x1="0" y1="3374.623218678435" x2="1062.2" y2="3374.623218678435" fill="rgb(0, 0, 0)" stroke="rgb(153, 153, 153)" stroke-width="1.5px"></line></g></g><g><g><line x1="11.067882070752058" y1="0" x2="11.067882070752058" y2="378" fill="rgb(0, 0, 0)" stroke="rgb(153, 153, 153)" stroke-width="1.5px"></line></g></g><g><g><g><g><g><path stroke="rgb(255, 112, 67)" stroke-width="2px" d="M11.067882070752058,270.179708997055L32.12081203001685,209.72889051219423L53.17374198928164,143.42793519869699L74.22667194854643,139.52791840598712L95.27960190781123,108.32756078516502L116.33253186707601,101.50236393856541L137.38546182634082,71.27706633570656L158.4383917856056,70.30200631774332L179.4913217448704,64.45186948910694L200.54425170413518,73.22696309248994L221.5971816634,65.42692950707018L242.65011162266475,65.42692950707018L263.70304158192954,71.27706633570656L284.75597154119436,68.35188628181682L305.80890150045917,64.45186948910694L326.86183145972393,62.501972732323566L347.9147614189887,62.501972732323566L368.96769137825345,63.476809471143696L390.02062133751826,66.40198952503344L411.0735512967831,64.45186948910694L432.12648125604784,63.476809471143696L453.1794112153126,67.37704954299669L474.23234117457747,66.40198952503344L495.28527113384223,63.476809471143696L516.338201093107,64.45186948910694L537.3911310523717,64.45186948910694L558.4440610116366,65.42692950707018L579.4969909709014,64.45186948910694L600.5499209301662,65.42692950707018L621.602850889431,65.42692950707018L642.6557808486957,65.42692950707018L663.7087108079605,65.42692950707018L684.7616407672253,65.42692950707018L705.81457072649,65.42692950707018L726.867500685755,65.42692950707018L747.9204306450197,65.42692950707018L768.9733606042845,65.42692950707018L790.0262905635493,65.42692950707018L811.079220522814,64.45186948910694L832.1321504820788,65.42692950707018L853.1850804413438,65.42692950707018L874.2380104006085,65.42692950707018L895.2909403598733,65.42692950707018L916.343870319138,65.42692950707018L937.3968002784028,65.42692950707018L958.4497302376676,65.42692950707018L979.5026601969324,65.42692950707018L1000.5555901561972,65.42692950707018L1021.6085201154619,65.42692950707018L1042.6614500747269,65.42692950707018" style="fill: none;" fill="none"></path></g><g><path stroke="rgb(51, 187, 238)" stroke-width="2px" d="M11.067882070752058,259.45471863688863L32.12081203001685,191.20364328746498L53.17374198928164,162.92824244138947L74.22667194854643,141.4780384419136L95.27960190781123,110.27745754194841L116.33253186707601,102.47742395652865L137.38546182634082,77.12697988519982L158.4383917856056,55.67677588572394L179.4913217448704,59.57679267843382L200.54425170413518,50.80169907505082L221.5971816634,54.7017158677607L242.65011162266475,55.67677588572394L263.70304158192954,44.95156224641445L284.75597154119436,51.776759093014064L305.80890150045917,53.726655849797446L326.86183145972393,57.62689592165044L347.9147614189887,50.80169907505082L368.96769137825345,53.726655849797446L390.02062133751826,48.851579039124324L411.0735512967831,54.7017158677607L432.12648125604784,49.82663905708757L453.1794112153126,48.851579039124324L474.23234117457747,49.82663905708757L495.28527113384223,44.95156224641445L516.338201093107,44.95156224641445L537.3911310523717,43.001665489631065L558.4440610116366,43.001665489631065L579.4969909709014,43.001665489631065L600.5499209301662,43.001665489631065L621.602850889431,43.97672550759431L642.6557808486957,43.97672550759431L663.7087108079605,43.001665489631065L684.7616407672253,43.97672550759431L705.81457072649,43.97672550759431L726.867500685755,43.97672550759431L747.9204306450197,43.97672550759431L768.9733606042845,43.97672550759431L790.0262905635493,43.97672550759431L811.079220522814,43.97672550759431L832.1321504820788,43.97672550759431L853.1850804413438,43.97672550759431L874.2380104006085,43.97672550759431L895.2909403598733,43.97672550759431L916.343870319138,43.97672550759431L937.3968002784028,43.97672550759431L958.4497302376676,43.97672550759431L979.5026601969324,43.97672550759431L1000.5555901561972,43.97672550759431L1021.6085201154619,43.97672550759431L1042.6614500747269,43.97672550759431" style="fill: none;" fill="none"></path></g><g><path stroke="rgb(0, 153, 136)" stroke-width="2px" d="M11.067882070752058,268.22981224027166L32.12081203001685,172.67839606273574L53.17374198928164,140.50297842395037L74.22667194854643,123.92762795600453L95.27960190781123,121.97773119922115L116.33253186707601,102.47742395652865L137.38546182634082,78.10203990316307L158.4383917856056,64.45186948910694L179.4913217448704,72.2519030745267L200.54425170413518,67.37704954299669L221.5971816634,58.601732660470574L242.65011162266475,58.601732660470574L263.70304158192954,57.62689592165044L284.75597154119436,62.501972732323566L305.80890150045917,57.62689592165044L326.86183145972393,66.40198952503344L347.9147614189887,70.30200631774332L368.96769137825345,65.42692950707018L390.02062133751826,65.42692950707018L411.0735512967831,63.476809471143696L432.12648125604784,61.526912714360314L453.1794112153126,63.476809471143696L474.23234117457747,59.57679267843382L495.28527113384223,57.62689592165044L516.338201093107,59.57679267843382L537.3911310523717,59.57679267843382L558.4440610116366,59.57679267843382L579.4969909709014,59.57679267843382L600.5499209301662,57.62689592165044L621.602850889431,57.62689592165044L642.6557808486957,57.62689592165044L663.7087108079605,57.62689592165044L684.7616407672253,57.62689592165044L705.81457072649,57.62689592165044L726.867500685755,57.62689592165044L747.9204306450197,57.62689592165044L768.9733606042845,57.62689592165044L790.0262905635493,57.62689592165044L811.079220522814,57.62689592165044L832.1321504820788,57.62689592165044L853.1850804413438,57.62689592165044L874.2380104006085,57.62689592165044L895.2909403598733,57.62689592165044L916.343870319138,57.62689592165044L937.3968002784028,57.62689592165044L958.4497302376676,57.62689592165044L979.5026601969324,57.62689592165044L1000.5555901561972,57.62689592165044L1021.6085201154619,57.62689592165044L1042.6614500747269,57.62689592165044" style="fill: none;" fill="none"></path></g><g><path stroke="rgb(238, 51, 119)" stroke-width="2px" d="M11.067882070752058,246.77938496165265L32.12081203001685,188.27868651271837L53.17374198928164,162.92824244138947L74.22667194854643,118.07771440651128L95.27960190781123,110.27745754194841L116.33253186707601,102.47742395652865L137.38546182634082,65.42692950707018L158.4383917856056,75.17708312841644L179.4913217448704,59.57679267843382L200.54425170413518,56.65183590368719L221.5971816634,54.7017158677607L242.65011162266475,52.751819110977316L263.70304158192954,50.80169907505082L284.75597154119436,45.92662226437769L305.80890150045917,49.82663905708757L326.86183145972393,49.82663905708757L347.9147614189887,49.82663905708757L368.96769137825345,48.851579039124324L390.02062133751826,48.851579039124324L411.0735512967831,44.95156224641445L432.12648125604784,44.95156224641445L453.1794112153126,43.001665489631065L474.23234117457747,44.95156224641445L495.28527113384223,44.95156224641445L516.338201093107,46.90168228234094L537.3911310523717,46.90168228234094L558.4440610116366,44.95156224641445L579.4969909709014,46.90168228234094L600.5499209301662,44.95156224641445L621.602850889431,44.95156224641445L642.6557808486957,44.95156224641445L663.7087108079605,45.92662226437769L684.7616407672253,45.92662226437769L705.81457072649,45.92662226437769L726.867500685755,45.92662226437769L747.9204306450197,45.92662226437769L768.9733606042845,45.92662226437769L790.0262905635493,45.92662226437769L811.079220522814,45.92662226437769L832.1321504820788,45.92662226437769L853.1850804413438,45.92662226437769L874.2380104006085,45.92662226437769L895.2909403598733,45.92662226437769L916.343870319138,45.92662226437769L937.3968002784028,45.92662226437769L958.4497302376676,45.92662226437769L979.5026601969324,45.92662226437769L1000.5555901561972,45.92662226437769L1021.6085201154619,45.92662226437769L1042.6614500747269,45.92662226437769" style="fill: none;" fill="none"></path></g><g><path stroke="rgb(0, 119, 187)" stroke-width="2px" d="M11.067882070752058,372.55632202119057L32.12081203001685,268.22981224027166L53.17374198928164,237.02923134030644L74.22667194854643,184.37866972000847L95.27960190781123,140.50297842395037L116.33253186707601,121.97773119922115L137.38546182634082,132.70294483853064L158.4383917856056,124.90268797396777L179.4913217448704,103.4524839744919L200.54425170413518,111.25251755991165L221.5971816634,113.20263759583814L242.65011162266475,108.32756078516502L263.70304158192954,117.10265438854802L284.75597154119436,113.20263759583814L305.80890150045917,102.47742395652865L326.86183145972393,103.4524839744919L347.9147614189887,109.30262080312826L368.96769137825345,110.27745754194841L390.02062133751826,112.2275775778749L411.0735512967831,110.27745754194841L432.12648125604784,109.30262080312826L453.1794112153126,111.25251755991165L474.23234117457747,111.25251755991165L495.28527113384223,111.25251755991165L516.338201093107,111.25251755991165L537.3911310523717,109.30262080312826L558.4440610116366,109.30262080312826L579.4969909709014,109.30262080312826L600.5499209301662,109.30262080312826L621.602850889431,107.35250076720178L642.6557808486957,107.35250076720178L663.7087108079605,110.27745754194841L684.7616407672253,110.27745754194841L705.81457072649,110.27745754194841L726.867500685755,109.30262080312826L747.9204306450197,109.30262080312826L768.9733606042845,109.30262080312826L790.0262905635493,109.30262080312826L811.079220522814,109.30262080312826L832.1321504820788,109.30262080312826L853.1850804413438,109.30262080312826L874.2380104006085,109.30262080312826L895.2909403598733,109.30262080312826L916.343870319138,109.30262080312826L937.3968002784028,110.27745754194841L958.4497302376676,110.27745754194841L979.5026601969324,109.30262080312826L1000.5555901561972,109.30262080312826L1021.6085201154619,109.30262080312826L1042.6614500747269,109.30262080312826" style="fill: none;" fill="none"></path></g><g><path stroke="rgb(204, 51, 17)" stroke-width="2px" d="M11.067882070752058,286.7550594650009L32.12081203001685,176.5784128554456L53.17374198928164,186.32856647679185L74.22667194854643,150.2531320452966L95.27960190781123,117.10265438854802L116.33253186707601,82.00205669587295L137.38546182634082,68.35188628181682L158.4383917856056,77.12697988519982L179.4913217448704,67.37704954299669L200.54425170413518,53.726655849797446L221.5971816634,51.776759093014064L242.65011162266475,64.45186948910694L263.70304158192954,56.65183590368719L284.75597154119436,56.65183590368719L305.80890150045917,51.776759093014064L326.86183145972393,54.7017158677607L347.9147614189887,55.67677588572394L368.96769137825345,51.776759093014064L390.02062133751826,49.82663905708757L411.0735512967831,49.82663905708757L432.12648125604784,49.82663905708757L453.1794112153126,48.851579039124324L474.23234117457747,49.82663905708757L495.28527113384223,49.82663905708757L516.338201093107,49.82663905708757L537.3911310523717,49.82663905708757L558.4440610116366,48.851579039124324L579.4969909709014,48.851579039124324L600.5499209301662,48.851579039124324L621.602850889431,48.851579039124324L642.6557808486957,49.82663905708757L663.7087108079605,48.851579039124324L684.7616407672253,48.851579039124324L705.81457072649,48.851579039124324L726.867500685755,48.851579039124324L747.9204306450197,48.851579039124324L768.9733606042845,48.851579039124324L790.0262905635493,48.851579039124324L811.079220522814,48.851579039124324L832.1321504820788,48.851579039124324L853.1850804413438,48.851579039124324L874.2380104006085,48.851579039124324L895.2909403598733,48.851579039124324L916.343870319138,48.851579039124324L937.3968002784028,48.851579039124324L958.4497302376676,48.851579039124324L979.5026601969324,48.851579039124324L1000.5555901561972,48.851579039124324L1021.6085201154619,48.851579039124324L1042.6614500747269,48.851579039124324" style="fill: none;" fill="none"></path></g></g></g></g></g></g><g transform="translate(50, 378)" clip-path="url(#clip_1)"><clipPath id="clip_1"><rect width="1062" height="22"></rect></clipPath><g><g><line x1="11.067882070752058" y1="0" x2="11.067882070752058" y2="5" style="visibility: inherit;" fill="rgb(0, 0, 0)" stroke="rgb(204, 204, 204)" stroke-width="1px"></line><line x1="116.33253186707601" y1="0" x2="116.33253186707601" y2="5" style="visibility: inherit;" fill="rgb(0, 0, 0)" stroke="rgb(204, 204, 204)" stroke-width="1px"></line><line x1="221.5971816634" y1="0" x2="221.5971816634" y2="5" style="visibility: inherit;" fill="rgb(0, 0, 0)" stroke="rgb(204, 204, 204)" stroke-width="1px"></line><line x1="326.86183145972393" y1="0" x2="326.86183145972393" y2="5" style="visibility: inherit;" fill="rgb(0, 0, 0)" stroke="rgb(204, 204, 204)" stroke-width="1px"></line><line x1="432.12648125604784" y1="0" x2="432.12648125604784" y2="5" style="visibility: inherit;" fill="rgb(0, 0, 0)" stroke="rgb(204, 204, 204)" stroke-width="1px"></line><line x1="537.3911310523717" y1="0" x2="537.3911310523717" y2="5" style="visibility: inherit;" fill="rgb(0, 0, 0)" stroke="rgb(204, 204, 204)" stroke-width="1px"></line><line x1="642.6557808486957" y1="0" x2="642.6557808486957" y2="5" style="visibility: inherit;" fill="rgb(0, 0, 0)" stroke="rgb(204, 204, 204)" stroke-width="1px"></line><line x1="747.9204306450197" y1="0" x2="747.9204306450197" y2="5" style="visibility: inherit;" fill="rgb(0, 0, 0)" stroke="rgb(204, 204, 204)" stroke-width="1px"></line><line x1="853.1850804413438" y1="0" x2="853.1850804413438" y2="5" style="visibility: inherit;" fill="rgb(0, 0, 0)" stroke="rgb(204, 204, 204)" stroke-width="1px"></line><line x1="958.4497302376676" y1="0" x2="958.4497302376676" y2="5" style="visibility: inherit;" fill="rgb(0, 0, 0)" stroke="rgb(204, 204, 204)" stroke-width="1px"></line></g><g transform="translate(0, 8)"><text x="11.067882070752058" y="0" dx="0em" dy="0.95em" style="text-anchor: middle; visibility: inherit; font-family: Roboto, sans-serif; font-size: 12px; font-weight: 200;" fill="rgb(50, 49, 63)" stroke="none" stroke-width="1px">0</text><text x="116.33253186707601" y="0" dx="0em" dy="0.95em" style="text-anchor: middle; visibility: inherit; font-family: Roboto, sans-serif; font-size: 12px; font-weight: 200;" fill="rgb(50, 49, 63)" stroke="none" stroke-width="1px">5</text><text x="221.5971816634" y="0" dx="0em" dy="0.95em" style="text-anchor: middle; visibility: inherit; font-family: Roboto, sans-serif; font-size: 12px; font-weight: 200;" fill="rgb(50, 49, 63)" stroke="none" stroke-width="1px">10</text><text x="326.86183145972393" y="0" dx="0em" dy="0.95em" style="text-anchor: middle; visibility: inherit; font-family: Roboto, sans-serif; font-size: 12px; font-weight: 200;" fill="rgb(50, 49, 63)" stroke="none" stroke-width="1px">15</text><text x="432.12648125604784" y="0" dx="0em" dy="0.95em" style="text-anchor: middle; visibility: inherit; font-family: Roboto, sans-serif; font-size: 12px; font-weight: 200;" fill="rgb(50, 49, 63)" stroke="none" stroke-width="1px">20</text><text x="537.3911310523717" y="0" dx="0em" dy="0.95em" style="text-anchor: middle; visibility: inherit; font-family: Roboto, sans-serif; font-size: 12px; font-weight: 200;" fill="rgb(50, 49, 63)" stroke="none" stroke-width="1px">25</text><text x="642.6557808486957" y="0" dx="0em" dy="0.95em" style="text-anchor: middle; visibility: inherit; font-family: Roboto, sans-serif; font-size: 12px; font-weight: 200;" fill="rgb(50, 49, 63)" stroke="none" stroke-width="1px">30</text><text x="747.9204306450197" y="0" dx="0em" dy="0.95em" style="text-anchor: middle; visibility: inherit; font-family: Roboto, sans-serif; font-size: 12px; font-weight: 200;" fill="rgb(50, 49, 63)" stroke="none" stroke-width="1px">35</text><text x="853.1850804413438" y="0" dx="0em" dy="0.95em" style="text-anchor: middle; visibility: inherit; font-family: Roboto, sans-serif; font-size: 12px; font-weight: 200;" fill="rgb(50, 49, 63)" stroke="none" stroke-width="1px">40</text><text x="958.4497302376676" y="0" dx="0em" dy="0.95em" style="text-anchor: middle; visibility: inherit; font-family: Roboto, sans-serif; font-size: 12px; font-weight: 200;" fill="rgb(50, 49, 63)" stroke="none" stroke-width="1px">45</text></g><line x1="0" y1="0" x2="1062.2" y2="0" fill="rgb(0, 0, 0)" stroke="rgb(204, 204, 204)" stroke-width="1px"></line></g></g></g></g></svg>