<svg viewBox="0 0 1112.2000732421875 400" xmlns="http://www.w3.org/2000/svg"><g><g><g><g><g><line x1="50" y1="347.1797022529989" x2="45" y2="347.1797022529989" style="visibility: inherit;" fill="rgb(0, 0, 0)" stroke="rgb(204, 204, 204)" stroke-width="1px"></line><line x1="50" y1="306.3142213919962" x2="45" y2="306.3142213919962" style="visibility: inherit;" fill="rgb(0, 0, 0)" stroke="rgb(204, 204, 204)" stroke-width="1px"></line><line x1="50" y1="265.44874053099363" x2="45" y2="265.44874053099363" style="visibility: inherit;" fill="rgb(0, 0, 0)" stroke="rgb(204, 204, 204)" stroke-width="1px"></line><line x1="50" y1="224.583259669991" x2="45" y2="224.583259669991" style="visibility: inherit;" fill="rgb(0, 0, 0)" stroke="rgb(204, 204, 204)" stroke-width="1px"></line><line x1="50" y1="183.71777880898836" x2="45" y2="183.71777880898836" style="visibility: inherit;" fill="rgb(0, 0, 0)" stroke="rgb(204, 204, 204)" stroke-width="1px"></line><line x1="50" y1="142.85229794798573" x2="45" y2="142.85229794798573" style="visibility: inherit;" fill="rgb(0, 0, 0)" stroke="rgb(204, 204, 204)" stroke-width="1px"></line><line x1="50" y1="101.98681708698318" x2="45" y2="101.98681708698318" style="visibility: inherit;" fill="rgb(0, 0, 0)" stroke="rgb(204, 204, 204)" stroke-width="1px"></line><line x1="50" y1="61.12133622598051" x2="45" y2="61.12133622598051" style="visibility: inherit;" fill="rgb(0, 0, 0)" stroke="rgb(204, 204, 204)" stroke-width="1px"></line><line x1="50" y1="20.255855364977958" x2="45" y2="20.255855364977958" style="visibility: inherit;" fill="rgb(0, 0, 0)" stroke="rgb(204, 204, 204)" stroke-width="1px"></line></g><g transform="translate(40, 0)"><text x="0" y="347.1797022529989" dx="0em" dy="0.3em" style="text-anchor: end; visibility: inherit; font-family: Roboto, sans-serif; font-size: 12px; font-weight: 200;" fill="rgb(50, 49, 63)" stroke="none" stroke-width="1px">0.2</text><text x="0" y="306.3142213919962" dx="0em" dy="0.3em" style="text-anchor: end; visibility: inherit; font-family: Roboto, sans-serif; font-size: 12px; font-weight: 200;" fill="rgb(50, 49, 63)" stroke="none" stroke-width="1px">0.25</text><text x="0" y="265.44874053099363" dx="0em" dy="0.3em" style="text-anchor: end; visibility: inherit; font-family: Roboto, sans-serif; font-size: 12px; font-weight: 200;" fill="rgb(50, 49, 63)" stroke="none" stroke-width="1px">0.3</text><text x="0" y="224.583259669991" dx="0em" dy="0.3em" style="text-anchor: end; visibility: inherit; font-family: Roboto, sans-serif; font-size: 12px; font-weight: 200;" fill="rgb(50, 49, 63)" stroke="none" stroke-width="1px">0.35</text><text x="0" y="183.71777880898836" dx="0em" dy="0.3em" style="text-anchor: end; visibility: inherit; font-family: Roboto, sans-serif; font-size: 12px; font-weight: 200;" fill="rgb(50, 49, 63)" stroke="none" stroke-width="1px">0.4</text><text x="0" y="142.85229794798573" dx="0em" dy="0.3em" style="text-anchor: end; visibility: inherit; font-family: Roboto, sans-serif; font-size: 12px; font-weight: 200;" fill="rgb(50, 49, 63)" stroke="none" stroke-width="1px">0.45</text><text x="0" y="101.98681708698318" dx="0em" dy="0.3em" style="text-anchor: end; visibility: inherit; font-family: Roboto, sans-serif; font-size: 12px; font-weight: 200;" fill="rgb(50, 49, 63)" stroke="none" stroke-width="1px">0.5</text><text x="0" y="61.12133622598051" dx="0em" dy="0.3em" style="text-anchor: end; visibility: inherit; font-family: Roboto, sans-serif; font-size: 12px; font-weight: 200;" fill="rgb(50, 49, 63)" stroke="none" stroke-width="1px">0.55</text><text x="0" y="20.255855364977958" dx="0em" dy="0.3em" style="text-anchor: end; visibility: inherit; font-family: Roboto, sans-serif; font-size: 12px; font-weight: 200;" fill="rgb(50, 49, 63)" stroke="none" stroke-width="1px">0.6</text></g><line x1="50" y1="0" x2="50" y2="378" fill="rgb(0, 0, 0)" stroke="rgb(204, 204, 204)" stroke-width="1px"></line></g></g><g transform="translate(50, 0)" clip-path="url(#clip_0)"><clipPath id="clip_0"><rect width="1062" height="378"></rect></clipPath><g><g><g><line x1="15.122111300200448" y1="0" x2="15.122111300200448" y2="378" fill="rgb(0, 0, 0)" stroke="rgb(60, 60, 60)" stroke-width="1px" opacity="0.25"></line><line x1="120.38676109652462" y1="0" x2="120.38676109652462" y2="378" fill="rgb(0, 0, 0)" stroke="rgb(60, 60, 60)" stroke-width="1px" opacity="0.25"></line><line x1="225.6514108928488" y1="0" x2="225.6514108928488" y2="378" fill="rgb(0, 0, 0)" stroke="rgb(60, 60, 60)" stroke-width="1px" opacity="0.25"></line><line x1="330.916060689173" y1="0" x2="330.916060689173" y2="378" fill="rgb(0, 0, 0)" stroke="rgb(60, 60, 60)" stroke-width="1px" opacity="0.25"></line><line x1="436.1807104854971" y1="0" x2="436.1807104854971" y2="378" fill="rgb(0, 0, 0)" stroke="rgb(60, 60, 60)" stroke-width="1px" opacity="0.25"></line><line x1="541.4453602818213" y1="0" x2="541.4453602818213" y2="378" fill="rgb(0, 0, 0)" stroke="rgb(60, 60, 60)" stroke-width="1px" opacity="0.25"></line><line x1="646.7100100781454" y1="0" x2="646.7100100781454" y2="378" fill="rgb(0, 0, 0)" stroke="rgb(60, 60, 60)" stroke-width="1px" opacity="0.25"></line><line x1="751.9746598744695" y1="0" x2="751.9746598744695" y2="378" fill="rgb(0, 0, 0)" stroke="rgb(60, 60, 60)" stroke-width="1px" opacity="0.25"></line><line x1="857.2393096707937" y1="0" x2="857.2393096707937" y2="378" fill="rgb(0, 0, 0)" stroke="rgb(60, 60, 60)" stroke-width="1px" opacity="0.25"></line><line x1="962.5039594671179" y1="0" x2="962.5039594671179" y2="378" fill="rgb(0, 0, 0)" stroke="rgb(60, 60, 60)" stroke-width="1px" opacity="0.25"></line></g><g><line x1="0" y1="347.1797022529989" x2="1062.2" y2="347.1797022529989" fill="rgb(0, 0, 0)" stroke="rgb(60, 60, 60)" stroke-width="1px" opacity="0.25"></line><line x1="0" y1="306.3142213919962" x2="1062.2" y2="306.3142213919962" fill="rgb(0, 0, 0)" stroke="rgb(60, 60, 60)" stroke-width="1px" opacity="0.25"></line><line x1="0" y1="265.44874053099363" x2="1062.2" y2="265.44874053099363" fill="rgb(0, 0, 0)" stroke="rgb(60, 60, 60)" stroke-width="1px" opacity="0.25"></line><line x1="0" y1="224.583259669991" x2="1062.2" y2="224.583259669991" fill="rgb(0, 0, 0)" stroke="rgb(60, 60, 60)" stroke-width="1px" opacity="0.25"></line><line x1="0" y1="183.71777880898836" x2="1062.2" y2="183.71777880898836" fill="rgb(0, 0, 0)" stroke="rgb(60, 60, 60)" stroke-width="1px" opacity="0.25"></line><line x1="0" y1="142.85229794798573" x2="1062.2" y2="142.85229794798573" fill="rgb(0, 0, 0)" stroke="rgb(60, 60, 60)" stroke-width="1px" opacity="0.25"></line><line x1="0" y1="101.98681708698318" x2="1062.2" y2="101.98681708698318" fill="rgb(0, 0, 0)" stroke="rgb(60, 60, 60)" stroke-width="1px" opacity="0.25"></line><line x1="0" y1="61.12133622598051" x2="1062.2" y2="61.12133622598051" fill="rgb(0, 0, 0)" stroke="rgb(60, 60, 60)" stroke-width="1px" opacity="0.25"></line><line x1="0" y1="20.255855364977958" x2="1062.2" y2="20.255855364977958" fill="rgb(0, 0, 0)" stroke="rgb(60, 60, 60)" stroke-width="1px" opacity="0.25"></line></g></g></g><g><g><line x1="0" y1="510.6416256970094" x2="1062.2" y2="510.6416256970094" fill="rgb(0, 0, 0)" stroke="rgb(153, 153, 153)" stroke-width="1.5px"></line></g></g><g><g><line x1="15.122111300200448" y1="0" x2="15.122111300200448" y2="378" fill="rgb(0, 0, 0)" stroke="rgb(153, 153, 153)" stroke-width="1.5px"></line></g></g><g><g><g><g><g><path stroke="rgb(255, 112, 67)" stroke-width="2px" d="M15.122111300200448,142.0400993608556L36.175041259465274,176.15881687265045L57.22797121873011,220.42815335763282L78.28090117799495,213.04513213836924L99.33383113725979,237.7872948103119L120.38676109652462,230.72080222356325L141.43969105578947,244.786998515925L162.49262101505428,239.96899185423095L183.54555097431913,234.34474450486903L204.59848093358394,233.0132781994313L225.6514108928488,232.46425508462676L246.7043408521136,228.85870288547167L267.7572708113785,229.27975051468695L288.8102007706433,232.20827975572334L309.8631307299081,230.76535250204498L330.916060689173,230.29505355348027L351.9689906484378,229.44090122132172L373.0219206077026,229.24852391161775L394.0748505669674,229.44667400207632L415.1277805262323,228.36073356164445L436.1807104854971,228.60126609308617L457.23364044476193,227.79078716131997L478.2865704040268,227.39765348461424L499.3395003632916,227.4664153414507L520.3924303225565,227.1100618290465L541.4453602818213,227.16649867718326L562.498290241086,226.8276827265651L583.5512202003509,227.02651483331536L604.6041501596158,227.155610774241L625.6570801188806,227.2126565654953L646.7100100781454,227.18401188124466L667.7629400374102,227.2276365661876L688.815869996675,227.17914033630407L709.8687999559398,227.18223376734133L730.9217299152047,227.1769237833561L751.9746598744695,227.14075256217222L773.0275898337344,227.14416264363064L794.0805197929991,227.15171353828853L815.133449752264,227.1545146766294L836.1863797115287,227.1391693100665L857.2393096707937,227.1299133746794L878.2922396300585,227.13288501709317L899.3451695893233,227.1317645617568L920.3980995485881,227.13210556990262L941.451029507853,227.13137483816158L962.5039594671179,227.13273887074493L983.5568894263827,227.13266579757084L1004.6098193856476,227.13276322846963L1025.6627493449123,227.13261708212144L1046.7156793041772,227.13271451302023" style="fill: none;" fill="none"></path></g><g><path stroke="rgb(51, 187, 238)" stroke-width="2px" d="M15.122111300200448,124.15276064799293L36.175041259465274,177.29831994970414L57.22797121873011,202.81744532422164L78.28090117799495,211.44974988577508L99.33383113725979,232.58959993594812L120.38676109652462,226.04828425151993L141.43969105578947,236.3958597866555L162.49262101505428,239.2024542578289L183.54555097431913,237.3979365809351L204.59848093358394,231.77722110165516L225.6514108928488,230.64256521181736L246.7043408521136,232.0108603970059L267.7572708113785,228.5103143490453L288.8102007706433,227.89058075942796L309.8631307299081,226.9612604888361L330.916060689173,227.68746169313007L351.9689906484378,228.7598348809024L373.0219206077026,228.16370392652223L394.0748505669674,228.14024743763326L415.1277805262323,227.50662994493527L436.1807104854971,227.21185276058011L457.23364044476193,227.37439185752294L478.2865704040268,226.7738521549716L499.3395003632916,226.7605284795591L520.3924303225565,226.94255375626423L541.4453602818213,226.77365729317395L562.498290241086,226.7321517302801L583.5512202003509,226.66526541824578L604.6041501596158,226.71646535557142L625.6570801188806,226.728303209777L646.7100100781454,226.70224044434488L667.7629400374102,226.67571488214335L688.815869996675,226.63369780703073L709.8687999559398,226.6323581321721L730.9217299152047,226.6118976434216L751.9746598744695,226.6065633017117L773.0275898337344,226.61438213134133L794.0805197929991,226.61240915564042L815.133449752264,226.6059787163188L836.1863797115287,226.60083923640647L857.2393096707937,226.5969907159034L878.2922396300585,226.59496902475308L899.3451695893233,226.59333705719797L920.3980995485881,226.59272811408042L941.451029507853,226.59248453683335L962.5039594671179,226.59319091084973L983.5568894263827,226.5928011872545L1004.6098193856476,226.59226531731102L1025.6627493449123,226.5926063254569L1046.7156793041772,226.59253325228278" style="fill: none;" fill="none"></path></g><g><path stroke="rgb(0, 153, 136)" stroke-width="2px" d="M15.122111300200448,125.56472923357389L36.175041259465274,191.0492542112355L57.22797121873011,216.09423211668528L78.28090117799495,224.6323453568124L99.33383113725979,216.44690761265937L120.38676109652462,236.00236074407925L141.43969105578947,235.63377965387417L162.49262101505428,238.65408880159129L183.54555097431913,233.05782847791306L204.59848093358394,235.48546546815783L225.6514108928488,236.2958713267499L246.7043408521136,236.86969060530214L267.7572708113785,236.16377938568576L288.8102007706433,234.16118469150754L309.8631307299081,233.0757557632944L330.916060689173,233.58802307152226L351.9689906484378,231.50775159326633L373.0219206077026,232.2657152705729L394.0748505669674,232.345413745801L415.1277805262323,231.93328104382698L436.1807104854971,231.61480379333585L457.23364044476193,231.5574413516604L478.2865704040268,231.67676984498019L499.3395003632916,231.5949278899782L520.3924303225565,231.4189189712747L541.4453602818213,231.43421562238814L562.498290241086,231.27235854173693L583.5512202003509,231.3262865442293L604.6041501596158,231.2681446553634L625.6570801188806,231.28731418470457L646.7100100781454,231.36245776541318L667.7629400374102,231.26502686660137L688.815869996675,231.26804722446457L709.8687999559398,231.28699753428347L730.9217299152047,231.27625577768944L751.9746598744695,231.26829080171154L773.0275898337344,231.2683882326104L794.0805197929991,231.2715790945465L815.133449752264,231.27542761504955L836.1863797115287,231.2682664439869L857.2393096707937,231.26429613486033L878.2922396300585,231.26536787474723L899.3451695893233,231.268095939914L920.3980995485881,231.2682664439869L941.451029507853,231.2650755820508L962.5039594671179,231.26736520817286L983.5568894263827,231.26836387488572L1004.6098193856476,231.2690702489021L1025.6627493449123,231.27016634651372L1046.7156793041772,231.27019070423842" style="fill: none;" fill="none"></path></g><g><path stroke="rgb(238, 51, 119)" stroke-width="2px" d="M15.122111300200448,127.54345335754323L36.175041259465274,181.35505028353205L57.22797121873011,186.9971518451012L78.28090117799495,216.6465678820495L99.33383113725979,234.20534524639402L120.38676109652462,230.02397643526106L141.43969105578947,234.8275146084816L162.49262101505428,234.62361609499314L183.54555097431913,235.46286149963348L204.59848093358394,232.05226852900094L225.6514108928488,230.6636833591348L246.7043408521136,234.1031158758157L267.7572708113785,232.57837102486008L288.8102007706433,231.98421304618083L309.8631307299081,231.1321798360715L330.916060689173,230.24760470575893L351.9689906484378,229.68026458197767L373.0219206077026,231.50085835717542L394.0748505669674,230.58644501410174L415.1277805262323,230.7228482724383L436.1807104854971,230.09356645473744L457.23364044476193,230.62281109708326L478.2865704040268,230.63228625199267L499.3395003632916,230.42446614482708L520.3924303225565,230.07546866528313L541.4453602818213,230.037348826123L562.498290241086,230.06117068088247L583.5512202003509,229.89144605515233L604.6041501596158,229.86038995615604L625.6570801188806,229.92481613799532L646.7100100781454,229.98975383205342L667.7629400374102,229.97070609133576L688.815869996675,230.0068042393455L709.8687999559398,230.0293351346957L730.9217299152047,230.00256599524715L751.9746598744695,229.9936510680059L773.0275898337344,229.98549123023042L794.0805197929991,229.9891205312111L815.133449752264,229.98841415719474L836.1863797115287,229.9837374740518L857.2393096707937,229.98483357166342L878.2922396300585,229.98497971801166L899.3451695893233,229.98758599455488L920.3980995485881,229.98992433612634L941.451029507853,229.99082557194038L962.5039594671179,229.99007048247458L983.5568894263827,229.99114222236147L1004.6098193856476,229.99155630368142L1025.6627493449123,229.99123965326032L1046.7156793041772,229.99148323050736" style="fill: none;" fill="none"></path></g><g><path stroke="rgb(0, 119, 187)" stroke-width="2px" d="M15.122111300200448,62.457786121892475L36.175041259465274,145.9148044179783L57.22797121873011,160.0160027607382L78.28090117799495,187.2606780686625L99.33383113725979,195.18529329669624L120.38676109652462,210.61403635121664L141.43969105578947,204.35373573668647L162.49262101505428,194.4524911490078L183.54555097431913,199.0249232302467L204.59848093358394,200.51132902251987L225.6514108928488,201.6975745732785L246.7043408521136,205.5585418736688L267.7572708113785,199.5596727183754L288.8102007706433,201.14243766957347L309.8631307299081,198.51950044266033L330.916060689173,200.9440683595926L351.9689906484378,200.59935783959637L373.0219206077026,197.8548755664155L394.0748505669674,198.21780566448953L415.1277805262323,199.58639314237453L436.1807104854971,199.38631879166445L457.23364044476193,199.53475476600428L478.2865704040268,198.38399842013783L499.3395003632916,198.40265643726028L520.3924303225565,198.2417736655973L541.4453602818213,198.74434659939334L562.498290241086,199.02616547420655L583.5512202003509,199.20685107605306L604.6041501596158,199.15779461850133L625.6570801188806,199.32140545533105L646.7100100781454,199.37333612439778L667.7629400374102,199.14671185376147L688.815869996675,199.19786307563768L709.8687999559398,199.2573933548117L730.9217299152047,199.26107137124183L751.9746598744695,199.28265231532868L773.0275898337344,199.28701234805052L794.0805197929991,199.27415146940731L815.133449752264,199.26448145270024L836.1863797115287,199.28369969749093L857.2393096707937,199.27113111154418L878.2922396300585,199.26935299764085L899.3451695893233,199.26945042853967L920.3980995485881,199.26774538781046L941.451029507853,199.26643007067648L962.5039594671179,199.2672582333164L983.5568894263827,199.26881712769736L1004.6098193856476,199.26932863991618L1025.6627493449123,199.26981579441025L1046.7156793041772,199.26986450985962" style="fill: none;" fill="none"></path></g><g><path stroke="rgb(204, 51, 17)" stroke-width="2px" d="M15.122111300200448,91.2076470278359L36.175041259465274,205.75308702087125L57.22797121873011,184.93865617272968L78.28090117799495,207.61630681429918L99.33383113725979,226.3242816301291L120.38676109652462,246.6928930430325L141.43969105578947,246.22632082634738L162.49262101505428,244.39471735958386L183.54555097431913,240.23439362259433L204.59848093358394,240.28116045402405L225.6514108928488,245.3194096624822L246.7043408521136,243.75337846815506L267.7572708113785,242.7599973815944L288.8102007706433,240.66630479702715L309.8631307299081,242.27820158696997L330.916060689173,240.9558207128465L351.9689906484378,240.0718788833762L373.0219206077026,241.01934565887177L394.0748505669674,240.63481025898625L415.1277805262323,240.43856007105452L436.1807104854971,239.75391314510384L457.23364044476193,239.48074126256017L478.2865704040268,239.01572794025606L499.3395003632916,238.83367830582614L520.3924303225565,239.0169458264912L541.4453602818213,238.93729606671255L562.498290241086,238.91936878133117L583.5512202003509,238.855746404407L604.6041501596158,238.86833934807845L625.6570801188806,238.83204633827106L646.7100100781454,238.74438288706511L667.7629400374102,238.77665687229654L688.815869996675,238.77341729491107L709.8687999559398,238.78362318156158L730.9217299152047,238.75882701781396L751.9746598744695,238.7574142697812L773.0275898337344,238.75624509899546L794.0805197929991,238.76250503424413L815.133449752264,238.77112766878898L836.1863797115287,238.7756582055837L857.2393096707937,238.77992080740677L878.2922396300585,238.77892214069388L899.3451695893233,238.78087075867012L920.3980995485881,238.7805053927996L941.451029507853,238.77996952285613L962.5039594671179,238.78040796190083L983.5568894263827,238.78104126274303L1004.6098193856476,238.78072461232193L1025.6627493449123,238.78091947411954L1046.7156793041772,238.78128483999012" style="fill: none;" fill="none"></path></g></g></g></g></g></g><g transform="translate(50, 378)" clip-path="url(#clip_1)"><clipPath id="clip_1"><rect width="1062" height="22"></rect></clipPath><g><g><line x1="15.122111300200448" y1="0" x2="15.122111300200448" y2="5" style="visibility: inherit;" fill="rgb(0, 0, 0)" stroke="rgb(204, 204, 204)" stroke-width="1px"></line><line x1="120.38676109652462" y1="0" x2="120.38676109652462" y2="5" style="visibility: inherit;" fill="rgb(0, 0, 0)" stroke="rgb(204, 204, 204)" stroke-width="1px"></line><line x1="225.6514108928488" y1="0" x2="225.6514108928488" y2="5" style="visibility: inherit;" fill="rgb(0, 0, 0)" stroke="rgb(204, 204, 204)" stroke-width="1px"></line><line x1="330.916060689173" y1="0" x2="330.916060689173" y2="5" style="visibility: inherit;" fill="rgb(0, 0, 0)" stroke="rgb(204, 204, 204)" stroke-width="1px"></line><line x1="436.1807104854971" y1="0" x2="436.1807104854971" y2="5" style="visibility: inherit;" fill="rgb(0, 0, 0)" stroke="rgb(204, 204, 204)" stroke-width="1px"></line><line x1="541.4453602818213" y1="0" x2="541.4453602818213" y2="5" style="visibility: inherit;" fill="rgb(0, 0, 0)" stroke="rgb(204, 204, 204)" stroke-width="1px"></line><line x1="646.7100100781454" y1="0" x2="646.7100100781454" y2="5" style="visibility: inherit;" fill="rgb(0, 0, 0)" stroke="rgb(204, 204, 204)" stroke-width="1px"></line><line x1="751.9746598744695" y1="0" x2="751.9746598744695" y2="5" style="visibility: inherit;" fill="rgb(0, 0, 0)" stroke="rgb(204, 204, 204)" stroke-width="1px"></line><line x1="857.2393096707937" y1="0" x2="857.2393096707937" y2="5" style="visibility: inherit;" fill="rgb(0, 0, 0)" stroke="rgb(204, 204, 204)" stroke-width="1px"></line><line x1="962.5039594671179" y1="0" x2="962.5039594671179" y2="5" style="visibility: inherit;" fill="rgb(0, 0, 0)" stroke="rgb(204, 204, 204)" stroke-width="1px"></line></g><g transform="translate(0, 8)"><text x="15.122111300200448" y="0" dx="0em" dy="0.95em" style="text-anchor: middle; visibility: inherit; font-family: Roboto, sans-serif; font-size: 12px; font-weight: 200;" fill="rgb(50, 49, 63)" stroke="none" stroke-width="1px">0</text><text x="120.38676109652462" y="0" dx="0em" dy="0.95em" style="text-anchor: middle; visibility: inherit; font-family: Roboto, sans-serif; font-size: 12px; font-weight: 200;" fill="rgb(50, 49, 63)" stroke="none" stroke-width="1px">5</text><text x="225.6514108928488" y="0" dx="0em" dy="0.95em" style="text-anchor: middle; visibility: inherit; font-family: Roboto, sans-serif; font-size: 12px; font-weight: 200;" fill="rgb(50, 49, 63)" stroke="none" stroke-width="1px">10</text><text x="330.916060689173" y="0" dx="0em" dy="0.95em" style="text-anchor: middle; visibility: inherit; font-family: Roboto, sans-serif; font-size: 12px; font-weight: 200;" fill="rgb(50, 49, 63)" stroke="none" stroke-width="1px">15</text><text x="436.1807104854971" y="0" dx="0em" dy="0.95em" style="text-anchor: middle; visibility: inherit; font-family: Roboto, sans-serif; font-size: 12px; font-weight: 200;" fill="rgb(50, 49, 63)" stroke="none" stroke-width="1px">20</text><text x="541.4453602818213" y="0" dx="0em" dy="0.95em" style="text-anchor: middle; visibility: inherit; font-family: Roboto, sans-serif; font-size: 12px; font-weight: 200;" fill="rgb(50, 49, 63)" stroke="none" stroke-width="1px">25</text><text x="646.7100100781454" y="0" dx="0em" dy="0.95em" style="text-anchor: middle; visibility: inherit; font-family: Roboto, sans-serif; font-size: 12px; font-weight: 200;" fill="rgb(50, 49, 63)" stroke="none" stroke-width="1px">30</text><text x="751.9746598744695" y="0" dx="0em" dy="0.95em" style="text-anchor: middle; visibility: inherit; font-family: Roboto, sans-serif; font-size: 12px; font-weight: 200;" fill="rgb(50, 49, 63)" stroke="none" stroke-width="1px">35</text><text x="857.2393096707937" y="0" dx="0em" dy="0.95em" style="text-anchor: middle; visibility: inherit; font-family: Roboto, sans-serif; font-size: 12px; font-weight: 200;" fill="rgb(50, 49, 63)" stroke="none" stroke-width="1px">40</text><text x="962.5039594671179" y="0" dx="0em" dy="0.95em" style="text-anchor: middle; visibility: inherit; font-family: Roboto, sans-serif; font-size: 12px; font-weight: 200;" fill="rgb(50, 49, 63)" stroke="none" stroke-width="1px">45</text></g><line x1="0" y1="0" x2="1062.2" y2="0" fill="rgb(0, 0, 0)" stroke="rgb(204, 204, 204)" stroke-width="1px"></line></g></g></g></g></svg>