<svg viewBox="0 0 1112.2000732421875 400" xmlns="http://www.w3.org/2000/svg"><g><g><g><g><g><line x1="60" y1="378" x2="55" y2="378" style="visibility: inherit;" fill="rgb(0, 0, 0)" stroke="rgb(204, 204, 204)" stroke-width="1px"></line><line x1="60" y1="346.5" x2="55" y2="346.5" style="visibility: inherit;" fill="rgb(0, 0, 0)" stroke="rgb(204, 204, 204)" stroke-width="1px"></line><line x1="60" y1="315" x2="55" y2="315" style="visibility: inherit;" fill="rgb(0, 0, 0)" stroke="rgb(204, 204, 204)" stroke-width="1px"></line><line x1="60" y1="283.5" x2="55" y2="283.5" style="visibility: inherit;" fill="rgb(0, 0, 0)" stroke="rgb(204, 204, 204)" stroke-width="1px"></line><line x1="60" y1="252.00000000000003" x2="55" y2="252.00000000000003" style="visibility: inherit;" fill="rgb(0, 0, 0)" stroke="rgb(204, 204, 204)" stroke-width="1px"></line><line x1="60" y1="220.5" x2="55" y2="220.5" style="visibility: inherit;" fill="rgb(0, 0, 0)" stroke="rgb(204, 204, 204)" stroke-width="1px"></line><line x1="60" y1="189.00000000000003" x2="55" y2="189.00000000000003" style="visibility: inherit;" fill="rgb(0, 0, 0)" stroke="rgb(204, 204, 204)" stroke-width="1px"></line><line x1="60" y1="157.50000000000003" x2="55" y2="157.50000000000003" style="visibility: inherit;" fill="rgb(0, 0, 0)" stroke="rgb(204, 204, 204)" stroke-width="1px"></line><line x1="60" y1="126.00000000000006" x2="55" y2="126.00000000000006" style="visibility: inherit;" fill="rgb(0, 0, 0)" stroke="rgb(204, 204, 204)" stroke-width="1px"></line><line x1="60" y1="94.50000000000004" x2="55" y2="94.50000000000004" style="visibility: inherit;" fill="rgb(0, 0, 0)" stroke="rgb(204, 204, 204)" stroke-width="1px"></line><line x1="60" y1="63.00000000000003" x2="55" y2="63.00000000000003" style="visibility: inherit;" fill="rgb(0, 0, 0)" stroke="rgb(204, 204, 204)" stroke-width="1px"></line><line x1="60" y1="31.500000000000014" x2="55" y2="31.500000000000014" style="visibility: inherit;" fill="rgb(0, 0, 0)" stroke="rgb(204, 204, 204)" stroke-width="1px"></line><line x1="60" y1="0" x2="55" y2="0" style="visibility: inherit;" fill="rgb(0, 0, 0)" stroke="rgb(204, 204, 204)" stroke-width="1px"></line></g><g transform="translate(50, 0)"><text x="0" y="378" dx="0em" dy="0.3em" style="text-anchor: end; visibility: hidden; font-family: Roboto, sans-serif; font-size: 12px; font-weight: 200;" fill="rgb(50, 49, 63)" stroke="none" stroke-width="1px">-0.05</text><text x="0" y="346.5" dx="0em" dy="0.3em" style="text-anchor: end; visibility: inherit; font-family: Roboto, sans-serif; font-size: 12px; font-weight: 200;" fill="rgb(50, 49, 63)" stroke="none" stroke-width="1px">0</text><text x="0" y="315" dx="0em" dy="0.3em" style="text-anchor: end; visibility: inherit; font-family: Roboto, sans-serif; font-size: 12px; font-weight: 200;" fill="rgb(50, 49, 63)" stroke="none" stroke-width="1px">0.05</text><text x="0" y="283.5" dx="0em" dy="0.3em" style="text-anchor: end; visibility: inherit; font-family: Roboto, sans-serif; font-size: 12px; font-weight: 200;" fill="rgb(50, 49, 63)" stroke="none" stroke-width="1px">0.1</text><text x="0" y="252.00000000000003" dx="0em" dy="0.3em" style="text-anchor: end; visibility: inherit; font-family: Roboto, sans-serif; font-size: 12px; font-weight: 200;" fill="rgb(50, 49, 63)" stroke="none" stroke-width="1px">0.15</text><text x="0" y="220.5" dx="0em" dy="0.3em" style="text-anchor: end; visibility: inherit; font-family: Roboto, sans-serif; font-size: 12px; font-weight: 200;" fill="rgb(50, 49, 63)" stroke="none" stroke-width="1px">0.2</text><text x="0" y="189.00000000000003" dx="0em" dy="0.3em" style="text-anchor: end; visibility: inherit; font-family: Roboto, sans-serif; font-size: 12px; font-weight: 200;" fill="rgb(50, 49, 63)" stroke="none" stroke-width="1px">0.25</text><text x="0" y="157.50000000000003" dx="0em" dy="0.3em" style="text-anchor: end; visibility: inherit; font-family: Roboto, sans-serif; font-size: 12px; font-weight: 200;" fill="rgb(50, 49, 63)" stroke="none" stroke-width="1px">0.3</text><text x="0" y="126.00000000000006" dx="0em" dy="0.3em" style="text-anchor: end; visibility: inherit; font-family: Roboto, sans-serif; font-size: 12px; font-weight: 200;" fill="rgb(50, 49, 63)" stroke="none" stroke-width="1px">0.35</text><text x="0" y="94.50000000000004" dx="0em" dy="0.3em" style="text-anchor: end; visibility: inherit; font-family: Roboto, sans-serif; font-size: 12px; font-weight: 200;" fill="rgb(50, 49, 63)" stroke="none" stroke-width="1px">0.4</text><text x="0" y="63.00000000000003" dx="0em" dy="0.3em" style="text-anchor: end; visibility: inherit; font-family: Roboto, sans-serif; font-size: 12px; font-weight: 200;" fill="rgb(50, 49, 63)" stroke="none" stroke-width="1px">0.45</text><text x="0" y="31.500000000000014" dx="0em" dy="0.3em" style="text-anchor: end; visibility: inherit; font-family: Roboto, sans-serif; font-size: 12px; font-weight: 200;" fill="rgb(50, 49, 63)" stroke="none" stroke-width="1px">0.5</text><text x="0" y="0" dx="0em" dy="0.3em" style="text-anchor: end; visibility: hidden; font-family: Roboto, sans-serif; font-size: 12px; font-weight: 200;" fill="rgb(50, 49, 63)" stroke="none" stroke-width="1px">0.55</text></g><line x1="60" y1="0" x2="60" y2="378" fill="rgb(0, 0, 0)" stroke="rgb(204, 204, 204)" stroke-width="1px"></line></g></g><g transform="translate(60, 0)" clip-path="url(#clip_0)"><clipPath id="clip_0"><rect width="1052" height="378"></rect></clipPath><g><g><g><line x1="0" y1="0" x2="0" y2="378" fill="rgb(0, 0, 0)" stroke="rgb(60, 60, 60)" stroke-width="1px" opacity="0.25"></line><line x1="87.68333333333334" y1="0" x2="87.68333333333334" y2="378" fill="rgb(0, 0, 0)" stroke="rgb(60, 60, 60)" stroke-width="1px" opacity="0.25"></line><line x1="175.36666666666667" y1="0" x2="175.36666666666667" y2="378" fill="rgb(0, 0, 0)" stroke="rgb(60, 60, 60)" stroke-width="1px" opacity="0.25"></line><line x1="263.05" y1="0" x2="263.05" y2="378" fill="rgb(0, 0, 0)" stroke="rgb(60, 60, 60)" stroke-width="1px" opacity="0.25"></line><line x1="350.73333333333335" y1="0" x2="350.73333333333335" y2="378" fill="rgb(0, 0, 0)" stroke="rgb(60, 60, 60)" stroke-width="1px" opacity="0.25"></line><line x1="438.4166666666667" y1="0" x2="438.4166666666667" y2="378" fill="rgb(0, 0, 0)" stroke="rgb(60, 60, 60)" stroke-width="1px" opacity="0.25"></line><line x1="526.1" y1="0" x2="526.1" y2="378" fill="rgb(0, 0, 0)" stroke="rgb(60, 60, 60)" stroke-width="1px" opacity="0.25"></line><line x1="613.7833333333334" y1="0" x2="613.7833333333334" y2="378" fill="rgb(0, 0, 0)" stroke="rgb(60, 60, 60)" stroke-width="1px" opacity="0.25"></line><line x1="701.4666666666667" y1="0" x2="701.4666666666667" y2="378" fill="rgb(0, 0, 0)" stroke="rgb(60, 60, 60)" stroke-width="1px" opacity="0.25"></line><line x1="789.1500000000001" y1="0" x2="789.1500000000001" y2="378" fill="rgb(0, 0, 0)" stroke="rgb(60, 60, 60)" stroke-width="1px" opacity="0.25"></line><line x1="876.8333333333334" y1="0" x2="876.8333333333334" y2="378" fill="rgb(0, 0, 0)" stroke="rgb(60, 60, 60)" stroke-width="1px" opacity="0.25"></line><line x1="964.5166666666667" y1="0" x2="964.5166666666667" y2="378" fill="rgb(0, 0, 0)" stroke="rgb(60, 60, 60)" stroke-width="1px" opacity="0.25"></line><line x1="1052.2" y1="0" x2="1052.2" y2="378" fill="rgb(0, 0, 0)" stroke="rgb(60, 60, 60)" stroke-width="1px" opacity="0.25"></line></g><g><line x1="0" y1="378" x2="1052.2" y2="378" fill="rgb(0, 0, 0)" stroke="rgb(60, 60, 60)" stroke-width="1px" opacity="0.25"></line><line x1="0" y1="346.5" x2="1052.2" y2="346.5" fill="rgb(0, 0, 0)" stroke="rgb(60, 60, 60)" stroke-width="1px" opacity="0.25"></line><line x1="0" y1="315" x2="1052.2" y2="315" fill="rgb(0, 0, 0)" stroke="rgb(60, 60, 60)" stroke-width="1px" opacity="0.25"></line><line x1="0" y1="283.5" x2="1052.2" y2="283.5" fill="rgb(0, 0, 0)" stroke="rgb(60, 60, 60)" stroke-width="1px" opacity="0.25"></line><line x1="0" y1="252.00000000000003" x2="1052.2" y2="252.00000000000003" fill="rgb(0, 0, 0)" stroke="rgb(60, 60, 60)" stroke-width="1px" opacity="0.25"></line><line x1="0" y1="220.5" x2="1052.2" y2="220.5" fill="rgb(0, 0, 0)" stroke="rgb(60, 60, 60)" stroke-width="1px" opacity="0.25"></line><line x1="0" y1="189.00000000000003" x2="1052.2" y2="189.00000000000003" fill="rgb(0, 0, 0)" stroke="rgb(60, 60, 60)" stroke-width="1px" opacity="0.25"></line><line x1="0" y1="157.50000000000003" x2="1052.2" y2="157.50000000000003" fill="rgb(0, 0, 0)" stroke="rgb(60, 60, 60)" stroke-width="1px" opacity="0.25"></line><line x1="0" y1="126.00000000000006" x2="1052.2" y2="126.00000000000006" fill="rgb(0, 0, 0)" stroke="rgb(60, 60, 60)" stroke-width="1px" opacity="0.25"></line><line x1="0" y1="94.50000000000004" x2="1052.2" y2="94.50000000000004" fill="rgb(0, 0, 0)" stroke="rgb(60, 60, 60)" stroke-width="1px" opacity="0.25"></line><line x1="0" y1="63.00000000000003" x2="1052.2" y2="63.00000000000003" fill="rgb(0, 0, 0)" stroke="rgb(60, 60, 60)" stroke-width="1px" opacity="0.25"></line><line x1="0" y1="31.500000000000014" x2="1052.2" y2="31.500000000000014" fill="rgb(0, 0, 0)" stroke="rgb(60, 60, 60)" stroke-width="1px" opacity="0.25"></line><line x1="0" y1="0" x2="1052.2" y2="0" fill="rgb(0, 0, 0)" stroke="rgb(60, 60, 60)" stroke-width="1px" opacity="0.25"></line></g></g></g><g><g><line x1="0" y1="346.5" x2="1052.2" y2="346.5" fill="rgb(0, 0, 0)" stroke="rgb(153, 153, 153)" stroke-width="1.5px"></line></g></g><g><g><line x1="87.68333333333334" y1="0" x2="87.68333333333334" y2="378" fill="rgb(0, 0, 0)" stroke="rgb(153, 153, 153)" stroke-width="1.5px"></line></g></g><g><g><g><g><g><path stroke="rgb(0, 119, 187)" stroke-width="2px" d="M87.68333333333334,-79.94562900066373L105.22000000000001,0.28489136695864614L122.75666666666667,12.315382003784222L140.29333333333335,46.6875847578049L157.83,83.36565846204762L175.36666666666667,92.62802624702458L192.90333333333334,98.002220928669L210.44000000000003,101.54971325397494L227.9766666666667,103.76495504379278L245.51333333333335,117.05069804191594L263.05,111.69948452711111L280.5866666666667,112.31539481878285L298.12333333333333,125.95897936820987L315.66,128.13593798875812L333.19666666666666,113.85338687896733L350.73333333333335,113.17628735303883L368.27,118.86793756484988L385.8066666666667,113.80316251516348L403.34333333333336,115.80793136358267L420.88000000000005,115.90000623464589L438.4166666666667,114.6924998760224L455.9533333333334,114.61306089162831L473.49,112.049947321415L491.0266666666667,118.9316427111626L508.56333333333333,120.9832938909531L526.1,118.09885704517367L543.6366666666668,119.46420872211459L561.1733333333334,120.53792113065724L578.71,116.35681325197224L596.2466666666667,119.96658378839496L613.7833333333334,112.03186655044561L631.32,125.60025537014012L648.8566666666667,119.09767413139349L666.3933333333333,124.08167713880542L683.9300000000001,126.2321811318398L701.4666666666667,122.66086274385457L719.0033333333333,120.09149694442755L736.54,119.49697190523153L754.0766666666667,128.89512383937839L771.6133333333333,114.80552816390995L789.1500000000001,107.14121514558798L806.6866666666667,123.71435397863394L824.2233333333334,119.61653405427937L841.7600000000001,122.72836053371435L859.2966666666667,118.23704445362095L876.8333333333334,114.29906004667288L894.37,119.82944780588154L911.9066666666668,111.76063621044163L929.4433333333334,116.33831942081454L946.98,113.87400233745579" style="fill: none;" fill="none"></path></g><g><path stroke="rgb(0, 153, 136)" stroke-width="2px" d="M87.68333333333334,23.603903889656095L105.22000000000001,46.29750573635103L122.75666666666667,73.45343434810646L140.29333333333335,110.82084918022161L157.83,98.21004652976995L175.36666666666667,120.72347903251654L192.90333333333334,120.81996613740927L210.44000000000003,119.5127432942391L227.9766666666667,120.28328830003744L245.51333333333335,130.95113092660907L263.05,124.6088921427727L280.5866666666667,127.61764132976536L298.12333333333333,126.0907080173493L315.66,128.24673199653628L333.19666666666666,134.53209990262988L350.73333333333335,125.59415334463122L368.27,131.60900437831884L385.8066666666667,126.70006567239764L403.34333333333336,131.96615123748782L420.88000000000005,140.81964576244357L438.4166666666667,132.9532899856568L455.9533333333334,130.64097905159002L473.49,128.54113125801092L491.0266666666667,128.4791159033776L508.56333333333333,136.1463391184807L526.1,132.16517114639288L543.6366666666668,139.57349950075155L561.1733333333334,138.96939897537237L578.71,132.24297666549685L596.2466666666667,132.48223239183432L613.7833333333334,134.07628798484805L631.32,137.37063074111944L648.8566666666667,137.80344271659857L666.3933333333333,139.85458695888522L683.9300000000001,138.11571621894842L701.4666666666667,130.52592301368716L719.0033333333333,130.27466976642611L736.54,134.7465344667435L754.0766666666667,125.53854042291647L771.6133333333333,144.41390776634222L789.1500000000001,136.45947629213336L806.6866666666667,128.63253021240237L824.2233333333334,133.01466697454455L841.7600000000001,136.91679024696353L859.2966666666667,132.79841119050982L876.8333333333334,128.3002420663834L894.37,128.4787779450417L911.9066666666668,139.3020814061165L929.4433333333334,129.22557199001315L946.98,130.48335903882983" style="fill: none;" fill="none"></path></g><g><path stroke="rgb(51, 187, 238)" stroke-width="2px" d="M87.68333333333334,48.04544502496722L105.22000000000001,88.3483284115792L122.75666666666667,69.17668426036842L140.29333333333335,93.83130812644966L157.83,105.37726038694385L175.36666666666667,108.70999896526341L192.90333333333334,113.64556127786642L210.44000000000003,119.2170860767365L227.9766666666667,126.05619871616366L245.51333333333335,117.54098170995718L263.05,123.67314183712008L280.5866666666667,124.9919866919518L298.12333333333333,120.74574673175815L315.66,125.33998990058905L333.19666666666666,117.76444727182391L350.73333333333335,117.60938072204593L368.27,123.87801969051365L385.8066666666667,124.41698813438418L403.34333333333336,114.03734886646275L420.88000000000005,116.70138055086142L438.4166666666667,118.74653542041784L455.9533333333334,113.96709108352664L473.49,119.39256155490878L491.0266666666667,122.17082315683369L508.56333333333333,118.9572712182999L526.1,121.74223566055302L543.6366666666668,121.78474330902102L561.1733333333334,124.78444272279745L578.71,115.36593818664556L596.2466666666667,113.7379177808762L613.7833333333334,114.54364800453189L631.32,126.99576044082647L648.8566666666667,116.56495803594595L666.3933333333333,125.53444737195971L683.9300000000001,121.6541036367417L701.4666666666667,114.68512111902243L719.0033333333333,120.71628803014758L736.54,120.36430442333224L754.0766666666667,118.75470274686819L771.6133333333333,116.5271630287171L789.1500000000001,113.55542027950291L806.6866666666667,114.30572533607486L824.2233333333334,121.87225574254995L841.7600000000001,115.64090484380726L859.2966666666667,119.7014366984368L876.8333333333334,111.70323961973195L894.37,121.95822858810428L911.9066666666668,121.95629471540457L929.4433333333334,117.58104854822162L946.98,117.97706061601644" style="fill: none;" fill="none"></path></g><g><path stroke="rgb(255, 112, 67)" stroke-width="2px" d="M87.68333333333334,31.368909716606183L105.22000000000001,93.45835232734686L122.75666666666667,114.76694458723073L140.29333333333335,118.92420762777331L157.83,128.515033364296L175.36666666666667,122.50213497877125L192.90333333333334,130.24380290508273L210.44000000000003,132.21471959352496L227.9766666666667,133.05477136373523L245.51333333333335,131.85267233848577L263.05,132.45055818557742L280.5866666666667,135.6158384084702L298.12333333333333,130.76463425159457L315.66,128.99172359704974L333.19666666666666,134.99795669317248L350.73333333333335,128.99271869659427L368.27,131.6080656051636L385.8066666666667,132.79711568355563L403.34333333333336,128.13036167621615L420.88000000000005,130.73774778842932L438.4166666666667,130.19260221719745L455.9533333333334,131.47566103935245L473.49,127.95169436931613L491.0266666666667,131.30183780193332L508.56333333333333,128.44976985454565L526.1,132.73429298400885L543.6366666666668,131.0627135038376L561.1733333333334,128.9069711565972L578.71,129.15396237373358L596.2466666666667,132.06158691644674L613.7833333333334,125.46646142005923L631.32,127.87831985950474L648.8566666666667,132.6112761497498L666.3933333333333,130.76927179098132L683.9300000000001,129.2434462308884L701.4666666666667,127.22681128978735L719.0033333333333,128.5708340406418L736.54,129.73748499155047L754.0766666666667,129.96787869930273L771.6133333333333,132.55089426040655L789.1500000000001,130.7968904972077L806.6866666666667,129.41865885257724L824.2233333333334,132.55590730905539L841.7600000000001,129.80162197351459L859.2966666666667,129.8077991008759L876.8333333333334,127.8631117343903L894.37,131.61801660060888L911.9066666666668,130.96147620677954L929.4433333333334,128.58882093429568L946.98,129.4507648944855" style="fill: none;" fill="none"></path></g></g></g></g></g></g><g transform="translate(60, 378)" clip-path="url(#clip_1)"><clipPath id="clip_1"><rect width="1052" height="22"></rect></clipPath><g><g><line x1="0" y1="0" x2="0" y2="5" style="visibility: inherit;" fill="rgb(0, 0, 0)" stroke="rgb(204, 204, 204)" stroke-width="1px"></line><line x1="87.68333333333334" y1="0" x2="87.68333333333334" y2="5" style="visibility: inherit;" fill="rgb(0, 0, 0)" stroke="rgb(204, 204, 204)" stroke-width="1px"></line><line x1="175.36666666666667" y1="0" x2="175.36666666666667" y2="5" style="visibility: inherit;" fill="rgb(0, 0, 0)" stroke="rgb(204, 204, 204)" stroke-width="1px"></line><line x1="263.05" y1="0" x2="263.05" y2="5" style="visibility: inherit;" fill="rgb(0, 0, 0)" stroke="rgb(204, 204, 204)" stroke-width="1px"></line><line x1="350.73333333333335" y1="0" x2="350.73333333333335" y2="5" style="visibility: inherit;" fill="rgb(0, 0, 0)" stroke="rgb(204, 204, 204)" stroke-width="1px"></line><line x1="438.4166666666667" y1="0" x2="438.4166666666667" y2="5" style="visibility: inherit;" fill="rgb(0, 0, 0)" stroke="rgb(204, 204, 204)" stroke-width="1px"></line><line x1="526.1" y1="0" x2="526.1" y2="5" style="visibility: inherit;" fill="rgb(0, 0, 0)" stroke="rgb(204, 204, 204)" stroke-width="1px"></line><line x1="613.7833333333334" y1="0" x2="613.7833333333334" y2="5" style="visibility: inherit;" fill="rgb(0, 0, 0)" stroke="rgb(204, 204, 204)" stroke-width="1px"></line><line x1="701.4666666666667" y1="0" x2="701.4666666666667" y2="5" style="visibility: inherit;" fill="rgb(0, 0, 0)" stroke="rgb(204, 204, 204)" stroke-width="1px"></line><line x1="789.1500000000001" y1="0" x2="789.1500000000001" y2="5" style="visibility: inherit;" fill="rgb(0, 0, 0)" stroke="rgb(204, 204, 204)" stroke-width="1px"></line><line x1="876.8333333333334" y1="0" x2="876.8333333333334" y2="5" style="visibility: inherit;" fill="rgb(0, 0, 0)" stroke="rgb(204, 204, 204)" stroke-width="1px"></line><line x1="964.5166666666667" y1="0" x2="964.5166666666667" y2="5" style="visibility: inherit;" fill="rgb(0, 0, 0)" stroke="rgb(204, 204, 204)" stroke-width="1px"></line><line x1="1052.2" y1="0" x2="1052.2" y2="5" style="visibility: inherit;" fill="rgb(0, 0, 0)" stroke="rgb(204, 204, 204)" stroke-width="1px"></line></g><g transform="translate(0, 8)"><text x="0" y="0" dx="0em" dy="0.95em" style="text-anchor: middle; visibility: hidden; font-family: Roboto, sans-serif; font-size: 12px; font-weight: 200;" fill="rgb(50, 49, 63)" stroke="none" stroke-width="1px">-5</text><text x="87.68333333333334" y="0" dx="0em" dy="0.95em" style="text-anchor: middle; visibility: inherit; font-family: Roboto, sans-serif; font-size: 12px; font-weight: 200;" fill="rgb(50, 49, 63)" stroke="none" stroke-width="1px">0</text><text x="175.36666666666667" y="0" dx="0em" dy="0.95em" style="text-anchor: middle; visibility: inherit; font-family: Roboto, sans-serif; font-size: 12px; font-weight: 200;" fill="rgb(50, 49, 63)" stroke="none" stroke-width="1px">5</text><text x="263.05" y="0" dx="0em" dy="0.95em" style="text-anchor: middle; visibility: inherit; font-family: Roboto, sans-serif; font-size: 12px; font-weight: 200;" fill="rgb(50, 49, 63)" stroke="none" stroke-width="1px">10</text><text x="350.73333333333335" y="0" dx="0em" dy="0.95em" style="text-anchor: middle; visibility: inherit; font-family: Roboto, sans-serif; font-size: 12px; font-weight: 200;" fill="rgb(50, 49, 63)" stroke="none" stroke-width="1px">15</text><text x="438.4166666666667" y="0" dx="0em" dy="0.95em" style="text-anchor: middle; visibility: inherit; font-family: Roboto, sans-serif; font-size: 12px; font-weight: 200;" fill="rgb(50, 49, 63)" stroke="none" stroke-width="1px">20</text><text x="526.1" y="0" dx="0em" dy="0.95em" style="text-anchor: middle; visibility: inherit; font-family: Roboto, sans-serif; font-size: 12px; font-weight: 200;" fill="rgb(50, 49, 63)" stroke="none" stroke-width="1px">25</text><text x="613.7833333333334" y="0" dx="0em" dy="0.95em" style="text-anchor: middle; visibility: inherit; font-family: Roboto, sans-serif; font-size: 12px; font-weight: 200;" fill="rgb(50, 49, 63)" stroke="none" stroke-width="1px">30</text><text x="701.4666666666667" y="0" dx="0em" dy="0.95em" style="text-anchor: middle; visibility: inherit; font-family: Roboto, sans-serif; font-size: 12px; font-weight: 200;" fill="rgb(50, 49, 63)" stroke="none" stroke-width="1px">35</text><text x="789.1500000000001" y="0" dx="0em" dy="0.95em" style="text-anchor: middle; visibility: inherit; font-family: Roboto, sans-serif; font-size: 12px; font-weight: 200;" fill="rgb(50, 49, 63)" stroke="none" stroke-width="1px">40</text><text x="876.8333333333334" y="0" dx="0em" dy="0.95em" style="text-anchor: middle; visibility: inherit; font-family: Roboto, sans-serif; font-size: 12px; font-weight: 200;" fill="rgb(50, 49, 63)" stroke="none" stroke-width="1px">45</text><text x="964.5166666666667" y="0" dx="0em" dy="0.95em" style="text-anchor: middle; visibility: inherit; font-family: Roboto, sans-serif; font-size: 12px; font-weight: 200;" fill="rgb(50, 49, 63)" stroke="none" stroke-width="1px">50</text><text x="1052.2" y="0" dx="0em" dy="0.95em" style="text-anchor: middle; visibility: hidden; font-family: Roboto, sans-serif; font-size: 12px; font-weight: 200;" fill="rgb(50, 49, 63)" stroke="none" stroke-width="1px">55</text></g><line x1="0" y1="0" x2="1052.2" y2="0" fill="rgb(0, 0, 0)" stroke="rgb(204, 204, 204)" stroke-width="1px"></line></g></g></g></g></svg>