<svg viewBox="0 0 1112.2000732421875 400" xmlns="http://www.w3.org/2000/svg"><g><g><g><g><g><line x1="60" y1="378" x2="55" y2="378" style="visibility: inherit;" fill="rgb(0, 0, 0)" stroke="rgb(204, 204, 204)" stroke-width="1px"></line><line x1="60" y1="346.5" x2="55" y2="346.5" style="visibility: inherit;" fill="rgb(0, 0, 0)" stroke="rgb(204, 204, 204)" stroke-width="1px"></line><line x1="60" y1="315" x2="55" y2="315" style="visibility: inherit;" fill="rgb(0, 0, 0)" stroke="rgb(204, 204, 204)" stroke-width="1px"></line><line x1="60" y1="283.5" x2="55" y2="283.5" style="visibility: inherit;" fill="rgb(0, 0, 0)" stroke="rgb(204, 204, 204)" stroke-width="1px"></line><line x1="60" y1="252.00000000000003" x2="55" y2="252.00000000000003" style="visibility: inherit;" fill="rgb(0, 0, 0)" stroke="rgb(204, 204, 204)" stroke-width="1px"></line><line x1="60" y1="220.49999999999997" x2="55" y2="220.49999999999997" style="visibility: inherit;" fill="rgb(0, 0, 0)" stroke="rgb(204, 204, 204)" stroke-width="1px"></line><line x1="60" y1="189" x2="55" y2="189" style="visibility: inherit;" fill="rgb(0, 0, 0)" stroke="rgb(204, 204, 204)" stroke-width="1px"></line><line x1="60" y1="157.5" x2="55" y2="157.5" style="visibility: inherit;" fill="rgb(0, 0, 0)" stroke="rgb(204, 204, 204)" stroke-width="1px"></line><line x1="60" y1="126.00000000000001" x2="55" y2="126.00000000000001" style="visibility: inherit;" fill="rgb(0, 0, 0)" stroke="rgb(204, 204, 204)" stroke-width="1px"></line><line x1="60" y1="94.5" x2="55" y2="94.5" style="visibility: inherit;" fill="rgb(0, 0, 0)" stroke="rgb(204, 204, 204)" stroke-width="1px"></line><line x1="60" y1="62.999999999999986" x2="55" y2="62.999999999999986" style="visibility: inherit;" fill="rgb(0, 0, 0)" stroke="rgb(204, 204, 204)" stroke-width="1px"></line><line x1="60" y1="31.500000000000014" x2="55" y2="31.500000000000014" style="visibility: inherit;" fill="rgb(0, 0, 0)" stroke="rgb(204, 204, 204)" stroke-width="1px"></line><line x1="60" y1="0" x2="55" y2="0" style="visibility: inherit;" fill="rgb(0, 0, 0)" stroke="rgb(204, 204, 204)" stroke-width="1px"></line></g><g transform="translate(50, 0)"><text x="0" y="378" dx="0em" dy="0.3em" style="text-anchor: end; visibility: hidden; font-family: Roboto, sans-serif; font-size: 12px; font-weight: 200;" fill="rgb(50, 49, 63)" stroke="none" stroke-width="1px">0.835</text><text x="0" y="346.5" dx="0em" dy="0.3em" style="text-anchor: end; visibility: inherit; font-family: Roboto, sans-serif; font-size: 12px; font-weight: 200;" fill="rgb(50, 49, 63)" stroke="none" stroke-width="1px">0.84</text><text x="0" y="315" dx="0em" dy="0.3em" style="text-anchor: end; visibility: inherit; font-family: Roboto, sans-serif; font-size: 12px; font-weight: 200;" fill="rgb(50, 49, 63)" stroke="none" stroke-width="1px">0.845</text><text x="0" y="283.5" dx="0em" dy="0.3em" style="text-anchor: end; visibility: inherit; font-family: Roboto, sans-serif; font-size: 12px; font-weight: 200;" fill="rgb(50, 49, 63)" stroke="none" stroke-width="1px">0.85</text><text x="0" y="252.00000000000003" dx="0em" dy="0.3em" style="text-anchor: end; visibility: inherit; font-family: Roboto, sans-serif; font-size: 12px; font-weight: 200;" fill="rgb(50, 49, 63)" stroke="none" stroke-width="1px">0.855</text><text x="0" y="220.49999999999997" dx="0em" dy="0.3em" style="text-anchor: end; visibility: inherit; font-family: Roboto, sans-serif; font-size: 12px; font-weight: 200;" fill="rgb(50, 49, 63)" stroke="none" stroke-width="1px">0.86</text><text x="0" y="189" dx="0em" dy="0.3em" style="text-anchor: end; visibility: inherit; font-family: Roboto, sans-serif; font-size: 12px; font-weight: 200;" fill="rgb(50, 49, 63)" stroke="none" stroke-width="1px">0.865</text><text x="0" y="157.5" dx="0em" dy="0.3em" style="text-anchor: end; visibility: inherit; font-family: Roboto, sans-serif; font-size: 12px; font-weight: 200;" fill="rgb(50, 49, 63)" stroke="none" stroke-width="1px">0.87</text><text x="0" y="126.00000000000001" dx="0em" dy="0.3em" style="text-anchor: end; visibility: inherit; font-family: Roboto, sans-serif; font-size: 12px; font-weight: 200;" fill="rgb(50, 49, 63)" stroke="none" stroke-width="1px">0.875</text><text x="0" y="94.5" dx="0em" dy="0.3em" style="text-anchor: end; visibility: inherit; font-family: Roboto, sans-serif; font-size: 12px; font-weight: 200;" fill="rgb(50, 49, 63)" stroke="none" stroke-width="1px">0.88</text><text x="0" y="62.999999999999986" dx="0em" dy="0.3em" style="text-anchor: end; visibility: inherit; font-family: Roboto, sans-serif; font-size: 12px; font-weight: 200;" fill="rgb(50, 49, 63)" stroke="none" stroke-width="1px">0.885</text><text x="0" y="31.500000000000014" dx="0em" dy="0.3em" style="text-anchor: end; visibility: inherit; font-family: Roboto, sans-serif; font-size: 12px; font-weight: 200;" fill="rgb(50, 49, 63)" stroke="none" stroke-width="1px">0.89</text><text x="0" y="0" dx="0em" dy="0.3em" style="text-anchor: end; visibility: hidden; font-family: Roboto, sans-serif; font-size: 12px; font-weight: 200;" fill="rgb(50, 49, 63)" stroke="none" stroke-width="1px">0.895</text></g><line x1="60" y1="0" x2="60" y2="378" fill="rgb(0, 0, 0)" stroke="rgb(204, 204, 204)" stroke-width="1px"></line></g></g><g transform="translate(60, 0)" clip-path="url(#clip_0)"><clipPath id="clip_0"><rect width="1052" height="378"></rect></clipPath><g><g><g><line x1="0" y1="0" x2="0" y2="378" fill="rgb(0, 0, 0)" stroke="rgb(60, 60, 60)" stroke-width="1px" opacity="0.25"></line><line x1="87.68333333333334" y1="0" x2="87.68333333333334" y2="378" fill="rgb(0, 0, 0)" stroke="rgb(60, 60, 60)" stroke-width="1px" opacity="0.25"></line><line x1="175.36666666666667" y1="0" x2="175.36666666666667" y2="378" fill="rgb(0, 0, 0)" stroke="rgb(60, 60, 60)" stroke-width="1px" opacity="0.25"></line><line x1="263.05" y1="0" x2="263.05" y2="378" fill="rgb(0, 0, 0)" stroke="rgb(60, 60, 60)" stroke-width="1px" opacity="0.25"></line><line x1="350.73333333333335" y1="0" x2="350.73333333333335" y2="378" fill="rgb(0, 0, 0)" stroke="rgb(60, 60, 60)" stroke-width="1px" opacity="0.25"></line><line x1="438.4166666666667" y1="0" x2="438.4166666666667" y2="378" fill="rgb(0, 0, 0)" stroke="rgb(60, 60, 60)" stroke-width="1px" opacity="0.25"></line><line x1="526.1" y1="0" x2="526.1" y2="378" fill="rgb(0, 0, 0)" stroke="rgb(60, 60, 60)" stroke-width="1px" opacity="0.25"></line><line x1="613.7833333333334" y1="0" x2="613.7833333333334" y2="378" fill="rgb(0, 0, 0)" stroke="rgb(60, 60, 60)" stroke-width="1px" opacity="0.25"></line><line x1="701.4666666666667" y1="0" x2="701.4666666666667" y2="378" fill="rgb(0, 0, 0)" stroke="rgb(60, 60, 60)" stroke-width="1px" opacity="0.25"></line><line x1="789.1500000000001" y1="0" x2="789.1500000000001" y2="378" fill="rgb(0, 0, 0)" stroke="rgb(60, 60, 60)" stroke-width="1px" opacity="0.25"></line><line x1="876.8333333333334" y1="0" x2="876.8333333333334" y2="378" fill="rgb(0, 0, 0)" stroke="rgb(60, 60, 60)" stroke-width="1px" opacity="0.25"></line><line x1="964.5166666666667" y1="0" x2="964.5166666666667" y2="378" fill="rgb(0, 0, 0)" stroke="rgb(60, 60, 60)" stroke-width="1px" opacity="0.25"></line><line x1="1052.2" y1="0" x2="1052.2" y2="378" fill="rgb(0, 0, 0)" stroke="rgb(60, 60, 60)" stroke-width="1px" opacity="0.25"></line></g><g><line x1="0" y1="378" x2="1052.2" y2="378" fill="rgb(0, 0, 0)" stroke="rgb(60, 60, 60)" stroke-width="1px" opacity="0.25"></line><line x1="0" y1="346.5" x2="1052.2" y2="346.5" fill="rgb(0, 0, 0)" stroke="rgb(60, 60, 60)" stroke-width="1px" opacity="0.25"></line><line x1="0" y1="315" x2="1052.2" y2="315" fill="rgb(0, 0, 0)" stroke="rgb(60, 60, 60)" stroke-width="1px" opacity="0.25"></line><line x1="0" y1="283.5" x2="1052.2" y2="283.5" fill="rgb(0, 0, 0)" stroke="rgb(60, 60, 60)" stroke-width="1px" opacity="0.25"></line><line x1="0" y1="252.00000000000003" x2="1052.2" y2="252.00000000000003" fill="rgb(0, 0, 0)" stroke="rgb(60, 60, 60)" stroke-width="1px" opacity="0.25"></line><line x1="0" y1="220.49999999999997" x2="1052.2" y2="220.49999999999997" fill="rgb(0, 0, 0)" stroke="rgb(60, 60, 60)" stroke-width="1px" opacity="0.25"></line><line x1="0" y1="189" x2="1052.2" y2="189" fill="rgb(0, 0, 0)" stroke="rgb(60, 60, 60)" stroke-width="1px" opacity="0.25"></line><line x1="0" y1="157.5" x2="1052.2" y2="157.5" fill="rgb(0, 0, 0)" stroke="rgb(60, 60, 60)" stroke-width="1px" opacity="0.25"></line><line x1="0" y1="126.00000000000001" x2="1052.2" y2="126.00000000000001" fill="rgb(0, 0, 0)" stroke="rgb(60, 60, 60)" stroke-width="1px" opacity="0.25"></line><line x1="0" y1="94.5" x2="1052.2" y2="94.5" fill="rgb(0, 0, 0)" stroke="rgb(60, 60, 60)" stroke-width="1px" opacity="0.25"></line><line x1="0" y1="62.999999999999986" x2="1052.2" y2="62.999999999999986" fill="rgb(0, 0, 0)" stroke="rgb(60, 60, 60)" stroke-width="1px" opacity="0.25"></line><line x1="0" y1="31.500000000000014" x2="1052.2" y2="31.500000000000014" fill="rgb(0, 0, 0)" stroke="rgb(60, 60, 60)" stroke-width="1px" opacity="0.25"></line><line x1="0" y1="0" x2="1052.2" y2="0" fill="rgb(0, 0, 0)" stroke="rgb(60, 60, 60)" stroke-width="1px" opacity="0.25"></line></g></g></g><g><g><line x1="0" y1="5638.499999999995" x2="1052.2" y2="5638.499999999995" fill="rgb(0, 0, 0)" stroke="rgb(153, 153, 153)" stroke-width="1.5px"></line></g></g><g><g><line x1="87.68333333333334" y1="0" x2="87.68333333333334" y2="378" fill="rgb(0, 0, 0)" stroke="rgb(153, 153, 153)" stroke-width="1.5px"></line></g></g><g><g><g><g><g><path stroke="rgb(0, 119, 187)" stroke-width="2px" d="M140.29333333333335,405.9909710884092L157.83,307.6045403480528L175.36666666666667,250.21283125877366L192.90333333333334,284.6477816104887L210.44000000000003,263.3308718204497L227.9766666666667,192.8207466602325L245.51333333333335,174.78315925598142L263.05,215.77750539779657L280.5866666666667,189.5410487651824L298.12333333333333,176.4230082035064L315.66,171.50346136093134L333.19666666666666,201.01961588859552L350.73333333333335,186.2617263793945L368.27,194.46059560775748L385.8066666666667,207.57863616943354L403.34333333333336,179.70233058929438L420.88000000000005,187.9011998176574L438.4166666666667,220.69667673110956L455.9533333333334,173.1433103084564L473.49,181.34217953681943L491.0266666666667,168.22413897514338L508.56333333333333,184.62187743186945L526.1,173.1433103084564L543.6366666666668,156.74557185173032L561.1733333333334,187.9011998176574L578.71,174.78315925598142L596.2466666666667,174.78315925598142L613.7833333333334,158.38542079925534L631.32,166.58429002761838L648.8566666666667,174.78315925598142L666.3933333333333,184.62187743186945L683.9300000000001,141.98768234252927L701.4666666666667,179.70233058929438L719.0033333333333,186.2617263793945L736.54,145.26738023757935L754.0766666666667,168.22413897514338L771.6133333333333,210.85833406448356L789.1500000000001,209.21848511695856L806.6866666666667,163.30496764183042L824.2233333333334,171.50346136093134L841.7600000000001,164.94444108009336L859.2966666666667,173.1433103084564L876.8333333333334,191.1808977127075L894.37,158.38542079925534L911.9066666666668,204.2989382743835L929.4433333333334,184.62187743186945L946.98,192.8207466602325" style="fill: none;" fill="none"></path></g><g><path stroke="rgb(0, 153, 136)" stroke-width="2px" d="M105.22000000000001,422.38870954513527L122.75666666666667,301.0455200672148L140.29333333333335,238.73426413536063L157.83,199.3797669410705L175.36666666666667,143.62753129005432L192.90333333333334,197.73991799354545L210.44000000000003,184.62187743186945L227.9766666666667,155.10609841346738L245.51333333333335,107.55273199081424L263.05,120.67077255249023L280.5866666666667,89.51514458656312L298.12333333333333,115.75160121917727L315.66,89.51514458656312L333.19666666666666,102.63318514823916L350.73333333333335,97.71401381492616L368.27,96.07416486740117L385.8066666666667,125.58994388580324L403.34333333333336,107.55273199081424L420.88000000000005,74.75725507736209L438.4166666666667,78.03657746315005L455.9533333333334,100.99333620071413L473.49,86.23544669151309L491.0266666666667,94.43431591987613L508.56333333333333,96.07416486740117L526.1,84.5955977439881L543.6366666666668,58.35951662063606L561.1733333333334,99.3538627624512L578.71,73.1174061298371L596.2466666666667,79.67642641067509L613.7833333333334,87.87529563903813L631.32,96.07416486740117L648.8566666666667,84.5955977439881L666.3933333333333,81.31627535820013L683.9300000000001,79.67642641067509L701.4666666666667,97.71401381492616L719.0033333333333,104.27303409576416L736.54,96.07416486740117L754.0766666666667,74.75725507736209L771.6133333333333,79.67642641067509L789.1500000000001,64.91853690147406L806.6866666666667,99.3538627624512L824.2233333333334,79.67642641067509L841.7600000000001,66.5583858489991L859.2966666666667,94.43431591987613L876.8333333333334,102.63318514823916L894.37,96.07416486740117L911.9066666666668,82.95612430572513L929.4433333333334,96.07416486740117L946.98,94.43431591987613" style="fill: none;" fill="none"></path></g><g><path stroke="rgb(51, 187, 238)" stroke-width="2px" d="M87.68333333333334,465.02252912521334L105.22000000000001,299.40567111968977L122.75666666666667,320.7229564189909L140.29333333333335,222.33652567863456L157.83,215.77750539779657L175.36666666666667,176.4230082035064L192.90333333333334,145.26738023757935L210.44000000000003,114.11175227165224L227.9766666666667,69.83770823478706L245.51333333333335,107.55273199081424L263.05,97.71401381492616L280.5866666666667,94.43431591987613L298.12333333333333,79.67642641067509L315.66,84.5955977439881L333.19666666666666,97.71401381492616L350.73333333333335,99.3538627624512L368.27,86.23544669151309L385.8066666666667,81.31627535820013L403.34333333333336,97.71401381492616L420.88000000000005,78.03657746315005L438.4166666666667,79.67642641067509L455.9533333333334,97.71401381492616L473.49,84.5955977439881L491.0266666666667,89.51514458656312L508.56333333333333,78.03657746315005L526.1,84.5955977439881L543.6366666666668,78.03657746315005L561.1733333333334,82.95612430572513L578.71,92.79446697235109L596.2466666666667,100.99333620071413L613.7833333333334,84.5955977439881L631.32,74.75725507736209L648.8566666666667,81.31627535820013L666.3933333333333,71.47755718231205L683.9300000000001,84.5955977439881L701.4666666666667,66.5583858489991L719.0033333333333,71.47755718231205L736.54,81.31627535820013L754.0766666666667,87.87529563903813L771.6133333333333,82.95612430572513L789.1500000000001,94.43431591987613L806.6866666666667,96.07416486740117L824.2233333333334,99.3538627624512L841.7600000000001,89.51514458656312L859.2966666666667,79.67642641067509L876.8333333333334,97.71401381492616L894.37,74.75725507736209L911.9066666666668,84.5955977439881L929.4433333333334,89.51514458656312L946.98,76.39710402488713" style="fill: none;" fill="none"></path></g><g><path stroke="rgb(255, 112, 67)" stroke-width="2px" d="M87.68333333333334,415.8296892642972L105.22000000000001,305.96469140052784L122.75666666666667,214.13765645027152L140.29333333333335,197.73991799354545L157.83,153.46624946594235L175.36666666666667,128.86964178085327L192.90333333333334,137.0685110092163L210.44000000000003,109.19220542907716L227.9766666666667,89.51514458656312L245.51333333333335,94.43431591987613L263.05,73.1174061298371L280.5866666666667,68.19823479652409L298.12333333333333,84.5955977439881L315.66,102.63318514823916L333.19666666666666,69.83770823478706L350.73333333333335,86.23544669151309L368.27,69.83770823478706L385.8066666666667,76.39710402488713L403.34333333333336,94.43431591987613L420.88000000000005,76.39710402488713L438.4166666666667,92.79446697235109L455.9533333333334,79.67642641067509L473.49,82.95612430572513L491.0266666666667,76.39710402488713L508.56333333333333,84.5955977439881L526.1,74.75725507736209L543.6366666666668,76.39710402488713L561.1733333333334,74.75725507736209L578.71,73.1174061298371L596.2466666666667,74.75725507736209L613.7833333333334,87.87529563903813L631.32,81.31627535820013L648.8566666666667,78.03657746315005L666.3933333333333,94.43431591987613L683.9300000000001,86.23544669151309L701.4666666666667,82.95612430572513L719.0033333333333,82.95612430572513L736.54,84.5955977439881L754.0766666666667,89.51514458656312L771.6133333333333,74.75725507736209L789.1500000000001,87.87529563903813L806.6866666666667,84.5955977439881L824.2233333333334,76.39710402488713L841.7600000000001,87.87529563903813L859.2966666666667,81.31627535820013L876.8333333333334,78.03657746315005L894.37,73.1174061298371L911.9066666666668,69.83770823478706L929.4433333333334,81.31627535820013L946.98,74.75725507736209" style="fill: none;" fill="none"></path></g></g></g></g></g></g><g transform="translate(60, 378)" clip-path="url(#clip_1)"><clipPath id="clip_1"><rect width="1052" height="22"></rect></clipPath><g><g><line x1="0" y1="0" x2="0" y2="5" style="visibility: inherit;" fill="rgb(0, 0, 0)" stroke="rgb(204, 204, 204)" stroke-width="1px"></line><line x1="87.68333333333334" y1="0" x2="87.68333333333334" y2="5" style="visibility: inherit;" fill="rgb(0, 0, 0)" stroke="rgb(204, 204, 204)" stroke-width="1px"></line><line x1="175.36666666666667" y1="0" x2="175.36666666666667" y2="5" style="visibility: inherit;" fill="rgb(0, 0, 0)" stroke="rgb(204, 204, 204)" stroke-width="1px"></line><line x1="263.05" y1="0" x2="263.05" y2="5" style="visibility: inherit;" fill="rgb(0, 0, 0)" stroke="rgb(204, 204, 204)" stroke-width="1px"></line><line x1="350.73333333333335" y1="0" x2="350.73333333333335" y2="5" style="visibility: inherit;" fill="rgb(0, 0, 0)" stroke="rgb(204, 204, 204)" stroke-width="1px"></line><line x1="438.4166666666667" y1="0" x2="438.4166666666667" y2="5" style="visibility: inherit;" fill="rgb(0, 0, 0)" stroke="rgb(204, 204, 204)" stroke-width="1px"></line><line x1="526.1" y1="0" x2="526.1" y2="5" style="visibility: inherit;" fill="rgb(0, 0, 0)" stroke="rgb(204, 204, 204)" stroke-width="1px"></line><line x1="613.7833333333334" y1="0" x2="613.7833333333334" y2="5" style="visibility: inherit;" fill="rgb(0, 0, 0)" stroke="rgb(204, 204, 204)" stroke-width="1px"></line><line x1="701.4666666666667" y1="0" x2="701.4666666666667" y2="5" style="visibility: inherit;" fill="rgb(0, 0, 0)" stroke="rgb(204, 204, 204)" stroke-width="1px"></line><line x1="789.1500000000001" y1="0" x2="789.1500000000001" y2="5" style="visibility: inherit;" fill="rgb(0, 0, 0)" stroke="rgb(204, 204, 204)" stroke-width="1px"></line><line x1="876.8333333333334" y1="0" x2="876.8333333333334" y2="5" style="visibility: inherit;" fill="rgb(0, 0, 0)" stroke="rgb(204, 204, 204)" stroke-width="1px"></line><line x1="964.5166666666667" y1="0" x2="964.5166666666667" y2="5" style="visibility: inherit;" fill="rgb(0, 0, 0)" stroke="rgb(204, 204, 204)" stroke-width="1px"></line><line x1="1052.2" y1="0" x2="1052.2" y2="5" style="visibility: inherit;" fill="rgb(0, 0, 0)" stroke="rgb(204, 204, 204)" stroke-width="1px"></line></g><g transform="translate(0, 8)"><text x="0" y="0" dx="0em" dy="0.95em" style="text-anchor: middle; visibility: hidden; font-family: Roboto, sans-serif; font-size: 12px; font-weight: 200;" fill="rgb(50, 49, 63)" stroke="none" stroke-width="1px">-5</text><text x="87.68333333333334" y="0" dx="0em" dy="0.95em" style="text-anchor: middle; visibility: inherit; font-family: Roboto, sans-serif; font-size: 12px; font-weight: 200;" fill="rgb(50, 49, 63)" stroke="none" stroke-width="1px">0</text><text x="175.36666666666667" y="0" dx="0em" dy="0.95em" style="text-anchor: middle; visibility: inherit; font-family: Roboto, sans-serif; font-size: 12px; font-weight: 200;" fill="rgb(50, 49, 63)" stroke="none" stroke-width="1px">5</text><text x="263.05" y="0" dx="0em" dy="0.95em" style="text-anchor: middle; visibility: inherit; font-family: Roboto, sans-serif; font-size: 12px; font-weight: 200;" fill="rgb(50, 49, 63)" stroke="none" stroke-width="1px">10</text><text x="350.73333333333335" y="0" dx="0em" dy="0.95em" style="text-anchor: middle; visibility: inherit; font-family: Roboto, sans-serif; font-size: 12px; font-weight: 200;" fill="rgb(50, 49, 63)" stroke="none" stroke-width="1px">15</text><text x="438.4166666666667" y="0" dx="0em" dy="0.95em" style="text-anchor: middle; visibility: inherit; font-family: Roboto, sans-serif; font-size: 12px; font-weight: 200;" fill="rgb(50, 49, 63)" stroke="none" stroke-width="1px">20</text><text x="526.1" y="0" dx="0em" dy="0.95em" style="text-anchor: middle; visibility: inherit; font-family: Roboto, sans-serif; font-size: 12px; font-weight: 200;" fill="rgb(50, 49, 63)" stroke="none" stroke-width="1px">25</text><text x="613.7833333333334" y="0" dx="0em" dy="0.95em" style="text-anchor: middle; visibility: inherit; font-family: Roboto, sans-serif; font-size: 12px; font-weight: 200;" fill="rgb(50, 49, 63)" stroke="none" stroke-width="1px">30</text><text x="701.4666666666667" y="0" dx="0em" dy="0.95em" style="text-anchor: middle; visibility: inherit; font-family: Roboto, sans-serif; font-size: 12px; font-weight: 200;" fill="rgb(50, 49, 63)" stroke="none" stroke-width="1px">35</text><text x="789.1500000000001" y="0" dx="0em" dy="0.95em" style="text-anchor: middle; visibility: inherit; font-family: Roboto, sans-serif; font-size: 12px; font-weight: 200;" fill="rgb(50, 49, 63)" stroke="none" stroke-width="1px">40</text><text x="876.8333333333334" y="0" dx="0em" dy="0.95em" style="text-anchor: middle; visibility: inherit; font-family: Roboto, sans-serif; font-size: 12px; font-weight: 200;" fill="rgb(50, 49, 63)" stroke="none" stroke-width="1px">45</text><text x="964.5166666666667" y="0" dx="0em" dy="0.95em" style="text-anchor: middle; visibility: inherit; font-family: Roboto, sans-serif; font-size: 12px; font-weight: 200;" fill="rgb(50, 49, 63)" stroke="none" stroke-width="1px">50</text><text x="1052.2" y="0" dx="0em" dy="0.95em" style="text-anchor: middle; visibility: hidden; font-family: Roboto, sans-serif; font-size: 12px; font-weight: 200;" fill="rgb(50, 49, 63)" stroke="none" stroke-width="1px">55</text></g><line x1="0" y1="0" x2="1052.2" y2="0" fill="rgb(0, 0, 0)" stroke="rgb(204, 204, 204)" stroke-width="1px"></line></g></g></g></g></svg>