<svg viewBox="0 0 1112.2000732421875 400" xmlns="http://www.w3.org/2000/svg"><g><g><g><g><g><line x1="50" y1="345.8080138549516" x2="45" y2="345.8080138549516" style="visibility: inherit;" fill="rgb(0, 0, 0)" stroke="rgb(204, 204, 204)" stroke-width="1px"></line><line x1="50" y1="304.942532993949" x2="45" y2="304.942532993949" style="visibility: inherit;" fill="rgb(0, 0, 0)" stroke="rgb(204, 204, 204)" stroke-width="1px"></line><line x1="50" y1="264.0770521329463" x2="45" y2="264.0770521329463" style="visibility: inherit;" fill="rgb(0, 0, 0)" stroke="rgb(204, 204, 204)" stroke-width="1px"></line><line x1="50" y1="223.21157127194357" x2="45" y2="223.21157127194357" style="visibility: inherit;" fill="rgb(0, 0, 0)" stroke="rgb(204, 204, 204)" stroke-width="1px"></line><line x1="50" y1="182.34609041094095" x2="45" y2="182.34609041094095" style="visibility: inherit;" fill="rgb(0, 0, 0)" stroke="rgb(204, 204, 204)" stroke-width="1px"></line><line x1="50" y1="141.48060954993826" x2="45" y2="141.48060954993826" style="visibility: inherit;" fill="rgb(0, 0, 0)" stroke="rgb(204, 204, 204)" stroke-width="1px"></line><line x1="50" y1="100.61512868893558" x2="45" y2="100.61512868893558" style="visibility: inherit;" fill="rgb(0, 0, 0)" stroke="rgb(204, 204, 204)" stroke-width="1px"></line><line x1="50" y1="59.749647827932954" x2="45" y2="59.749647827932954" style="visibility: inherit;" fill="rgb(0, 0, 0)" stroke="rgb(204, 204, 204)" stroke-width="1px"></line><line x1="50" y1="18.88416696693028" x2="45" y2="18.88416696693028" style="visibility: inherit;" fill="rgb(0, 0, 0)" stroke="rgb(204, 204, 204)" stroke-width="1px"></line></g><g transform="translate(40, 0)"><text x="0" y="345.8080138549516" dx="0em" dy="0.3em" style="text-anchor: end; visibility: inherit; font-family: Roboto, sans-serif; font-size: 12px; font-weight: 200;" fill="rgb(50, 49, 63)" stroke="none" stroke-width="1px">0.25</text><text x="0" y="304.942532993949" dx="0em" dy="0.3em" style="text-anchor: end; visibility: inherit; font-family: Roboto, sans-serif; font-size: 12px; font-weight: 200;" fill="rgb(50, 49, 63)" stroke="none" stroke-width="1px">0.3</text><text x="0" y="264.0770521329463" dx="0em" dy="0.3em" style="text-anchor: end; visibility: inherit; font-family: Roboto, sans-serif; font-size: 12px; font-weight: 200;" fill="rgb(50, 49, 63)" stroke="none" stroke-width="1px">0.35</text><text x="0" y="223.21157127194357" dx="0em" dy="0.3em" style="text-anchor: end; visibility: inherit; font-family: Roboto, sans-serif; font-size: 12px; font-weight: 200;" fill="rgb(50, 49, 63)" stroke="none" stroke-width="1px">0.4</text><text x="0" y="182.34609041094095" dx="0em" dy="0.3em" style="text-anchor: end; visibility: inherit; font-family: Roboto, sans-serif; font-size: 12px; font-weight: 200;" fill="rgb(50, 49, 63)" stroke="none" stroke-width="1px">0.45</text><text x="0" y="141.48060954993826" dx="0em" dy="0.3em" style="text-anchor: end; visibility: inherit; font-family: Roboto, sans-serif; font-size: 12px; font-weight: 200;" fill="rgb(50, 49, 63)" stroke="none" stroke-width="1px">0.5</text><text x="0" y="100.61512868893558" dx="0em" dy="0.3em" style="text-anchor: end; visibility: inherit; font-family: Roboto, sans-serif; font-size: 12px; font-weight: 200;" fill="rgb(50, 49, 63)" stroke="none" stroke-width="1px">0.55</text><text x="0" y="59.749647827932954" dx="0em" dy="0.3em" style="text-anchor: end; visibility: inherit; font-family: Roboto, sans-serif; font-size: 12px; font-weight: 200;" fill="rgb(50, 49, 63)" stroke="none" stroke-width="1px">0.6</text><text x="0" y="18.88416696693028" dx="0em" dy="0.3em" style="text-anchor: end; visibility: inherit; font-family: Roboto, sans-serif; font-size: 12px; font-weight: 200;" fill="rgb(50, 49, 63)" stroke="none" stroke-width="1px">0.65</text></g><line x1="50" y1="0" x2="50" y2="378" fill="rgb(0, 0, 0)" stroke="rgb(204, 204, 204)" stroke-width="1px"></line></g></g><g transform="translate(50, 0)" clip-path="url(#clip_0)"><clipPath id="clip_0"><rect width="1062" height="378"></rect></clipPath><g><g><g><line x1="5.566847334030252" y1="0" x2="5.566847334030252" y2="378" fill="rgb(0, 0, 0)" stroke="rgb(60, 60, 60)" stroke-width="1px" opacity="0.25"></line><line x1="110.83149713035449" y1="0" x2="110.83149713035449" y2="378" fill="rgb(0, 0, 0)" stroke="rgb(60, 60, 60)" stroke-width="1px" opacity="0.25"></line><line x1="216.09614692667873" y1="0" x2="216.09614692667873" y2="378" fill="rgb(0, 0, 0)" stroke="rgb(60, 60, 60)" stroke-width="1px" opacity="0.25"></line><line x1="321.360796723003" y1="0" x2="321.360796723003" y2="378" fill="rgb(0, 0, 0)" stroke="rgb(60, 60, 60)" stroke-width="1px" opacity="0.25"></line><line x1="426.62544651932717" y1="0" x2="426.62544651932717" y2="378" fill="rgb(0, 0, 0)" stroke="rgb(60, 60, 60)" stroke-width="1px" opacity="0.25"></line><line x1="531.8900963156514" y1="0" x2="531.8900963156514" y2="378" fill="rgb(0, 0, 0)" stroke="rgb(60, 60, 60)" stroke-width="1px" opacity="0.25"></line><line x1="637.1547461119758" y1="0" x2="637.1547461119758" y2="378" fill="rgb(0, 0, 0)" stroke="rgb(60, 60, 60)" stroke-width="1px" opacity="0.25"></line><line x1="742.4193959083" y1="0" x2="742.4193959083" y2="378" fill="rgb(0, 0, 0)" stroke="rgb(60, 60, 60)" stroke-width="1px" opacity="0.25"></line><line x1="847.6840457046242" y1="0" x2="847.6840457046242" y2="378" fill="rgb(0, 0, 0)" stroke="rgb(60, 60, 60)" stroke-width="1px" opacity="0.25"></line><line x1="952.9486955009484" y1="0" x2="952.9486955009484" y2="378" fill="rgb(0, 0, 0)" stroke="rgb(60, 60, 60)" stroke-width="1px" opacity="0.25"></line><line x1="1058.2133452972726" y1="0" x2="1058.2133452972726" y2="378" fill="rgb(0, 0, 0)" stroke="rgb(60, 60, 60)" stroke-width="1px" opacity="0.25"></line></g><g><line x1="0" y1="345.8080138549516" x2="1062.2" y2="345.8080138549516" fill="rgb(0, 0, 0)" stroke="rgb(60, 60, 60)" stroke-width="1px" opacity="0.25"></line><line x1="0" y1="304.942532993949" x2="1062.2" y2="304.942532993949" fill="rgb(0, 0, 0)" stroke="rgb(60, 60, 60)" stroke-width="1px" opacity="0.25"></line><line x1="0" y1="264.0770521329463" x2="1062.2" y2="264.0770521329463" fill="rgb(0, 0, 0)" stroke="rgb(60, 60, 60)" stroke-width="1px" opacity="0.25"></line><line x1="0" y1="223.21157127194357" x2="1062.2" y2="223.21157127194357" fill="rgb(0, 0, 0)" stroke="rgb(60, 60, 60)" stroke-width="1px" opacity="0.25"></line><line x1="0" y1="182.34609041094095" x2="1062.2" y2="182.34609041094095" fill="rgb(0, 0, 0)" stroke="rgb(60, 60, 60)" stroke-width="1px" opacity="0.25"></line><line x1="0" y1="141.48060954993826" x2="1062.2" y2="141.48060954993826" fill="rgb(0, 0, 0)" stroke="rgb(60, 60, 60)" stroke-width="1px" opacity="0.25"></line><line x1="0" y1="100.61512868893558" x2="1062.2" y2="100.61512868893558" fill="rgb(0, 0, 0)" stroke="rgb(60, 60, 60)" stroke-width="1px" opacity="0.25"></line><line x1="0" y1="59.749647827932954" x2="1062.2" y2="59.749647827932954" fill="rgb(0, 0, 0)" stroke="rgb(60, 60, 60)" stroke-width="1px" opacity="0.25"></line><line x1="0" y1="18.88416696693028" x2="1062.2" y2="18.88416696693028" fill="rgb(0, 0, 0)" stroke="rgb(60, 60, 60)" stroke-width="1px" opacity="0.25"></line></g></g></g><g><g><line x1="0" y1="550.135418159965" x2="1062.2" y2="550.135418159965" fill="rgb(0, 0, 0)" stroke="rgb(153, 153, 153)" stroke-width="1.5px"></line></g></g><g><g><line x1="5.566847334030252" y1="0" x2="5.566847334030252" y2="378" fill="rgb(0, 0, 0)" stroke="rgb(153, 153, 153)" stroke-width="1.5px"></line></g></g><g><g><g><g><g><path stroke="rgb(51, 187, 238)" stroke-width="2px" d="M5.566847334030252,141.0713510594792L26.6197772932951,228.55241162284173L47.67270725255994,213.62436595731523L68.72563721182479,273.62314160827606L89.77856717108963,263.4080233800751L110.83149713035449,247.90218812686982L131.88442708961932,250.84143476677554L152.93735704888417,242.2246704335826L173.99028700814904,248.58128149158827L195.0432169674139,248.4597364453205L216.09614692667873,249.7040995272204L237.1490768859436,250.37644580219612L258.2020068452084,251.31633732530906L279.2549368044733,249.1577070466837L300.30786676373816,251.53112374173972L321.360796723003,250.04452308766892L342.4137266822678,250.88958998851325L363.46665664153267,251.76590785015154L384.51958660079754,250.75084838860522L405.57251656006235,250.37690859896546L426.62544651932717,250.09966897639643L447.6783764785921,249.83161221604038L468.7313064378569,249.93398773296693L489.78423639712173,249.89292060911774L510.8371663563866,249.6660527612344L531.8900963156514,249.612295262815L552.9430262749163,249.7811673681806L573.9959562341812,249.8416232408933L595.0488861934459,250.04912669763777L616.1018161527109,249.9791225968415L637.1547461119758,250.03231986759275L658.2076760712405,250.03636324989347L679.2606060305054,250.06568995043583L700.3135359897701,250.07677271517565L721.366465949035,250.05470461659476L742.4193959083,250.0425988274174L763.4723258675647,250.03943232320597L784.5252558268296,250.0550456247406L805.5781857860945,250.0436462095796L826.6311157453592,250.04700757558862L847.6840457046242,250.0501010066259L868.7369756638891,250.05506998246534L889.7899056231538,250.05765190128383L910.8428355824187,250.05821212895202L931.8957655416834,250.05930822656364L952.9486955009484,250.0607453323211L974.0016254602133,250.06101326729285L995.054555419478,250.06140299088807L1016.1074853787429,250.0617683567586L1037.1604153380079,250.06171964130922" style="fill: none;" fill="none"></path></g><g><path stroke="rgb(238, 51, 119)" stroke-width="2px" d="M5.566847334030252,135.139709224366L26.6197772932951,218.5206583462046L47.67270725255994,222.85828196130703L68.72563721182479,239.1735244063915L89.77856717108963,260.9345207942147L110.83149713035449,250.8582659545453L131.88442708961932,257.2250341837521L152.93735704888417,259.66594613396L173.99028700814904,253.52105241907242L195.0432169674139,256.7326427788818L216.09614692667873,257.9137732074529L237.1490768859436,254.29913557698367L258.2020068452084,251.92467149976537L279.2549368044733,251.59696267161186L300.30786676373816,251.77146141138377L321.360796723003,251.51728855410846L342.4137266822678,252.61056066967592L363.46665664153267,251.9206768329141L384.51958660079754,251.50842234231658L405.57251656006235,251.6115773064336L426.62544651932717,251.11721292586242L447.6783764785921,251.0334223528842L468.7313064378569,250.90951460732032L489.78423639712173,250.92225369733995L510.8371663563866,251.1584018383351L531.8900963156514,250.9252496974784L552.9430262749163,251.0915155263008L573.9959562341812,251.015811717924L595.0488861934459,251.06350414289238L616.1018161527109,251.13287494284643L637.1547461119758,251.11489894201563L658.2076760712405,251.1054968602803L679.2606060305054,251.13265572332406L700.3135359897701,251.1145579338698L721.366465949035,251.0676693138166L742.4193959083,251.05324954079245L763.4723258675647,251.04489484121933L784.5252558268296,251.05929025651878L805.5781857860945,251.06384515103824L826.6311157453592,251.06966664724226L847.6840457046242,251.06971536269168L868.7369756638891,251.06876541142822L889.7899056231538,251.0702755903598L910.8428355824187,251.07056788305624L931.8957655416834,251.06961793179283L952.9486955009484,251.07071402940446L974.0016254602133,251.06995893993866L995.054555419478,251.0701050862869L1016.1074853787429,251.07005637083748L1037.1604153380079,251.0702999480845" style="fill: none;" fill="none"></path></g><g><path stroke="rgb(0, 153, 136)" stroke-width="2px" d="M5.566847334030252,143.85273528558503L26.6197772932951,228.06174961642535L47.67270725255994,248.62497924970535L68.72563721182479,245.31600670653353L89.77856717108963,251.05261623995014L110.83149713035449,242.54334254587133L131.88442708961932,255.65478910305137L152.93735704888417,249.09890749925077L173.99028700814904,261.79142554926466L195.0432169674139,257.4993265216321L216.09614692667873,258.01320143969036L237.1490768859436,257.0930153158621L258.2020068452084,256.0887219686345L279.2549368044733,256.7878860985081L300.30786676373816,260.1495931156619L321.360796723003,258.7337760095779L342.4137266822678,255.3746752689674L363.46665664153267,256.7390488604787L384.51958660079754,255.95957731225943L405.57251656006235,255.7962100526767L426.62544651932717,256.09320378997984L447.6783764785921,256.2553288056027L468.7313064378569,255.88065828422185L489.78423639712173,256.17945449315306L510.8371663563866,255.9547057673188L531.8900963156514,255.62202796332588L552.9430262749163,255.54944194371103L573.9959562341812,255.70394299150192L595.0488861934459,255.7688076123859L616.1018161527109,255.6891578526072L637.1547461119758,255.69702539768628L658.2076760712405,255.67931733182724L679.2606060305054,255.6725458843598L700.3135359897701,255.66075674560358L721.366465949035,255.65179310291288L742.4193959083,255.64511908634427L763.4723258675647,255.63201463045405L784.5252558268296,255.6386399315733L805.5781857860945,255.63686181767L826.6311157453592,255.63413375250326L847.6840457046242,255.63561957371013L868.7369756638891,255.63123518326358L889.7899056231538,255.63427989885145L910.8428355824187,255.6347670533455L931.8957655416834,255.6344260451997L952.9486955009484,255.63596058185595L974.0016254602133,255.63652080952414L995.054555419478,255.6369592485688L1016.1074853787429,255.63674002904645L1037.1604153380079,255.63676438677118" style="fill: none;" fill="none"></path></g><g><path stroke="rgb(255, 112, 67)" stroke-width="2px" d="M5.566847334030252,147.81870873716971L26.6197772932951,206.6690663838356L47.67270725255994,218.00422586705258L68.72563721182479,254.47643545509646L89.77856717108963,248.56374392980211L110.83149713035449,259.307522214956L131.88442708961932,261.020674066489L152.93735704888417,246.83042388221511L173.99028700814904,260.6587182774031L195.0432169674139,257.0418884517106L216.09614692667873,258.92430213220445L237.1490768859436,261.69102300803905L258.2020068452084,257.26463984411913L279.2549368044733,255.9476907426044L300.30786676373816,257.0019904986471L321.360796723003,256.12099595386593L342.4137266822678,255.72338045581486L363.46665664153267,255.1094440046769L384.51958660079754,255.34581136519438L405.57251656006235,254.6618220978106L426.62544651932717,254.15664288747135L447.6783764785921,253.7884271631368L468.7313064378569,254.49860098457617L489.78423639712173,254.64408967422688L510.8371663563866,254.33637853805445L531.8900963156514,254.31898712261656L552.9430262749163,254.58899250094882L573.9959562341812,254.62774564095125L595.0488861934459,254.58660544392794L616.1018161527109,254.5941076231364L637.1547461119758,254.6859118875419L658.2076760712405,254.6760470090372L679.2606060305054,254.71236437656927L700.3135359897701,254.68169800116826L721.366465949035,254.6787750742039L742.4193959083,254.65668261789833L763.4723258675647,254.6588748131216L784.5252558268296,254.64433325147394L805.5781857860945,254.63057113701677L826.6311157453592,254.62796486047355L847.6840457046242,254.6285738035911L868.7369756638891,254.62937760850633L889.7899056231538,254.63307998266114L910.8428355824187,254.63390814530106L931.8957655416834,254.63446837296925L952.9486955009484,254.63731822675945L974.0016254602133,254.6389501943146L995.054555419478,254.64038730007206L1016.1074853787429,254.64136160906017L1037.1604153380079,254.64192183672833" style="fill: none;" fill="none"></path></g><g><path stroke="rgb(204, 51, 17)" stroke-width="2px" d="M5.566847334030252,123.02232577003831L26.6197772932951,207.20050322140466L47.67270725255994,235.66956827697248L68.72563721182479,238.7746910221053L89.77856717108963,251.48762084542025L110.83149713035449,255.52396376367176L131.88442708961932,264.3603373427866L152.93735704888417,255.97860069525245L173.99028700814904,258.36821527723595L195.0432169674139,257.90446855661634L216.09614692667873,257.53557081599007L237.1490768859436,254.2404091027248L258.2020068452084,254.50361867586494L279.2549368044733,251.55007405155865L300.30786676373816,252.70153677144145L321.360796723003,250.7521637057392L342.4137266822678,250.60065865808681L363.46665664153267,248.30708658460708L384.51958660079754,248.52231144008238L405.57251656006235,249.47664709394422L426.62544651932717,249.07301523789152L447.6783764785921,248.0213461161167L468.7313064378569,248.31544128418022L489.78423639712173,248.10486875412317L510.8371663563866,248.37998925464302L531.8900963156514,248.34001822840548L552.9430262749163,248.38505566138127L573.9959562341812,248.25496105374276L595.0488861934459,248.32662147981887L616.1018161527109,248.32106791858658L637.1547461119758,248.28097510372552L658.2076760712405,248.2798790061139L679.2606060305054,248.2767612173519L700.3135359897701,248.24853061442118L721.366465949035,248.22100638550685L742.4193959083,248.25398674475463L763.4723258675647,248.25547256596153L784.5252558268296,248.254693118771L805.5781857860945,248.25812755795414L826.6311157453592,248.25298807804185L847.6840457046242,248.26209786708074L868.7369756638891,248.26029539545272L889.7899056231538,248.2561545822532L910.8428355824187,248.25566742775914L931.8957655416834,248.25315858211476L952.9486955009484,248.25069845191973L974.0016254602133,248.25152661455965L995.054555419478,248.25225734630072L1016.1074853787429,248.252890647143L1037.1604153380079,248.25335344391237" style="fill: none;" fill="none"></path></g></g></g></g></g></g><g transform="translate(50, 378)" clip-path="url(#clip_1)"><clipPath id="clip_1"><rect width="1062" height="22"></rect></clipPath><g><g><line x1="5.566847334030252" y1="0" x2="5.566847334030252" y2="5" style="visibility: inherit;" fill="rgb(0, 0, 0)" stroke="rgb(204, 204, 204)" stroke-width="1px"></line><line x1="110.83149713035449" y1="0" x2="110.83149713035449" y2="5" style="visibility: inherit;" fill="rgb(0, 0, 0)" stroke="rgb(204, 204, 204)" stroke-width="1px"></line><line x1="216.09614692667873" y1="0" x2="216.09614692667873" y2="5" style="visibility: inherit;" fill="rgb(0, 0, 0)" stroke="rgb(204, 204, 204)" stroke-width="1px"></line><line x1="321.360796723003" y1="0" x2="321.360796723003" y2="5" style="visibility: inherit;" fill="rgb(0, 0, 0)" stroke="rgb(204, 204, 204)" stroke-width="1px"></line><line x1="426.62544651932717" y1="0" x2="426.62544651932717" y2="5" style="visibility: inherit;" fill="rgb(0, 0, 0)" stroke="rgb(204, 204, 204)" stroke-width="1px"></line><line x1="531.8900963156514" y1="0" x2="531.8900963156514" y2="5" style="visibility: inherit;" fill="rgb(0, 0, 0)" stroke="rgb(204, 204, 204)" stroke-width="1px"></line><line x1="637.1547461119758" y1="0" x2="637.1547461119758" y2="5" style="visibility: inherit;" fill="rgb(0, 0, 0)" stroke="rgb(204, 204, 204)" stroke-width="1px"></line><line x1="742.4193959083" y1="0" x2="742.4193959083" y2="5" style="visibility: inherit;" fill="rgb(0, 0, 0)" stroke="rgb(204, 204, 204)" stroke-width="1px"></line><line x1="847.6840457046242" y1="0" x2="847.6840457046242" y2="5" style="visibility: inherit;" fill="rgb(0, 0, 0)" stroke="rgb(204, 204, 204)" stroke-width="1px"></line><line x1="952.9486955009484" y1="0" x2="952.9486955009484" y2="5" style="visibility: inherit;" fill="rgb(0, 0, 0)" stroke="rgb(204, 204, 204)" stroke-width="1px"></line><line x1="1058.2133452972726" y1="0" x2="1058.2133452972726" y2="5" style="visibility: inherit;" fill="rgb(0, 0, 0)" stroke="rgb(204, 204, 204)" stroke-width="1px"></line></g><g transform="translate(0, 8)"><text x="5.566847334030252" y="0" dx="0em" dy="0.95em" style="text-anchor: middle; visibility: inherit; font-family: Roboto, sans-serif; font-size: 12px; font-weight: 200;" fill="rgb(50, 49, 63)" stroke="none" stroke-width="1px">0</text><text x="110.83149713035449" y="0" dx="0em" dy="0.95em" style="text-anchor: middle; visibility: inherit; font-family: Roboto, sans-serif; font-size: 12px; font-weight: 200;" fill="rgb(50, 49, 63)" stroke="none" stroke-width="1px">5</text><text x="216.09614692667873" y="0" dx="0em" dy="0.95em" style="text-anchor: middle; visibility: inherit; font-family: Roboto, sans-serif; font-size: 12px; font-weight: 200;" fill="rgb(50, 49, 63)" stroke="none" stroke-width="1px">10</text><text x="321.360796723003" y="0" dx="0em" dy="0.95em" style="text-anchor: middle; visibility: inherit; font-family: Roboto, sans-serif; font-size: 12px; font-weight: 200;" fill="rgb(50, 49, 63)" stroke="none" stroke-width="1px">15</text><text x="426.62544651932717" y="0" dx="0em" dy="0.95em" style="text-anchor: middle; visibility: inherit; font-family: Roboto, sans-serif; font-size: 12px; font-weight: 200;" fill="rgb(50, 49, 63)" stroke="none" stroke-width="1px">20</text><text x="531.8900963156514" y="0" dx="0em" dy="0.95em" style="text-anchor: middle; visibility: inherit; font-family: Roboto, sans-serif; font-size: 12px; font-weight: 200;" fill="rgb(50, 49, 63)" stroke="none" stroke-width="1px">25</text><text x="637.1547461119758" y="0" dx="0em" dy="0.95em" style="text-anchor: middle; visibility: inherit; font-family: Roboto, sans-serif; font-size: 12px; font-weight: 200;" fill="rgb(50, 49, 63)" stroke="none" stroke-width="1px">30</text><text x="742.4193959083" y="0" dx="0em" dy="0.95em" style="text-anchor: middle; visibility: inherit; font-family: Roboto, sans-serif; font-size: 12px; font-weight: 200;" fill="rgb(50, 49, 63)" stroke="none" stroke-width="1px">35</text><text x="847.6840457046242" y="0" dx="0em" dy="0.95em" style="text-anchor: middle; visibility: inherit; font-family: Roboto, sans-serif; font-size: 12px; font-weight: 200;" fill="rgb(50, 49, 63)" stroke="none" stroke-width="1px">40</text><text x="952.9486955009484" y="0" dx="0em" dy="0.95em" style="text-anchor: middle; visibility: inherit; font-family: Roboto, sans-serif; font-size: 12px; font-weight: 200;" fill="rgb(50, 49, 63)" stroke="none" stroke-width="1px">45</text><text x="1058.2133452972726" y="0" dx="0em" dy="0.95em" style="text-anchor: middle; visibility: hidden; font-family: Roboto, sans-serif; font-size: 12px; font-weight: 200;" fill="rgb(50, 49, 63)" stroke="none" stroke-width="1px">50</text></g><line x1="0" y1="0" x2="1062.2" y2="0" fill="rgb(0, 0, 0)" stroke="rgb(204, 204, 204)" stroke-width="1px"></line></g></g></g></g></svg>