<svg viewBox="0 0 1112.2000732421875 400" xmlns="http://www.w3.org/2000/svg"><g><g><g><g><g><line x1="50" y1="362.2274648563707" x2="45" y2="362.2274648563707" style="visibility: inherit;" fill="rgb(0, 0, 0)" stroke="rgb(204, 204, 204)" stroke-width="1px"></line><line x1="50" y1="324.7674407337844" x2="45" y2="324.7674407337844" style="visibility: inherit;" fill="rgb(0, 0, 0)" stroke="rgb(204, 204, 204)" stroke-width="1px"></line><line x1="50" y1="287.30741661119845" x2="45" y2="287.30741661119845" style="visibility: inherit;" fill="rgb(0, 0, 0)" stroke="rgb(204, 204, 204)" stroke-width="1px"></line><line x1="50" y1="249.8473924886122" x2="45" y2="249.8473924886122" style="visibility: inherit;" fill="rgb(0, 0, 0)" stroke="rgb(204, 204, 204)" stroke-width="1px"></line><line x1="50" y1="212.38736836602587" x2="45" y2="212.38736836602587" style="visibility: inherit;" fill="rgb(0, 0, 0)" stroke="rgb(204, 204, 204)" stroke-width="1px"></line><line x1="50" y1="174.9273442434396" x2="45" y2="174.9273442434396" style="visibility: inherit;" fill="rgb(0, 0, 0)" stroke="rgb(204, 204, 204)" stroke-width="1px"></line><line x1="50" y1="137.4673201208533" x2="45" y2="137.4673201208533" style="visibility: inherit;" fill="rgb(0, 0, 0)" stroke="rgb(204, 204, 204)" stroke-width="1px"></line><line x1="50" y1="100.00729599826698" x2="45" y2="100.00729599826698" style="visibility: inherit;" fill="rgb(0, 0, 0)" stroke="rgb(204, 204, 204)" stroke-width="1px"></line><line x1="50" y1="62.54727187568068" x2="45" y2="62.54727187568068" style="visibility: inherit;" fill="rgb(0, 0, 0)" stroke="rgb(204, 204, 204)" stroke-width="1px"></line><line x1="50" y1="25.08724775309437" x2="45" y2="25.08724775309437" style="visibility: inherit;" fill="rgb(0, 0, 0)" stroke="rgb(204, 204, 204)" stroke-width="1px"></line></g><g transform="translate(40, 0)"><text x="0" y="362.2274648563707" dx="0em" dy="0.3em" style="text-anchor: end; visibility: inherit; font-family: Roboto, sans-serif; font-size: 12px; font-weight: 200;" fill="rgb(50, 49, 63)" stroke="none" stroke-width="1px">0.8</text><text x="0" y="324.7674407337844" dx="0em" dy="0.3em" style="text-anchor: end; visibility: inherit; font-family: Roboto, sans-serif; font-size: 12px; font-weight: 200;" fill="rgb(50, 49, 63)" stroke="none" stroke-width="1px">0.81</text><text x="0" y="287.30741661119845" dx="0em" dy="0.3em" style="text-anchor: end; visibility: inherit; font-family: Roboto, sans-serif; font-size: 12px; font-weight: 200;" fill="rgb(50, 49, 63)" stroke="none" stroke-width="1px">0.82</text><text x="0" y="249.8473924886122" dx="0em" dy="0.3em" style="text-anchor: end; visibility: inherit; font-family: Roboto, sans-serif; font-size: 12px; font-weight: 200;" fill="rgb(50, 49, 63)" stroke="none" stroke-width="1px">0.83</text><text x="0" y="212.38736836602587" dx="0em" dy="0.3em" style="text-anchor: end; visibility: inherit; font-family: Roboto, sans-serif; font-size: 12px; font-weight: 200;" fill="rgb(50, 49, 63)" stroke="none" stroke-width="1px">0.84</text><text x="0" y="174.9273442434396" dx="0em" dy="0.3em" style="text-anchor: end; visibility: inherit; font-family: Roboto, sans-serif; font-size: 12px; font-weight: 200;" fill="rgb(50, 49, 63)" stroke="none" stroke-width="1px">0.85</text><text x="0" y="137.4673201208533" dx="0em" dy="0.3em" style="text-anchor: end; visibility: inherit; font-family: Roboto, sans-serif; font-size: 12px; font-weight: 200;" fill="rgb(50, 49, 63)" stroke="none" stroke-width="1px">0.86</text><text x="0" y="100.00729599826698" dx="0em" dy="0.3em" style="text-anchor: end; visibility: inherit; font-family: Roboto, sans-serif; font-size: 12px; font-weight: 200;" fill="rgb(50, 49, 63)" stroke="none" stroke-width="1px">0.87</text><text x="0" y="62.54727187568068" dx="0em" dy="0.3em" style="text-anchor: end; visibility: inherit; font-family: Roboto, sans-serif; font-size: 12px; font-weight: 200;" fill="rgb(50, 49, 63)" stroke="none" stroke-width="1px">0.88</text><text x="0" y="25.08724775309437" dx="0em" dy="0.3em" style="text-anchor: end; visibility: inherit; font-family: Roboto, sans-serif; font-size: 12px; font-weight: 200;" fill="rgb(50, 49, 63)" stroke="none" stroke-width="1px">0.89</text></g><line x1="50" y1="0" x2="50" y2="378" fill="rgb(0, 0, 0)" stroke="rgb(204, 204, 204)" stroke-width="1px"></line></g></g><g transform="translate(50, 0)" clip-path="url(#clip_0)"><clipPath id="clip_0"><rect width="1062" height="378"></rect></clipPath><g><g><g><line x1="22.80310103874248" y1="0" x2="22.80310103874248" y2="378" fill="rgb(0, 0, 0)" stroke="rgb(60, 60, 60)" stroke-width="1px" opacity="0.25"></line><line x1="128.06775083506648" y1="0" x2="128.06775083506648" y2="378" fill="rgb(0, 0, 0)" stroke="rgb(60, 60, 60)" stroke-width="1px" opacity="0.25"></line><line x1="233.33240063139047" y1="0" x2="233.33240063139047" y2="378" fill="rgb(0, 0, 0)" stroke="rgb(60, 60, 60)" stroke-width="1px" opacity="0.25"></line><line x1="338.59705042771446" y1="0" x2="338.59705042771446" y2="378" fill="rgb(0, 0, 0)" stroke="rgb(60, 60, 60)" stroke-width="1px" opacity="0.25"></line><line x1="443.8617002240385" y1="0" x2="443.8617002240385" y2="378" fill="rgb(0, 0, 0)" stroke="rgb(60, 60, 60)" stroke-width="1px" opacity="0.25"></line><line x1="549.1263500203625" y1="0" x2="549.1263500203625" y2="378" fill="rgb(0, 0, 0)" stroke="rgb(60, 60, 60)" stroke-width="1px" opacity="0.25"></line><line x1="654.3909998166864" y1="0" x2="654.3909998166864" y2="378" fill="rgb(0, 0, 0)" stroke="rgb(60, 60, 60)" stroke-width="1px" opacity="0.25"></line><line x1="759.6556496130105" y1="0" x2="759.6556496130105" y2="378" fill="rgb(0, 0, 0)" stroke="rgb(60, 60, 60)" stroke-width="1px" opacity="0.25"></line><line x1="864.9202994093345" y1="0" x2="864.9202994093345" y2="378" fill="rgb(0, 0, 0)" stroke="rgb(60, 60, 60)" stroke-width="1px" opacity="0.25"></line><line x1="970.1849492056584" y1="0" x2="970.1849492056584" y2="378" fill="rgb(0, 0, 0)" stroke="rgb(60, 60, 60)" stroke-width="1px" opacity="0.25"></line></g><g><line x1="0" y1="362.2274648563707" x2="1062.2" y2="362.2274648563707" fill="rgb(0, 0, 0)" stroke="rgb(60, 60, 60)" stroke-width="1px" opacity="0.25"></line><line x1="0" y1="324.7674407337844" x2="1062.2" y2="324.7674407337844" fill="rgb(0, 0, 0)" stroke="rgb(60, 60, 60)" stroke-width="1px" opacity="0.25"></line><line x1="0" y1="287.30741661119845" x2="1062.2" y2="287.30741661119845" fill="rgb(0, 0, 0)" stroke="rgb(60, 60, 60)" stroke-width="1px" opacity="0.25"></line><line x1="0" y1="249.8473924886122" x2="1062.2" y2="249.8473924886122" fill="rgb(0, 0, 0)" stroke="rgb(60, 60, 60)" stroke-width="1px" opacity="0.25"></line><line x1="0" y1="212.38736836602587" x2="1062.2" y2="212.38736836602587" fill="rgb(0, 0, 0)" stroke="rgb(60, 60, 60)" stroke-width="1px" opacity="0.25"></line><line x1="0" y1="174.9273442434396" x2="1062.2" y2="174.9273442434396" fill="rgb(0, 0, 0)" stroke="rgb(60, 60, 60)" stroke-width="1px" opacity="0.25"></line><line x1="0" y1="137.4673201208533" x2="1062.2" y2="137.4673201208533" fill="rgb(0, 0, 0)" stroke="rgb(60, 60, 60)" stroke-width="1px" opacity="0.25"></line><line x1="0" y1="100.00729599826698" x2="1062.2" y2="100.00729599826698" fill="rgb(0, 0, 0)" stroke="rgb(60, 60, 60)" stroke-width="1px" opacity="0.25"></line><line x1="0" y1="62.54727187568068" x2="1062.2" y2="62.54727187568068" fill="rgb(0, 0, 0)" stroke="rgb(60, 60, 60)" stroke-width="1px" opacity="0.25"></line><line x1="0" y1="25.08724775309437" x2="1062.2" y2="25.08724775309437" fill="rgb(0, 0, 0)" stroke="rgb(60, 60, 60)" stroke-width="1px" opacity="0.25"></line></g></g></g><g><g><line x1="0" y1="3359.0293946632723" x2="1062.2" y2="3359.0293946632723" fill="rgb(0, 0, 0)" stroke="rgb(153, 153, 153)" stroke-width="1.5px"></line></g></g><g><g><line x1="22.80310103874248" y1="0" x2="22.80310103874248" y2="378" fill="rgb(0, 0, 0)" stroke="rgb(153, 153, 153)" stroke-width="1.5px"></line></g></g><g><g><g><g><g><path stroke="rgb(51, 187, 238)" stroke-width="2px" d="M22.80310103874248,277.9862090172643L43.85603099800728,190.23504970429036L64.90896095727207,191.2101097222536L85.96189091653689,98.58387359860653L107.01482087580169,97.60881358064323L128.06775083506648,109.30886395877299L149.12068079433126,101.50883037335315L170.17361075359608,99.55871033742666L191.22654071286087,77.13344631998731L212.27947067212568,77.13344631998731L233.33240063139047,72.25836950931415L254.3853305906553,82.98358314862374L275.4382605499201,63.483275905931066L296.4911905091849,76.15838630202407L317.54412046844965,75.18354956320394L338.59705042771446,76.15838630202407L359.6499803869793,70.30847275253078L380.7029103462441,71.2833094913509L401.75584030550885,78.10850633795057L422.80877026477367,76.15838630202407L443.8617002240385,76.15838630202407L464.9146301833033,77.13344631998731L485.96756014256806,74.20848954524065L507.0204901018329,73.23342952727741L528.0734200610976,78.10850633795057L549.1263500203625,78.10850633795057L570.1792799796273,78.10850633795057L591.2322099388921,77.13344631998731L612.2851398981569,76.15838630202407L633.3380698574216,76.15838630202407L654.3909998166864,76.15838630202407L675.4439297759513,80.0586263738771L696.496859735216,76.15838630202407L717.5497896944809,76.15838630202407L738.6027196537457,76.15838630202407L759.6556496130105,76.15838630202407L780.7085795722753,76.15838630202407L801.76150953154,76.15838630202407L822.8144394908048,76.15838630202407L843.8673694500698,76.15838630202407L864.9202994093345,76.15838630202407L885.9732293685993,76.15838630202407L907.0261593278641,76.15838630202407L928.0790892871288,76.15838630202407L949.1320192463937,76.15838630202407L970.1849492056584,76.15838630202407L991.2378791649232,76.15838630202407L1012.2908091241881,76.15838630202407L1033.3437390834529,76.15838630202407L1054.3966690427176,76.15838630202407" style="fill: none;" fill="none"></path></g><g><path stroke="rgb(238, 51, 119)" stroke-width="2px" d="M22.80310103874248,302.36159307063014L43.85603099800728,196.08518653292677L64.90896095727207,176.5848792902341L85.96189091653689,154.15961527279478L107.01482087580169,123.9340943907925L128.06775083506648,100.5337703553899L149.12068079433126,77.13344631998731L170.17361075359608,73.23342952727741L191.22654071286087,78.10850633795057L212.27947067212568,67.38329269864099L233.33240063139047,50.80816550983806L254.3853305906553,55.68324232051123L275.4382605499201,67.38329269864099L296.4911905091849,63.483275905931066L317.54412046844965,60.5583191311844L338.59705042771446,60.5583191311844L359.6499803869793,60.5583191311844L380.7029103462441,63.483275905931066L401.75584030550885,62.50821588796782L422.80877026477367,60.5583191311844L443.8617002240385,62.50821588796782L464.9146301833033,59.58325911322115L485.96756014256806,58.6081990952579L507.0204901018329,54.70818230254798L528.0734200610976,55.68324232051123L549.1263500203625,57.63313907729466L570.1792799796273,56.658079059331406L591.2322099388921,56.658079059331406L612.2851398981569,55.68324232051123L633.3380698574216,55.68324232051123L654.3909998166864,56.658079059331406L675.4439297759513,55.68324232051123L696.496859735216,55.68324232051123L717.5497896944809,56.658079059331406L738.6027196537457,55.68324232051123L759.6556496130105,55.68324232051123L780.7085795722753,55.68324232051123L801.76150953154,55.68324232051123L822.8144394908048,55.68324232051123L843.8673694500698,55.68324232051123L864.9202994093345,55.68324232051123L885.9732293685993,55.68324232051123L907.0261593278641,55.68324232051123L928.0790892871288,55.68324232051123L949.1320192463937,55.68324232051123L970.1849492056584,55.68324232051123L991.2378791649232,55.68324232051123L1012.2908091241881,55.68324232051123L1033.3437390834529,55.68324232051123L1054.3966690427176,55.68324232051123" style="fill: none;" fill="none"></path></g><g><path stroke="rgb(0, 153, 136)" stroke-width="2px" d="M22.80310103874248,284.81140586386397L43.85603099800728,184.38491287565395L64.90896095727207,150.25959848008486L85.96189091653689,131.73435125535545L107.01482087580169,111.25898399469949L128.06775083506648,121.00913761604586L149.12068079433126,99.55871033742666L170.17361075359608,83.95864316658698L191.22654071286087,61.53315587000457L212.27947067212568,63.483275905931066L233.33240063139047,68.35835271660423L254.3853305906553,66.40823268067774L275.4382605499201,63.483275905931066L296.4911905091849,63.483275905931066L317.54412046844965,64.45833592389431L338.59705042771446,60.5583191311844L359.6499803869793,64.45833592389431L380.7029103462441,59.58325911322115L401.75584030550885,55.68324232051123L422.80877026477367,60.5583191311844L443.8617002240385,58.6081990952579L464.9146301833033,63.483275905931066L485.96756014256806,57.63313907729466L507.0204901018329,57.63313907729466L528.0734200610976,57.63313907729466L549.1263500203625,55.68324232051123L570.1792799796273,56.658079059331406L591.2322099388921,56.658079059331406L612.2851398981569,55.68324232051123L633.3380698574216,55.68324232051123L654.3909998166864,58.6081990952579L675.4439297759513,56.658079059331406L696.496859735216,56.658079059331406L717.5497896944809,56.658079059331406L738.6027196537457,56.658079059331406L759.6556496130105,56.658079059331406L780.7085795722753,56.658079059331406L801.76150953154,56.658079059331406L822.8144394908048,56.658079059331406L843.8673694500698,56.658079059331406L864.9202994093345,56.658079059331406L885.9732293685993,56.658079059331406L907.0261593278641,54.70818230254798L928.0790892871288,54.70818230254798L949.1320192463937,54.70818230254798L970.1849492056584,54.70818230254798L991.2378791649232,54.70818230254798L1012.2908091241881,54.70818230254798L1033.3437390834529,54.70818230254798L1054.3966690427176,54.70818230254798" style="fill: none;" fill="none"></path></g><g><path stroke="rgb(255, 112, 67)" stroke-width="2px" d="M22.80310103874248,255.56094499982495L43.85603099800728,206.8104001722364L64.90896095727207,178.5349993261606L85.96189091653689,127.83411118350242L107.01482087580169,117.10912082333594L128.06775083506648,86.88359994133366L149.12068079433126,81.03346311269723L170.17361075359608,91.75867675200682L191.22654071286087,67.38329269864099L212.27947067212568,74.20848954524065L233.33240063139047,65.43339594185757L254.3853305906553,63.483275905931066L275.4382605499201,65.43339594185757L296.4911905091849,67.38329269864099L317.54412046844965,60.5583191311844L338.59705042771446,63.483275905931066L359.6499803869793,62.50821588796782L380.7029103462441,64.45833592389431L401.75584030550885,65.43339594185757L422.80877026477367,67.38329269864099L443.8617002240385,64.45833592389431L464.9146301833033,61.53315587000457L485.96756014256806,62.50821588796782L507.0204901018329,63.483275905931066L528.0734200610976,62.50821588796782L549.1263500203625,64.45833592389431L570.1792799796273,62.50821588796782L591.2322099388921,62.50821588796782L612.2851398981569,62.50821588796782L633.3380698574216,60.5583191311844L654.3909998166864,62.50821588796782L675.4439297759513,62.50821588796782L696.496859735216,62.50821588796782L717.5497896944809,62.50821588796782L738.6027196537457,62.50821588796782L759.6556496130105,62.50821588796782L780.7085795722753,62.50821588796782L801.76150953154,62.50821588796782L822.8144394908048,62.50821588796782L843.8673694500698,62.50821588796782L864.9202994093345,62.50821588796782L885.9732293685993,62.50821588796782L907.0261593278641,62.50821588796782L928.0790892871288,62.50821588796782L949.1320192463937,62.50821588796782L970.1849492056584,62.50821588796782L991.2378791649232,62.50821588796782L1012.2908091241881,62.50821588796782L1033.3437390834529,62.50821588796782L1054.3966690427176,62.50821588796782" style="fill: none;" fill="none"></path></g><g><path stroke="rgb(204, 51, 17)" stroke-width="2px" d="M22.80310103874248,300.41169631384673L43.85603099800728,207.78523691105653L64.90896095727207,143.4344016334852L85.96189091653689,129.78423121942896L107.01482087580169,113.20888075148291L128.06775083506648,84.93347990540715L149.12068079433126,68.35835271660423L170.17361075359608,78.10850633795057L191.22654071286087,78.10850633795057L212.27947067212568,63.483275905931066L233.33240063139047,67.38329269864099L254.3853305906553,70.30847275253078L275.4382605499201,61.53315587000457L296.4911905091849,61.53315587000457L317.54412046844965,66.40823268067774L338.59705042771446,67.38329269864099L359.6499803869793,61.53315587000457L380.7029103462441,65.43339594185757L401.75584030550885,62.50821588796782L422.80877026477367,63.483275905931066L443.8617002240385,61.53315587000457L464.9146301833033,66.40823268067774L485.96756014256806,65.43339594185757L507.0204901018329,65.43339594185757L528.0734200610976,66.40823268067774L549.1263500203625,64.45833592389431L570.1792799796273,64.45833592389431L591.2322099388921,64.45833592389431L612.2851398981569,64.45833592389431L633.3380698574216,64.45833592389431L654.3909998166864,64.45833592389431L675.4439297759513,64.45833592389431L696.496859735216,64.45833592389431L717.5497896944809,64.45833592389431L738.6027196537457,64.45833592389431L759.6556496130105,64.45833592389431L780.7085795722753,64.45833592389431L801.76150953154,64.45833592389431L822.8144394908048,64.45833592389431L843.8673694500698,64.45833592389431L864.9202994093345,64.45833592389431L885.9732293685993,64.45833592389431L907.0261593278641,64.45833592389431L928.0790892871288,64.45833592389431L949.1320192463937,64.45833592389431L970.1849492056584,64.45833592389431L991.2378791649232,64.45833592389431L1012.2908091241881,64.45833592389431L1033.3437390834529,64.45833592389431L1054.3966690427176,64.45833592389431" style="fill: none;" fill="none"></path></g></g></g></g></g></g><g transform="translate(50, 378)" clip-path="url(#clip_1)"><clipPath id="clip_1"><rect width="1062" height="22"></rect></clipPath><g><g><line x1="22.80310103874248" y1="0" x2="22.80310103874248" y2="5" style="visibility: inherit;" fill="rgb(0, 0, 0)" stroke="rgb(204, 204, 204)" stroke-width="1px"></line><line x1="128.06775083506648" y1="0" x2="128.06775083506648" y2="5" style="visibility: inherit;" fill="rgb(0, 0, 0)" stroke="rgb(204, 204, 204)" stroke-width="1px"></line><line x1="233.33240063139047" y1="0" x2="233.33240063139047" y2="5" style="visibility: inherit;" fill="rgb(0, 0, 0)" stroke="rgb(204, 204, 204)" stroke-width="1px"></line><line x1="338.59705042771446" y1="0" x2="338.59705042771446" y2="5" style="visibility: inherit;" fill="rgb(0, 0, 0)" stroke="rgb(204, 204, 204)" stroke-width="1px"></line><line x1="443.8617002240385" y1="0" x2="443.8617002240385" y2="5" style="visibility: inherit;" fill="rgb(0, 0, 0)" stroke="rgb(204, 204, 204)" stroke-width="1px"></line><line x1="549.1263500203625" y1="0" x2="549.1263500203625" y2="5" style="visibility: inherit;" fill="rgb(0, 0, 0)" stroke="rgb(204, 204, 204)" stroke-width="1px"></line><line x1="654.3909998166864" y1="0" x2="654.3909998166864" y2="5" style="visibility: inherit;" fill="rgb(0, 0, 0)" stroke="rgb(204, 204, 204)" stroke-width="1px"></line><line x1="759.6556496130105" y1="0" x2="759.6556496130105" y2="5" style="visibility: inherit;" fill="rgb(0, 0, 0)" stroke="rgb(204, 204, 204)" stroke-width="1px"></line><line x1="864.9202994093345" y1="0" x2="864.9202994093345" y2="5" style="visibility: inherit;" fill="rgb(0, 0, 0)" stroke="rgb(204, 204, 204)" stroke-width="1px"></line><line x1="970.1849492056584" y1="0" x2="970.1849492056584" y2="5" style="visibility: inherit;" fill="rgb(0, 0, 0)" stroke="rgb(204, 204, 204)" stroke-width="1px"></line></g><g transform="translate(0, 8)"><text x="22.80310103874248" y="0" dx="0em" dy="0.95em" style="text-anchor: middle; visibility: inherit; font-family: Roboto, sans-serif; font-size: 12px; font-weight: 200;" fill="rgb(50, 49, 63)" stroke="none" stroke-width="1px">0</text><text x="128.06775083506648" y="0" dx="0em" dy="0.95em" style="text-anchor: middle; visibility: inherit; font-family: Roboto, sans-serif; font-size: 12px; font-weight: 200;" fill="rgb(50, 49, 63)" stroke="none" stroke-width="1px">5</text><text x="233.33240063139047" y="0" dx="0em" dy="0.95em" style="text-anchor: middle; visibility: inherit; font-family: Roboto, sans-serif; font-size: 12px; font-weight: 200;" fill="rgb(50, 49, 63)" stroke="none" stroke-width="1px">10</text><text x="338.59705042771446" y="0" dx="0em" dy="0.95em" style="text-anchor: middle; visibility: inherit; font-family: Roboto, sans-serif; font-size: 12px; font-weight: 200;" fill="rgb(50, 49, 63)" stroke="none" stroke-width="1px">15</text><text x="443.8617002240385" y="0" dx="0em" dy="0.95em" style="text-anchor: middle; visibility: inherit; font-family: Roboto, sans-serif; font-size: 12px; font-weight: 200;" fill="rgb(50, 49, 63)" stroke="none" stroke-width="1px">20</text><text x="549.1263500203625" y="0" dx="0em" dy="0.95em" style="text-anchor: middle; visibility: inherit; font-family: Roboto, sans-serif; font-size: 12px; font-weight: 200;" fill="rgb(50, 49, 63)" stroke="none" stroke-width="1px">25</text><text x="654.3909998166864" y="0" dx="0em" dy="0.95em" style="text-anchor: middle; visibility: inherit; font-family: Roboto, sans-serif; font-size: 12px; font-weight: 200;" fill="rgb(50, 49, 63)" stroke="none" stroke-width="1px">30</text><text x="759.6556496130105" y="0" dx="0em" dy="0.95em" style="text-anchor: middle; visibility: inherit; font-family: Roboto, sans-serif; font-size: 12px; font-weight: 200;" fill="rgb(50, 49, 63)" stroke="none" stroke-width="1px">35</text><text x="864.9202994093345" y="0" dx="0em" dy="0.95em" style="text-anchor: middle; visibility: inherit; font-family: Roboto, sans-serif; font-size: 12px; font-weight: 200;" fill="rgb(50, 49, 63)" stroke="none" stroke-width="1px">40</text><text x="970.1849492056584" y="0" dx="0em" dy="0.95em" style="text-anchor: middle; visibility: inherit; font-family: Roboto, sans-serif; font-size: 12px; font-weight: 200;" fill="rgb(50, 49, 63)" stroke="none" stroke-width="1px">45</text></g><line x1="0" y1="0" x2="1062.2" y2="0" fill="rgb(0, 0, 0)" stroke="rgb(204, 204, 204)" stroke-width="1px"></line></g></g></g></g></svg>