<svg viewBox="0 0 1112.2000732421875 400" xmlns="http://www.w3.org/2000/svg"><g><g><g><g><g><line x1="50" y1="345.8080138549516" x2="45" y2="345.8080138549516" style="visibility: inherit;" fill="rgb(0, 0, 0)" stroke="rgb(204, 204, 204)" stroke-width="1px"></line><line x1="50" y1="304.942532993949" x2="45" y2="304.942532993949" style="visibility: inherit;" fill="rgb(0, 0, 0)" stroke="rgb(204, 204, 204)" stroke-width="1px"></line><line x1="50" y1="264.0770521329463" x2="45" y2="264.0770521329463" style="visibility: inherit;" fill="rgb(0, 0, 0)" stroke="rgb(204, 204, 204)" stroke-width="1px"></line><line x1="50" y1="223.21157127194357" x2="45" y2="223.21157127194357" style="visibility: inherit;" fill="rgb(0, 0, 0)" stroke="rgb(204, 204, 204)" stroke-width="1px"></line><line x1="50" y1="182.34609041094095" x2="45" y2="182.34609041094095" style="visibility: inherit;" fill="rgb(0, 0, 0)" stroke="rgb(204, 204, 204)" stroke-width="1px"></line><line x1="50" y1="141.48060954993826" x2="45" y2="141.48060954993826" style="visibility: inherit;" fill="rgb(0, 0, 0)" stroke="rgb(204, 204, 204)" stroke-width="1px"></line><line x1="50" y1="100.61512868893558" x2="45" y2="100.61512868893558" style="visibility: inherit;" fill="rgb(0, 0, 0)" stroke="rgb(204, 204, 204)" stroke-width="1px"></line><line x1="50" y1="59.749647827932954" x2="45" y2="59.749647827932954" style="visibility: inherit;" fill="rgb(0, 0, 0)" stroke="rgb(204, 204, 204)" stroke-width="1px"></line><line x1="50" y1="18.88416696693028" x2="45" y2="18.88416696693028" style="visibility: inherit;" fill="rgb(0, 0, 0)" stroke="rgb(204, 204, 204)" stroke-width="1px"></line></g><g transform="translate(40, 0)"><text x="0" y="345.8080138549516" dx="0em" dy="0.3em" style="text-anchor: end; visibility: inherit; font-family: Roboto, sans-serif; font-size: 12px; font-weight: 200;" fill="rgb(50, 49, 63)" stroke="none" stroke-width="1px">0.25</text><text x="0" y="304.942532993949" dx="0em" dy="0.3em" style="text-anchor: end; visibility: inherit; font-family: Roboto, sans-serif; font-size: 12px; font-weight: 200;" fill="rgb(50, 49, 63)" stroke="none" stroke-width="1px">0.3</text><text x="0" y="264.0770521329463" dx="0em" dy="0.3em" style="text-anchor: end; visibility: inherit; font-family: Roboto, sans-serif; font-size: 12px; font-weight: 200;" fill="rgb(50, 49, 63)" stroke="none" stroke-width="1px">0.35</text><text x="0" y="223.21157127194357" dx="0em" dy="0.3em" style="text-anchor: end; visibility: inherit; font-family: Roboto, sans-serif; font-size: 12px; font-weight: 200;" fill="rgb(50, 49, 63)" stroke="none" stroke-width="1px">0.4</text><text x="0" y="182.34609041094095" dx="0em" dy="0.3em" style="text-anchor: end; visibility: inherit; font-family: Roboto, sans-serif; font-size: 12px; font-weight: 200;" fill="rgb(50, 49, 63)" stroke="none" stroke-width="1px">0.45</text><text x="0" y="141.48060954993826" dx="0em" dy="0.3em" style="text-anchor: end; visibility: inherit; font-family: Roboto, sans-serif; font-size: 12px; font-weight: 200;" fill="rgb(50, 49, 63)" stroke="none" stroke-width="1px">0.5</text><text x="0" y="100.61512868893558" dx="0em" dy="0.3em" style="text-anchor: end; visibility: inherit; font-family: Roboto, sans-serif; font-size: 12px; font-weight: 200;" fill="rgb(50, 49, 63)" stroke="none" stroke-width="1px">0.55</text><text x="0" y="59.749647827932954" dx="0em" dy="0.3em" style="text-anchor: end; visibility: inherit; font-family: Roboto, sans-serif; font-size: 12px; font-weight: 200;" fill="rgb(50, 49, 63)" stroke="none" stroke-width="1px">0.6</text><text x="0" y="18.88416696693028" dx="0em" dy="0.3em" style="text-anchor: end; visibility: inherit; font-family: Roboto, sans-serif; font-size: 12px; font-weight: 200;" fill="rgb(50, 49, 63)" stroke="none" stroke-width="1px">0.65</text></g><line x1="50" y1="0" x2="50" y2="378" fill="rgb(0, 0, 0)" stroke="rgb(204, 204, 204)" stroke-width="1px"></line></g></g><g transform="translate(50, 0)" clip-path="url(#clip_0)"><clipPath id="clip_0"><rect width="1062" height="378"></rect></clipPath><g><g><g><line x1="5.566847334030252" y1="0" x2="5.566847334030252" y2="378" fill="rgb(0, 0, 0)" stroke="rgb(60, 60, 60)" stroke-width="1px" opacity="0.25"></line><line x1="110.83149713035449" y1="0" x2="110.83149713035449" y2="378" fill="rgb(0, 0, 0)" stroke="rgb(60, 60, 60)" stroke-width="1px" opacity="0.25"></line><line x1="216.09614692667873" y1="0" x2="216.09614692667873" y2="378" fill="rgb(0, 0, 0)" stroke="rgb(60, 60, 60)" stroke-width="1px" opacity="0.25"></line><line x1="321.360796723003" y1="0" x2="321.360796723003" y2="378" fill="rgb(0, 0, 0)" stroke="rgb(60, 60, 60)" stroke-width="1px" opacity="0.25"></line><line x1="426.62544651932717" y1="0" x2="426.62544651932717" y2="378" fill="rgb(0, 0, 0)" stroke="rgb(60, 60, 60)" stroke-width="1px" opacity="0.25"></line><line x1="531.8900963156514" y1="0" x2="531.8900963156514" y2="378" fill="rgb(0, 0, 0)" stroke="rgb(60, 60, 60)" stroke-width="1px" opacity="0.25"></line><line x1="637.1547461119758" y1="0" x2="637.1547461119758" y2="378" fill="rgb(0, 0, 0)" stroke="rgb(60, 60, 60)" stroke-width="1px" opacity="0.25"></line><line x1="742.4193959083" y1="0" x2="742.4193959083" y2="378" fill="rgb(0, 0, 0)" stroke="rgb(60, 60, 60)" stroke-width="1px" opacity="0.25"></line><line x1="847.6840457046242" y1="0" x2="847.6840457046242" y2="378" fill="rgb(0, 0, 0)" stroke="rgb(60, 60, 60)" stroke-width="1px" opacity="0.25"></line><line x1="952.9486955009484" y1="0" x2="952.9486955009484" y2="378" fill="rgb(0, 0, 0)" stroke="rgb(60, 60, 60)" stroke-width="1px" opacity="0.25"></line><line x1="1058.2133452972726" y1="0" x2="1058.2133452972726" y2="378" fill="rgb(0, 0, 0)" stroke="rgb(60, 60, 60)" stroke-width="1px" opacity="0.25"></line></g><g><line x1="0" y1="345.8080138549516" x2="1062.2" y2="345.8080138549516" fill="rgb(0, 0, 0)" stroke="rgb(60, 60, 60)" stroke-width="1px" opacity="0.25"></line><line x1="0" y1="304.942532993949" x2="1062.2" y2="304.942532993949" fill="rgb(0, 0, 0)" stroke="rgb(60, 60, 60)" stroke-width="1px" opacity="0.25"></line><line x1="0" y1="264.0770521329463" x2="1062.2" y2="264.0770521329463" fill="rgb(0, 0, 0)" stroke="rgb(60, 60, 60)" stroke-width="1px" opacity="0.25"></line><line x1="0" y1="223.21157127194357" x2="1062.2" y2="223.21157127194357" fill="rgb(0, 0, 0)" stroke="rgb(60, 60, 60)" stroke-width="1px" opacity="0.25"></line><line x1="0" y1="182.34609041094095" x2="1062.2" y2="182.34609041094095" fill="rgb(0, 0, 0)" stroke="rgb(60, 60, 60)" stroke-width="1px" opacity="0.25"></line><line x1="0" y1="141.48060954993826" x2="1062.2" y2="141.48060954993826" fill="rgb(0, 0, 0)" stroke="rgb(60, 60, 60)" stroke-width="1px" opacity="0.25"></line><line x1="0" y1="100.61512868893558" x2="1062.2" y2="100.61512868893558" fill="rgb(0, 0, 0)" stroke="rgb(60, 60, 60)" stroke-width="1px" opacity="0.25"></line><line x1="0" y1="59.749647827932954" x2="1062.2" y2="59.749647827932954" fill="rgb(0, 0, 0)" stroke="rgb(60, 60, 60)" stroke-width="1px" opacity="0.25"></line><line x1="0" y1="18.88416696693028" x2="1062.2" y2="18.88416696693028" fill="rgb(0, 0, 0)" stroke="rgb(60, 60, 60)" stroke-width="1px" opacity="0.25"></line></g></g></g><g><g><line x1="0" y1="550.135418159965" x2="1062.2" y2="550.135418159965" fill="rgb(0, 0, 0)" stroke="rgb(153, 153, 153)" stroke-width="1.5px"></line></g></g><g><g><line x1="5.566847334030252" y1="0" x2="5.566847334030252" y2="378" fill="rgb(0, 0, 0)" stroke="rgb(153, 153, 153)" stroke-width="1.5px"></line></g></g><g><g><g><g><g><path stroke="rgb(0, 119, 187)" stroke-width="2px" d="M5.566847334030252,155.49894291325876L26.6197772932951,206.32703521355666L47.67270725255994,223.840239274982L68.72563721182479,215.0644920726528L89.77856717108963,239.12860876203925L110.83149713035449,260.4726009029478L131.88442708961932,251.4624106003527L152.93735704888417,258.1679704224529L173.99028700814904,261.6152948419376L195.0432169674139,263.17165601955764L216.09614692667873,261.43529125638275L237.1490768859436,261.1515968367674L258.2020068452084,261.918743376287L279.2549368044733,259.40232247949996L300.30786676373816,255.38295689536636L321.360796723003,255.83281971290523L342.4137266822678,255.82229717583357L363.46665664153267,254.2482279323545L384.51958660079754,254.15579036710676L405.57251656006235,254.3695294013752L426.62544651932717,254.64603829220312L447.6783764785921,253.95174570727008L468.7313064378569,254.86347970062644L489.78423639712173,254.38940530473283L510.8371663563866,254.67322151297162L531.8900963156514,254.60967220922163L552.9430262749163,254.22538038658305L573.9959562341812,254.4702729507466L595.0488861934459,254.4061390616037L616.1018161527109,254.35688774225437L637.1547461119758,254.3295340174129L658.2076760712405,254.28615290971695L679.2606060305054,254.17776103478883L700.3135359897701,254.17732259574416L721.366465949035,254.18611573436192L742.4193959083,254.16728721316656L763.4723258675647,254.15199056205307L784.5252558268296,254.15069960264384L805.5781857860945,254.14524347231034L826.6311157453592,254.14285641528946L847.6840457046242,254.14059114689206L868.7369756638891,254.14339228523295L889.7899056231538,254.14417173242344L910.8428355824187,254.1403475696451L931.8957655416834,254.14273462666597L952.9486955009484,254.14358714703056L974.0016254602133,254.14414737469875L995.054555419478,254.14434223649636L1016.1074853787429,254.14378200882817L1037.1604153380079,254.1439037974517" style="fill: none;" fill="none"></path></g><g><path stroke="rgb(187, 187, 187)" stroke-width="2px" d="M5.566847334030252,87.32413159988025L26.6197772932951,183.1367518978888L47.67270725255994,240.99650523861013L68.72563721182479,242.78355842689186L89.77856717108963,241.76379792447793L110.83149713035449,257.98448368226553L131.88442708961932,265.59459196893476L152.93735704888417,259.9616489118539L173.99028700814904,254.786679794638L195.0432169674139,248.90884417339362L216.09614692667873,251.31358490241766L237.1490768859436,255.79423707697578L258.2020068452084,251.9782341363872L279.2549368044733,251.4877182763191L300.30786676373816,258.5551120988817L321.360796723003,255.06996013293335L342.4137266822678,255.38049676517136L363.46665664153267,255.47734307859034L384.51958660079754,255.76042855508808L405.57251656006235,255.13509268878911L426.62544651932717,254.8740265954228L447.6783764785921,254.84952272437164L468.7313064378569,254.08634649397862L489.78423639712173,253.92687647034836L510.8371663563866,253.8264495713981L531.8900963156514,253.96706671610826L552.9430262749163,253.86829614243777L573.9959562341812,253.7236843308763L595.0488861934459,253.56017092494537L616.1018161527109,253.623671513246L637.1547461119758,253.6046968457024L658.2076760712405,253.63952839202756L679.2606060305054,253.67952377598985L700.3135359897701,253.6199447813664L721.366465949035,253.6091786670477L742.4193959083,253.60447762618006L763.4723258675647,253.5752727142612L784.5252558268296,253.5810942104652L805.5781857860945,253.57751362493386L826.6311157453592,253.57797642170323L847.6840457046242,253.58141086088636L868.7369756638891,253.58221466580153L889.7899056231538,253.5827018202956L910.8428355824187,253.58304282844145L931.8957655416834,253.58557603181052L952.9486955009484,253.58815795062907L974.0016254602133,253.58903482871835L995.054555419478,253.5899847799818L1016.1074853787429,253.58983863363358L1037.1604153380079,253.589887349083" style="fill: none;" fill="none"></path></g><g><path stroke="rgb(238, 51, 119)" stroke-width="2px" d="M5.566847334030252,177.08393038237836L26.6197772932951,182.91553504213653L47.67270725255994,222.94216996518398L68.72563721182479,252.60990301110894L89.77856717108963,226.06332009317134L110.83149713035449,259.453400628202L131.88442708961932,255.39652414802592L152.93735704888417,256.32959550822204L173.99028700814904,258.02004596033186L195.0432169674139,255.68506575485713L216.09614692667873,263.27656473985326L237.1490768859436,262.37501227542276L258.2020068452084,257.35968368591006L279.2549368044733,256.20946320998706L300.30786676373816,254.04503579288243L321.360796723003,256.92718792608434L342.4137266822678,256.8393296130808L363.46665664153267,254.24679082659696L384.51958660079754,255.55331482193887L405.57251656006235,254.82989039826103L426.62544651932717,255.1285161031193L447.6783764785921,254.4864951953988L468.7313064378569,254.51075548920292L489.78423639712173,254.3342107005559L510.8371663563866,254.1536225296082L531.8900963156514,254.23519654963835L552.9430262749163,254.03870278445964L573.9959562341812,254.2839119990443L595.0488861934459,254.48452221969782L616.1018161527109,254.41892686707277L637.1547461119758,254.3128976914408L658.2076760712405,254.24396533053144L679.2606060305054,254.18046474223087L700.3135359897701,254.19135264517308L721.366465949035,254.16458350572452L742.4193959083,254.13033654479213L763.4723258675647,254.14570626907974L784.5252558268296,254.15727618831363L805.5781857860945,254.14443966739515L826.6311157453592,254.14614470812438L847.6840457046242,254.14037192736976L868.7369756638891,254.14426916332224L889.7899056231538,254.1427833421154L910.8428355824187,254.1445858137434L931.8957655416834,254.146095992675L952.9486955009484,254.14655878944433L974.0016254602133,254.14682672441603L995.054555419478,254.14692415531485L1016.1074853787429,254.1470459439384L1037.1604153380079,254.14775231795477" style="fill: none;" fill="none"></path></g><g><path stroke="rgb(204, 51, 17)" stroke-width="2px" d="M5.566847334030252,126.99838331965002L26.6197772932951,205.48820389023626L47.67270725255994,244.87961371075534L68.72563721182479,227.00204244549855L89.77856717108963,262.278726189672L110.83149713035449,256.18013650944465L131.88442708961932,252.2345261157117L152.93735704888417,249.72653299167183L173.99028700814904,255.88026856062658L195.0432169674139,255.21116186303644L216.09614692667873,257.80901063350547L237.1490768859436,252.2824377602024L258.2020068452084,260.1807710032817L279.2549368044733,259.0254354051711L300.30786676373816,255.3279815107118L321.360796723003,256.955345455841L342.4137266822678,259.0801915703033L363.46665664153267,257.62793530806374L384.51958660079754,257.437263039089L405.57251656006235,256.3180012312634L426.62544651932717,255.70007011327414L447.6783764785921,255.41474372610375L468.7313064378569,255.0714946695897L489.78423639712173,255.4237073687944L510.8371663563866,254.86949605862807L531.8900963156514,254.77793537146965L552.9430262749163,254.6051416724269L573.9959562341812,254.6261380311208L595.0488861934459,254.68291588740342L616.1018161527109,254.7042776119679L637.1547461119758,254.74997270351062L658.2076760712405,254.75469810210302L679.2606060305054,254.73219156447746L700.3135359897701,254.70291357938453L721.366465949035,254.68849380636036L742.4193959083,254.64333458476108L763.4723258675647,254.62708798238427L784.5252558268296,254.65948375623915L805.5781857860945,254.65755949598767L826.6311157453592,254.65205465020475L847.6840457046242,254.6479625524547L868.7369756638891,254.65670697562302L889.7899056231538,254.65936196761567L910.8428355824187,254.66004398390734L931.8957655416834,254.66204131733298L952.9486955009484,254.66148108966482L974.0016254602133,254.66223617913062L995.054555419478,254.66223617913062L1016.1074853787429,254.66289383769757L1037.1604153380079,254.66284512224817" style="fill: none;" fill="none"></path></g><g><path stroke="rgb(0, 153, 136)" stroke-width="2px" d="M5.566847334030252,144.7372617004482L26.6197772932951,223.262376614129L47.67270725255994,241.69486556356858L68.72563721182479,236.09597460562242L89.77856717108963,242.8524177146271L110.83149713035449,256.016111591295L131.88442708961932,246.87592411196022L152.93735704888417,257.9267315169949L173.99028700814904,250.89582556603722L195.0432169674139,253.58801180428082L216.09614692667873,242.31910533225593L237.1490768859436,252.69547169799043L258.2020068452084,255.54072187826742L279.2549368044733,255.1980086916968L300.30786676373816,253.7525238769246L321.360796723003,252.4481433613566L342.4137266822678,252.84714724971573L363.46665664153267,253.89314102163476L384.51958660079754,253.7267777619136L405.57251656006235,254.81814997495425L426.62544651932717,253.93591318621316L447.6783764785921,253.29783822989452L468.7313064378569,253.5958062761858L489.78423639712173,252.95770696214242L510.8371663563866,253.2109785836038L531.8900963156514,253.3379310447556L552.9430262749163,253.49925225546326L573.9959562341812,253.2484651219216L595.0488861934459,253.17190879318022L616.1018161527109,253.13500684025527L637.1547461119758,253.12791874236672L658.2076760712405,253.1164462540316L679.2606060305054,253.14971890597587L700.3135359897701,253.12867383183251L721.366465949035,253.08120062638642L742.4193959083,253.06207981249463L763.4723258675647,253.08129805728527L784.5252558268296,253.07803412217507L805.5781857860945,253.07440482119435L826.6311157453592,253.068851259962L847.6840457046242,253.05845051151388L868.7369756638891,253.0504124623619L889.7899056231538,253.05450456011204L910.8428355824187,253.05338410477566L931.8957655416834,253.05669675533525L952.9486955009484,253.05798771474454L974.0016254602133,253.0592786741538L995.054555419478,253.0602529831419L1016.1074853787429,253.06112986123122L1037.1604153380079,253.06144651165238" style="fill: none;" fill="none"></path></g></g></g></g></g></g><g transform="translate(50, 378)" clip-path="url(#clip_1)"><clipPath id="clip_1"><rect width="1062" height="22"></rect></clipPath><g><g><line x1="5.566847334030252" y1="0" x2="5.566847334030252" y2="5" style="visibility: inherit;" fill="rgb(0, 0, 0)" stroke="rgb(204, 204, 204)" stroke-width="1px"></line><line x1="110.83149713035449" y1="0" x2="110.83149713035449" y2="5" style="visibility: inherit;" fill="rgb(0, 0, 0)" stroke="rgb(204, 204, 204)" stroke-width="1px"></line><line x1="216.09614692667873" y1="0" x2="216.09614692667873" y2="5" style="visibility: inherit;" fill="rgb(0, 0, 0)" stroke="rgb(204, 204, 204)" stroke-width="1px"></line><line x1="321.360796723003" y1="0" x2="321.360796723003" y2="5" style="visibility: inherit;" fill="rgb(0, 0, 0)" stroke="rgb(204, 204, 204)" stroke-width="1px"></line><line x1="426.62544651932717" y1="0" x2="426.62544651932717" y2="5" style="visibility: inherit;" fill="rgb(0, 0, 0)" stroke="rgb(204, 204, 204)" stroke-width="1px"></line><line x1="531.8900963156514" y1="0" x2="531.8900963156514" y2="5" style="visibility: inherit;" fill="rgb(0, 0, 0)" stroke="rgb(204, 204, 204)" stroke-width="1px"></line><line x1="637.1547461119758" y1="0" x2="637.1547461119758" y2="5" style="visibility: inherit;" fill="rgb(0, 0, 0)" stroke="rgb(204, 204, 204)" stroke-width="1px"></line><line x1="742.4193959083" y1="0" x2="742.4193959083" y2="5" style="visibility: inherit;" fill="rgb(0, 0, 0)" stroke="rgb(204, 204, 204)" stroke-width="1px"></line><line x1="847.6840457046242" y1="0" x2="847.6840457046242" y2="5" style="visibility: inherit;" fill="rgb(0, 0, 0)" stroke="rgb(204, 204, 204)" stroke-width="1px"></line><line x1="952.9486955009484" y1="0" x2="952.9486955009484" y2="5" style="visibility: inherit;" fill="rgb(0, 0, 0)" stroke="rgb(204, 204, 204)" stroke-width="1px"></line><line x1="1058.2133452972726" y1="0" x2="1058.2133452972726" y2="5" style="visibility: inherit;" fill="rgb(0, 0, 0)" stroke="rgb(204, 204, 204)" stroke-width="1px"></line></g><g transform="translate(0, 8)"><text x="5.566847334030252" y="0" dx="0em" dy="0.95em" style="text-anchor: middle; visibility: inherit; font-family: Roboto, sans-serif; font-size: 12px; font-weight: 200;" fill="rgb(50, 49, 63)" stroke="none" stroke-width="1px">0</text><text x="110.83149713035449" y="0" dx="0em" dy="0.95em" style="text-anchor: middle; visibility: inherit; font-family: Roboto, sans-serif; font-size: 12px; font-weight: 200;" fill="rgb(50, 49, 63)" stroke="none" stroke-width="1px">5</text><text x="216.09614692667873" y="0" dx="0em" dy="0.95em" style="text-anchor: middle; visibility: inherit; font-family: Roboto, sans-serif; font-size: 12px; font-weight: 200;" fill="rgb(50, 49, 63)" stroke="none" stroke-width="1px">10</text><text x="321.360796723003" y="0" dx="0em" dy="0.95em" style="text-anchor: middle; visibility: inherit; font-family: Roboto, sans-serif; font-size: 12px; font-weight: 200;" fill="rgb(50, 49, 63)" stroke="none" stroke-width="1px">15</text><text x="426.62544651932717" y="0" dx="0em" dy="0.95em" style="text-anchor: middle; visibility: inherit; font-family: Roboto, sans-serif; font-size: 12px; font-weight: 200;" fill="rgb(50, 49, 63)" stroke="none" stroke-width="1px">20</text><text x="531.8900963156514" y="0" dx="0em" dy="0.95em" style="text-anchor: middle; visibility: inherit; font-family: Roboto, sans-serif; font-size: 12px; font-weight: 200;" fill="rgb(50, 49, 63)" stroke="none" stroke-width="1px">25</text><text x="637.1547461119758" y="0" dx="0em" dy="0.95em" style="text-anchor: middle; visibility: inherit; font-family: Roboto, sans-serif; font-size: 12px; font-weight: 200;" fill="rgb(50, 49, 63)" stroke="none" stroke-width="1px">30</text><text x="742.4193959083" y="0" dx="0em" dy="0.95em" style="text-anchor: middle; visibility: inherit; font-family: Roboto, sans-serif; font-size: 12px; font-weight: 200;" fill="rgb(50, 49, 63)" stroke="none" stroke-width="1px">35</text><text x="847.6840457046242" y="0" dx="0em" dy="0.95em" style="text-anchor: middle; visibility: inherit; font-family: Roboto, sans-serif; font-size: 12px; font-weight: 200;" fill="rgb(50, 49, 63)" stroke="none" stroke-width="1px">40</text><text x="952.9486955009484" y="0" dx="0em" dy="0.95em" style="text-anchor: middle; visibility: inherit; font-family: Roboto, sans-serif; font-size: 12px; font-weight: 200;" fill="rgb(50, 49, 63)" stroke="none" stroke-width="1px">45</text><text x="1058.2133452972726" y="0" dx="0em" dy="0.95em" style="text-anchor: middle; visibility: hidden; font-family: Roboto, sans-serif; font-size: 12px; font-weight: 200;" fill="rgb(50, 49, 63)" stroke="none" stroke-width="1px">50</text></g><line x1="0" y1="0" x2="1062.2" y2="0" fill="rgb(0, 0, 0)" stroke="rgb(204, 204, 204)" stroke-width="1px"></line></g></g></g></g></svg>