<svg viewBox="0 0 1112.2000732421875 400" xmlns="http://www.w3.org/2000/svg"><g><g><g><g><g><line x1="50" y1="346.66691195004654" x2="45" y2="346.66691195004654" style="visibility: inherit;" fill="rgb(0, 0, 0)" stroke="rgb(204, 204, 204)" stroke-width="1px"></line><line x1="50" y1="315.1669119500462" x2="45" y2="315.1669119500462" style="visibility: inherit;" fill="rgb(0, 0, 0)" stroke="rgb(204, 204, 204)" stroke-width="1px"></line><line x1="50" y1="283.6669119500463" x2="45" y2="283.6669119500463" style="visibility: inherit;" fill="rgb(0, 0, 0)" stroke="rgb(204, 204, 204)" stroke-width="1px"></line><line x1="50" y1="252.16691195004603" x2="45" y2="252.16691195004603" style="visibility: inherit;" fill="rgb(0, 0, 0)" stroke="rgb(204, 204, 204)" stroke-width="1px"></line><line x1="50" y1="220.66691195004572" x2="45" y2="220.66691195004572" style="visibility: inherit;" fill="rgb(0, 0, 0)" stroke="rgb(204, 204, 204)" stroke-width="1px"></line><line x1="50" y1="189.1669119500454" x2="45" y2="189.1669119500454" style="visibility: inherit;" fill="rgb(0, 0, 0)" stroke="rgb(204, 204, 204)" stroke-width="1px"></line><line x1="50" y1="157.66691195004515" x2="45" y2="157.66691195004515" style="visibility: inherit;" fill="rgb(0, 0, 0)" stroke="rgb(204, 204, 204)" stroke-width="1px"></line><line x1="50" y1="126.16691195004483" x2="45" y2="126.16691195004483" style="visibility: inherit;" fill="rgb(0, 0, 0)" stroke="rgb(204, 204, 204)" stroke-width="1px"></line><line x1="50" y1="94.66691195004456" x2="45" y2="94.66691195004456" style="visibility: inherit;" fill="rgb(0, 0, 0)" stroke="rgb(204, 204, 204)" stroke-width="1px"></line><line x1="50" y1="63.16691195004426" x2="45" y2="63.16691195004426" style="visibility: inherit;" fill="rgb(0, 0, 0)" stroke="rgb(204, 204, 204)" stroke-width="1px"></line><line x1="50" y1="31.66691195004395" x2="45" y2="31.66691195004395" style="visibility: inherit;" fill="rgb(0, 0, 0)" stroke="rgb(204, 204, 204)" stroke-width="1px"></line><line x1="50" y1="0.16691195004368287" x2="45" y2="0.16691195004368287" style="visibility: inherit;" fill="rgb(0, 0, 0)" stroke="rgb(204, 204, 204)" stroke-width="1px"></line></g><g transform="translate(40, 0)"><text x="0" y="346.66691195004654" dx="0em" dy="0.3em" style="text-anchor: end; visibility: inherit; font-family: Roboto, sans-serif; font-size: 12px; font-weight: 200;" fill="rgb(50, 49, 63)" stroke="none" stroke-width="1px">0.8</text><text x="0" y="315.1669119500462" dx="0em" dy="0.3em" style="text-anchor: end; visibility: inherit; font-family: Roboto, sans-serif; font-size: 12px; font-weight: 200;" fill="rgb(50, 49, 63)" stroke="none" stroke-width="1px">0.81</text><text x="0" y="283.6669119500463" dx="0em" dy="0.3em" style="text-anchor: end; visibility: inherit; font-family: Roboto, sans-serif; font-size: 12px; font-weight: 200;" fill="rgb(50, 49, 63)" stroke="none" stroke-width="1px">0.82</text><text x="0" y="252.16691195004603" dx="0em" dy="0.3em" style="text-anchor: end; visibility: inherit; font-family: Roboto, sans-serif; font-size: 12px; font-weight: 200;" fill="rgb(50, 49, 63)" stroke="none" stroke-width="1px">0.83</text><text x="0" y="220.66691195004572" dx="0em" dy="0.3em" style="text-anchor: end; visibility: inherit; font-family: Roboto, sans-serif; font-size: 12px; font-weight: 200;" fill="rgb(50, 49, 63)" stroke="none" stroke-width="1px">0.84</text><text x="0" y="189.1669119500454" dx="0em" dy="0.3em" style="text-anchor: end; visibility: inherit; font-family: Roboto, sans-serif; font-size: 12px; font-weight: 200;" fill="rgb(50, 49, 63)" stroke="none" stroke-width="1px">0.85</text><text x="0" y="157.66691195004515" dx="0em" dy="0.3em" style="text-anchor: end; visibility: inherit; font-family: Roboto, sans-serif; font-size: 12px; font-weight: 200;" fill="rgb(50, 49, 63)" stroke="none" stroke-width="1px">0.86</text><text x="0" y="126.16691195004483" dx="0em" dy="0.3em" style="text-anchor: end; visibility: inherit; font-family: Roboto, sans-serif; font-size: 12px; font-weight: 200;" fill="rgb(50, 49, 63)" stroke="none" stroke-width="1px">0.87</text><text x="0" y="94.66691195004456" dx="0em" dy="0.3em" style="text-anchor: end; visibility: inherit; font-family: Roboto, sans-serif; font-size: 12px; font-weight: 200;" fill="rgb(50, 49, 63)" stroke="none" stroke-width="1px">0.88</text><text x="0" y="63.16691195004426" dx="0em" dy="0.3em" style="text-anchor: end; visibility: inherit; font-family: Roboto, sans-serif; font-size: 12px; font-weight: 200;" fill="rgb(50, 49, 63)" stroke="none" stroke-width="1px">0.89</text><text x="0" y="31.66691195004395" dx="0em" dy="0.3em" style="text-anchor: end; visibility: inherit; font-family: Roboto, sans-serif; font-size: 12px; font-weight: 200;" fill="rgb(50, 49, 63)" stroke="none" stroke-width="1px">0.9</text><text x="0" y="0.16691195004368287" dx="0em" dy="0.3em" style="text-anchor: end; visibility: hidden; font-family: Roboto, sans-serif; font-size: 12px; font-weight: 200;" fill="rgb(50, 49, 63)" stroke="none" stroke-width="1px">0.91</text></g><line x1="50" y1="0" x2="50" y2="378" fill="rgb(0, 0, 0)" stroke="rgb(204, 204, 204)" stroke-width="1px"></line></g></g><g transform="translate(50, 0)" clip-path="url(#clip_0)"><clipPath id="clip_0"><rect width="1062" height="378"></rect></clipPath><g><g><g><line x1="51.77612088666775" y1="0" x2="51.77612088666775" y2="378" fill="rgb(0, 0, 0)" stroke="rgb(60, 60, 60)" stroke-width="1px" opacity="0.25"></line><line x1="140.2927875533342" y1="0" x2="140.2927875533342" y2="378" fill="rgb(0, 0, 0)" stroke="rgb(60, 60, 60)" stroke-width="1px" opacity="0.25"></line><line x1="228.80945422000065" y1="0" x2="228.80945422000065" y2="378" fill="rgb(0, 0, 0)" stroke="rgb(60, 60, 60)" stroke-width="1px" opacity="0.25"></line><line x1="317.3261208866671" y1="0" x2="317.3261208866671" y2="378" fill="rgb(0, 0, 0)" stroke="rgb(60, 60, 60)" stroke-width="1px" opacity="0.25"></line><line x1="405.84278755333355" y1="0" x2="405.84278755333355" y2="378" fill="rgb(0, 0, 0)" stroke="rgb(60, 60, 60)" stroke-width="1px" opacity="0.25"></line><line x1="494.35945422" y1="0" x2="494.35945422" y2="378" fill="rgb(0, 0, 0)" stroke="rgb(60, 60, 60)" stroke-width="1px" opacity="0.25"></line><line x1="582.8761208866665" y1="0" x2="582.8761208866665" y2="378" fill="rgb(0, 0, 0)" stroke="rgb(60, 60, 60)" stroke-width="1px" opacity="0.25"></line><line x1="671.3927875533329" y1="0" x2="671.3927875533329" y2="378" fill="rgb(0, 0, 0)" stroke="rgb(60, 60, 60)" stroke-width="1px" opacity="0.25"></line><line x1="759.9094542199992" y1="0" x2="759.9094542199992" y2="378" fill="rgb(0, 0, 0)" stroke="rgb(60, 60, 60)" stroke-width="1px" opacity="0.25"></line><line x1="848.4261208866658" y1="0" x2="848.4261208866658" y2="378" fill="rgb(0, 0, 0)" stroke="rgb(60, 60, 60)" stroke-width="1px" opacity="0.25"></line><line x1="936.9427875533322" y1="0" x2="936.9427875533322" y2="378" fill="rgb(0, 0, 0)" stroke="rgb(60, 60, 60)" stroke-width="1px" opacity="0.25"></line><line x1="1025.4594542199986" y1="0" x2="1025.4594542199986" y2="378" fill="rgb(0, 0, 0)" stroke="rgb(60, 60, 60)" stroke-width="1px" opacity="0.25"></line></g><g><line x1="0" y1="346.66691195004654" x2="1062.2" y2="346.66691195004654" fill="rgb(0, 0, 0)" stroke="rgb(60, 60, 60)" stroke-width="1px" opacity="0.25"></line><line x1="0" y1="315.1669119500462" x2="1062.2" y2="315.1669119500462" fill="rgb(0, 0, 0)" stroke="rgb(60, 60, 60)" stroke-width="1px" opacity="0.25"></line><line x1="0" y1="283.6669119500463" x2="1062.2" y2="283.6669119500463" fill="rgb(0, 0, 0)" stroke="rgb(60, 60, 60)" stroke-width="1px" opacity="0.25"></line><line x1="0" y1="252.16691195004603" x2="1062.2" y2="252.16691195004603" fill="rgb(0, 0, 0)" stroke="rgb(60, 60, 60)" stroke-width="1px" opacity="0.25"></line><line x1="0" y1="220.66691195004572" x2="1062.2" y2="220.66691195004572" fill="rgb(0, 0, 0)" stroke="rgb(60, 60, 60)" stroke-width="1px" opacity="0.25"></line><line x1="0" y1="189.1669119500454" x2="1062.2" y2="189.1669119500454" fill="rgb(0, 0, 0)" stroke="rgb(60, 60, 60)" stroke-width="1px" opacity="0.25"></line><line x1="0" y1="157.66691195004515" x2="1062.2" y2="157.66691195004515" fill="rgb(0, 0, 0)" stroke="rgb(60, 60, 60)" stroke-width="1px" opacity="0.25"></line><line x1="0" y1="126.16691195004483" x2="1062.2" y2="126.16691195004483" fill="rgb(0, 0, 0)" stroke="rgb(60, 60, 60)" stroke-width="1px" opacity="0.25"></line><line x1="0" y1="94.66691195004456" x2="1062.2" y2="94.66691195004456" fill="rgb(0, 0, 0)" stroke="rgb(60, 60, 60)" stroke-width="1px" opacity="0.25"></line><line x1="0" y1="63.16691195004426" x2="1062.2" y2="63.16691195004426" fill="rgb(0, 0, 0)" stroke="rgb(60, 60, 60)" stroke-width="1px" opacity="0.25"></line><line x1="0" y1="31.66691195004395" x2="1062.2" y2="31.66691195004395" fill="rgb(0, 0, 0)" stroke="rgb(60, 60, 60)" stroke-width="1px" opacity="0.25"></line><line x1="0" y1="0.16691195004368287" x2="1062.2" y2="0.16691195004368287" fill="rgb(0, 0, 0)" stroke="rgb(60, 60, 60)" stroke-width="1px" opacity="0.25"></line></g></g></g><g><g><line x1="0" y1="2866.6669119500675" x2="1062.2" y2="2866.6669119500675" fill="rgb(0, 0, 0)" stroke="rgb(153, 153, 153)" stroke-width="1.5px"></line></g></g><g><g><line x1="51.77612088666775" y1="0" x2="51.77612088666775" y2="378" fill="rgb(0, 0, 0)" stroke="rgb(153, 153, 153)" stroke-width="1.5px"></line></g></g><g><g><g><g><g><path stroke="rgb(51, 187, 238)" stroke-width="2px" d="M51.77612088666775,312.72365342610533L69.47945422000103,305.34470867150475L87.18278755333432,268.44979714387074L104.88612088666761,245.49303840630648L122.58945422000089,208.5981268786725L140.2927875533342,206.95846568577852L157.99612088666746,175.80283771985114L175.69945422000077,170.06355415814457L193.40278755333406,175.80283771985114L211.10612088666733,169.24362968438203L228.80945422000065,161.0447604560189L246.51278755333394,170.06355415814457L264.2161208866672,163.5045338773065L281.9194542200005,161.0447604560189L299.6227875533338,160.22502373688747L317.3261208866671,165.96411954396302L335.0294542200004,159.40509926312492L352.73278755333365,159.40509926312492L370.43612088666697,156.12558912270592L388.13945422000023,154.48574017518087L405.84278755333355,155.30566464894338L423.54612088666687,155.30566464894338L441.24945422000013,156.9453258418374L458.9527875533334,160.22502373688747L476.65612088666666,158.58517478936244L494.35945422,160.22502373688747L512.0627875533332,159.40509926312492L529.7661208866665,160.22502373688747L547.4694542199998,158.58517478936244L565.1727875533333,158.58517478936244L582.8761208866665,157.7652503155999L600.5794542199998,157.7652503155999L618.282787553333,157.7652503155999L635.9861208866663,156.12558912270592L653.6894542199996,156.9453258418374L671.3927875533329,156.9453258418374L689.0961208866662,156.9453258418374L706.7994542199995,156.9453258418374L724.5027875533327,156.9453258418374L742.206120886666,156.9453258418374L759.9094542199992,156.9453258418374L777.6127875533326,156.9453258418374L795.316120886666,156.9453258418374L813.0194542199993,156.9453258418374L830.7227875533325,156.9453258418374L848.4261208866658,156.9453258418374L866.129454219999,156.9453258418374L883.8327875533323,156.9453258418374L901.5361208866657,156.9453258418374L919.239454219999,156.9453258418374" style="fill: none;" fill="none"></path></g><g><path stroke="rgb(187, 187, 187)" stroke-width="2px" d="M51.77612088666775,325.02195726865L69.47945422000103,238.1140936517059L87.18278755333432,230.73514889710532L104.88612088666761,158.58517478936244L122.58945422000089,152.84607898228685L140.2927875533342,150.38630556099932L157.99612088666746,148.74664436810534L175.69945422000077,147.10679542058028L193.40278755333406,124.96996115677851L211.10612088666733,122.51018773549097L228.80945422000065,122.51018773549097L246.51278755333394,120.05060206883445L264.2161208866672,117.59082864754687L281.9194542200005,120.87052654259695L299.6227875533338,115.13124298089039L317.3261208866671,113.49139403336535L335.0294542200004,113.49139403336535L352.73278755333365,113.49139403336535L370.43612088666697,115.13124298089039L388.13945422000023,115.13124298089039L405.84278755333355,111.85173284047133L423.54612088666687,111.85173284047133L441.24945422000013,115.13124298089039L458.9527875533334,116.77109192841543L476.65612088666666,114.31131850712785L494.35945422,113.49139403336535L512.0627875533332,113.49139403336535L529.7661208866665,115.13124298089039L547.4694542199998,112.67165731423387L565.1727875533333,114.31131850712785L582.8761208866665,114.31131850712785L600.5794542199998,115.13124298089039L618.282787553333,115.13124298089039L635.9861208866663,115.13124298089039L653.6894542199996,115.13124298089039L671.3927875533329,115.13124298089039L689.0961208866662,115.13124298089039L706.7994542199995,115.13124298089039L724.5027875533327,115.13124298089039L742.206120886666,115.13124298089039L759.9094542199992,115.13124298089039L777.6127875533326,115.13124298089039L795.316120886666,115.13124298089039L813.0194542199993,115.13124298089039L830.7227875533325,115.13124298089039L848.4261208866658,115.13124298089039L866.129454219999,115.13124298089039L883.8327875533323,115.13124298089039L901.5361208866657,115.13124298089039L919.239454219999,115.13124298089039" style="fill: none;" fill="none"></path></g><g><path stroke="rgb(0, 119, 187)" stroke-width="2px" d="M51.77612088666775,320.9225226544685L69.47945422000103,237.2941691779434L87.18278755333432,179.0823478602702L104.88612088666761,165.14419507020048L122.58945422000089,170.06355415814457L140.2927875533342,121.69026326172843L157.99612088666746,120.05060206883445L175.69945422000077,120.87052654259695L193.40278755333406,120.05060206883445L211.10612088666733,108.57222270005231L228.80945422000065,116.77109192841543L246.51278755333394,106.11244927876473L264.2161208866672,115.95116745465289L281.9194542200005,105.29271255963329L299.6227875533338,104.47278808587075L317.3261208866671,104.47278808587075L335.0294542200004,105.29271255963329L352.73278755333365,105.29271255963329L370.43612088666697,111.85173284047133L388.13945422000023,107.75229822628977L405.84278755333355,104.47278808587075L423.54612088666687,107.75229822628977L441.24945422000013,102.83293913834571L458.9527875533334,105.29271255963329L476.65612088666666,103.65286361210825L494.35945422,102.01301466458321L512.0627875533332,104.47278808587075L529.7661208866665,103.65286361210825L547.4694542199998,103.65286361210825L565.1727875533333,104.47278808587075L582.8761208866665,102.83293913834571L600.5794542199998,102.01301466458321L618.282787553333,102.01301466458321L635.9861208866663,101.19327794545173L653.6894542199996,101.19327794545173L671.3927875533329,101.19327794545173L689.0961208866662,101.19327794545173L706.7994542199995,101.19327794545173L724.5027875533327,101.19327794545173L742.206120886666,101.19327794545173L759.9094542199992,101.19327794545173L777.6127875533326,101.19327794545173L795.316120886666,101.19327794545173L813.0194542199993,101.19327794545173L830.7227875533325,101.19327794545173L848.4261208866658,101.19327794545173L866.129454219999,101.19327794545173L883.8327875533323,101.19327794545173L901.5361208866657,101.19327794545173L919.239454219999,101.19327794545173" style="fill: none;" fill="none"></path></g><g><path stroke="rgb(0, 153, 136)" stroke-width="2px" d="M51.77612088666775,312.72365342610533L69.47945422000103,202.03910659783443L87.18278755333432,174.1629887723261L104.88612088666761,161.86468492978145L122.58945422000089,157.7652503155999L140.2927875533342,129.88913249009155L157.99612088666746,139.7278506659797L175.69945422000077,112.67165731423387L193.40278755333406,106.93237375252727L211.10612088666733,106.93237375252727L228.80945422000065,104.47278808587075L246.51278755333394,106.11244927876473L264.2161208866672,93.81414543622009L281.9194542200005,92.1744842433261L299.6227875533338,95.45399438374513L317.3261208866671,100.37335347168919L335.0294542200004,97.91358005040165L352.73278755333365,93.81414543622009L370.43612088666697,94.63406990998263L388.13945422000023,89.71471082203853L405.84278755333355,86.4352006816195L423.54612088666687,88.89497410290704L441.24945422000013,88.07504962914454L458.9527875533334,84.79553948872552L476.65612088666666,84.79553948872552L494.35945422,86.4352006816195L512.0627875533332,84.79553948872552L529.7661208866665,87.255125155382L547.4694542199998,87.255125155382L565.1727875533333,87.255125155382L582.8761208866665,87.255125155382L600.5794542199998,87.255125155382L618.282787553333,87.255125155382L635.9861208866663,85.61546396248802L653.6894542199996,85.61546396248802L671.3927875533329,86.4352006816195L689.0961208866662,86.4352006816195L706.7994542199995,86.4352006816195L724.5027875533327,86.4352006816195L742.206120886666,86.4352006816195L759.9094542199992,86.4352006816195L777.6127875533326,86.4352006816195L795.316120886666,86.4352006816195L813.0194542199993,86.4352006816195L830.7227875533325,86.4352006816195L848.4261208866658,86.4352006816195L866.129454219999,86.4352006816195L883.8327875533323,86.4352006816195L901.5361208866657,86.4352006816195L919.239454219999,86.4352006816195" style="fill: none;" fill="none"></path></g><g><path stroke="rgb(255, 112, 67)" stroke-width="2px" d="M51.77612088666775,297.14583944314165L69.47945422000103,170.06355415814457L87.18278755333432,174.1629887723261L104.88612088666761,182.3618580006892L122.58945422000089,120.87052654259695L140.2927875533342,135.62841605179815L157.99612088666746,128.24947129719757L175.69945422000077,121.69026326172843L193.40278755333406,111.03180836670883L211.10612088666733,111.85173284047133L228.80945422000065,101.19327794545173L246.51278755333394,98.73350452416415L264.2161208866672,97.09384333127016L281.9194542200005,99.55342899792669L299.6227875533338,102.01301466458321L317.3261208866671,95.45399438374513L335.0294542200004,99.55342899792669L352.73278755333365,102.01301466458321L370.43612088666697,92.1744842433261L388.13945422000023,92.1744842433261L405.84278755333355,93.81414543622009L423.54612088666687,95.45399438374513L441.24945422000013,91.35455976956356L458.9527875533334,93.81414543622009L476.65612088666666,92.1744842433261L494.35945422,92.9944087170886L512.0627875533332,92.9944087170886L529.7661208866665,92.9944087170886L547.4694542199998,92.9944087170886L565.1727875533333,92.1744842433261L582.8761208866665,92.1744842433261L600.5794542199998,92.1744842433261L618.282787553333,92.1744842433261L635.9861208866663,92.1744842433261L653.6894542199996,92.1744842433261L671.3927875533329,92.1744842433261L689.0961208866662,92.1744842433261L706.7994542199995,92.1744842433261L724.5027875533327,92.1744842433261L742.206120886666,92.1744842433261L759.9094542199992,92.1744842433261L777.6127875533326,92.1744842433261L795.316120886666,92.1744842433261L813.0194542199993,92.1744842433261L830.7227875533325,92.1744842433261L848.4261208866658,92.1744842433261L866.129454219999,92.1744842433261L883.8327875533323,92.1744842433261L901.5361208866657,92.1744842433261L919.239454219999,92.1744842433261" style="fill: none;" fill="none"></path></g></g></g></g></g></g><g transform="translate(50, 378)" clip-path="url(#clip_1)"><clipPath id="clip_1"><rect width="1062" height="22"></rect></clipPath><g><g><line x1="51.77612088666775" y1="0" x2="51.77612088666775" y2="5" style="visibility: inherit;" fill="rgb(0, 0, 0)" stroke="rgb(204, 204, 204)" stroke-width="1px"></line><line x1="140.2927875533342" y1="0" x2="140.2927875533342" y2="5" style="visibility: inherit;" fill="rgb(0, 0, 0)" stroke="rgb(204, 204, 204)" stroke-width="1px"></line><line x1="228.80945422000065" y1="0" x2="228.80945422000065" y2="5" style="visibility: inherit;" fill="rgb(0, 0, 0)" stroke="rgb(204, 204, 204)" stroke-width="1px"></line><line x1="317.3261208866671" y1="0" x2="317.3261208866671" y2="5" style="visibility: inherit;" fill="rgb(0, 0, 0)" stroke="rgb(204, 204, 204)" stroke-width="1px"></line><line x1="405.84278755333355" y1="0" x2="405.84278755333355" y2="5" style="visibility: inherit;" fill="rgb(0, 0, 0)" stroke="rgb(204, 204, 204)" stroke-width="1px"></line><line x1="494.35945422" y1="0" x2="494.35945422" y2="5" style="visibility: inherit;" fill="rgb(0, 0, 0)" stroke="rgb(204, 204, 204)" stroke-width="1px"></line><line x1="582.8761208866665" y1="0" x2="582.8761208866665" y2="5" style="visibility: inherit;" fill="rgb(0, 0, 0)" stroke="rgb(204, 204, 204)" stroke-width="1px"></line><line x1="671.3927875533329" y1="0" x2="671.3927875533329" y2="5" style="visibility: inherit;" fill="rgb(0, 0, 0)" stroke="rgb(204, 204, 204)" stroke-width="1px"></line><line x1="759.9094542199992" y1="0" x2="759.9094542199992" y2="5" style="visibility: inherit;" fill="rgb(0, 0, 0)" stroke="rgb(204, 204, 204)" stroke-width="1px"></line><line x1="848.4261208866658" y1="0" x2="848.4261208866658" y2="5" style="visibility: inherit;" fill="rgb(0, 0, 0)" stroke="rgb(204, 204, 204)" stroke-width="1px"></line><line x1="936.9427875533322" y1="0" x2="936.9427875533322" y2="5" style="visibility: inherit;" fill="rgb(0, 0, 0)" stroke="rgb(204, 204, 204)" stroke-width="1px"></line><line x1="1025.4594542199986" y1="0" x2="1025.4594542199986" y2="5" style="visibility: inherit;" fill="rgb(0, 0, 0)" stroke="rgb(204, 204, 204)" stroke-width="1px"></line></g><g transform="translate(0, 8)"><text x="51.77612088666775" y="0" dx="0em" dy="0.95em" style="text-anchor: middle; visibility: inherit; font-family: Roboto, sans-serif; font-size: 12px; font-weight: 200;" fill="rgb(50, 49, 63)" stroke="none" stroke-width="1px">0</text><text x="140.2927875533342" y="0" dx="0em" dy="0.95em" style="text-anchor: middle; visibility: inherit; font-family: Roboto, sans-serif; font-size: 12px; font-weight: 200;" fill="rgb(50, 49, 63)" stroke="none" stroke-width="1px">5</text><text x="228.80945422000065" y="0" dx="0em" dy="0.95em" style="text-anchor: middle; visibility: inherit; font-family: Roboto, sans-serif; font-size: 12px; font-weight: 200;" fill="rgb(50, 49, 63)" stroke="none" stroke-width="1px">10</text><text x="317.3261208866671" y="0" dx="0em" dy="0.95em" style="text-anchor: middle; visibility: inherit; font-family: Roboto, sans-serif; font-size: 12px; font-weight: 200;" fill="rgb(50, 49, 63)" stroke="none" stroke-width="1px">15</text><text x="405.84278755333355" y="0" dx="0em" dy="0.95em" style="text-anchor: middle; visibility: inherit; font-family: Roboto, sans-serif; font-size: 12px; font-weight: 200;" fill="rgb(50, 49, 63)" stroke="none" stroke-width="1px">20</text><text x="494.35945422" y="0" dx="0em" dy="0.95em" style="text-anchor: middle; visibility: inherit; font-family: Roboto, sans-serif; font-size: 12px; font-weight: 200;" fill="rgb(50, 49, 63)" stroke="none" stroke-width="1px">25</text><text x="582.8761208866665" y="0" dx="0em" dy="0.95em" style="text-anchor: middle; visibility: inherit; font-family: Roboto, sans-serif; font-size: 12px; font-weight: 200;" fill="rgb(50, 49, 63)" stroke="none" stroke-width="1px">30</text><text x="671.3927875533329" y="0" dx="0em" dy="0.95em" style="text-anchor: middle; visibility: inherit; font-family: Roboto, sans-serif; font-size: 12px; font-weight: 200;" fill="rgb(50, 49, 63)" stroke="none" stroke-width="1px">35</text><text x="759.9094542199992" y="0" dx="0em" dy="0.95em" style="text-anchor: middle; visibility: inherit; font-family: Roboto, sans-serif; font-size: 12px; font-weight: 200;" fill="rgb(50, 49, 63)" stroke="none" stroke-width="1px">40</text><text x="848.4261208866658" y="0" dx="0em" dy="0.95em" style="text-anchor: middle; visibility: inherit; font-family: Roboto, sans-serif; font-size: 12px; font-weight: 200;" fill="rgb(50, 49, 63)" stroke="none" stroke-width="1px">45</text><text x="936.9427875533322" y="0" dx="0em" dy="0.95em" style="text-anchor: middle; visibility: inherit; font-family: Roboto, sans-serif; font-size: 12px; font-weight: 200;" fill="rgb(50, 49, 63)" stroke="none" stroke-width="1px">50</text><text x="1025.4594542199986" y="0" dx="0em" dy="0.95em" style="text-anchor: middle; visibility: inherit; font-family: Roboto, sans-serif; font-size: 12px; font-weight: 200;" fill="rgb(50, 49, 63)" stroke="none" stroke-width="1px">55</text></g><line x1="0" y1="0" x2="1062.2" y2="0" fill="rgb(0, 0, 0)" stroke="rgb(204, 204, 204)" stroke-width="1px"></line></g></g></g></g></svg>