<svg viewBox="0 0 1112.2000732421875 400" xmlns="http://www.w3.org/2000/svg"><g><g><g><g><g><line x1="50" y1="345.8080138549516" x2="45" y2="345.8080138549516" style="visibility: inherit;" fill="rgb(0, 0, 0)" stroke="rgb(204, 204, 204)" stroke-width="1px"></line><line x1="50" y1="304.942532993949" x2="45" y2="304.942532993949" style="visibility: inherit;" fill="rgb(0, 0, 0)" stroke="rgb(204, 204, 204)" stroke-width="1px"></line><line x1="50" y1="264.0770521329463" x2="45" y2="264.0770521329463" style="visibility: inherit;" fill="rgb(0, 0, 0)" stroke="rgb(204, 204, 204)" stroke-width="1px"></line><line x1="50" y1="223.21157127194357" x2="45" y2="223.21157127194357" style="visibility: inherit;" fill="rgb(0, 0, 0)" stroke="rgb(204, 204, 204)" stroke-width="1px"></line><line x1="50" y1="182.34609041094095" x2="45" y2="182.34609041094095" style="visibility: inherit;" fill="rgb(0, 0, 0)" stroke="rgb(204, 204, 204)" stroke-width="1px"></line><line x1="50" y1="141.48060954993826" x2="45" y2="141.48060954993826" style="visibility: inherit;" fill="rgb(0, 0, 0)" stroke="rgb(204, 204, 204)" stroke-width="1px"></line><line x1="50" y1="100.61512868893558" x2="45" y2="100.61512868893558" style="visibility: inherit;" fill="rgb(0, 0, 0)" stroke="rgb(204, 204, 204)" stroke-width="1px"></line><line x1="50" y1="59.749647827932954" x2="45" y2="59.749647827932954" style="visibility: inherit;" fill="rgb(0, 0, 0)" stroke="rgb(204, 204, 204)" stroke-width="1px"></line><line x1="50" y1="18.88416696693028" x2="45" y2="18.88416696693028" style="visibility: inherit;" fill="rgb(0, 0, 0)" stroke="rgb(204, 204, 204)" stroke-width="1px"></line></g><g transform="translate(40, 0)"><text x="0" y="345.8080138549516" dx="0em" dy="0.3em" style="text-anchor: end; visibility: inherit; font-family: Roboto, sans-serif; font-size: 12px; font-weight: 200;" fill="rgb(50, 49, 63)" stroke="none" stroke-width="1px">0.25</text><text x="0" y="304.942532993949" dx="0em" dy="0.3em" style="text-anchor: end; visibility: inherit; font-family: Roboto, sans-serif; font-size: 12px; font-weight: 200;" fill="rgb(50, 49, 63)" stroke="none" stroke-width="1px">0.3</text><text x="0" y="264.0770521329463" dx="0em" dy="0.3em" style="text-anchor: end; visibility: inherit; font-family: Roboto, sans-serif; font-size: 12px; font-weight: 200;" fill="rgb(50, 49, 63)" stroke="none" stroke-width="1px">0.35</text><text x="0" y="223.21157127194357" dx="0em" dy="0.3em" style="text-anchor: end; visibility: inherit; font-family: Roboto, sans-serif; font-size: 12px; font-weight: 200;" fill="rgb(50, 49, 63)" stroke="none" stroke-width="1px">0.4</text><text x="0" y="182.34609041094095" dx="0em" dy="0.3em" style="text-anchor: end; visibility: inherit; font-family: Roboto, sans-serif; font-size: 12px; font-weight: 200;" fill="rgb(50, 49, 63)" stroke="none" stroke-width="1px">0.45</text><text x="0" y="141.48060954993826" dx="0em" dy="0.3em" style="text-anchor: end; visibility: inherit; font-family: Roboto, sans-serif; font-size: 12px; font-weight: 200;" fill="rgb(50, 49, 63)" stroke="none" stroke-width="1px">0.5</text><text x="0" y="100.61512868893558" dx="0em" dy="0.3em" style="text-anchor: end; visibility: inherit; font-family: Roboto, sans-serif; font-size: 12px; font-weight: 200;" fill="rgb(50, 49, 63)" stroke="none" stroke-width="1px">0.55</text><text x="0" y="59.749647827932954" dx="0em" dy="0.3em" style="text-anchor: end; visibility: inherit; font-family: Roboto, sans-serif; font-size: 12px; font-weight: 200;" fill="rgb(50, 49, 63)" stroke="none" stroke-width="1px">0.6</text><text x="0" y="18.88416696693028" dx="0em" dy="0.3em" style="text-anchor: end; visibility: inherit; font-family: Roboto, sans-serif; font-size: 12px; font-weight: 200;" fill="rgb(50, 49, 63)" stroke="none" stroke-width="1px">0.65</text></g><line x1="50" y1="0" x2="50" y2="378" fill="rgb(0, 0, 0)" stroke="rgb(204, 204, 204)" stroke-width="1px"></line></g></g><g transform="translate(50, 0)" clip-path="url(#clip_0)"><clipPath id="clip_0"><rect width="1062" height="378"></rect></clipPath><g><g><g><line x1="5.566847334030252" y1="0" x2="5.566847334030252" y2="378" fill="rgb(0, 0, 0)" stroke="rgb(60, 60, 60)" stroke-width="1px" opacity="0.25"></line><line x1="110.83149713035449" y1="0" x2="110.83149713035449" y2="378" fill="rgb(0, 0, 0)" stroke="rgb(60, 60, 60)" stroke-width="1px" opacity="0.25"></line><line x1="216.09614692667873" y1="0" x2="216.09614692667873" y2="378" fill="rgb(0, 0, 0)" stroke="rgb(60, 60, 60)" stroke-width="1px" opacity="0.25"></line><line x1="321.360796723003" y1="0" x2="321.360796723003" y2="378" fill="rgb(0, 0, 0)" stroke="rgb(60, 60, 60)" stroke-width="1px" opacity="0.25"></line><line x1="426.62544651932717" y1="0" x2="426.62544651932717" y2="378" fill="rgb(0, 0, 0)" stroke="rgb(60, 60, 60)" stroke-width="1px" opacity="0.25"></line><line x1="531.8900963156514" y1="0" x2="531.8900963156514" y2="378" fill="rgb(0, 0, 0)" stroke="rgb(60, 60, 60)" stroke-width="1px" opacity="0.25"></line><line x1="637.1547461119758" y1="0" x2="637.1547461119758" y2="378" fill="rgb(0, 0, 0)" stroke="rgb(60, 60, 60)" stroke-width="1px" opacity="0.25"></line><line x1="742.4193959083" y1="0" x2="742.4193959083" y2="378" fill="rgb(0, 0, 0)" stroke="rgb(60, 60, 60)" stroke-width="1px" opacity="0.25"></line><line x1="847.6840457046242" y1="0" x2="847.6840457046242" y2="378" fill="rgb(0, 0, 0)" stroke="rgb(60, 60, 60)" stroke-width="1px" opacity="0.25"></line><line x1="952.9486955009484" y1="0" x2="952.9486955009484" y2="378" fill="rgb(0, 0, 0)" stroke="rgb(60, 60, 60)" stroke-width="1px" opacity="0.25"></line><line x1="1058.2133452972726" y1="0" x2="1058.2133452972726" y2="378" fill="rgb(0, 0, 0)" stroke="rgb(60, 60, 60)" stroke-width="1px" opacity="0.25"></line></g><g><line x1="0" y1="345.8080138549516" x2="1062.2" y2="345.8080138549516" fill="rgb(0, 0, 0)" stroke="rgb(60, 60, 60)" stroke-width="1px" opacity="0.25"></line><line x1="0" y1="304.942532993949" x2="1062.2" y2="304.942532993949" fill="rgb(0, 0, 0)" stroke="rgb(60, 60, 60)" stroke-width="1px" opacity="0.25"></line><line x1="0" y1="264.0770521329463" x2="1062.2" y2="264.0770521329463" fill="rgb(0, 0, 0)" stroke="rgb(60, 60, 60)" stroke-width="1px" opacity="0.25"></line><line x1="0" y1="223.21157127194357" x2="1062.2" y2="223.21157127194357" fill="rgb(0, 0, 0)" stroke="rgb(60, 60, 60)" stroke-width="1px" opacity="0.25"></line><line x1="0" y1="182.34609041094095" x2="1062.2" y2="182.34609041094095" fill="rgb(0, 0, 0)" stroke="rgb(60, 60, 60)" stroke-width="1px" opacity="0.25"></line><line x1="0" y1="141.48060954993826" x2="1062.2" y2="141.48060954993826" fill="rgb(0, 0, 0)" stroke="rgb(60, 60, 60)" stroke-width="1px" opacity="0.25"></line><line x1="0" y1="100.61512868893558" x2="1062.2" y2="100.61512868893558" fill="rgb(0, 0, 0)" stroke="rgb(60, 60, 60)" stroke-width="1px" opacity="0.25"></line><line x1="0" y1="59.749647827932954" x2="1062.2" y2="59.749647827932954" fill="rgb(0, 0, 0)" stroke="rgb(60, 60, 60)" stroke-width="1px" opacity="0.25"></line><line x1="0" y1="18.88416696693028" x2="1062.2" y2="18.88416696693028" fill="rgb(0, 0, 0)" stroke="rgb(60, 60, 60)" stroke-width="1px" opacity="0.25"></line></g></g></g><g><g><line x1="0" y1="550.135418159965" x2="1062.2" y2="550.135418159965" fill="rgb(0, 0, 0)" stroke="rgb(153, 153, 153)" stroke-width="1.5px"></line></g></g><g><g><line x1="5.566847334030252" y1="0" x2="5.566847334030252" y2="378" fill="rgb(0, 0, 0)" stroke="rgb(153, 153, 153)" stroke-width="1.5px"></line></g></g><g><g><g><g><g><path stroke="rgb(51, 187, 238)" stroke-width="2px" d="M5.566847334030252,95.57073159076236L26.6197772932951,132.00111896549132L47.67270725255994,183.80337410755925L68.72563721182479,186.92725230071338L89.77856717108963,231.43210362584864L110.83149713035449,231.41795178779623L131.88442708961932,243.17362303028503L152.93735704888417,265.1025902876598L173.99028700814904,264.23070553191747L195.0432169674139,260.8345323343091L216.09614692667873,268.34686871402056L237.1490768859436,263.29327413899955L258.2020068452084,268.8513659080682L279.2549368044733,272.08090791098374L300.30786676373816,270.94651995611764L321.360796723003,272.7906920088278L342.4137266822678,273.8023657466404L363.46665664153267,273.26201398183L384.51958660079754,273.17593378272977L405.57251656006235,274.51034737285653L426.62544651932717,273.7315821986536L447.6783764785921,273.2278888095212L468.7313064378569,273.26932129924097L489.78423639712173,273.75874106169744L510.8371663563866,273.30819622786686L531.8900963156514,273.42433385925057L552.9430262749163,273.56526765438184L573.9959562341812,273.6506414794657L595.0488861934459,273.6690802770658L616.1018161527109,273.78999202249133L637.1547461119758,273.8462583665551L658.2076760712405,273.84423667540483L679.2606060305054,273.871200676651L700.3135359897701,273.88325775037896L721.366465949035,273.8477685454867L742.4193959083,273.8485479926772L763.4723258675647,273.84530841529175L784.5252558268296,273.8559040255375L805.5781857860945,273.86667013985624L826.6311157453592,273.8628703348026L847.6840457046242,273.87441589631175L868.7369756638891,273.8746594735588L889.7899056231538,273.8765837338103L910.8428355824187,273.87297879055427L931.8957655416834,273.87492740853054L952.9486955009484,273.87609657931625L974.0016254602133,273.8771196037538L995.054555419478,273.87792340866895L1016.1074853787429,273.8790195062806L1037.1604153380079,273.8795310184994" style="fill: none;" fill="none"></path></g><g><path stroke="rgb(187, 187, 187)" stroke-width="2px" d="M5.566847334030252,114.00913946730472L26.6197772932951,196.3320864589458L47.67270725255994,192.02420362570572L68.72563721182479,246.4944090699378L89.77856717108963,254.94958425745136L110.83149713035449,251.5793520366516L131.88442708961932,257.25989008780203L152.93735704888417,254.63534525105854L173.99028700814904,265.474191735728L195.0432169674139,269.4873461000624L216.09614692667873,269.03309889207696L237.1490768859436,272.6631306045585L258.2020068452084,273.1942507917064L279.2549368044733,276.73747157334657L300.30786676373816,274.43203728793657L321.360796723003,275.44663395271346L342.4137266822678,277.57157749807465L363.46665664153267,275.7678149106466L384.51958660079754,276.1447750581496L405.57251656006235,276.1478928469116L426.62544651932717,276.1408778221971L447.6783764785921,275.8610319230848L468.7313064378569,275.9350063330077L489.78423639712173,275.876352931923L510.8371663563866,275.7345666164271L531.8900963156514,276.0582564200047L552.9430262749163,276.1415111230394L573.9959562341812,275.9907855225775L595.0488861934459,275.6377690184575L616.1018161527109,275.70779747697856L637.1547461119758,275.62602859515073L658.2076760712405,275.74667240560444L679.2606060305054,275.771639073425L700.3135359897701,275.73001172190766L721.366465949035,275.68648446786347L742.4193959083,275.66068963740304L763.4723258675647,275.66750980031986L784.5252558268296,275.6391817664903L805.5781857860945,275.64088680721954L826.6311157453592,275.641179099916L847.6840457046242,275.6432495065157L868.7369756638891,275.6448084008967L889.7899056231538,275.64249441704993L910.8428355824187,275.6414470348877L931.8957655416834,275.64746339288934L952.9486955009484,275.6487299945739L974.0016254602133,275.6498991653596L995.054555419478,275.6500696694325L1016.1074853787429,275.65024017350544L1037.1604153380079,275.6503863198537" style="fill: none;" fill="none"></path></g><g><path stroke="rgb(0, 119, 187)" stroke-width="2px" d="M5.566847334030252,97.9844359624771L26.6197772932951,200.61195790877744L47.67270725255994,232.35903683941964L68.72563721182479,245.06008009307953L89.77856717108963,237.24339394320458L110.83149713035449,248.26319396469236L131.88442708961932,256.73585799854266L152.93735704888417,252.60286362866978L173.99028700814904,255.0248496267835L195.0432169674139,259.88236451794575L216.09614692667873,254.80416864097475L237.1490768859436,252.63730545139975L258.2020068452084,256.5751457309525L279.2549368044733,257.9435383470399L300.30786676373816,254.82492142242168L321.360796723003,255.45210847579807L342.4137266822678,254.300743186814L363.46665664153267,255.72506113881937L384.51958660079754,253.46422584734043L405.57251656006235,254.80433914504763L426.62544651932717,255.34020908851267L447.6783764785921,255.45926964686072L468.7313064378569,255.1111246876814L489.78423639712173,255.45456860599307L510.8371663563866,255.42658158030935L531.8900963156514,255.59477166938328L552.9430262749163,255.5489060737676L573.9959562341812,255.20928631823426L595.0488861934459,255.0848427027269L616.1018161527109,254.85147134234788L637.1547461119758,254.83914633364816L658.2076760712405,254.9176025649164L679.2606060305054,254.87894685581279L700.3135359897701,254.94157056602407L721.366465949035,254.91679876000117L742.4193959083,254.913291247644L763.4723258675647,254.92086650002656L784.5252558268296,254.89207566942767L805.5781857860945,254.88596188052725L826.6311157453592,254.8812608396596L847.6840457046242,254.88281973404057L868.7369756638891,254.88038396157032L889.7899056231538,254.8795801566551L910.8428355824187,254.87921479078452L931.8957655416834,254.88035960384556L952.9486955009484,254.8810172624125L974.0016254602133,254.88104162013727L995.054555419478,254.88123648193488L1016.1074853787429,254.88099290468787L1037.1604153380079,254.88128519738427" style="fill: none;" fill="none"></path></g><g><path stroke="rgb(0, 153, 136)" stroke-width="2px" d="M5.566847334030252,144.7372617004482L26.6197772932951,223.262376614129L47.67270725255994,241.69486556356858L68.72563721182479,236.09597460562242L89.77856717108963,242.8524177146271L110.83149713035449,256.016111591295L131.88442708961932,246.87592411196022L152.93735704888417,257.9267315169949L173.99028700814904,250.89582556603722L195.0432169674139,253.58801180428082L216.09614692667873,242.31910533225593L237.1490768859436,252.69547169799043L258.2020068452084,255.54072187826742L279.2549368044733,255.1980086916968L300.30786676373816,253.7525238769246L321.360796723003,252.4481433613566L342.4137266822678,252.84714724971573L363.46665664153267,253.89314102163476L384.51958660079754,253.7267777619136L405.57251656006235,254.81814997495425L426.62544651932717,253.93591318621316L447.6783764785921,253.29783822989452L468.7313064378569,253.5958062761858L489.78423639712173,252.95770696214242L510.8371663563866,253.2109785836038L531.8900963156514,253.3379310447556L552.9430262749163,253.49925225546326L573.9959562341812,253.2484651219216L595.0488861934459,253.17190879318022L616.1018161527109,253.13500684025527L637.1547461119758,253.12791874236672L658.2076760712405,253.1164462540316L679.2606060305054,253.14971890597587L700.3135359897701,253.12867383183251L721.366465949035,253.08120062638642L742.4193959083,253.06207981249463L763.4723258675647,253.08129805728527L784.5252558268296,253.07803412217507L805.5781857860945,253.07440482119435L826.6311157453592,253.068851259962L847.6840457046242,253.05845051151388L868.7369756638891,253.0504124623619L889.7899056231538,253.05450456011204L910.8428355824187,253.05338410477566L931.8957655416834,253.05669675533525L952.9486955009484,253.05798771474454L974.0016254602133,253.0592786741538L995.054555419478,253.0602529831419L1016.1074853787429,253.06112986123122L1037.1604153380079,253.06144651165238" style="fill: none;" fill="none"></path></g><g><path stroke="rgb(255, 112, 67)" stroke-width="2px" d="M5.566847334030252,125.33494558423577L26.6197772932951,235.93138945980456L47.67270725255994,250.40382388476223L68.72563721182479,226.90317444092926L89.77856717108963,256.7847195942968L110.83149713035449,257.0496585658908L131.88442708961932,254.87049472534085L152.93735704888417,251.72403692138715L173.99028700814904,259.46518976695825L195.0432169674139,257.161411806828L216.09614692667873,257.7117015233172L237.1490768859436,258.18592206555905L258.2020068452084,254.9682422745738L279.2549368044733,258.6925140239311L300.30786676373816,257.61246815287734L321.360796723003,258.30315579455436L342.4137266822678,258.21999852241845L363.46665664153267,255.9462049213975L384.51958660079754,256.6477073928426L405.57251656006235,255.99555367164572L426.62544651932717,255.9493227101595L447.6783764785921,255.81131184199256L468.7313064378569,255.9483484011714L489.78423639712173,255.39849712372683L510.8371663563866,255.59974064522268L531.8900963156514,255.6363015900018L552.9430262749163,255.49332174599544L573.9959562341812,255.49483192492704L595.0488861934459,255.4880848351843L616.1018161527109,255.63138132961186L637.1547461119758,255.681387738427L658.2076760712405,255.71468474809592L679.2606060305054,255.6667487458805L700.3135359897701,255.60872864563808L721.366465949035,255.6336222402845L742.4193959083,255.66421554251139L763.4723258675647,255.69690360906276L784.5252558268296,255.69702539768628L805.5781857860945,255.69914451973543L826.6311157453592,255.68219154334219L847.6840457046242,255.68596699067115L868.7369756638891,255.68119287662935L889.7899056231538,255.68501703940774L910.8428355824187,255.68750152732744L931.8957655416834,255.68901170625904L952.9486955009484,255.68998601524711L974.0016254602133,255.68993729979775L995.054555419478,255.68993729979775L1016.1074853787429,255.68988858434832L1037.1604153380079,255.69032702339297" style="fill: none;" fill="none"></path></g></g></g></g></g></g><g transform="translate(50, 378)" clip-path="url(#clip_1)"><clipPath id="clip_1"><rect width="1062" height="22"></rect></clipPath><g><g><line x1="5.566847334030252" y1="0" x2="5.566847334030252" y2="5" style="visibility: inherit;" fill="rgb(0, 0, 0)" stroke="rgb(204, 204, 204)" stroke-width="1px"></line><line x1="110.83149713035449" y1="0" x2="110.83149713035449" y2="5" style="visibility: inherit;" fill="rgb(0, 0, 0)" stroke="rgb(204, 204, 204)" stroke-width="1px"></line><line x1="216.09614692667873" y1="0" x2="216.09614692667873" y2="5" style="visibility: inherit;" fill="rgb(0, 0, 0)" stroke="rgb(204, 204, 204)" stroke-width="1px"></line><line x1="321.360796723003" y1="0" x2="321.360796723003" y2="5" style="visibility: inherit;" fill="rgb(0, 0, 0)" stroke="rgb(204, 204, 204)" stroke-width="1px"></line><line x1="426.62544651932717" y1="0" x2="426.62544651932717" y2="5" style="visibility: inherit;" fill="rgb(0, 0, 0)" stroke="rgb(204, 204, 204)" stroke-width="1px"></line><line x1="531.8900963156514" y1="0" x2="531.8900963156514" y2="5" style="visibility: inherit;" fill="rgb(0, 0, 0)" stroke="rgb(204, 204, 204)" stroke-width="1px"></line><line x1="637.1547461119758" y1="0" x2="637.1547461119758" y2="5" style="visibility: inherit;" fill="rgb(0, 0, 0)" stroke="rgb(204, 204, 204)" stroke-width="1px"></line><line x1="742.4193959083" y1="0" x2="742.4193959083" y2="5" style="visibility: inherit;" fill="rgb(0, 0, 0)" stroke="rgb(204, 204, 204)" stroke-width="1px"></line><line x1="847.6840457046242" y1="0" x2="847.6840457046242" y2="5" style="visibility: inherit;" fill="rgb(0, 0, 0)" stroke="rgb(204, 204, 204)" stroke-width="1px"></line><line x1="952.9486955009484" y1="0" x2="952.9486955009484" y2="5" style="visibility: inherit;" fill="rgb(0, 0, 0)" stroke="rgb(204, 204, 204)" stroke-width="1px"></line><line x1="1058.2133452972726" y1="0" x2="1058.2133452972726" y2="5" style="visibility: inherit;" fill="rgb(0, 0, 0)" stroke="rgb(204, 204, 204)" stroke-width="1px"></line></g><g transform="translate(0, 8)"><text x="5.566847334030252" y="0" dx="0em" dy="0.95em" style="text-anchor: middle; visibility: inherit; font-family: Roboto, sans-serif; font-size: 12px; font-weight: 200;" fill="rgb(50, 49, 63)" stroke="none" stroke-width="1px">0</text><text x="110.83149713035449" y="0" dx="0em" dy="0.95em" style="text-anchor: middle; visibility: inherit; font-family: Roboto, sans-serif; font-size: 12px; font-weight: 200;" fill="rgb(50, 49, 63)" stroke="none" stroke-width="1px">5</text><text x="216.09614692667873" y="0" dx="0em" dy="0.95em" style="text-anchor: middle; visibility: inherit; font-family: Roboto, sans-serif; font-size: 12px; font-weight: 200;" fill="rgb(50, 49, 63)" stroke="none" stroke-width="1px">10</text><text x="321.360796723003" y="0" dx="0em" dy="0.95em" style="text-anchor: middle; visibility: inherit; font-family: Roboto, sans-serif; font-size: 12px; font-weight: 200;" fill="rgb(50, 49, 63)" stroke="none" stroke-width="1px">15</text><text x="426.62544651932717" y="0" dx="0em" dy="0.95em" style="text-anchor: middle; visibility: inherit; font-family: Roboto, sans-serif; font-size: 12px; font-weight: 200;" fill="rgb(50, 49, 63)" stroke="none" stroke-width="1px">20</text><text x="531.8900963156514" y="0" dx="0em" dy="0.95em" style="text-anchor: middle; visibility: inherit; font-family: Roboto, sans-serif; font-size: 12px; font-weight: 200;" fill="rgb(50, 49, 63)" stroke="none" stroke-width="1px">25</text><text x="637.1547461119758" y="0" dx="0em" dy="0.95em" style="text-anchor: middle; visibility: inherit; font-family: Roboto, sans-serif; font-size: 12px; font-weight: 200;" fill="rgb(50, 49, 63)" stroke="none" stroke-width="1px">30</text><text x="742.4193959083" y="0" dx="0em" dy="0.95em" style="text-anchor: middle; visibility: inherit; font-family: Roboto, sans-serif; font-size: 12px; font-weight: 200;" fill="rgb(50, 49, 63)" stroke="none" stroke-width="1px">35</text><text x="847.6840457046242" y="0" dx="0em" dy="0.95em" style="text-anchor: middle; visibility: inherit; font-family: Roboto, sans-serif; font-size: 12px; font-weight: 200;" fill="rgb(50, 49, 63)" stroke="none" stroke-width="1px">40</text><text x="952.9486955009484" y="0" dx="0em" dy="0.95em" style="text-anchor: middle; visibility: inherit; font-family: Roboto, sans-serif; font-size: 12px; font-weight: 200;" fill="rgb(50, 49, 63)" stroke="none" stroke-width="1px">45</text><text x="1058.2133452972726" y="0" dx="0em" dy="0.95em" style="text-anchor: middle; visibility: hidden; font-family: Roboto, sans-serif; font-size: 12px; font-weight: 200;" fill="rgb(50, 49, 63)" stroke="none" stroke-width="1px">50</text></g><line x1="0" y1="0" x2="1062.2" y2="0" fill="rgb(0, 0, 0)" stroke="rgb(204, 204, 204)" stroke-width="1px"></line></g></g></g></g></svg>