<svg viewBox="0 0 1112.2000732421875 400" xmlns="http://www.w3.org/2000/svg"><g><g><g><g><g><line x1="50" y1="362.2274648563707" x2="45" y2="362.2274648563707" style="visibility: inherit;" fill="rgb(0, 0, 0)" stroke="rgb(204, 204, 204)" stroke-width="1px"></line><line x1="50" y1="324.7674407337844" x2="45" y2="324.7674407337844" style="visibility: inherit;" fill="rgb(0, 0, 0)" stroke="rgb(204, 204, 204)" stroke-width="1px"></line><line x1="50" y1="287.30741661119845" x2="45" y2="287.30741661119845" style="visibility: inherit;" fill="rgb(0, 0, 0)" stroke="rgb(204, 204, 204)" stroke-width="1px"></line><line x1="50" y1="249.8473924886122" x2="45" y2="249.8473924886122" style="visibility: inherit;" fill="rgb(0, 0, 0)" stroke="rgb(204, 204, 204)" stroke-width="1px"></line><line x1="50" y1="212.38736836602587" x2="45" y2="212.38736836602587" style="visibility: inherit;" fill="rgb(0, 0, 0)" stroke="rgb(204, 204, 204)" stroke-width="1px"></line><line x1="50" y1="174.9273442434396" x2="45" y2="174.9273442434396" style="visibility: inherit;" fill="rgb(0, 0, 0)" stroke="rgb(204, 204, 204)" stroke-width="1px"></line><line x1="50" y1="137.4673201208533" x2="45" y2="137.4673201208533" style="visibility: inherit;" fill="rgb(0, 0, 0)" stroke="rgb(204, 204, 204)" stroke-width="1px"></line><line x1="50" y1="100.00729599826698" x2="45" y2="100.00729599826698" style="visibility: inherit;" fill="rgb(0, 0, 0)" stroke="rgb(204, 204, 204)" stroke-width="1px"></line><line x1="50" y1="62.54727187568068" x2="45" y2="62.54727187568068" style="visibility: inherit;" fill="rgb(0, 0, 0)" stroke="rgb(204, 204, 204)" stroke-width="1px"></line><line x1="50" y1="25.08724775309437" x2="45" y2="25.08724775309437" style="visibility: inherit;" fill="rgb(0, 0, 0)" stroke="rgb(204, 204, 204)" stroke-width="1px"></line></g><g transform="translate(40, 0)"><text x="0" y="362.2274648563707" dx="0em" dy="0.3em" style="text-anchor: end; visibility: inherit; font-family: Roboto, sans-serif; font-size: 12px; font-weight: 200;" fill="rgb(50, 49, 63)" stroke="none" stroke-width="1px">0.8</text><text x="0" y="324.7674407337844" dx="0em" dy="0.3em" style="text-anchor: end; visibility: inherit; font-family: Roboto, sans-serif; font-size: 12px; font-weight: 200;" fill="rgb(50, 49, 63)" stroke="none" stroke-width="1px">0.81</text><text x="0" y="287.30741661119845" dx="0em" dy="0.3em" style="text-anchor: end; visibility: inherit; font-family: Roboto, sans-serif; font-size: 12px; font-weight: 200;" fill="rgb(50, 49, 63)" stroke="none" stroke-width="1px">0.82</text><text x="0" y="249.8473924886122" dx="0em" dy="0.3em" style="text-anchor: end; visibility: inherit; font-family: Roboto, sans-serif; font-size: 12px; font-weight: 200;" fill="rgb(50, 49, 63)" stroke="none" stroke-width="1px">0.83</text><text x="0" y="212.38736836602587" dx="0em" dy="0.3em" style="text-anchor: end; visibility: inherit; font-family: Roboto, sans-serif; font-size: 12px; font-weight: 200;" fill="rgb(50, 49, 63)" stroke="none" stroke-width="1px">0.84</text><text x="0" y="174.9273442434396" dx="0em" dy="0.3em" style="text-anchor: end; visibility: inherit; font-family: Roboto, sans-serif; font-size: 12px; font-weight: 200;" fill="rgb(50, 49, 63)" stroke="none" stroke-width="1px">0.85</text><text x="0" y="137.4673201208533" dx="0em" dy="0.3em" style="text-anchor: end; visibility: inherit; font-family: Roboto, sans-serif; font-size: 12px; font-weight: 200;" fill="rgb(50, 49, 63)" stroke="none" stroke-width="1px">0.86</text><text x="0" y="100.00729599826698" dx="0em" dy="0.3em" style="text-anchor: end; visibility: inherit; font-family: Roboto, sans-serif; font-size: 12px; font-weight: 200;" fill="rgb(50, 49, 63)" stroke="none" stroke-width="1px">0.87</text><text x="0" y="62.54727187568068" dx="0em" dy="0.3em" style="text-anchor: end; visibility: inherit; font-family: Roboto, sans-serif; font-size: 12px; font-weight: 200;" fill="rgb(50, 49, 63)" stroke="none" stroke-width="1px">0.88</text><text x="0" y="25.08724775309437" dx="0em" dy="0.3em" style="text-anchor: end; visibility: inherit; font-family: Roboto, sans-serif; font-size: 12px; font-weight: 200;" fill="rgb(50, 49, 63)" stroke="none" stroke-width="1px">0.89</text></g><line x1="50" y1="0" x2="50" y2="378" fill="rgb(0, 0, 0)" stroke="rgb(204, 204, 204)" stroke-width="1px"></line></g></g><g transform="translate(50, 0)" clip-path="url(#clip_0)"><clipPath id="clip_0"><rect width="1062" height="378"></rect></clipPath><g><g><g><line x1="22.80310103874248" y1="0" x2="22.80310103874248" y2="378" fill="rgb(0, 0, 0)" stroke="rgb(60, 60, 60)" stroke-width="1px" opacity="0.25"></line><line x1="128.06775083506648" y1="0" x2="128.06775083506648" y2="378" fill="rgb(0, 0, 0)" stroke="rgb(60, 60, 60)" stroke-width="1px" opacity="0.25"></line><line x1="233.33240063139047" y1="0" x2="233.33240063139047" y2="378" fill="rgb(0, 0, 0)" stroke="rgb(60, 60, 60)" stroke-width="1px" opacity="0.25"></line><line x1="338.59705042771446" y1="0" x2="338.59705042771446" y2="378" fill="rgb(0, 0, 0)" stroke="rgb(60, 60, 60)" stroke-width="1px" opacity="0.25"></line><line x1="443.8617002240385" y1="0" x2="443.8617002240385" y2="378" fill="rgb(0, 0, 0)" stroke="rgb(60, 60, 60)" stroke-width="1px" opacity="0.25"></line><line x1="549.1263500203625" y1="0" x2="549.1263500203625" y2="378" fill="rgb(0, 0, 0)" stroke="rgb(60, 60, 60)" stroke-width="1px" opacity="0.25"></line><line x1="654.3909998166864" y1="0" x2="654.3909998166864" y2="378" fill="rgb(0, 0, 0)" stroke="rgb(60, 60, 60)" stroke-width="1px" opacity="0.25"></line><line x1="759.6556496130105" y1="0" x2="759.6556496130105" y2="378" fill="rgb(0, 0, 0)" stroke="rgb(60, 60, 60)" stroke-width="1px" opacity="0.25"></line><line x1="864.9202994093345" y1="0" x2="864.9202994093345" y2="378" fill="rgb(0, 0, 0)" stroke="rgb(60, 60, 60)" stroke-width="1px" opacity="0.25"></line><line x1="970.1849492056584" y1="0" x2="970.1849492056584" y2="378" fill="rgb(0, 0, 0)" stroke="rgb(60, 60, 60)" stroke-width="1px" opacity="0.25"></line></g><g><line x1="0" y1="362.2274648563707" x2="1062.2" y2="362.2274648563707" fill="rgb(0, 0, 0)" stroke="rgb(60, 60, 60)" stroke-width="1px" opacity="0.25"></line><line x1="0" y1="324.7674407337844" x2="1062.2" y2="324.7674407337844" fill="rgb(0, 0, 0)" stroke="rgb(60, 60, 60)" stroke-width="1px" opacity="0.25"></line><line x1="0" y1="287.30741661119845" x2="1062.2" y2="287.30741661119845" fill="rgb(0, 0, 0)" stroke="rgb(60, 60, 60)" stroke-width="1px" opacity="0.25"></line><line x1="0" y1="249.8473924886122" x2="1062.2" y2="249.8473924886122" fill="rgb(0, 0, 0)" stroke="rgb(60, 60, 60)" stroke-width="1px" opacity="0.25"></line><line x1="0" y1="212.38736836602587" x2="1062.2" y2="212.38736836602587" fill="rgb(0, 0, 0)" stroke="rgb(60, 60, 60)" stroke-width="1px" opacity="0.25"></line><line x1="0" y1="174.9273442434396" x2="1062.2" y2="174.9273442434396" fill="rgb(0, 0, 0)" stroke="rgb(60, 60, 60)" stroke-width="1px" opacity="0.25"></line><line x1="0" y1="137.4673201208533" x2="1062.2" y2="137.4673201208533" fill="rgb(0, 0, 0)" stroke="rgb(60, 60, 60)" stroke-width="1px" opacity="0.25"></line><line x1="0" y1="100.00729599826698" x2="1062.2" y2="100.00729599826698" fill="rgb(0, 0, 0)" stroke="rgb(60, 60, 60)" stroke-width="1px" opacity="0.25"></line><line x1="0" y1="62.54727187568068" x2="1062.2" y2="62.54727187568068" fill="rgb(0, 0, 0)" stroke="rgb(60, 60, 60)" stroke-width="1px" opacity="0.25"></line><line x1="0" y1="25.08724775309437" x2="1062.2" y2="25.08724775309437" fill="rgb(0, 0, 0)" stroke="rgb(60, 60, 60)" stroke-width="1px" opacity="0.25"></line></g></g></g><g><g><line x1="0" y1="3359.0293946632723" x2="1062.2" y2="3359.0293946632723" fill="rgb(0, 0, 0)" stroke="rgb(153, 153, 153)" stroke-width="1.5px"></line></g></g><g><g><line x1="22.80310103874248" y1="0" x2="22.80310103874248" y2="378" fill="rgb(0, 0, 0)" stroke="rgb(153, 153, 153)" stroke-width="1.5px"></line></g></g><g><g><g><g><g><path stroke="rgb(0, 119, 187)" stroke-width="2px" d="M22.80310103874248,249.71080817118855L43.85603099800728,223.3855273610393L64.90896095727207,184.38491287565395L85.96189091653689,174.63475925430757L107.01482087580169,151.234435218905L128.06775083506648,121.00913761604586L149.12068079433126,121.9841976340091L170.17361075359608,93.70879678793335L191.22654071286087,86.88359994133366L212.27947067212568,82.00852313066049L233.33240063139047,84.93347990540715L254.3853305906553,82.98358314862374L275.4382605499201,75.18354956320394L296.4911905091849,73.23342952727741L317.54412046844965,78.10850633795057L338.59705042771446,69.33341273456749L359.6499803869793,74.20848954524065L380.7029103462441,77.13344631998731L401.75584030550885,72.25836950931415L422.80877026477367,72.25836950931415L443.8617002240385,66.40823268067774L464.9146301833033,63.483275905931066L485.96756014256806,67.38329269864099L507.0204901018329,69.33341273456749L528.0734200610976,66.40823268067774L549.1263500203625,65.43339594185757L570.1792799796273,64.45833592389431L591.2322099388921,65.43339594185757L612.2851398981569,64.45833592389431L633.3380698574216,66.40823268067774L654.3909998166864,65.43339594185757L675.4439297759513,65.43339594185757L696.496859735216,66.40823268067774L717.5497896944809,66.40823268067774L738.6027196537457,66.40823268067774L759.6556496130105,66.40823268067774L780.7085795722753,66.40823268067774L801.76150953154,66.40823268067774L822.8144394908048,66.40823268067774L843.8673694500698,66.40823268067774L864.9202994093345,66.40823268067774L885.9732293685993,66.40823268067774L907.0261593278641,66.40823268067774L928.0790892871288,66.40823268067774L949.1320192463937,66.40823268067774L970.1849492056584,66.40823268067774L991.2378791649232,66.40823268067774L1012.2908091241881,66.40823268067774L1033.3437390834529,66.40823268067774L1054.3966690427176,66.40823268067774" style="fill: none;" fill="none"></path></g><g><path stroke="rgb(187, 187, 187)" stroke-width="2px" d="M22.80310103874248,325.76191710603274L43.85603099800728,220.46057058629262L64.90896095727207,164.88460563296124L85.96189091653689,116.1340608053727L107.01482087580169,130.7592912373922L128.06775083506648,109.30886395877299L149.12068079433126,83.95864316658698L170.17361075359608,77.13344631998731L191.22654071286087,87.8586599592969L212.27947067212568,93.70879678793335L233.33240063139047,74.20848954524065L254.3853305906553,83.95864316658698L275.4382605499201,74.20848954524065L296.4911905091849,73.23342952727741L317.54412046844965,63.483275905931066L338.59705042771446,70.30847275253078L359.6499803869793,61.53315587000457L380.7029103462441,62.50821588796782L401.75584030550885,61.53315587000457L422.80877026477367,59.58325911322115L443.8617002240385,57.63313907729466L464.9146301833033,58.6081990952579L485.96756014256806,61.53315587000457L507.0204901018329,60.5583191311844L528.0734200610976,59.58325911322115L549.1263500203625,60.5583191311844L570.1792799796273,60.5583191311844L591.2322099388921,60.5583191311844L612.2851398981569,60.5583191311844L633.3380698574216,62.50821588796782L654.3909998166864,62.50821588796782L675.4439297759513,61.53315587000457L696.496859735216,60.5583191311844L717.5497896944809,61.53315587000457L738.6027196537457,61.53315587000457L759.6556496130105,60.5583191311844L780.7085795722753,60.5583191311844L801.76150953154,60.5583191311844L822.8144394908048,60.5583191311844L843.8673694500698,60.5583191311844L864.9202994093345,60.5583191311844L885.9732293685993,60.5583191311844L907.0261593278641,60.5583191311844L928.0790892871288,60.5583191311844L949.1320192463937,60.5583191311844L970.1849492056584,60.5583191311844L991.2378791649232,60.5583191311844L1012.2908091241881,60.5583191311844L1033.3437390834529,60.5583191311844L1054.3966690427176,60.5583191311844" style="fill: none;" fill="none"></path></g><g><path stroke="rgb(238, 51, 119)" stroke-width="2px" d="M22.80310103874248,251.66092820711503L43.85603099800728,212.66031372172966L64.90896095727207,165.85966565092448L85.96189091653689,133.68424801213882L107.01482087580169,126.85927444468227L128.06775083506648,96.63375356267998L149.12068079433126,94.6836335267535L170.17361075359608,94.6836335267535L191.22654071286087,82.98358314862374L212.27947067212568,83.95864316658698L233.33240063139047,68.35835271660423L254.3853305906553,68.35835271660423L275.4382605499201,68.35835271660423L296.4911905091849,71.2833094913509L317.54412046844965,71.2833094913509L338.59705042771446,73.23342952727741L359.6499803869793,75.18354956320394L380.7029103462441,75.18354956320394L401.75584030550885,75.18354956320394L422.80877026477367,73.23342952727741L443.8617002240385,74.20848954524065L464.9146301833033,80.0586263738771L485.96756014256806,78.10850633795057L507.0204901018329,78.10850633795057L528.0734200610976,78.10850633795057L549.1263500203625,75.18354956320394L570.1792799796273,75.18354956320394L591.2322099388921,73.23342952727741L612.2851398981569,73.23342952727741L633.3380698574216,71.2833094913509L654.3909998166864,73.23342952727741L675.4439297759513,71.2833094913509L696.496859735216,73.23342952727741L717.5497896944809,71.2833094913509L738.6027196537457,71.2833094913509L759.6556496130105,72.25836950931415L780.7085795722753,71.2833094913509L801.76150953154,71.2833094913509L822.8144394908048,71.2833094913509L843.8673694500698,71.2833094913509L864.9202994093345,72.25836950931415L885.9732293685993,72.25836950931415L907.0261593278641,71.2833094913509L928.0790892871288,72.25836950931415L949.1320192463937,72.25836950931415L970.1849492056584,72.25836950931415L991.2378791649232,72.25836950931415L1012.2908091241881,72.25836950931415L1033.3437390834529,72.25836950931415L1054.3966690427176,72.25836950931415" style="fill: none;" fill="none"></path></g><g><path stroke="rgb(204, 51, 17)" stroke-width="2px" d="M22.80310103874248,300.41169631384673L43.85603099800728,199.01014330767345L64.90896095727207,172.6848624975242L85.96189091653689,167.80978568685103L107.01482087580169,117.10912082333594L128.06775083506648,95.65869354471674L149.12068079433126,106.38390718402631L170.17361075359608,105.40884716606307L191.22654071286087,81.03346311269723L212.27947067212568,83.95864316658698L233.33240063139047,84.93347990540715L254.3853305906553,77.13344631998731L275.4382605499201,55.68324232051123L296.4911905091849,76.15838630202407L317.54412046844965,70.30847275253078L338.59705042771446,70.30847275253078L359.6499803869793,67.38329269864099L380.7029103462441,76.15838630202407L401.75584030550885,71.2833094913509L422.80877026477367,73.23342952727741L443.8617002240385,69.33341273456749L464.9146301833033,71.2833094913509L485.96756014256806,74.20848954524065L507.0204901018329,69.33341273456749L528.0734200610976,71.2833094913509L549.1263500203625,71.2833094913509L570.1792799796273,72.25836950931415L591.2322099388921,71.2833094913509L612.2851398981569,70.30847275253078L633.3380698574216,69.33341273456749L654.3909998166864,71.2833094913509L675.4439297759513,73.23342952727741L696.496859735216,71.2833094913509L717.5497896944809,73.23342952727741L738.6027196537457,73.23342952727741L759.6556496130105,73.23342952727741L780.7085795722753,73.23342952727741L801.76150953154,73.23342952727741L822.8144394908048,71.2833094913509L843.8673694500698,71.2833094913509L864.9202994093345,71.2833094913509L885.9732293685993,73.23342952727741L907.0261593278641,73.23342952727741L928.0790892871288,73.23342952727741L949.1320192463937,73.23342952727741L970.1849492056584,73.23342952727741L991.2378791649232,73.23342952727741L1012.2908091241881,73.23342952727741L1033.3437390834529,73.23342952727741L1054.3966690427176,73.23342952727741" style="fill: none;" fill="none"></path></g><g><path stroke="rgb(0, 153, 136)" stroke-width="2px" d="M22.80310103874248,321.8619003133228L43.85603099800728,190.23504970429036L64.90896095727207,157.08457204754146L85.96189091653689,142.4593416155219L107.01482087580169,137.58426480484874L128.06775083506648,104.43378714809982L149.12068079433126,116.1340608053727L170.17361075359608,83.95864316658698L191.22654071286087,77.13344631998731L212.27947067212568,77.13344631998731L233.33240063139047,74.20848954524065L254.3853305906553,76.15838630202407L275.4382605499201,61.53315587000457L296.4911905091849,59.58325911322115L317.54412046844965,63.483275905931066L338.59705042771446,69.33341273456749L359.6499803869793,66.40823268067774L380.7029103462441,61.53315587000457L401.75584030550885,62.50821588796782L422.80877026477367,56.658079059331406L443.8617002240385,52.75806226662149L464.9146301833033,55.68324232051123L485.96756014256806,54.70818230254798L507.0204901018329,50.80816550983806L528.0734200610976,50.80816550983806L549.1263500203625,52.75806226662149L570.1792799796273,50.80816550983806L591.2322099388921,53.73312228458474L612.2851398981569,53.73312228458474L633.3380698574216,53.73312228458474L654.3909998166864,53.73312228458474L675.4439297759513,53.73312228458474L696.496859735216,53.73312228458474L717.5497896944809,51.783225527801314L738.6027196537457,51.783225527801314L759.6556496130105,52.75806226662149L780.7085795722753,52.75806226662149L801.76150953154,52.75806226662149L822.8144394908048,52.75806226662149L843.8673694500698,52.75806226662149L864.9202994093345,52.75806226662149L885.9732293685993,52.75806226662149L907.0261593278641,52.75806226662149L928.0790892871288,52.75806226662149L949.1320192463937,52.75806226662149L970.1849492056584,52.75806226662149L991.2378791649232,52.75806226662149L1012.2908091241881,52.75806226662149L1033.3437390834529,52.75806226662149L1054.3966690427176,52.75806226662149" style="fill: none;" fill="none"></path></g></g></g></g></g></g><g transform="translate(50, 378)" clip-path="url(#clip_1)"><clipPath id="clip_1"><rect width="1062" height="22"></rect></clipPath><g><g><line x1="22.80310103874248" y1="0" x2="22.80310103874248" y2="5" style="visibility: inherit;" fill="rgb(0, 0, 0)" stroke="rgb(204, 204, 204)" stroke-width="1px"></line><line x1="128.06775083506648" y1="0" x2="128.06775083506648" y2="5" style="visibility: inherit;" fill="rgb(0, 0, 0)" stroke="rgb(204, 204, 204)" stroke-width="1px"></line><line x1="233.33240063139047" y1="0" x2="233.33240063139047" y2="5" style="visibility: inherit;" fill="rgb(0, 0, 0)" stroke="rgb(204, 204, 204)" stroke-width="1px"></line><line x1="338.59705042771446" y1="0" x2="338.59705042771446" y2="5" style="visibility: inherit;" fill="rgb(0, 0, 0)" stroke="rgb(204, 204, 204)" stroke-width="1px"></line><line x1="443.8617002240385" y1="0" x2="443.8617002240385" y2="5" style="visibility: inherit;" fill="rgb(0, 0, 0)" stroke="rgb(204, 204, 204)" stroke-width="1px"></line><line x1="549.1263500203625" y1="0" x2="549.1263500203625" y2="5" style="visibility: inherit;" fill="rgb(0, 0, 0)" stroke="rgb(204, 204, 204)" stroke-width="1px"></line><line x1="654.3909998166864" y1="0" x2="654.3909998166864" y2="5" style="visibility: inherit;" fill="rgb(0, 0, 0)" stroke="rgb(204, 204, 204)" stroke-width="1px"></line><line x1="759.6556496130105" y1="0" x2="759.6556496130105" y2="5" style="visibility: inherit;" fill="rgb(0, 0, 0)" stroke="rgb(204, 204, 204)" stroke-width="1px"></line><line x1="864.9202994093345" y1="0" x2="864.9202994093345" y2="5" style="visibility: inherit;" fill="rgb(0, 0, 0)" stroke="rgb(204, 204, 204)" stroke-width="1px"></line><line x1="970.1849492056584" y1="0" x2="970.1849492056584" y2="5" style="visibility: inherit;" fill="rgb(0, 0, 0)" stroke="rgb(204, 204, 204)" stroke-width="1px"></line></g><g transform="translate(0, 8)"><text x="22.80310103874248" y="0" dx="0em" dy="0.95em" style="text-anchor: middle; visibility: inherit; font-family: Roboto, sans-serif; font-size: 12px; font-weight: 200;" fill="rgb(50, 49, 63)" stroke="none" stroke-width="1px">0</text><text x="128.06775083506648" y="0" dx="0em" dy="0.95em" style="text-anchor: middle; visibility: inherit; font-family: Roboto, sans-serif; font-size: 12px; font-weight: 200;" fill="rgb(50, 49, 63)" stroke="none" stroke-width="1px">5</text><text x="233.33240063139047" y="0" dx="0em" dy="0.95em" style="text-anchor: middle; visibility: inherit; font-family: Roboto, sans-serif; font-size: 12px; font-weight: 200;" fill="rgb(50, 49, 63)" stroke="none" stroke-width="1px">10</text><text x="338.59705042771446" y="0" dx="0em" dy="0.95em" style="text-anchor: middle; visibility: inherit; font-family: Roboto, sans-serif; font-size: 12px; font-weight: 200;" fill="rgb(50, 49, 63)" stroke="none" stroke-width="1px">15</text><text x="443.8617002240385" y="0" dx="0em" dy="0.95em" style="text-anchor: middle; visibility: inherit; font-family: Roboto, sans-serif; font-size: 12px; font-weight: 200;" fill="rgb(50, 49, 63)" stroke="none" stroke-width="1px">20</text><text x="549.1263500203625" y="0" dx="0em" dy="0.95em" style="text-anchor: middle; visibility: inherit; font-family: Roboto, sans-serif; font-size: 12px; font-weight: 200;" fill="rgb(50, 49, 63)" stroke="none" stroke-width="1px">25</text><text x="654.3909998166864" y="0" dx="0em" dy="0.95em" style="text-anchor: middle; visibility: inherit; font-family: Roboto, sans-serif; font-size: 12px; font-weight: 200;" fill="rgb(50, 49, 63)" stroke="none" stroke-width="1px">30</text><text x="759.6556496130105" y="0" dx="0em" dy="0.95em" style="text-anchor: middle; visibility: inherit; font-family: Roboto, sans-serif; font-size: 12px; font-weight: 200;" fill="rgb(50, 49, 63)" stroke="none" stroke-width="1px">35</text><text x="864.9202994093345" y="0" dx="0em" dy="0.95em" style="text-anchor: middle; visibility: inherit; font-family: Roboto, sans-serif; font-size: 12px; font-weight: 200;" fill="rgb(50, 49, 63)" stroke="none" stroke-width="1px">40</text><text x="970.1849492056584" y="0" dx="0em" dy="0.95em" style="text-anchor: middle; visibility: inherit; font-family: Roboto, sans-serif; font-size: 12px; font-weight: 200;" fill="rgb(50, 49, 63)" stroke="none" stroke-width="1px">45</text></g><line x1="0" y1="0" x2="1062.2" y2="0" fill="rgb(0, 0, 0)" stroke="rgb(204, 204, 204)" stroke-width="1px"></line></g></g></g></g></svg>