<svg viewBox="0 0 1112.2000732421875 400" xmlns="http://www.w3.org/2000/svg"><g><g><g><g><g><line x1="50" y1="361.3901820741694" x2="45" y2="361.3901820741694" style="visibility: inherit;" fill="rgb(0, 0, 0)" stroke="rgb(204, 204, 204)" stroke-width="1px"></line><line x1="50" y1="332.31325899724635" x2="45" y2="332.31325899724635" style="visibility: inherit;" fill="rgb(0, 0, 0)" stroke="rgb(204, 204, 204)" stroke-width="1px"></line><line x1="50" y1="303.23633592032314" x2="45" y2="303.23633592032314" style="visibility: inherit;" fill="rgb(0, 0, 0)" stroke="rgb(204, 204, 204)" stroke-width="1px"></line><line x1="50" y1="274.1594128434" x2="45" y2="274.1594128434" style="visibility: inherit;" fill="rgb(0, 0, 0)" stroke="rgb(204, 204, 204)" stroke-width="1px"></line><line x1="50" y1="245.08248976647675" x2="45" y2="245.08248976647675" style="visibility: inherit;" fill="rgb(0, 0, 0)" stroke="rgb(204, 204, 204)" stroke-width="1px"></line><line x1="50" y1="216.0055666895536" x2="45" y2="216.0055666895536" style="visibility: inherit;" fill="rgb(0, 0, 0)" stroke="rgb(204, 204, 204)" stroke-width="1px"></line><line x1="50" y1="186.9286436126304" x2="45" y2="186.9286436126304" style="visibility: inherit;" fill="rgb(0, 0, 0)" stroke="rgb(204, 204, 204)" stroke-width="1px"></line><line x1="50" y1="157.85172053570736" x2="45" y2="157.85172053570736" style="visibility: inherit;" fill="rgb(0, 0, 0)" stroke="rgb(204, 204, 204)" stroke-width="1px"></line><line x1="50" y1="128.77479745878418" x2="45" y2="128.77479745878418" style="visibility: inherit;" fill="rgb(0, 0, 0)" stroke="rgb(204, 204, 204)" stroke-width="1px"></line><line x1="50" y1="99.697874381861" x2="45" y2="99.697874381861" style="visibility: inherit;" fill="rgb(0, 0, 0)" stroke="rgb(204, 204, 204)" stroke-width="1px"></line><line x1="50" y1="70.62095130493782" x2="45" y2="70.62095130493782" style="visibility: inherit;" fill="rgb(0, 0, 0)" stroke="rgb(204, 204, 204)" stroke-width="1px"></line><line x1="50" y1="41.5440282280146" x2="45" y2="41.5440282280146" style="visibility: inherit;" fill="rgb(0, 0, 0)" stroke="rgb(204, 204, 204)" stroke-width="1px"></line><line x1="50" y1="12.467105151091411" x2="45" y2="12.467105151091411" style="visibility: inherit;" fill="rgb(0, 0, 0)" stroke="rgb(204, 204, 204)" stroke-width="1px"></line></g><g transform="translate(40, 0)"><text x="0" y="361.3901820741694" dx="0em" dy="0.3em" style="text-anchor: end; visibility: inherit; font-family: Roboto, sans-serif; font-size: 12px; font-weight: 200;" fill="rgb(50, 49, 63)" stroke="none" stroke-width="1px">0.4</text><text x="0" y="332.31325899724635" dx="0em" dy="0.3em" style="text-anchor: end; visibility: inherit; font-family: Roboto, sans-serif; font-size: 12px; font-weight: 200;" fill="rgb(50, 49, 63)" stroke="none" stroke-width="1px">0.41</text><text x="0" y="303.23633592032314" dx="0em" dy="0.3em" style="text-anchor: end; visibility: inherit; font-family: Roboto, sans-serif; font-size: 12px; font-weight: 200;" fill="rgb(50, 49, 63)" stroke="none" stroke-width="1px">0.42</text><text x="0" y="274.1594128434" dx="0em" dy="0.3em" style="text-anchor: end; visibility: inherit; font-family: Roboto, sans-serif; font-size: 12px; font-weight: 200;" fill="rgb(50, 49, 63)" stroke="none" stroke-width="1px">0.43</text><text x="0" y="245.08248976647675" dx="0em" dy="0.3em" style="text-anchor: end; visibility: inherit; font-family: Roboto, sans-serif; font-size: 12px; font-weight: 200;" fill="rgb(50, 49, 63)" stroke="none" stroke-width="1px">0.44</text><text x="0" y="216.0055666895536" dx="0em" dy="0.3em" style="text-anchor: end; visibility: inherit; font-family: Roboto, sans-serif; font-size: 12px; font-weight: 200;" fill="rgb(50, 49, 63)" stroke="none" stroke-width="1px">0.45</text><text x="0" y="186.9286436126304" dx="0em" dy="0.3em" style="text-anchor: end; visibility: inherit; font-family: Roboto, sans-serif; font-size: 12px; font-weight: 200;" fill="rgb(50, 49, 63)" stroke="none" stroke-width="1px">0.46</text><text x="0" y="157.85172053570736" dx="0em" dy="0.3em" style="text-anchor: end; visibility: inherit; font-family: Roboto, sans-serif; font-size: 12px; font-weight: 200;" fill="rgb(50, 49, 63)" stroke="none" stroke-width="1px">0.47</text><text x="0" y="128.77479745878418" dx="0em" dy="0.3em" style="text-anchor: end; visibility: inherit; font-family: Roboto, sans-serif; font-size: 12px; font-weight: 200;" fill="rgb(50, 49, 63)" stroke="none" stroke-width="1px">0.48</text><text x="0" y="99.697874381861" dx="0em" dy="0.3em" style="text-anchor: end; visibility: inherit; font-family: Roboto, sans-serif; font-size: 12px; font-weight: 200;" fill="rgb(50, 49, 63)" stroke="none" stroke-width="1px">0.49</text><text x="0" y="70.62095130493782" dx="0em" dy="0.3em" style="text-anchor: end; visibility: inherit; font-family: Roboto, sans-serif; font-size: 12px; font-weight: 200;" fill="rgb(50, 49, 63)" stroke="none" stroke-width="1px">0.5</text><text x="0" y="41.5440282280146" dx="0em" dy="0.3em" style="text-anchor: end; visibility: inherit; font-family: Roboto, sans-serif; font-size: 12px; font-weight: 200;" fill="rgb(50, 49, 63)" stroke="none" stroke-width="1px">0.51</text><text x="0" y="12.467105151091411" dx="0em" dy="0.3em" style="text-anchor: end; visibility: inherit; font-family: Roboto, sans-serif; font-size: 12px; font-weight: 200;" fill="rgb(50, 49, 63)" stroke="none" stroke-width="1px">0.52</text></g><line x1="50" y1="0" x2="50" y2="378" fill="rgb(0, 0, 0)" stroke="rgb(204, 204, 204)" stroke-width="1px"></line></g></g><g transform="translate(50, 0)" clip-path="url(#clip_0)"><clipPath id="clip_0"><rect width="1062" height="378"></rect></clipPath><g><g><g><line x1="54.67853489583831" y1="0" x2="54.67853489583831" y2="378" fill="rgb(0, 0, 0)" stroke="rgb(60, 60, 60)" stroke-width="1px" opacity="0.25"></line><line x1="143.1952015625049" y1="0" x2="143.1952015625049" y2="378" fill="rgb(0, 0, 0)" stroke="rgb(60, 60, 60)" stroke-width="1px" opacity="0.25"></line><line x1="231.71186822917153" y1="0" x2="231.71186822917153" y2="378" fill="rgb(0, 0, 0)" stroke="rgb(60, 60, 60)" stroke-width="1px" opacity="0.25"></line><line x1="320.22853489583815" y1="0" x2="320.22853489583815" y2="378" fill="rgb(0, 0, 0)" stroke="rgb(60, 60, 60)" stroke-width="1px" opacity="0.25"></line><line x1="408.7452015625047" y1="0" x2="408.7452015625047" y2="378" fill="rgb(0, 0, 0)" stroke="rgb(60, 60, 60)" stroke-width="1px" opacity="0.25"></line><line x1="497.26186822917134" y1="0" x2="497.26186822917134" y2="378" fill="rgb(0, 0, 0)" stroke="rgb(60, 60, 60)" stroke-width="1px" opacity="0.25"></line><line x1="585.778534895838" y1="0" x2="585.778534895838" y2="378" fill="rgb(0, 0, 0)" stroke="rgb(60, 60, 60)" stroke-width="1px" opacity="0.25"></line><line x1="674.2952015625045" y1="0" x2="674.2952015625045" y2="378" fill="rgb(0, 0, 0)" stroke="rgb(60, 60, 60)" stroke-width="1px" opacity="0.25"></line><line x1="762.8118682291712" y1="0" x2="762.8118682291712" y2="378" fill="rgb(0, 0, 0)" stroke="rgb(60, 60, 60)" stroke-width="1px" opacity="0.25"></line><line x1="851.3285348958377" y1="0" x2="851.3285348958377" y2="378" fill="rgb(0, 0, 0)" stroke="rgb(60, 60, 60)" stroke-width="1px" opacity="0.25"></line><line x1="939.8452015625045" y1="0" x2="939.8452015625045" y2="378" fill="rgb(0, 0, 0)" stroke="rgb(60, 60, 60)" stroke-width="1px" opacity="0.25"></line><line x1="1028.361868229171" y1="0" x2="1028.361868229171" y2="378" fill="rgb(0, 0, 0)" stroke="rgb(60, 60, 60)" stroke-width="1px" opacity="0.25"></line></g><g><line x1="0" y1="361.3901820741694" x2="1062.2" y2="361.3901820741694" fill="rgb(0, 0, 0)" stroke="rgb(60, 60, 60)" stroke-width="1px" opacity="0.25"></line><line x1="0" y1="332.31325899724635" x2="1062.2" y2="332.31325899724635" fill="rgb(0, 0, 0)" stroke="rgb(60, 60, 60)" stroke-width="1px" opacity="0.25"></line><line x1="0" y1="303.23633592032314" x2="1062.2" y2="303.23633592032314" fill="rgb(0, 0, 0)" stroke="rgb(60, 60, 60)" stroke-width="1px" opacity="0.25"></line><line x1="0" y1="274.1594128434" x2="1062.2" y2="274.1594128434" fill="rgb(0, 0, 0)" stroke="rgb(60, 60, 60)" stroke-width="1px" opacity="0.25"></line><line x1="0" y1="245.08248976647675" x2="1062.2" y2="245.08248976647675" fill="rgb(0, 0, 0)" stroke="rgb(60, 60, 60)" stroke-width="1px" opacity="0.25"></line><line x1="0" y1="216.0055666895536" x2="1062.2" y2="216.0055666895536" fill="rgb(0, 0, 0)" stroke="rgb(60, 60, 60)" stroke-width="1px" opacity="0.25"></line><line x1="0" y1="186.9286436126304" x2="1062.2" y2="186.9286436126304" fill="rgb(0, 0, 0)" stroke="rgb(60, 60, 60)" stroke-width="1px" opacity="0.25"></line><line x1="0" y1="157.85172053570736" x2="1062.2" y2="157.85172053570736" fill="rgb(0, 0, 0)" stroke="rgb(60, 60, 60)" stroke-width="1px" opacity="0.25"></line><line x1="0" y1="128.77479745878418" x2="1062.2" y2="128.77479745878418" fill="rgb(0, 0, 0)" stroke="rgb(60, 60, 60)" stroke-width="1px" opacity="0.25"></line><line x1="0" y1="99.697874381861" x2="1062.2" y2="99.697874381861" fill="rgb(0, 0, 0)" stroke="rgb(60, 60, 60)" stroke-width="1px" opacity="0.25"></line><line x1="0" y1="70.62095130493782" x2="1062.2" y2="70.62095130493782" fill="rgb(0, 0, 0)" stroke="rgb(60, 60, 60)" stroke-width="1px" opacity="0.25"></line><line x1="0" y1="41.5440282280146" x2="1062.2" y2="41.5440282280146" fill="rgb(0, 0, 0)" stroke="rgb(60, 60, 60)" stroke-width="1px" opacity="0.25"></line><line x1="0" y1="12.467105151091411" x2="1062.2" y2="12.467105151091411" fill="rgb(0, 0, 0)" stroke="rgb(60, 60, 60)" stroke-width="1px" opacity="0.25"></line></g></g></g><g><g><line x1="0" y1="1524.467105151096" x2="1062.2" y2="1524.467105151096" fill="rgb(0, 0, 0)" stroke="rgb(153, 153, 153)" stroke-width="1.5px"></line></g></g><g><g><line x1="231.71186822917153" y1="0" x2="231.71186822917153" y2="378" fill="rgb(0, 0, 0)" stroke="rgb(153, 153, 153)" stroke-width="1.5px"></line></g></g><g><g><g><g><g><path stroke="rgb(238, 51, 119)" stroke-width="2px" d="M231.71186822917153,-357.5072682628758L240.5635348958382,66.99855788024345L249.41520156250485,116.20217196844875L258.2668682291715,181.8833346742372L267.1185348958382,267.8942510906991L275.9702015625048,230.00071600854218L284.8218682291715,191.64677768574117L293.67353489583815,273.66371982001175L302.5252015625048,274.566241888769L311.37686822917146,239.05297336298509L320.22853489583815,264.7948265267777L329.08020156250484,283.2152889517162L337.93186822917147,267.57631028702457L346.7835348958381,276.9381894707205L355.6352015625048,283.72820571839645L364.4868682291714,281.178006778266L373.3385348958381,280.7684705999706L382.19020156250474,285.51331897969266L391.0418682291714,285.35135894642264L399.89353489583806,286.34296336627756L408.7452015625047,284.0980534562223L417.59686822917143,286.87979718441983L426.44853489583807,286.9603005931453L435.30020156250475,288.7073718776595L444.1518682291714,287.37659593815823L453.0035348958381,287.5325767085628L461.8552015625047,287.45900577852194L470.70686822917133,288.3357043641789L479.558534895838,288.09497404185464L488.41020156250465,288.02330954345206L497.26186822917134,288.2062403247432L506.11353489583803,288.7728838012294L514.9652015625047,288.82687047898605L523.8168682291713,288.7724505213116L532.668534895838,288.90936697533334L541.5202015625047,288.79905390826394L550.3718682291712,288.75988540369565L559.2235348958379,288.74238089501694L568.0752015625047,288.7099715571662L576.9268682291713,288.7804228717989L585.778534895838,288.77894972007846L594.6302015625046,288.7680310661501L603.4818682291713,288.79194811761215L612.3335348958379,288.7901283419574L621.1852015625046,288.79116821376016L630.0368682291712,288.7901283419574L638.8885348958379,288.7875286624507L647.7402015625046,288.7914281817108L656.5918682291713,288.7905616218752L665.443534895838,288.7912548697437" style="fill: none;" fill="none"></path></g><g><path stroke="rgb(187, 187, 187)" stroke-width="2px" d="M231.71186822917153,-106.69278913191015L240.5635348958382,154.96954598880527L249.41520156250485,11.469056992299114L258.2668682291715,294.4748475193503L267.1185348958382,286.8078727180666L275.9702015625048,279.0340510890559L284.8218682291715,251.5738097713068L293.67353489583815,310.6003995317205L302.5252015625048,303.2587312927139L311.37686822917146,297.0552027417589L320.22853489583815,299.6790592679136L329.08020156250484,310.77371149883663L337.93186822917147,299.59257659632266L346.7835348958381,311.96237162530264L355.6352015625048,317.1457859378121L364.4868682291714,321.57581312926766L373.3385348958381,315.69135190977346L382.19020156250474,317.44960181616665L391.0418682291714,320.54729326041695L399.89353489583806,325.4424031156286L408.7452015625047,316.23087206340597L417.59686822917143,315.06292271701034L426.44853489583807,317.64977713818575L435.30020156250475,318.2471834888351L444.1518682291714,316.54110048454385L453.0035348958381,317.2906747423212L461.8552015625047,318.27101388431356L470.70686822917133,318.08652329531844L479.558534895838,317.7783746177859L488.41020156250465,317.9756902923477L497.26186822917134,317.3374689734425L506.11353489583803,317.47663848303677L514.9652015625047,317.2831356717516L523.8168682291713,317.2519395176707L532.668534895838,317.2951808534662L541.5202015625047,317.3790638455504L550.3718682291712,317.412079775286L559.2235348958379,317.3405885888506L568.0752015625047,317.357573161628L576.9268682291713,317.3811435891558L585.778534895838,317.3641590163784L594.6302015625046,317.3686651275234L603.4818682291713,317.3895492195609L612.3335348958379,317.3885960037417L621.1852015625046,317.3860829802186L630.0368682291712,317.3835699566954L638.8885348958379,317.39050243538003L647.7402015625046,317.39136899521566L656.5918682291713,317.39006915546224L665.443534895838,317.3919755871005" style="fill: none;" fill="none"></path></g><g><path stroke="rgb(255, 112, 67)" stroke-width="2px" d="M231.71186822917153,-96.35195730195876L240.5635348958382,213.343962816961L249.41520156250485,65.66457566935055L258.2668682291715,221.6340807960107L267.1185348958382,305.86733636576236L275.9702015625048,316.56553747190725L284.8218682291715,341.14767360774226L293.67353489583815,350.04672318325447L302.5252015625048,332.7416099226918L311.37686822917146,340.4626580577157L320.22853489583815,340.4860551732764L329.08020156250484,345.37024637455977L337.93186822917147,325.09967870065645L346.7835348958381,328.47007652516396L355.6352015625048,343.86243226064937L364.4868682291714,334.0231652635321L373.3385348958381,329.0765817540869L382.19020156250474,333.9217777627692L391.0418682291714,337.9740715218951L399.89353489583806,331.9887427375393L408.7452015625047,337.41184750057033L417.59686822917143,339.60285738885256L426.44853489583807,337.00655746546926L435.30020156250475,337.3656598613339L444.1518682291714,337.4845518707756L453.0035348958381,337.19876043700106L461.8552015625047,338.0964297706791L470.70686822917133,337.71167720368123L479.558534895838,337.98091734459615L488.41020156250465,338.4104710550935L497.26186822917134,338.0719927833157L506.11353489583803,338.13005229229964L514.9652015625047,338.37728181339077L523.8168682291713,338.5407149983813L532.668534895838,338.6505081295494L541.5202015625047,338.713333717629L550.3718682291712,338.69444271321333L559.2235348958379,338.7382906408937L568.0752015625047,338.7135070295961L576.9268682291713,338.75397537391774L585.778534895838,338.7982565815159L594.6302015625046,338.8077020837237L603.4818682291713,338.79461703020644L612.3335348958379,338.80180947684175L621.1852015625046,338.8027626926609L630.0368682291712,338.81194822691805L638.8885348958379,338.8168876179809L647.7402015625046,338.81818745773427L656.5918682291713,338.8193139855205L665.443534895838,338.82104710519167" style="fill: none;" fill="none"></path></g><g><path stroke="rgb(204, 51, 17)" stroke-width="2px" d="M231.71186822917153,-50.04733248770499L240.5635348958382,107.88293757892356L249.41520156250485,227.63492100142332L258.2668682291715,229.12575054255635L267.1185348958382,279.9223615765097L275.9702015625048,315.79447253020754L284.8218682291715,314.11490625688504L293.67353489583815,301.01382138265853L302.5252015625048,296.5727022253075L311.37686822917146,321.8124706203647L320.22853489583815,322.25588928823134L329.08020156250484,315.06040969348714L337.93186822917147,298.04932018513705L346.7835348958381,304.7330961969708L355.6352015625048,309.16312338842636L364.4868682291714,316.7521078045077L373.3385348958381,313.2504261649098L382.19020156250474,319.4855841498635L391.0418682291714,320.2871519977756L399.89353489583806,311.2183433504731L408.7452015625047,312.6245966516534L417.59686822917143,310.6103649698297L426.44853489583807,313.1431460572649L435.30020156250475,313.880588477344L444.1518682291714,313.49470938256L453.0035348958381,311.88680760764004L461.8552015625047,311.2490195686526L470.70686822917133,311.6863723176702L479.558534895838,311.567393652245L488.41020156250465,311.3910487257043L497.26186822917134,311.7282271577288L506.11353489583803,311.7003239310231L514.9652015625047,311.67432713595565L523.8168682291713,311.8306545302944L532.668534895838,311.8901005350152L541.5202015625047,311.8670500433888L550.3718682291712,311.9843822451264L559.2235348958379,312.04209513017605L568.0752015625047,311.9910547558604L576.9268682291713,311.97207709546115L585.778534895838,311.9746767749679L594.6302015625046,311.9622849693191L603.4818682291713,311.94833335596627L612.3335348958379,311.94642692432797L621.1852015625046,311.9528394671113L630.0368682291712,311.9569122983385L638.8885348958379,311.96193834538485L647.7402015625046,311.9628049052205L656.5918682291713,311.9633248411218L665.443534895838,311.9627182492369" style="fill: none;" fill="none"></path></g></g></g></g></g></g><g transform="translate(50, 378)" clip-path="url(#clip_1)"><clipPath id="clip_1"><rect width="1062" height="22"></rect></clipPath><g><g><line x1="54.67853489583831" y1="0" x2="54.67853489583831" y2="5" style="visibility: inherit;" fill="rgb(0, 0, 0)" stroke="rgb(204, 204, 204)" stroke-width="1px"></line><line x1="143.1952015625049" y1="0" x2="143.1952015625049" y2="5" style="visibility: inherit;" fill="rgb(0, 0, 0)" stroke="rgb(204, 204, 204)" stroke-width="1px"></line><line x1="231.71186822917153" y1="0" x2="231.71186822917153" y2="5" style="visibility: inherit;" fill="rgb(0, 0, 0)" stroke="rgb(204, 204, 204)" stroke-width="1px"></line><line x1="320.22853489583815" y1="0" x2="320.22853489583815" y2="5" style="visibility: inherit;" fill="rgb(0, 0, 0)" stroke="rgb(204, 204, 204)" stroke-width="1px"></line><line x1="408.7452015625047" y1="0" x2="408.7452015625047" y2="5" style="visibility: inherit;" fill="rgb(0, 0, 0)" stroke="rgb(204, 204, 204)" stroke-width="1px"></line><line x1="497.26186822917134" y1="0" x2="497.26186822917134" y2="5" style="visibility: inherit;" fill="rgb(0, 0, 0)" stroke="rgb(204, 204, 204)" stroke-width="1px"></line><line x1="585.778534895838" y1="0" x2="585.778534895838" y2="5" style="visibility: inherit;" fill="rgb(0, 0, 0)" stroke="rgb(204, 204, 204)" stroke-width="1px"></line><line x1="674.2952015625045" y1="0" x2="674.2952015625045" y2="5" style="visibility: inherit;" fill="rgb(0, 0, 0)" stroke="rgb(204, 204, 204)" stroke-width="1px"></line><line x1="762.8118682291712" y1="0" x2="762.8118682291712" y2="5" style="visibility: inherit;" fill="rgb(0, 0, 0)" stroke="rgb(204, 204, 204)" stroke-width="1px"></line><line x1="851.3285348958377" y1="0" x2="851.3285348958377" y2="5" style="visibility: inherit;" fill="rgb(0, 0, 0)" stroke="rgb(204, 204, 204)" stroke-width="1px"></line><line x1="939.8452015625045" y1="0" x2="939.8452015625045" y2="5" style="visibility: inherit;" fill="rgb(0, 0, 0)" stroke="rgb(204, 204, 204)" stroke-width="1px"></line><line x1="1028.361868229171" y1="0" x2="1028.361868229171" y2="5" style="visibility: inherit;" fill="rgb(0, 0, 0)" stroke="rgb(204, 204, 204)" stroke-width="1px"></line></g><g transform="translate(0, 8)"><text x="54.67853489583831" y="0" dx="0em" dy="0.95em" style="text-anchor: middle; visibility: inherit; font-family: Roboto, sans-serif; font-size: 12px; font-weight: 200;" fill="rgb(50, 49, 63)" stroke="none" stroke-width="1px">-20</text><text x="143.1952015625049" y="0" dx="0em" dy="0.95em" style="text-anchor: middle; visibility: inherit; font-family: Roboto, sans-serif; font-size: 12px; font-weight: 200;" fill="rgb(50, 49, 63)" stroke="none" stroke-width="1px">-10</text><text x="231.71186822917153" y="0" dx="0em" dy="0.95em" style="text-anchor: middle; visibility: inherit; font-family: Roboto, sans-serif; font-size: 12px; font-weight: 200;" fill="rgb(50, 49, 63)" stroke="none" stroke-width="1px">0</text><text x="320.22853489583815" y="0" dx="0em" dy="0.95em" style="text-anchor: middle; visibility: inherit; font-family: Roboto, sans-serif; font-size: 12px; font-weight: 200;" fill="rgb(50, 49, 63)" stroke="none" stroke-width="1px">10</text><text x="408.7452015625047" y="0" dx="0em" dy="0.95em" style="text-anchor: middle; visibility: inherit; font-family: Roboto, sans-serif; font-size: 12px; font-weight: 200;" fill="rgb(50, 49, 63)" stroke="none" stroke-width="1px">20</text><text x="497.26186822917134" y="0" dx="0em" dy="0.95em" style="text-anchor: middle; visibility: inherit; font-family: Roboto, sans-serif; font-size: 12px; font-weight: 200;" fill="rgb(50, 49, 63)" stroke="none" stroke-width="1px">30</text><text x="585.778534895838" y="0" dx="0em" dy="0.95em" style="text-anchor: middle; visibility: inherit; font-family: Roboto, sans-serif; font-size: 12px; font-weight: 200;" fill="rgb(50, 49, 63)" stroke="none" stroke-width="1px">40</text><text x="674.2952015625045" y="0" dx="0em" dy="0.95em" style="text-anchor: middle; visibility: inherit; font-family: Roboto, sans-serif; font-size: 12px; font-weight: 200;" fill="rgb(50, 49, 63)" stroke="none" stroke-width="1px">50</text><text x="762.8118682291712" y="0" dx="0em" dy="0.95em" style="text-anchor: middle; visibility: inherit; font-family: Roboto, sans-serif; font-size: 12px; font-weight: 200;" fill="rgb(50, 49, 63)" stroke="none" stroke-width="1px">60</text><text x="851.3285348958377" y="0" dx="0em" dy="0.95em" style="text-anchor: middle; visibility: inherit; font-family: Roboto, sans-serif; font-size: 12px; font-weight: 200;" fill="rgb(50, 49, 63)" stroke="none" stroke-width="1px">70</text><text x="939.8452015625045" y="0" dx="0em" dy="0.95em" style="text-anchor: middle; visibility: inherit; font-family: Roboto, sans-serif; font-size: 12px; font-weight: 200;" fill="rgb(50, 49, 63)" stroke="none" stroke-width="1px">80</text><text x="1028.361868229171" y="0" dx="0em" dy="0.95em" style="text-anchor: middle; visibility: inherit; font-family: Roboto, sans-serif; font-size: 12px; font-weight: 200;" fill="rgb(50, 49, 63)" stroke="none" stroke-width="1px">90</text></g><line x1="0" y1="0" x2="1062.2" y2="0" fill="rgb(0, 0, 0)" stroke="rgb(204, 204, 204)" stroke-width="1px"></line></g></g></g></g></svg>