<svg viewBox="0 0 1112.2000732421875 400" xmlns="http://www.w3.org/2000/svg"><g><g><g><g><g><line x1="60" y1="373.359220687621" x2="55" y2="373.359220687621" style="visibility: inherit;" fill="rgb(0, 0, 0)" stroke="rgb(204, 204, 204)" stroke-width="1px"></line><line x1="60" y1="348.9085403056284" x2="55" y2="348.9085403056284" style="visibility: inherit;" fill="rgb(0, 0, 0)" stroke="rgb(204, 204, 204)" stroke-width="1px"></line><line x1="60" y1="324.45785992363574" x2="55" y2="324.45785992363574" style="visibility: inherit;" fill="rgb(0, 0, 0)" stroke="rgb(204, 204, 204)" stroke-width="1px"></line><line x1="60" y1="300.00717954164304" x2="55" y2="300.00717954164304" style="visibility: inherit;" fill="rgb(0, 0, 0)" stroke="rgb(204, 204, 204)" stroke-width="1px"></line><line x1="60" y1="275.55649915965046" x2="55" y2="275.55649915965046" style="visibility: inherit;" fill="rgb(0, 0, 0)" stroke="rgb(204, 204, 204)" stroke-width="1px"></line><line x1="60" y1="251.10581877765776" x2="55" y2="251.10581877765776" style="visibility: inherit;" fill="rgb(0, 0, 0)" stroke="rgb(204, 204, 204)" stroke-width="1px"></line><line x1="60" y1="226.65513839566512" x2="55" y2="226.65513839566512" style="visibility: inherit;" fill="rgb(0, 0, 0)" stroke="rgb(204, 204, 204)" stroke-width="1px"></line><line x1="60" y1="202.20445801367248" x2="55" y2="202.20445801367248" style="visibility: inherit;" fill="rgb(0, 0, 0)" stroke="rgb(204, 204, 204)" stroke-width="1px"></line><line x1="60" y1="177.75377763167984" x2="55" y2="177.75377763167984" style="visibility: inherit;" fill="rgb(0, 0, 0)" stroke="rgb(204, 204, 204)" stroke-width="1px"></line><line x1="60" y1="153.30309724968717" x2="55" y2="153.30309724968717" style="visibility: inherit;" fill="rgb(0, 0, 0)" stroke="rgb(204, 204, 204)" stroke-width="1px"></line><line x1="60" y1="128.8524168676945" x2="55" y2="128.8524168676945" style="visibility: inherit;" fill="rgb(0, 0, 0)" stroke="rgb(204, 204, 204)" stroke-width="1px"></line><line x1="60" y1="104.40173648570187" x2="55" y2="104.40173648570187" style="visibility: inherit;" fill="rgb(0, 0, 0)" stroke="rgb(204, 204, 204)" stroke-width="1px"></line><line x1="60" y1="79.95105610370923" x2="55" y2="79.95105610370923" style="visibility: inherit;" fill="rgb(0, 0, 0)" stroke="rgb(204, 204, 204)" stroke-width="1px"></line><line x1="60" y1="55.500375721716594" x2="55" y2="55.500375721716594" style="visibility: inherit;" fill="rgb(0, 0, 0)" stroke="rgb(204, 204, 204)" stroke-width="1px"></line><line x1="60" y1="31.049695339723907" x2="55" y2="31.049695339723907" style="visibility: inherit;" fill="rgb(0, 0, 0)" stroke="rgb(204, 204, 204)" stroke-width="1px"></line><line x1="60" y1="6.599014957731267" x2="55" y2="6.599014957731267" style="visibility: inherit;" fill="rgb(0, 0, 0)" stroke="rgb(204, 204, 204)" stroke-width="1px"></line></g><g transform="translate(50, 0)"><text x="0" y="373.359220687621" dx="0em" dy="0.3em" style="text-anchor: end; visibility: hidden; font-family: Roboto, sans-serif; font-size: 12px; font-weight: 200;" fill="rgb(50, 49, 63)" stroke="none" stroke-width="1px">0.844</text><text x="0" y="348.9085403056284" dx="0em" dy="0.3em" style="text-anchor: end; visibility: inherit; font-family: Roboto, sans-serif; font-size: 12px; font-weight: 200;" fill="rgb(50, 49, 63)" stroke="none" stroke-width="1px">0.846</text><text x="0" y="324.45785992363574" dx="0em" dy="0.3em" style="text-anchor: end; visibility: inherit; font-family: Roboto, sans-serif; font-size: 12px; font-weight: 200;" fill="rgb(50, 49, 63)" stroke="none" stroke-width="1px">0.848</text><text x="0" y="300.00717954164304" dx="0em" dy="0.3em" style="text-anchor: end; visibility: inherit; font-family: Roboto, sans-serif; font-size: 12px; font-weight: 200;" fill="rgb(50, 49, 63)" stroke="none" stroke-width="1px">0.85</text><text x="0" y="275.55649915965046" dx="0em" dy="0.3em" style="text-anchor: end; visibility: inherit; font-family: Roboto, sans-serif; font-size: 12px; font-weight: 200;" fill="rgb(50, 49, 63)" stroke="none" stroke-width="1px">0.852</text><text x="0" y="251.10581877765776" dx="0em" dy="0.3em" style="text-anchor: end; visibility: inherit; font-family: Roboto, sans-serif; font-size: 12px; font-weight: 200;" fill="rgb(50, 49, 63)" stroke="none" stroke-width="1px">0.854</text><text x="0" y="226.65513839566512" dx="0em" dy="0.3em" style="text-anchor: end; visibility: inherit; font-family: Roboto, sans-serif; font-size: 12px; font-weight: 200;" fill="rgb(50, 49, 63)" stroke="none" stroke-width="1px">0.856</text><text x="0" y="202.20445801367248" dx="0em" dy="0.3em" style="text-anchor: end; visibility: inherit; font-family: Roboto, sans-serif; font-size: 12px; font-weight: 200;" fill="rgb(50, 49, 63)" stroke="none" stroke-width="1px">0.858</text><text x="0" y="177.75377763167984" dx="0em" dy="0.3em" style="text-anchor: end; visibility: inherit; font-family: Roboto, sans-serif; font-size: 12px; font-weight: 200;" fill="rgb(50, 49, 63)" stroke="none" stroke-width="1px">0.86</text><text x="0" y="153.30309724968717" dx="0em" dy="0.3em" style="text-anchor: end; visibility: inherit; font-family: Roboto, sans-serif; font-size: 12px; font-weight: 200;" fill="rgb(50, 49, 63)" stroke="none" stroke-width="1px">0.862</text><text x="0" y="128.8524168676945" dx="0em" dy="0.3em" style="text-anchor: end; visibility: inherit; font-family: Roboto, sans-serif; font-size: 12px; font-weight: 200;" fill="rgb(50, 49, 63)" stroke="none" stroke-width="1px">0.864</text><text x="0" y="104.40173648570187" dx="0em" dy="0.3em" style="text-anchor: end; visibility: inherit; font-family: Roboto, sans-serif; font-size: 12px; font-weight: 200;" fill="rgb(50, 49, 63)" stroke="none" stroke-width="1px">0.866</text><text x="0" y="79.95105610370923" dx="0em" dy="0.3em" style="text-anchor: end; visibility: inherit; font-family: Roboto, sans-serif; font-size: 12px; font-weight: 200;" fill="rgb(50, 49, 63)" stroke="none" stroke-width="1px">0.868</text><text x="0" y="55.500375721716594" dx="0em" dy="0.3em" style="text-anchor: end; visibility: inherit; font-family: Roboto, sans-serif; font-size: 12px; font-weight: 200;" fill="rgb(50, 49, 63)" stroke="none" stroke-width="1px">0.87</text><text x="0" y="31.049695339723907" dx="0em" dy="0.3em" style="text-anchor: end; visibility: inherit; font-family: Roboto, sans-serif; font-size: 12px; font-weight: 200;" fill="rgb(50, 49, 63)" stroke="none" stroke-width="1px">0.872</text><text x="0" y="6.599014957731267" dx="0em" dy="0.3em" style="text-anchor: end; visibility: inherit; font-family: Roboto, sans-serif; font-size: 12px; font-weight: 200;" fill="rgb(50, 49, 63)" stroke="none" stroke-width="1px">0.874</text></g><line x1="60" y1="0" x2="60" y2="378" fill="rgb(0, 0, 0)" stroke="rgb(204, 204, 204)" stroke-width="1px"></line></g></g><g transform="translate(60, 0)" clip-path="url(#clip_0)"><clipPath id="clip_0"><rect width="1052" height="378"></rect></clipPath><g><g><g><line x1="72.73873569469873" y1="0" x2="72.73873569469873" y2="378" fill="rgb(0, 0, 0)" stroke="rgb(60, 60, 60)" stroke-width="1px" opacity="0.25"></line><line x1="220.2039370496919" y1="0" x2="220.2039370496919" y2="378" fill="rgb(0, 0, 0)" stroke="rgb(60, 60, 60)" stroke-width="1px" opacity="0.25"></line><line x1="367.66913840468504" y1="0" x2="367.66913840468504" y2="378" fill="rgb(0, 0, 0)" stroke="rgb(60, 60, 60)" stroke-width="1px" opacity="0.25"></line><line x1="515.1343397596783" y1="0" x2="515.1343397596783" y2="378" fill="rgb(0, 0, 0)" stroke="rgb(60, 60, 60)" stroke-width="1px" opacity="0.25"></line><line x1="662.5995411146714" y1="0" x2="662.5995411146714" y2="378" fill="rgb(0, 0, 0)" stroke="rgb(60, 60, 60)" stroke-width="1px" opacity="0.25"></line><line x1="810.0647424696646" y1="0" x2="810.0647424696646" y2="378" fill="rgb(0, 0, 0)" stroke="rgb(60, 60, 60)" stroke-width="1px" opacity="0.25"></line><line x1="957.5299438246578" y1="0" x2="957.5299438246578" y2="378" fill="rgb(0, 0, 0)" stroke="rgb(60, 60, 60)" stroke-width="1px" opacity="0.25"></line></g><g><line x1="0" y1="373.359220687621" x2="1052.2" y2="373.359220687621" fill="rgb(0, 0, 0)" stroke="rgb(60, 60, 60)" stroke-width="1px" opacity="0.25"></line><line x1="0" y1="348.9085403056284" x2="1052.2" y2="348.9085403056284" fill="rgb(0, 0, 0)" stroke="rgb(60, 60, 60)" stroke-width="1px" opacity="0.25"></line><line x1="0" y1="324.45785992363574" x2="1052.2" y2="324.45785992363574" fill="rgb(0, 0, 0)" stroke="rgb(60, 60, 60)" stroke-width="1px" opacity="0.25"></line><line x1="0" y1="300.00717954164304" x2="1052.2" y2="300.00717954164304" fill="rgb(0, 0, 0)" stroke="rgb(60, 60, 60)" stroke-width="1px" opacity="0.25"></line><line x1="0" y1="275.55649915965046" x2="1052.2" y2="275.55649915965046" fill="rgb(0, 0, 0)" stroke="rgb(60, 60, 60)" stroke-width="1px" opacity="0.25"></line><line x1="0" y1="251.10581877765776" x2="1052.2" y2="251.10581877765776" fill="rgb(0, 0, 0)" stroke="rgb(60, 60, 60)" stroke-width="1px" opacity="0.25"></line><line x1="0" y1="226.65513839566512" x2="1052.2" y2="226.65513839566512" fill="rgb(0, 0, 0)" stroke="rgb(60, 60, 60)" stroke-width="1px" opacity="0.25"></line><line x1="0" y1="202.20445801367248" x2="1052.2" y2="202.20445801367248" fill="rgb(0, 0, 0)" stroke="rgb(60, 60, 60)" stroke-width="1px" opacity="0.25"></line><line x1="0" y1="177.75377763167984" x2="1052.2" y2="177.75377763167984" fill="rgb(0, 0, 0)" stroke="rgb(60, 60, 60)" stroke-width="1px" opacity="0.25"></line><line x1="0" y1="153.30309724968717" x2="1052.2" y2="153.30309724968717" fill="rgb(0, 0, 0)" stroke="rgb(60, 60, 60)" stroke-width="1px" opacity="0.25"></line><line x1="0" y1="128.8524168676945" x2="1052.2" y2="128.8524168676945" fill="rgb(0, 0, 0)" stroke="rgb(60, 60, 60)" stroke-width="1px" opacity="0.25"></line><line x1="0" y1="104.40173648570187" x2="1052.2" y2="104.40173648570187" fill="rgb(0, 0, 0)" stroke="rgb(60, 60, 60)" stroke-width="1px" opacity="0.25"></line><line x1="0" y1="79.95105610370923" x2="1052.2" y2="79.95105610370923" fill="rgb(0, 0, 0)" stroke="rgb(60, 60, 60)" stroke-width="1px" opacity="0.25"></line><line x1="0" y1="55.500375721716594" x2="1052.2" y2="55.500375721716594" fill="rgb(0, 0, 0)" stroke="rgb(60, 60, 60)" stroke-width="1px" opacity="0.25"></line><line x1="0" y1="31.049695339723907" x2="1052.2" y2="31.049695339723907" fill="rgb(0, 0, 0)" stroke="rgb(60, 60, 60)" stroke-width="1px" opacity="0.25"></line><line x1="0" y1="6.599014957731267" x2="1052.2" y2="6.599014957731267" fill="rgb(0, 0, 0)" stroke="rgb(60, 60, 60)" stroke-width="1px" opacity="0.25"></line></g></g></g><g><g><line x1="0" y1="10691.54634188851" x2="1052.2" y2="10691.54634188851" fill="rgb(0, 0, 0)" stroke="rgb(153, 153, 153)" stroke-width="1.5px"></line></g></g><g><g><line x1="72.73873569469873" y1="0" x2="72.73873569469873" y2="378" fill="rgb(0, 0, 0)" stroke="rgb(153, 153, 153)" stroke-width="1.5px"></line></g></g><g><g><g><g><g><path stroke="rgb(238, 51, 119)" stroke-width="2px" d="M116.97829610119668,388.1496034519643L131.72481623669597,340.4191436909026L146.47133637219528,311.7810135716774L161.2178565076946,311.7810135716774L175.96437664319393,194.04558801956819L190.71089677869324,267.23200151170573L205.45741691419255,276.77853067615365L220.2039370496919,206.7735648851061L234.9504571851912,165.40745790034305L249.6969773206905,213.13791766140474L264.44349745618985,174.95325837773166L279.1900175916891,184.49978754217958L293.93653772718847,197.2277644077175L308.68305786268775,194.04558801956819L323.4295779981871,162.22528151219373L338.1760981336864,162.22528151219373L352.92261826918576,152.67948103480512L367.66913840468504,174.95325837773166L382.4156585401843,174.95325837773166L397.16217867568366,174.95325837773166L411.90869881118294,162.22528151219373L426.65521894668234,162.22528151219373L441.4017390821816,168.58963428849233L456.14825921768096,171.7718106766417L470.89477935318024,168.58963428849233L485.64129948867964,168.58963428849233L500.3878196241789,168.58963428849233L515.1343397596783,162.22528151219373L529.8808598951775,159.04383381110375L544.6273800306768,159.04383381110375L559.3739001661762,159.04383381110375L574.1204203016756,155.86165742295447L588.8669404371749,155.86165742295447L603.6134605726742,155.86165742295447L618.3599807081735,159.04383381110375L633.1065008436728,159.04383381110375L647.8530209791721,159.04383381110375L662.5995411146714,159.04383381110375L677.3460612501707,159.04383381110375L692.09258138567,155.86165742295447L706.8391015211694,155.86165742295447L721.5856216566686,155.86165742295447L736.3321417921679,155.86165742295447L751.0786619276673,155.86165742295447L765.8251820631667,155.86165742295447L780.571702198666,155.86165742295447L795.3182223341653,155.86165742295447" style="fill: none;" fill="none"></path></g><g><path stroke="rgb(187, 187, 187)" stroke-width="2px" d="M102.23177596569735,515.4301007944028L116.97829610119668,251.32184825801846L131.72481623669597,203.59211718401613L146.47133637219528,197.2277644077175L161.2178565076946,216.3200940495541L175.96437664319393,111.31337405004207L190.71089677869324,130.40497500481925L205.45741691419255,98.5846684974448L220.2039370496919,108.13119766189276L234.9504571851912,98.5846684974448L249.6969773206905,104.94902127374341L264.44349745618985,92.22104440820553L279.1900175916891,60.40073790083106L293.93653772718847,60.40073790083106L308.68305786268775,60.40073790083106L323.4295779981871,22.216078617157933L338.1760981336864,66.76509067712968L352.92261826918576,41.308408258994476L367.66913840468504,63.58291428898036L382.4156585401843,66.76509067712968L397.16217867568366,60.40073790083106L411.90869881118294,50.854937423442436L426.65521894668234,60.40073790083106L441.4017390821816,44.49058464714383L456.14825921768096,44.49058464714383L470.89477935318024,44.49058464714383L485.64129948867964,50.854937423442436L500.3878196241789,44.49058464714383L515.1343397596783,47.67276103529313L529.8808598951775,44.49058464714383L544.6273800306768,47.67276103529313L559.3739001661762,47.67276103529313L574.1204203016756,47.67276103529313L588.8669404371749,47.67276103529313L603.6134605726742,47.67276103529313L618.3599807081735,47.67276103529313L633.1065008436728,47.67276103529313L647.8530209791721,47.67276103529313L662.5995411146714,47.67276103529313L677.3460612501707,47.67276103529313L692.09258138567,47.67276103529313L706.8391015211694,47.67276103529313L721.5856216566686,47.67276103529313L736.3321417921679,47.67276103529313L751.0786619276673,47.67276103529313L765.8251820631667,47.67276103529313L780.571702198666,47.67276103529313L795.3182223341653,47.67276103529313" style="fill: none;" fill="none"></path></g><g><path stroke="rgb(255, 112, 67)" stroke-width="2px" d="M102.23177596569735,515.4301007944028L116.97829610119668,295.8708603179902L131.72481623669597,251.32184825801846L146.47133637219528,184.49978754217958L161.2178565076946,108.13119766189276L175.96437664319393,73.12871476636894L190.71089677869324,114.49482175113202L205.45741691419255,82.67451524375755L220.2039370496919,89.03886802005617L234.9504571851912,79.4930675426676L249.6969773206905,79.4930675426676L264.44349745618985,95.40322079635483L279.1900175916891,47.67276103529313L293.93653772718847,63.58291428898036L308.68305786268775,57.21856151268171L323.4295779981871,38.12623187084517L338.1760981336864,34.9447841697552L352.92261826918576,47.67276103529313L367.66913840468504,44.49058464714383L382.4156585401843,38.12623187084517L397.16217867568366,34.9447841697552L411.90869881118294,41.308408258994476L426.65521894668234,31.762607781605897L441.4017390821816,38.12623187084517L456.14825921768096,41.308408258994476L470.89477935318024,44.49058464714383L485.64129948867964,41.308408258994476L500.3878196241789,38.12623187084517L515.1343397596783,41.308408258994476L529.8808598951775,41.308408258994476L544.6273800306768,38.12623187084517L559.3739001661762,38.12623187084517L574.1204203016756,38.12623187084517L588.8669404371749,38.12623187084517L603.6134605726742,38.12623187084517L618.3599807081735,38.12623187084517L633.1065008436728,38.12623187084517L647.8530209791721,38.12623187084517L662.5995411146714,38.12623187084517L677.3460612501707,38.12623187084517L692.09258138567,38.12623187084517L706.8391015211694,38.12623187084517L721.5856216566686,38.12623187084517L736.3321417921679,38.12623187084517L751.0786619276673,38.12623187084517L765.8251820631667,38.12623187084517L780.571702198666,38.12623187084517L795.3182223341653,38.12623187084517" style="fill: none;" fill="none"></path></g><g><path stroke="rgb(204, 51, 17)" stroke-width="2px" d="M102.23177596569735,413.60555718304016L116.97829610119668,311.7810135716774L131.72481623669597,190.8634116314189L146.47133637219528,213.13791766140474L161.2178565076946,89.03886802005617L175.96437664319393,108.13119766189276L190.71089677869324,82.67451524375755L205.45741691419255,63.58291428898036L220.2039370496919,57.21856151268171L234.9504571851912,38.12623187084517L249.6969773206905,38.12623187084517L264.44349745618985,47.67276103529313L279.1900175916891,57.21856151268171L293.93653772718847,34.9447841697552L308.68305786268775,41.308408258994476L323.4295779981871,38.12623187084517L338.1760981336864,25.39825500530724L352.92261826918576,31.762607781605897L367.66913840468504,28.58043139345659L382.4156585401843,34.9447841697552L397.16217867568366,28.58043139345659L411.90869881118294,19.03463091606797L426.65521894668234,25.39825500530724L441.4017390821816,25.39825500530724L456.14825921768096,22.216078617157933L470.89477935318024,19.03463091606797L485.64129948867964,15.852454527918663L500.3878196241789,15.852454527918663L515.1343397596783,15.852454527918663L529.8808598951775,15.852454527918663L544.6273800306768,9.488101751620007L559.3739001661762,9.488101751620007L574.1204203016756,9.488101751620007L588.8669404371749,9.488101751620007L603.6134605726742,9.488101751620007L618.3599807081735,9.488101751620007L633.1065008436728,9.488101751620007L647.8530209791721,9.488101751620007L662.5995411146714,9.488101751620007L677.3460612501707,9.488101751620007L692.09258138567,9.488101751620007L706.8391015211694,9.488101751620007L721.5856216566686,9.488101751620007L736.3321417921679,9.488101751620007L751.0786619276673,9.488101751620007L765.8251820631667,9.488101751620007L780.571702198666,9.488101751620007L795.3182223341653,9.488101751620007" style="fill: none;" fill="none"></path></g></g></g></g></g></g><g transform="translate(60, 378)" clip-path="url(#clip_1)"><clipPath id="clip_1"><rect width="1052" height="22"></rect></clipPath><g><g><line x1="72.73873569469873" y1="0" x2="72.73873569469873" y2="5" style="visibility: inherit;" fill="rgb(0, 0, 0)" stroke="rgb(204, 204, 204)" stroke-width="1px"></line><line x1="220.2039370496919" y1="0" x2="220.2039370496919" y2="5" style="visibility: inherit;" fill="rgb(0, 0, 0)" stroke="rgb(204, 204, 204)" stroke-width="1px"></line><line x1="367.66913840468504" y1="0" x2="367.66913840468504" y2="5" style="visibility: inherit;" fill="rgb(0, 0, 0)" stroke="rgb(204, 204, 204)" stroke-width="1px"></line><line x1="515.1343397596783" y1="0" x2="515.1343397596783" y2="5" style="visibility: inherit;" fill="rgb(0, 0, 0)" stroke="rgb(204, 204, 204)" stroke-width="1px"></line><line x1="662.5995411146714" y1="0" x2="662.5995411146714" y2="5" style="visibility: inherit;" fill="rgb(0, 0, 0)" stroke="rgb(204, 204, 204)" stroke-width="1px"></line><line x1="810.0647424696646" y1="0" x2="810.0647424696646" y2="5" style="visibility: inherit;" fill="rgb(0, 0, 0)" stroke="rgb(204, 204, 204)" stroke-width="1px"></line><line x1="957.5299438246578" y1="0" x2="957.5299438246578" y2="5" style="visibility: inherit;" fill="rgb(0, 0, 0)" stroke="rgb(204, 204, 204)" stroke-width="1px"></line></g><g transform="translate(0, 8)"><text x="72.73873569469873" y="0" dx="0em" dy="0.95em" style="text-anchor: middle; visibility: inherit; font-family: Roboto, sans-serif; font-size: 12px; font-weight: 200;" fill="rgb(50, 49, 63)" stroke="none" stroke-width="1px">0</text><text x="220.2039370496919" y="0" dx="0em" dy="0.95em" style="text-anchor: middle; visibility: inherit; font-family: Roboto, sans-serif; font-size: 12px; font-weight: 200;" fill="rgb(50, 49, 63)" stroke="none" stroke-width="1px">10</text><text x="367.66913840468504" y="0" dx="0em" dy="0.95em" style="text-anchor: middle; visibility: inherit; font-family: Roboto, sans-serif; font-size: 12px; font-weight: 200;" fill="rgb(50, 49, 63)" stroke="none" stroke-width="1px">20</text><text x="515.1343397596783" y="0" dx="0em" dy="0.95em" style="text-anchor: middle; visibility: inherit; font-family: Roboto, sans-serif; font-size: 12px; font-weight: 200;" fill="rgb(50, 49, 63)" stroke="none" stroke-width="1px">30</text><text x="662.5995411146714" y="0" dx="0em" dy="0.95em" style="text-anchor: middle; visibility: inherit; font-family: Roboto, sans-serif; font-size: 12px; font-weight: 200;" fill="rgb(50, 49, 63)" stroke="none" stroke-width="1px">40</text><text x="810.0647424696646" y="0" dx="0em" dy="0.95em" style="text-anchor: middle; visibility: inherit; font-family: Roboto, sans-serif; font-size: 12px; font-weight: 200;" fill="rgb(50, 49, 63)" stroke="none" stroke-width="1px">50</text><text x="957.5299438246578" y="0" dx="0em" dy="0.95em" style="text-anchor: middle; visibility: inherit; font-family: Roboto, sans-serif; font-size: 12px; font-weight: 200;" fill="rgb(50, 49, 63)" stroke="none" stroke-width="1px">60</text></g><line x1="0" y1="0" x2="1052.2" y2="0" fill="rgb(0, 0, 0)" stroke="rgb(204, 204, 204)" stroke-width="1px"></line></g></g></g></g></svg>