<svg viewBox="0 0 1112.2000732421875 400" xmlns="http://www.w3.org/2000/svg"><g><g><g><g><g><line x1="40" y1="352.19070215665596" x2="35" y2="352.19070215665596" style="visibility: inherit;" fill="rgb(0, 0, 0)" stroke="rgb(204, 204, 204)" stroke-width="1px"></line><line x1="40" y1="316.8335668316757" x2="35" y2="316.8335668316757" style="visibility: inherit;" fill="rgb(0, 0, 0)" stroke="rgb(204, 204, 204)" stroke-width="1px"></line><line x1="40" y1="281.47643150669546" x2="35" y2="281.47643150669546" style="visibility: inherit;" fill="rgb(0, 0, 0)" stroke="rgb(204, 204, 204)" stroke-width="1px"></line><line x1="40" y1="246.11929618171524" x2="35" y2="246.11929618171524" style="visibility: inherit;" fill="rgb(0, 0, 0)" stroke="rgb(204, 204, 204)" stroke-width="1px"></line><line x1="40" y1="210.762160856735" x2="35" y2="210.762160856735" style="visibility: inherit;" fill="rgb(0, 0, 0)" stroke="rgb(204, 204, 204)" stroke-width="1px"></line><line x1="40" y1="175.40502553175477" x2="35" y2="175.40502553175477" style="visibility: inherit;" fill="rgb(0, 0, 0)" stroke="rgb(204, 204, 204)" stroke-width="1px"></line><line x1="40" y1="140.04789020677455" x2="35" y2="140.04789020677455" style="visibility: inherit;" fill="rgb(0, 0, 0)" stroke="rgb(204, 204, 204)" stroke-width="1px"></line><line x1="40" y1="104.69075488179429" x2="35" y2="104.69075488179429" style="visibility: inherit;" fill="rgb(0, 0, 0)" stroke="rgb(204, 204, 204)" stroke-width="1px"></line><line x1="40" y1="69.33361955681407" x2="35" y2="69.33361955681407" style="visibility: inherit;" fill="rgb(0, 0, 0)" stroke="rgb(204, 204, 204)" stroke-width="1px"></line><line x1="40" y1="33.97648423183385" x2="35" y2="33.97648423183385" style="visibility: inherit;" fill="rgb(0, 0, 0)" stroke="rgb(204, 204, 204)" stroke-width="1px"></line></g><g transform="translate(30, 0)"><text x="0" y="352.19070215665596" dx="0em" dy="0.3em" style="text-anchor: end; visibility: inherit; font-family: Roboto, sans-serif; font-size: 12px; font-weight: 200;" fill="rgb(50, 49, 63)" stroke="none" stroke-width="1px">-15</text><text x="0" y="316.8335668316757" dx="0em" dy="0.3em" style="text-anchor: end; visibility: inherit; font-family: Roboto, sans-serif; font-size: 12px; font-weight: 200;" fill="rgb(50, 49, 63)" stroke="none" stroke-width="1px">-10</text><text x="0" y="281.47643150669546" dx="0em" dy="0.3em" style="text-anchor: end; visibility: inherit; font-family: Roboto, sans-serif; font-size: 12px; font-weight: 200;" fill="rgb(50, 49, 63)" stroke="none" stroke-width="1px">-5</text><text x="0" y="246.11929618171524" dx="0em" dy="0.3em" style="text-anchor: end; visibility: inherit; font-family: Roboto, sans-serif; font-size: 12px; font-weight: 200;" fill="rgb(50, 49, 63)" stroke="none" stroke-width="1px">0</text><text x="0" y="210.762160856735" dx="0em" dy="0.3em" style="text-anchor: end; visibility: inherit; font-family: Roboto, sans-serif; font-size: 12px; font-weight: 200;" fill="rgb(50, 49, 63)" stroke="none" stroke-width="1px">5</text><text x="0" y="175.40502553175477" dx="0em" dy="0.3em" style="text-anchor: end; visibility: inherit; font-family: Roboto, sans-serif; font-size: 12px; font-weight: 200;" fill="rgb(50, 49, 63)" stroke="none" stroke-width="1px">10</text><text x="0" y="140.04789020677455" dx="0em" dy="0.3em" style="text-anchor: end; visibility: inherit; font-family: Roboto, sans-serif; font-size: 12px; font-weight: 200;" fill="rgb(50, 49, 63)" stroke="none" stroke-width="1px">15</text><text x="0" y="104.69075488179429" dx="0em" dy="0.3em" style="text-anchor: end; visibility: inherit; font-family: Roboto, sans-serif; font-size: 12px; font-weight: 200;" fill="rgb(50, 49, 63)" stroke="none" stroke-width="1px">20</text><text x="0" y="69.33361955681407" dx="0em" dy="0.3em" style="text-anchor: end; visibility: inherit; font-family: Roboto, sans-serif; font-size: 12px; font-weight: 200;" fill="rgb(50, 49, 63)" stroke="none" stroke-width="1px">25</text><text x="0" y="33.97648423183385" dx="0em" dy="0.3em" style="text-anchor: end; visibility: inherit; font-family: Roboto, sans-serif; font-size: 12px; font-weight: 200;" fill="rgb(50, 49, 63)" stroke="none" stroke-width="1px">30</text></g><line x1="40" y1="0" x2="40" y2="378" fill="rgb(0, 0, 0)" stroke="rgb(204, 204, 204)" stroke-width="1px"></line></g></g><g transform="translate(40, 0)" clip-path="url(#clip_0)"><clipPath id="clip_0"><rect width="1072" height="378"></rect></clipPath><g><g><g><line x1="20.44043392779159" y1="0" x2="20.44043392779159" y2="378" fill="rgb(0, 0, 0)" stroke="rgb(60, 60, 60)" stroke-width="1px" opacity="0.25"></line><line x1="132.50694582577316" y1="0" x2="132.50694582577316" y2="378" fill="rgb(0, 0, 0)" stroke="rgb(60, 60, 60)" stroke-width="1px" opacity="0.25"></line><line x1="244.5734577237547" y1="0" x2="244.5734577237547" y2="378" fill="rgb(0, 0, 0)" stroke="rgb(60, 60, 60)" stroke-width="1px" opacity="0.25"></line><line x1="356.63996962173627" y1="0" x2="356.63996962173627" y2="378" fill="rgb(0, 0, 0)" stroke="rgb(60, 60, 60)" stroke-width="1px" opacity="0.25"></line><line x1="468.7064815197179" y1="0" x2="468.7064815197179" y2="378" fill="rgb(0, 0, 0)" stroke="rgb(60, 60, 60)" stroke-width="1px" opacity="0.25"></line><line x1="580.7729934176995" y1="0" x2="580.7729934176995" y2="378" fill="rgb(0, 0, 0)" stroke="rgb(60, 60, 60)" stroke-width="1px" opacity="0.25"></line><line x1="692.839505315681" y1="0" x2="692.839505315681" y2="378" fill="rgb(0, 0, 0)" stroke="rgb(60, 60, 60)" stroke-width="1px" opacity="0.25"></line><line x1="804.9060172136625" y1="0" x2="804.9060172136625" y2="378" fill="rgb(0, 0, 0)" stroke="rgb(60, 60, 60)" stroke-width="1px" opacity="0.25"></line><line x1="916.9725291116441" y1="0" x2="916.9725291116441" y2="378" fill="rgb(0, 0, 0)" stroke="rgb(60, 60, 60)" stroke-width="1px" opacity="0.25"></line><line x1="1029.0390410096256" y1="0" x2="1029.0390410096256" y2="378" fill="rgb(0, 0, 0)" stroke="rgb(60, 60, 60)" stroke-width="1px" opacity="0.25"></line></g><g><line x1="0" y1="352.19070215665596" x2="1072.2" y2="352.19070215665596" fill="rgb(0, 0, 0)" stroke="rgb(60, 60, 60)" stroke-width="1px" opacity="0.25"></line><line x1="0" y1="316.8335668316757" x2="1072.2" y2="316.8335668316757" fill="rgb(0, 0, 0)" stroke="rgb(60, 60, 60)" stroke-width="1px" opacity="0.25"></line><line x1="0" y1="281.47643150669546" x2="1072.2" y2="281.47643150669546" fill="rgb(0, 0, 0)" stroke="rgb(60, 60, 60)" stroke-width="1px" opacity="0.25"></line><line x1="0" y1="246.11929618171524" x2="1072.2" y2="246.11929618171524" fill="rgb(0, 0, 0)" stroke="rgb(60, 60, 60)" stroke-width="1px" opacity="0.25"></line><line x1="0" y1="210.762160856735" x2="1072.2" y2="210.762160856735" fill="rgb(0, 0, 0)" stroke="rgb(60, 60, 60)" stroke-width="1px" opacity="0.25"></line><line x1="0" y1="175.40502553175477" x2="1072.2" y2="175.40502553175477" fill="rgb(0, 0, 0)" stroke="rgb(60, 60, 60)" stroke-width="1px" opacity="0.25"></line><line x1="0" y1="140.04789020677455" x2="1072.2" y2="140.04789020677455" fill="rgb(0, 0, 0)" stroke="rgb(60, 60, 60)" stroke-width="1px" opacity="0.25"></line><line x1="0" y1="104.69075488179429" x2="1072.2" y2="104.69075488179429" fill="rgb(0, 0, 0)" stroke="rgb(60, 60, 60)" stroke-width="1px" opacity="0.25"></line><line x1="0" y1="69.33361955681407" x2="1072.2" y2="69.33361955681407" fill="rgb(0, 0, 0)" stroke="rgb(60, 60, 60)" stroke-width="1px" opacity="0.25"></line><line x1="0" y1="33.97648423183385" x2="1072.2" y2="33.97648423183385" fill="rgb(0, 0, 0)" stroke="rgb(60, 60, 60)" stroke-width="1px" opacity="0.25"></line></g></g></g><g><g><line x1="0" y1="246.11929618171524" x2="1072.2" y2="246.11929618171524" fill="rgb(0, 0, 0)" stroke="rgb(153, 153, 153)" stroke-width="1.5px"></line></g></g><g><g><line x1="20.44043392779159" y1="0" x2="20.44043392779159" y2="378" fill="rgb(0, 0, 0)" stroke="rgb(153, 153, 153)" stroke-width="1.5px"></line></g></g><g><g><g><g><g><path style="fill: none;" stroke="rgb(0, 119, 187)" stroke-width="2px" d="M20.44043392779159,240.63894290387867L42.8537363073879,242.1089534120294L65.26703868698421,242.74773273307602L87.68034106658052,243.08510884277288L110.09364344617684,243.00724574939684L132.50694582577316,243.13024893566228L154.92024820536946,243.2043955418604L177.33355058496576,243.2197004723012L199.7468529645621,243.26078203896026L222.16015534415837,243.2293384710599L244.5734577237547,243.2685368208535L266.986760103351,243.26569850787862L289.40006248294736,243.28697995433185L311.8133648625436,243.29597096609666L334.2266672421399,243.29658718432793L356.63996962173627,243.26305808441091L379.05327200133263,243.28342173661068L401.46657438092893,243.2570160267193L423.87987676052524,243.2560491288927L446.29317914012154,243.27635777666077L468.7064815197179,243.28608934617682L491.1197838993142,243.23797964620914L513.5330862789104,243.28218445301437L535.9463886585067,243.24580376319062L558.359691038103,243.29029729057612L580.7729934176995,243.2813151300992L603.1862957972957,243.30958129640152L625.5995981768921,243.29744913116986L648.0129005564884,243.24545076540085L670.4262029360847,243.30936907623777L692.839505315681,243.2849169720248L715.2528076952774,243.322948848525L737.6661100748736,243.2447801749727L760.0794124544699,243.32171514759276L782.4927148340662,243.26777708531188L804.9060172136625,243.2863323351032L827.3193195932589,243.26052872353145L849.7326219728551,243.2810304136729L872.1459243524515,243.2603822557918L894.5592267320478,243.29016072784907L916.9725291116441,243.26664074854617L939.3858314912404,243.3102563124736L961.7991338708367,243.25234907982076L984.212436250433,243.27478456561548L1006.6257386300293,243.31329061825122L1029.0390410096256,243.2580493092049L1051.452343389222,243.29654777502245L1073.8656457688182,243.28553213653132" fill="none"></path></g><g><path style="fill: none;" stroke="rgb(0, 153, 136)" stroke-width="2px" d="M20.44043392779159,21.908183149582904L20.44043392779159,217.4183933965874L20.44043392779159,216.33557236026996L42.8537363073879,229.9975351776557L65.26703868698421,232.01647010438148L87.68034106658052,233.51037276741533L110.09364344617684,235.21636830427593L132.50694582577316,236.80459619164228L154.92024820536946,237.4424975492308L177.33355058496576,236.57778826248736L199.7468529645621,237.93180095722673L222.16015534415837,237.5515007377805L244.5734577237547,236.92735175259253L266.986760103351,238.4851826314759L289.40006248294736,238.96977293942942L311.8133648625436,237.90546121050437L334.2266672421399,238.90931611438202L356.63996962173627,238.93000030964942L379.05327200133263,238.5463753778857L401.46657438092893,238.14394862474023L423.87987676052524,238.25900440822898L446.29317914012154,238.45393168445904L468.7064815197179,239.41293922018153L491.1197838993142,239.66560007522625L513.5330862789104,240.2827649728L535.9463886585067,240.49801016957585L558.359691038103,240.1117319589026L580.7729934176995,238.3331031753236L603.1862957972957,239.6023167389211L625.5995981768921,239.7011835169074L648.0129005564884,240.6381041389811L670.4262029360847,240.37282345489243L692.839505315681,238.95167163425856L715.2528076952774,241.4008950608748L737.6661100748736,241.0411475318477L760.0794124544699,241.20106838606733L782.4927148340662,241.83708441934093L804.9060172136625,240.99245828326994L827.3193195932589,241.0550111775815L849.7326219728551,241.03930857142163L872.1459243524515,241.92077418907058L894.5592267320478,239.74708882470722" fill="none"></path></g></g></g></g></g></g><g transform="translate(40, 378)" clip-path="url(#clip_1)"><clipPath id="clip_1"><rect width="1072" height="22"></rect></clipPath><g><g><line x1="20.44043392779159" y1="0" x2="20.44043392779159" y2="5" style="visibility: inherit;" fill="rgb(0, 0, 0)" stroke="rgb(204, 204, 204)" stroke-width="1px"></line><line x1="132.50694582577316" y1="0" x2="132.50694582577316" y2="5" style="visibility: inherit;" fill="rgb(0, 0, 0)" stroke="rgb(204, 204, 204)" stroke-width="1px"></line><line x1="244.5734577237547" y1="0" x2="244.5734577237547" y2="5" style="visibility: inherit;" fill="rgb(0, 0, 0)" stroke="rgb(204, 204, 204)" stroke-width="1px"></line><line x1="356.63996962173627" y1="0" x2="356.63996962173627" y2="5" style="visibility: inherit;" fill="rgb(0, 0, 0)" stroke="rgb(204, 204, 204)" stroke-width="1px"></line><line x1="468.7064815197179" y1="0" x2="468.7064815197179" y2="5" style="visibility: inherit;" fill="rgb(0, 0, 0)" stroke="rgb(204, 204, 204)" stroke-width="1px"></line><line x1="580.7729934176995" y1="0" x2="580.7729934176995" y2="5" style="visibility: inherit;" fill="rgb(0, 0, 0)" stroke="rgb(204, 204, 204)" stroke-width="1px"></line><line x1="692.839505315681" y1="0" x2="692.839505315681" y2="5" style="visibility: inherit;" fill="rgb(0, 0, 0)" stroke="rgb(204, 204, 204)" stroke-width="1px"></line><line x1="804.9060172136625" y1="0" x2="804.9060172136625" y2="5" style="visibility: inherit;" fill="rgb(0, 0, 0)" stroke="rgb(204, 204, 204)" stroke-width="1px"></line><line x1="916.9725291116441" y1="0" x2="916.9725291116441" y2="5" style="visibility: inherit;" fill="rgb(0, 0, 0)" stroke="rgb(204, 204, 204)" stroke-width="1px"></line><line x1="1029.0390410096256" y1="0" x2="1029.0390410096256" y2="5" style="visibility: inherit;" fill="rgb(0, 0, 0)" stroke="rgb(204, 204, 204)" stroke-width="1px"></line></g><g transform="translate(0, 8)"><text x="20.44043392779159" y="0" dx="0em" dy="0.95em" style="text-anchor: middle; visibility: inherit; font-family: Roboto, sans-serif; font-size: 12px; font-weight: 200;" fill="rgb(50, 49, 63)" stroke="none" stroke-width="1px">0</text><text x="132.50694582577316" y="0" dx="0em" dy="0.95em" style="text-anchor: middle; visibility: inherit; font-family: Roboto, sans-serif; font-size: 12px; font-weight: 200;" fill="rgb(50, 49, 63)" stroke="none" stroke-width="1px">5</text><text x="244.5734577237547" y="0" dx="0em" dy="0.95em" style="text-anchor: middle; visibility: inherit; font-family: Roboto, sans-serif; font-size: 12px; font-weight: 200;" fill="rgb(50, 49, 63)" stroke="none" stroke-width="1px">10</text><text x="356.63996962173627" y="0" dx="0em" dy="0.95em" style="text-anchor: middle; visibility: inherit; font-family: Roboto, sans-serif; font-size: 12px; font-weight: 200;" fill="rgb(50, 49, 63)" stroke="none" stroke-width="1px">15</text><text x="468.7064815197179" y="0" dx="0em" dy="0.95em" style="text-anchor: middle; visibility: inherit; font-family: Roboto, sans-serif; font-size: 12px; font-weight: 200;" fill="rgb(50, 49, 63)" stroke="none" stroke-width="1px">20</text><text x="580.7729934176995" y="0" dx="0em" dy="0.95em" style="text-anchor: middle; visibility: inherit; font-family: Roboto, sans-serif; font-size: 12px; font-weight: 200;" fill="rgb(50, 49, 63)" stroke="none" stroke-width="1px">25</text><text x="692.839505315681" y="0" dx="0em" dy="0.95em" style="text-anchor: middle; visibility: inherit; font-family: Roboto, sans-serif; font-size: 12px; font-weight: 200;" fill="rgb(50, 49, 63)" stroke="none" stroke-width="1px">30</text><text x="804.9060172136625" y="0" dx="0em" dy="0.95em" style="text-anchor: middle; visibility: inherit; font-family: Roboto, sans-serif; font-size: 12px; font-weight: 200;" fill="rgb(50, 49, 63)" stroke="none" stroke-width="1px">35</text><text x="916.9725291116441" y="0" dx="0em" dy="0.95em" style="text-anchor: middle; visibility: inherit; font-family: Roboto, sans-serif; font-size: 12px; font-weight: 200;" fill="rgb(50, 49, 63)" stroke="none" stroke-width="1px">40</text><text x="1029.0390410096256" y="0" dx="0em" dy="0.95em" style="text-anchor: middle; visibility: inherit; font-family: Roboto, sans-serif; font-size: 12px; font-weight: 200;" fill="rgb(50, 49, 63)" stroke="none" stroke-width="1px">45</text></g><line x1="0" y1="0" x2="1072.2" y2="0" fill="rgb(0, 0, 0)" stroke="rgb(204, 204, 204)" stroke-width="1px"></line></g></g></g></g></svg>