<svg viewBox="0 0 1112.2000732421875 400" xmlns="http://www.w3.org/2000/svg"><g><g><g><g><g><line x1="50" y1="375.0560219034558" x2="45" y2="375.0560219034558" style="visibility: inherit;" fill="rgb(0, 0, 0)" stroke="rgb(204, 204, 204)" stroke-width="1px"></line><line x1="50" y1="337.9329158911615" x2="45" y2="337.9329158911615" style="visibility: inherit;" fill="rgb(0, 0, 0)" stroke="rgb(204, 204, 204)" stroke-width="1px"></line><line x1="50" y1="300.8098098788672" x2="45" y2="300.8098098788672" style="visibility: inherit;" fill="rgb(0, 0, 0)" stroke="rgb(204, 204, 204)" stroke-width="1px"></line><line x1="50" y1="263.68670386657294" x2="45" y2="263.68670386657294" style="visibility: inherit;" fill="rgb(0, 0, 0)" stroke="rgb(204, 204, 204)" stroke-width="1px"></line><line x1="50" y1="226.56359785427867" x2="45" y2="226.56359785427867" style="visibility: inherit;" fill="rgb(0, 0, 0)" stroke="rgb(204, 204, 204)" stroke-width="1px"></line><line x1="50" y1="189.44049184198434" x2="45" y2="189.44049184198434" style="visibility: inherit;" fill="rgb(0, 0, 0)" stroke="rgb(204, 204, 204)" stroke-width="1px"></line><line x1="50" y1="152.31738582969004" x2="45" y2="152.31738582969004" style="visibility: inherit;" fill="rgb(0, 0, 0)" stroke="rgb(204, 204, 204)" stroke-width="1px"></line><line x1="50" y1="115.19427981739577" x2="45" y2="115.19427981739577" style="visibility: inherit;" fill="rgb(0, 0, 0)" stroke="rgb(204, 204, 204)" stroke-width="1px"></line><line x1="50" y1="78.07117380510142" x2="45" y2="78.07117380510142" style="visibility: inherit;" fill="rgb(0, 0, 0)" stroke="rgb(204, 204, 204)" stroke-width="1px"></line><line x1="50" y1="40.94806779280718" x2="45" y2="40.94806779280718" style="visibility: inherit;" fill="rgb(0, 0, 0)" stroke="rgb(204, 204, 204)" stroke-width="1px"></line><line x1="50" y1="3.824961780512801" x2="45" y2="3.824961780512801" style="visibility: inherit;" fill="rgb(0, 0, 0)" stroke="rgb(204, 204, 204)" stroke-width="1px"></line></g><g transform="translate(40, 0)"><text x="0" y="375.0560219034558" dx="0em" dy="0.3em" style="text-anchor: end; visibility: hidden; font-family: Roboto, sans-serif; font-size: 12px; font-weight: 200;" fill="rgb(50, 49, 63)" stroke="none" stroke-width="1px">0.4</text><text x="0" y="337.9329158911615" dx="0em" dy="0.3em" style="text-anchor: end; visibility: inherit; font-family: Roboto, sans-serif; font-size: 12px; font-weight: 200;" fill="rgb(50, 49, 63)" stroke="none" stroke-width="1px">0.45</text><text x="0" y="300.8098098788672" dx="0em" dy="0.3em" style="text-anchor: end; visibility: inherit; font-family: Roboto, sans-serif; font-size: 12px; font-weight: 200;" fill="rgb(50, 49, 63)" stroke="none" stroke-width="1px">0.5</text><text x="0" y="263.68670386657294" dx="0em" dy="0.3em" style="text-anchor: end; visibility: inherit; font-family: Roboto, sans-serif; font-size: 12px; font-weight: 200;" fill="rgb(50, 49, 63)" stroke="none" stroke-width="1px">0.55</text><text x="0" y="226.56359785427867" dx="0em" dy="0.3em" style="text-anchor: end; visibility: inherit; font-family: Roboto, sans-serif; font-size: 12px; font-weight: 200;" fill="rgb(50, 49, 63)" stroke="none" stroke-width="1px">0.6</text><text x="0" y="189.44049184198434" dx="0em" dy="0.3em" style="text-anchor: end; visibility: inherit; font-family: Roboto, sans-serif; font-size: 12px; font-weight: 200;" fill="rgb(50, 49, 63)" stroke="none" stroke-width="1px">0.65</text><text x="0" y="152.31738582969004" dx="0em" dy="0.3em" style="text-anchor: end; visibility: inherit; font-family: Roboto, sans-serif; font-size: 12px; font-weight: 200;" fill="rgb(50, 49, 63)" stroke="none" stroke-width="1px">0.7</text><text x="0" y="115.19427981739577" dx="0em" dy="0.3em" style="text-anchor: end; visibility: inherit; font-family: Roboto, sans-serif; font-size: 12px; font-weight: 200;" fill="rgb(50, 49, 63)" stroke="none" stroke-width="1px">0.75</text><text x="0" y="78.07117380510142" dx="0em" dy="0.3em" style="text-anchor: end; visibility: inherit; font-family: Roboto, sans-serif; font-size: 12px; font-weight: 200;" fill="rgb(50, 49, 63)" stroke="none" stroke-width="1px">0.8</text><text x="0" y="40.94806779280718" dx="0em" dy="0.3em" style="text-anchor: end; visibility: inherit; font-family: Roboto, sans-serif; font-size: 12px; font-weight: 200;" fill="rgb(50, 49, 63)" stroke="none" stroke-width="1px">0.85</text><text x="0" y="3.824961780512801" dx="0em" dy="0.3em" style="text-anchor: end; visibility: hidden; font-family: Roboto, sans-serif; font-size: 12px; font-weight: 200;" fill="rgb(50, 49, 63)" stroke="none" stroke-width="1px">0.9</text></g><line x1="50" y1="0" x2="50" y2="378" fill="rgb(0, 0, 0)" stroke="rgb(204, 204, 204)" stroke-width="1px"></line></g></g><g transform="translate(50, 0)" clip-path="url(#clip_0)"><clipPath id="clip_0"><rect width="1062" height="378"></rect></clipPath><g><g><g><line x1="69.12749287360539" y1="0" x2="69.12749287360539" y2="378" fill="rgb(0, 0, 0)" stroke="rgb(60, 60, 60)" stroke-width="1px" opacity="0.25"></line><line x1="194.30896336966384" y1="0" x2="194.30896336966384" y2="378" fill="rgb(0, 0, 0)" stroke="rgb(60, 60, 60)" stroke-width="1px" opacity="0.25"></line><line x1="319.4904338657223" y1="0" x2="319.4904338657223" y2="378" fill="rgb(0, 0, 0)" stroke="rgb(60, 60, 60)" stroke-width="1px" opacity="0.25"></line><line x1="444.6719043617808" y1="0" x2="444.6719043617808" y2="378" fill="rgb(0, 0, 0)" stroke="rgb(60, 60, 60)" stroke-width="1px" opacity="0.25"></line><line x1="569.8533748578392" y1="0" x2="569.8533748578392" y2="378" fill="rgb(0, 0, 0)" stroke="rgb(60, 60, 60)" stroke-width="1px" opacity="0.25"></line><line x1="695.0348453538976" y1="0" x2="695.0348453538976" y2="378" fill="rgb(0, 0, 0)" stroke="rgb(60, 60, 60)" stroke-width="1px" opacity="0.25"></line><line x1="820.2163158499561" y1="0" x2="820.2163158499561" y2="378" fill="rgb(0, 0, 0)" stroke="rgb(60, 60, 60)" stroke-width="1px" opacity="0.25"></line><line x1="945.3977863460146" y1="0" x2="945.3977863460146" y2="378" fill="rgb(0, 0, 0)" stroke="rgb(60, 60, 60)" stroke-width="1px" opacity="0.25"></line></g><g><line x1="0" y1="375.0560219034558" x2="1062.2" y2="375.0560219034558" fill="rgb(0, 0, 0)" stroke="rgb(60, 60, 60)" stroke-width="1px" opacity="0.25"></line><line x1="0" y1="337.9329158911615" x2="1062.2" y2="337.9329158911615" fill="rgb(0, 0, 0)" stroke="rgb(60, 60, 60)" stroke-width="1px" opacity="0.25"></line><line x1="0" y1="300.8098098788672" x2="1062.2" y2="300.8098098788672" fill="rgb(0, 0, 0)" stroke="rgb(60, 60, 60)" stroke-width="1px" opacity="0.25"></line><line x1="0" y1="263.68670386657294" x2="1062.2" y2="263.68670386657294" fill="rgb(0, 0, 0)" stroke="rgb(60, 60, 60)" stroke-width="1px" opacity="0.25"></line><line x1="0" y1="226.56359785427867" x2="1062.2" y2="226.56359785427867" fill="rgb(0, 0, 0)" stroke="rgb(60, 60, 60)" stroke-width="1px" opacity="0.25"></line><line x1="0" y1="189.44049184198434" x2="1062.2" y2="189.44049184198434" fill="rgb(0, 0, 0)" stroke="rgb(60, 60, 60)" stroke-width="1px" opacity="0.25"></line><line x1="0" y1="152.31738582969004" x2="1062.2" y2="152.31738582969004" fill="rgb(0, 0, 0)" stroke="rgb(60, 60, 60)" stroke-width="1px" opacity="0.25"></line><line x1="0" y1="115.19427981739577" x2="1062.2" y2="115.19427981739577" fill="rgb(0, 0, 0)" stroke="rgb(60, 60, 60)" stroke-width="1px" opacity="0.25"></line><line x1="0" y1="78.07117380510142" x2="1062.2" y2="78.07117380510142" fill="rgb(0, 0, 0)" stroke="rgb(60, 60, 60)" stroke-width="1px" opacity="0.25"></line><line x1="0" y1="40.94806779280718" x2="1062.2" y2="40.94806779280718" fill="rgb(0, 0, 0)" stroke="rgb(60, 60, 60)" stroke-width="1px" opacity="0.25"></line><line x1="0" y1="3.824961780512801" x2="1062.2" y2="3.824961780512801" fill="rgb(0, 0, 0)" stroke="rgb(60, 60, 60)" stroke-width="1px" opacity="0.25"></line></g></g></g><g><g><line x1="0" y1="672.0408700018103" x2="1062.2" y2="672.0408700018103" fill="rgb(0, 0, 0)" stroke="rgb(153, 153, 153)" stroke-width="1.5px"></line></g></g><g><g><line x1="319.4904338657223" y1="0" x2="319.4904338657223" y2="378" fill="rgb(0, 0, 0)" stroke="rgb(153, 153, 153)" stroke-width="1.5px"></line></g></g><g><g><g><g><g><path style="fill: none;" stroke="rgb(0, 119, 187)" stroke-width="2px" d="M319.4904338657223,104.66222491643254L325.7495073905252,75.09515912216958L332.00858091532814,53.25801711296544L338.267654440131,40.11708914791726L344.52672796493397,42.43609726136856L350.78580148973685,36.2521051282924L357.0448750145398,32.38716536285845L363.30394853934274,30.45467335304599L369.5630220641457,27.942407187775277L375.8220955889486,27.942407187775277L382.08116911375146,26.97616118286905L388.3402426385544,26.203173229782283L394.59931616335734,26.009915177962863L400.85838968816034,25.623443328514938L407.11746321296323,23.497693266883065L413.3765367377661,26.009915177962863L419.63561026256906,25.816701380334358L425.894683787372,27.16941923468851L432.15375731217495,26.203173229782283L438.41283083697783,25.816701380334358L444.6719043617808,24.85045537542813L450.9309778865837,25.623443328514938L457.1900514113866,26.782947385240586L463.4491249361895,26.009915177962863L469.70819846099243,25.816701380334358L475.9672719857954,26.782947385240586L482.2263455105983,25.236927224876055L488.48541903540126,26.782947385240586L494.74449256020415,27.749149135955854L501.00356608500704,27.942407187775277L507.26263960981,26.396431281601703L513.5217131346129,26.009915177962863L519.7807866594159,26.396431281601703L526.0398601842188,26.396431281601703L532.2989337090216,26.97616118286905L538.5580072338246,26.589689333421124L544.8170807586275,27.942407187775277L551.0761542834305,26.203173229782283L557.3352278082334,26.782947385240586L563.5943013330362,25.236927224876055L569.8533748578392,26.396431281601703L576.1124483826421,25.816701380334358L582.3715219074451,26.396431281601703L588.6305954322479,27.749149135955854L594.889668957051,27.55593533832735L601.1487424818538,25.816701380334358L607.4078160066567,26.203173229782283L613.6668895314597,27.36267728650793L619.9259630562625,26.589689333421124L626.1850365810656,27.36267728650793" fill="none"></path></g><g><path style="fill: none;" stroke="rgb(0, 153, 136)" stroke-width="2px" d="M325.7495073905252,422.556585226096L332.00858091532814,369.2199075399119L338.267654440131,327.86465376205035L344.52672796493397,280.9051598794755L350.78580148973685,241.67567829034135L357.0448750145398,224.66976630566828L363.30394853934274,236.26467411035196L369.5630220641457,209.2098302271688L375.8220955889486,222.1575443945885L382.08116911375146,220.99804033786282L388.3402426385544,201.09339033847112L394.59931616335734,186.0199703636105L400.85838968816034,203.6056122495509L407.11746321296323,184.86051056107578L413.3765367377661,187.37273247215558L419.63561026256906,191.43097454359986L425.894683787372,203.02588234828355L432.15375731217495,171.7195825960276L438.41283083697783,175.77778041328096L444.6719043617808,170.94659464294082L450.9309778865837,163.21662660369105L457.1900514113866,146.210714619018L463.4491249361895,135.96852466868847L469.70819846099243,139.64025063649393L475.9672719857954,197.80818047430452L482.2263455105983,127.85208477999082L488.48541903540126,150.46221474228176L494.74449256020415,137.12802872541414L501.00356608500704,114.13142691367526L507.26263960981,140.4132385895807L513.5217131346129,116.45039077293563L519.7807866594159,119.54238683947374L526.0398601842188,124.3736168640048L532.2989337090216,101.376970798075L538.5580072338246,126.49932267144575L544.8170807586275,122.82759670364031L551.0761542834305,123.4073708590986L557.3352278082334,97.70524483026956L563.5943013330362,151.0419446435491" fill="none"></path></g></g></g></g></g></g><g transform="translate(50, 378)" clip-path="url(#clip_1)"><clipPath id="clip_1"><rect width="1062" height="22"></rect></clipPath><g><g><line x1="69.12749287360539" y1="0" x2="69.12749287360539" y2="5" style="visibility: inherit;" fill="rgb(0, 0, 0)" stroke="rgb(204, 204, 204)" stroke-width="1px"></line><line x1="194.30896336966384" y1="0" x2="194.30896336966384" y2="5" style="visibility: inherit;" fill="rgb(0, 0, 0)" stroke="rgb(204, 204, 204)" stroke-width="1px"></line><line x1="319.4904338657223" y1="0" x2="319.4904338657223" y2="5" style="visibility: inherit;" fill="rgb(0, 0, 0)" stroke="rgb(204, 204, 204)" stroke-width="1px"></line><line x1="444.6719043617808" y1="0" x2="444.6719043617808" y2="5" style="visibility: inherit;" fill="rgb(0, 0, 0)" stroke="rgb(204, 204, 204)" stroke-width="1px"></line><line x1="569.8533748578392" y1="0" x2="569.8533748578392" y2="5" style="visibility: inherit;" fill="rgb(0, 0, 0)" stroke="rgb(204, 204, 204)" stroke-width="1px"></line><line x1="695.0348453538976" y1="0" x2="695.0348453538976" y2="5" style="visibility: inherit;" fill="rgb(0, 0, 0)" stroke="rgb(204, 204, 204)" stroke-width="1px"></line><line x1="820.2163158499561" y1="0" x2="820.2163158499561" y2="5" style="visibility: inherit;" fill="rgb(0, 0, 0)" stroke="rgb(204, 204, 204)" stroke-width="1px"></line><line x1="945.3977863460146" y1="0" x2="945.3977863460146" y2="5" style="visibility: inherit;" fill="rgb(0, 0, 0)" stroke="rgb(204, 204, 204)" stroke-width="1px"></line></g><g transform="translate(0, 8)"><text x="69.12749287360539" y="0" dx="0em" dy="0.95em" style="text-anchor: middle; visibility: inherit; font-family: Roboto, sans-serif; font-size: 12px; font-weight: 200;" fill="rgb(50, 49, 63)" stroke="none" stroke-width="1px">-40</text><text x="194.30896336966384" y="0" dx="0em" dy="0.95em" style="text-anchor: middle; visibility: inherit; font-family: Roboto, sans-serif; font-size: 12px; font-weight: 200;" fill="rgb(50, 49, 63)" stroke="none" stroke-width="1px">-20</text><text x="319.4904338657223" y="0" dx="0em" dy="0.95em" style="text-anchor: middle; visibility: inherit; font-family: Roboto, sans-serif; font-size: 12px; font-weight: 200;" fill="rgb(50, 49, 63)" stroke="none" stroke-width="1px">0</text><text x="444.6719043617808" y="0" dx="0em" dy="0.95em" style="text-anchor: middle; visibility: inherit; font-family: Roboto, sans-serif; font-size: 12px; font-weight: 200;" fill="rgb(50, 49, 63)" stroke="none" stroke-width="1px">20</text><text x="569.8533748578392" y="0" dx="0em" dy="0.95em" style="text-anchor: middle; visibility: inherit; font-family: Roboto, sans-serif; font-size: 12px; font-weight: 200;" fill="rgb(50, 49, 63)" stroke="none" stroke-width="1px">40</text><text x="695.0348453538976" y="0" dx="0em" dy="0.95em" style="text-anchor: middle; visibility: inherit; font-family: Roboto, sans-serif; font-size: 12px; font-weight: 200;" fill="rgb(50, 49, 63)" stroke="none" stroke-width="1px">60</text><text x="820.2163158499561" y="0" dx="0em" dy="0.95em" style="text-anchor: middle; visibility: inherit; font-family: Roboto, sans-serif; font-size: 12px; font-weight: 200;" fill="rgb(50, 49, 63)" stroke="none" stroke-width="1px">80</text><text x="945.3977863460146" y="0" dx="0em" dy="0.95em" style="text-anchor: middle; visibility: inherit; font-family: Roboto, sans-serif; font-size: 12px; font-weight: 200;" fill="rgb(50, 49, 63)" stroke="none" stroke-width="1px">100</text></g><line x1="0" y1="0" x2="1062.2" y2="0" fill="rgb(0, 0, 0)" stroke="rgb(204, 204, 204)" stroke-width="1px"></line></g></g></g></g></svg>