<svg viewBox="0 0 1112.2000732421875 400" xmlns="http://www.w3.org/2000/svg"><g><g><g><g><g><line x1="30.78125" y1="356.4900493182964" x2="25.78125" y2="356.4900493182964" style="visibility: inherit;" fill="rgb(0, 0, 0)" stroke="rgb(204, 204, 204)" stroke-width="1px"></line><line x1="30.78125" y1="328.39503122635693" x2="25.78125" y2="328.39503122635693" style="visibility: inherit;" fill="rgb(0, 0, 0)" stroke="rgb(204, 204, 204)" stroke-width="1px"></line><line x1="30.78125" y1="300.3000131344174" x2="25.78125" y2="300.3000131344174" style="visibility: inherit;" fill="rgb(0, 0, 0)" stroke="rgb(204, 204, 204)" stroke-width="1px"></line><line x1="30.78125" y1="272.20499504247795" x2="25.78125" y2="272.20499504247795" style="visibility: inherit;" fill="rgb(0, 0, 0)" stroke="rgb(204, 204, 204)" stroke-width="1px"></line><line x1="30.78125" y1="244.10997695053842" x2="25.78125" y2="244.10997695053842" style="visibility: inherit;" fill="rgb(0, 0, 0)" stroke="rgb(204, 204, 204)" stroke-width="1px"></line><line x1="30.78125" y1="216.01495885859893" x2="25.78125" y2="216.01495885859893" style="visibility: inherit;" fill="rgb(0, 0, 0)" stroke="rgb(204, 204, 204)" stroke-width="1px"></line><line x1="30.78125" y1="187.9199407666594" x2="25.78125" y2="187.9199407666594" style="visibility: inherit;" fill="rgb(0, 0, 0)" stroke="rgb(204, 204, 204)" stroke-width="1px"></line><line x1="30.78125" y1="159.82492267471991" x2="25.78125" y2="159.82492267471991" style="visibility: inherit;" fill="rgb(0, 0, 0)" stroke="rgb(204, 204, 204)" stroke-width="1px"></line><line x1="30.78125" y1="131.7299045827804" x2="25.78125" y2="131.7299045827804" style="visibility: inherit;" fill="rgb(0, 0, 0)" stroke="rgb(204, 204, 204)" stroke-width="1px"></line><line x1="30.78125" y1="103.63488649084088" x2="25.78125" y2="103.63488649084088" style="visibility: inherit;" fill="rgb(0, 0, 0)" stroke="rgb(204, 204, 204)" stroke-width="1px"></line><line x1="30.78125" y1="75.53986839890138" x2="25.78125" y2="75.53986839890138" style="visibility: inherit;" fill="rgb(0, 0, 0)" stroke="rgb(204, 204, 204)" stroke-width="1px"></line><line x1="30.78125" y1="47.44485030696191" x2="25.78125" y2="47.44485030696191" style="visibility: inherit;" fill="rgb(0, 0, 0)" stroke="rgb(204, 204, 204)" stroke-width="1px"></line><line x1="30.78125" y1="19.3498322150224" x2="25.78125" y2="19.3498322150224" style="visibility: inherit;" fill="rgb(0, 0, 0)" stroke="rgb(204, 204, 204)" stroke-width="1px"></line></g><g transform="translate(20.78125, 0)"><text x="0" y="356.4900493182964" dx="0em" dy="0.3em" style="text-anchor: end; visibility: inherit; font-family: Roboto, sans-serif; font-size: 12px; font-weight: 200;" fill="rgb(50, 49, 63)" stroke="none" stroke-width="1px">4</text><text x="0" y="328.39503122635693" dx="0em" dy="0.3em" style="text-anchor: end; visibility: inherit; font-family: Roboto, sans-serif; font-size: 12px; font-weight: 200;" fill="rgb(50, 49, 63)" stroke="none" stroke-width="1px">6</text><text x="0" y="300.3000131344174" dx="0em" dy="0.3em" style="text-anchor: end; visibility: inherit; font-family: Roboto, sans-serif; font-size: 12px; font-weight: 200;" fill="rgb(50, 49, 63)" stroke="none" stroke-width="1px">8</text><text x="0" y="272.20499504247795" dx="0em" dy="0.3em" style="text-anchor: end; visibility: inherit; font-family: Roboto, sans-serif; font-size: 12px; font-weight: 200;" fill="rgb(50, 49, 63)" stroke="none" stroke-width="1px">10</text><text x="0" y="244.10997695053842" dx="0em" dy="0.3em" style="text-anchor: end; visibility: inherit; font-family: Roboto, sans-serif; font-size: 12px; font-weight: 200;" fill="rgb(50, 49, 63)" stroke="none" stroke-width="1px">12</text><text x="0" y="216.01495885859893" dx="0em" dy="0.3em" style="text-anchor: end; visibility: inherit; font-family: Roboto, sans-serif; font-size: 12px; font-weight: 200;" fill="rgb(50, 49, 63)" stroke="none" stroke-width="1px">14</text><text x="0" y="187.9199407666594" dx="0em" dy="0.3em" style="text-anchor: end; visibility: inherit; font-family: Roboto, sans-serif; font-size: 12px; font-weight: 200;" fill="rgb(50, 49, 63)" stroke="none" stroke-width="1px">16</text><text x="0" y="159.82492267471991" dx="0em" dy="0.3em" style="text-anchor: end; visibility: inherit; font-family: Roboto, sans-serif; font-size: 12px; font-weight: 200;" fill="rgb(50, 49, 63)" stroke="none" stroke-width="1px">18</text><text x="0" y="131.7299045827804" dx="0em" dy="0.3em" style="text-anchor: end; visibility: inherit; font-family: Roboto, sans-serif; font-size: 12px; font-weight: 200;" fill="rgb(50, 49, 63)" stroke="none" stroke-width="1px">20</text><text x="0" y="103.63488649084088" dx="0em" dy="0.3em" style="text-anchor: end; visibility: inherit; font-family: Roboto, sans-serif; font-size: 12px; font-weight: 200;" fill="rgb(50, 49, 63)" stroke="none" stroke-width="1px">22</text><text x="0" y="75.53986839890138" dx="0em" dy="0.3em" style="text-anchor: end; visibility: inherit; font-family: Roboto, sans-serif; font-size: 12px; font-weight: 200;" fill="rgb(50, 49, 63)" stroke="none" stroke-width="1px">24</text><text x="0" y="47.44485030696191" dx="0em" dy="0.3em" style="text-anchor: end; visibility: inherit; font-family: Roboto, sans-serif; font-size: 12px; font-weight: 200;" fill="rgb(50, 49, 63)" stroke="none" stroke-width="1px">26</text><text x="0" y="19.3498322150224" dx="0em" dy="0.3em" style="text-anchor: end; visibility: inherit; font-family: Roboto, sans-serif; font-size: 12px; font-weight: 200;" fill="rgb(50, 49, 63)" stroke="none" stroke-width="1px">28</text></g><line x1="30.78125" y1="0" x2="30.78125" y2="378" fill="rgb(0, 0, 0)" stroke="rgb(204, 204, 204)" stroke-width="1px"></line></g></g><g transform="translate(30, 0)" clip-path="url(#clip_0)"><clipPath id="clip_0"><rect width="1081" height="378"></rect></clipPath><g><g><g><line x1="73.11747481726499" y1="0" x2="73.11747481726499" y2="378" fill="rgb(0, 0, 0)" stroke="rgb(60, 60, 60)" stroke-width="1px" opacity="0.25"></line><line x1="180.28671413371072" y1="0" x2="180.28671413371072" y2="378" fill="rgb(0, 0, 0)" stroke="rgb(60, 60, 60)" stroke-width="1px" opacity="0.25"></line><line x1="287.45595345015647" y1="0" x2="287.45595345015647" y2="378" fill="rgb(0, 0, 0)" stroke="rgb(60, 60, 60)" stroke-width="1px" opacity="0.25"></line><line x1="394.62519276660214" y1="0" x2="394.62519276660214" y2="378" fill="rgb(0, 0, 0)" stroke="rgb(60, 60, 60)" stroke-width="1px" opacity="0.25"></line><line x1="501.79443208304787" y1="0" x2="501.79443208304787" y2="378" fill="rgb(0, 0, 0)" stroke="rgb(60, 60, 60)" stroke-width="1px" opacity="0.25"></line><line x1="608.9636713994936" y1="0" x2="608.9636713994936" y2="378" fill="rgb(0, 0, 0)" stroke="rgb(60, 60, 60)" stroke-width="1px" opacity="0.25"></line><line x1="716.1329107159391" y1="0" x2="716.1329107159391" y2="378" fill="rgb(0, 0, 0)" stroke="rgb(60, 60, 60)" stroke-width="1px" opacity="0.25"></line><line x1="823.3021500323849" y1="0" x2="823.3021500323849" y2="378" fill="rgb(0, 0, 0)" stroke="rgb(60, 60, 60)" stroke-width="1px" opacity="0.25"></line><line x1="930.4713893488307" y1="0" x2="930.4713893488307" y2="378" fill="rgb(0, 0, 0)" stroke="rgb(60, 60, 60)" stroke-width="1px" opacity="0.25"></line><line x1="1037.6406286652764" y1="0" x2="1037.6406286652764" y2="378" fill="rgb(0, 0, 0)" stroke="rgb(60, 60, 60)" stroke-width="1px" opacity="0.25"></line></g><g><line x1="0" y1="356.4900493182964" x2="1081.41875" y2="356.4900493182964" fill="rgb(0, 0, 0)" stroke="rgb(60, 60, 60)" stroke-width="1px" opacity="0.25"></line><line x1="0" y1="328.39503122635693" x2="1081.41875" y2="328.39503122635693" fill="rgb(0, 0, 0)" stroke="rgb(60, 60, 60)" stroke-width="1px" opacity="0.25"></line><line x1="0" y1="300.3000131344174" x2="1081.41875" y2="300.3000131344174" fill="rgb(0, 0, 0)" stroke="rgb(60, 60, 60)" stroke-width="1px" opacity="0.25"></line><line x1="0" y1="272.20499504247795" x2="1081.41875" y2="272.20499504247795" fill="rgb(0, 0, 0)" stroke="rgb(60, 60, 60)" stroke-width="1px" opacity="0.25"></line><line x1="0" y1="244.10997695053842" x2="1081.41875" y2="244.10997695053842" fill="rgb(0, 0, 0)" stroke="rgb(60, 60, 60)" stroke-width="1px" opacity="0.25"></line><line x1="0" y1="216.01495885859893" x2="1081.41875" y2="216.01495885859893" fill="rgb(0, 0, 0)" stroke="rgb(60, 60, 60)" stroke-width="1px" opacity="0.25"></line><line x1="0" y1="187.9199407666594" x2="1081.41875" y2="187.9199407666594" fill="rgb(0, 0, 0)" stroke="rgb(60, 60, 60)" stroke-width="1px" opacity="0.25"></line><line x1="0" y1="159.82492267471991" x2="1081.41875" y2="159.82492267471991" fill="rgb(0, 0, 0)" stroke="rgb(60, 60, 60)" stroke-width="1px" opacity="0.25"></line><line x1="0" y1="131.7299045827804" x2="1081.41875" y2="131.7299045827804" fill="rgb(0, 0, 0)" stroke="rgb(60, 60, 60)" stroke-width="1px" opacity="0.25"></line><line x1="0" y1="103.63488649084088" x2="1081.41875" y2="103.63488649084088" fill="rgb(0, 0, 0)" stroke="rgb(60, 60, 60)" stroke-width="1px" opacity="0.25"></line><line x1="0" y1="75.53986839890138" x2="1081.41875" y2="75.53986839890138" fill="rgb(0, 0, 0)" stroke="rgb(60, 60, 60)" stroke-width="1px" opacity="0.25"></line><line x1="0" y1="47.44485030696191" x2="1081.41875" y2="47.44485030696191" fill="rgb(0, 0, 0)" stroke="rgb(60, 60, 60)" stroke-width="1px" opacity="0.25"></line><line x1="0" y1="19.3498322150224" x2="1081.41875" y2="19.3498322150224" fill="rgb(0, 0, 0)" stroke="rgb(60, 60, 60)" stroke-width="1px" opacity="0.25"></line></g></g></g><g><g><line x1="0" y1="412.6800855021755" x2="1081.41875" y2="412.6800855021755" fill="rgb(0, 0, 0)" stroke="rgb(153, 153, 153)" stroke-width="1.5px"></line></g></g><g><g><line x1="180.28671413371072" y1="0" x2="180.28671413371072" y2="378" fill="rgb(0, 0, 0)" stroke="rgb(153, 153, 153)" stroke-width="1.5px"></line></g></g><g><g><g><g><g><path stroke="rgb(51, 187, 238)" stroke-width="2px" d="M180.28671413371072,363.62441744517395L191.0036380653553,-10.615854262559168L201.72056199699986,354.0943489587959L212.43748592864443,360.8135049583538L223.154409860289,367.7014934819747L233.87133379193358,326.1547532455842L244.58825772357815,366.4590287802438L255.3051816552227,368.0879427900788L266.02210558686727,362.0760145451574L276.73902951851187,370.0811981236628L287.45595345015647,326.57507623248955L298.172877381801,341.16062549519535L308.8898013134456,358.61801230810613L319.6067252450901,356.0986566099638L330.3236491767347,351.29621697012743L341.04057310837925,357.08653954911597L351.75749704002385,326.8147105728328L362.4744209716684,333.74779590138337L373.191344903313,329.4514318361553L383.9082688349576,356.09167020557595L394.62519276660214,343.629612767839L405.34211669824674,286.82768009226584L416.0590406298913,337.13392458226747L426.7759645615359,310.5154023423057L437.49288849318043,286.07581437133865L448.20981242482503,346.3615112314952L458.9267363564696,325.1601719321387L469.6436602881142,321.15039781105L480.3605842197587,326.3355289710121L491.0775081514033,312.5675095924308L501.79443208304787,316.300305936491L512.5113560146924,321.69999272344205L523.228279946337,328.07896843532694L533.9452038779816,301.32322999796673L544.6621278096262,288.5303666473803L555.3790517412707,335.57661284444083L566.0959756729153,287.78832074316705L576.8128996045599,315.56164940967017L587.5298235362045,301.84867057265706L598.246747467849,318.3289420830923L608.9636713994936,269.11452590452643L619.6805953311382,308.4500725013257L630.3975192627828,273.9737945518673L641.1144431944273,323.44325803002533L651.8313671260719,275.25188455727715L662.5482910577165,329.6476674094522L673.2652149893611,306.85652925694654L683.9821389210056,306.43191261211916L694.6990628526501,306.27649693176573L705.4159867842947,264.14267098206346" style="fill: none;" fill="none"></path></g><g><path stroke="rgb(204, 51, 17)" stroke-width="2px" d="M180.28671413371072,370.9623960554453L191.0036380653553,373.9592520634606L201.72056199699986,364.9043093132687L212.43748592864443,362.50128763066556L223.154409860289,361.0466820658784L233.87133379193358,356.4492227269787L244.58825772357815,351.75373602948355L255.3051816552227,346.7955591873276L266.02210558686727,342.1570689566943L276.73902951851187,332.61802129957607L287.45595345015647,327.2793767975599L298.172877381801,319.5849609452057L308.8898013134456,310.3245790554379L319.6067252450901,299.48411095524614L330.3236491767347,293.33426653281265L341.04057310837925,287.674180445209L351.75749704002385,285.7054612566614L362.4744209716684,277.0843588126988L373.191344903313,271.2194096457084L383.9082688349576,264.889178003556L394.62519276660214,262.4770398335397L405.34211669824674,262.1222403439715L416.0590406298913,257.261792782755L426.7759645615359,251.9393181562829L437.49288849318043,251.14781145628785L448.20981242482503,247.16217157777797L458.9267363564696,248.44906324700924L469.6436602881142,248.8816710523686L480.3605842197587,247.51046024753308L491.0775081514033,245.47162247688306L501.79443208304787,248.7028110619885L512.5113560146924,248.6783753925665L523.228279946337,253.64367930497056L533.9452038779816,250.3277964753005L544.6621278096262,248.24237820981477L555.3790517412707,250.88977668176088L566.0959756729153,257.30306816515036L576.8128996045599,245.8785085249561L587.5298235362045,255.67169250276257L598.246747467849,257.7905356559719L608.9636713994936,251.92304110675013L619.6805953311382,255.58284526613608L630.3975192627828,246.04563296357426L641.1144431944273,242.6859025757801L651.8313671260719,250.24003437530948L662.5482910577165,247.54120578553938L673.2652149893611,251.32306772129806L683.9821389210056,244.79579670093358L694.6990628526501,237.4245305196116L705.4159867842947,234.66619357261968" style="fill: none;" fill="none"></path></g></g></g></g></g></g><g transform="translate(30, 378)" clip-path="url(#clip_1)"><clipPath id="clip_1"><rect width="1081" height="22"></rect></clipPath><g><g><line x1="73.11747481726499" y1="0" x2="73.11747481726499" y2="5" style="visibility: inherit;" fill="rgb(0, 0, 0)" stroke="rgb(204, 204, 204)" stroke-width="1px"></line><line x1="180.28671413371072" y1="0" x2="180.28671413371072" y2="5" style="visibility: inherit;" fill="rgb(0, 0, 0)" stroke="rgb(204, 204, 204)" stroke-width="1px"></line><line x1="287.45595345015647" y1="0" x2="287.45595345015647" y2="5" style="visibility: inherit;" fill="rgb(0, 0, 0)" stroke="rgb(204, 204, 204)" stroke-width="1px"></line><line x1="394.62519276660214" y1="0" x2="394.62519276660214" y2="5" style="visibility: inherit;" fill="rgb(0, 0, 0)" stroke="rgb(204, 204, 204)" stroke-width="1px"></line><line x1="501.79443208304787" y1="0" x2="501.79443208304787" y2="5" style="visibility: inherit;" fill="rgb(0, 0, 0)" stroke="rgb(204, 204, 204)" stroke-width="1px"></line><line x1="608.9636713994936" y1="0" x2="608.9636713994936" y2="5" style="visibility: inherit;" fill="rgb(0, 0, 0)" stroke="rgb(204, 204, 204)" stroke-width="1px"></line><line x1="716.1329107159391" y1="0" x2="716.1329107159391" y2="5" style="visibility: inherit;" fill="rgb(0, 0, 0)" stroke="rgb(204, 204, 204)" stroke-width="1px"></line><line x1="823.3021500323849" y1="0" x2="823.3021500323849" y2="5" style="visibility: inherit;" fill="rgb(0, 0, 0)" stroke="rgb(204, 204, 204)" stroke-width="1px"></line><line x1="930.4713893488307" y1="0" x2="930.4713893488307" y2="5" style="visibility: inherit;" fill="rgb(0, 0, 0)" stroke="rgb(204, 204, 204)" stroke-width="1px"></line><line x1="1037.6406286652764" y1="0" x2="1037.6406286652764" y2="5" style="visibility: inherit;" fill="rgb(0, 0, 0)" stroke="rgb(204, 204, 204)" stroke-width="1px"></line></g><g transform="translate(0, 8)"><text x="73.11747481726499" y="0" dx="0em" dy="0.95em" style="text-anchor: middle; visibility: inherit; font-family: Roboto, sans-serif; font-size: 12px; font-weight: 200;" fill="rgb(50, 49, 63)" stroke="none" stroke-width="1px">-10</text><text x="180.28671413371072" y="0" dx="0em" dy="0.95em" style="text-anchor: middle; visibility: inherit; font-family: Roboto, sans-serif; font-size: 12px; font-weight: 200;" fill="rgb(50, 49, 63)" stroke="none" stroke-width="1px">0</text><text x="287.45595345015647" y="0" dx="0em" dy="0.95em" style="text-anchor: middle; visibility: inherit; font-family: Roboto, sans-serif; font-size: 12px; font-weight: 200;" fill="rgb(50, 49, 63)" stroke="none" stroke-width="1px">10</text><text x="394.62519276660214" y="0" dx="0em" dy="0.95em" style="text-anchor: middle; visibility: inherit; font-family: Roboto, sans-serif; font-size: 12px; font-weight: 200;" fill="rgb(50, 49, 63)" stroke="none" stroke-width="1px">20</text><text x="501.79443208304787" y="0" dx="0em" dy="0.95em" style="text-anchor: middle; visibility: inherit; font-family: Roboto, sans-serif; font-size: 12px; font-weight: 200;" fill="rgb(50, 49, 63)" stroke="none" stroke-width="1px">30</text><text x="608.9636713994936" y="0" dx="0em" dy="0.95em" style="text-anchor: middle; visibility: inherit; font-family: Roboto, sans-serif; font-size: 12px; font-weight: 200;" fill="rgb(50, 49, 63)" stroke="none" stroke-width="1px">40</text><text x="716.1329107159391" y="0" dx="0em" dy="0.95em" style="text-anchor: middle; visibility: inherit; font-family: Roboto, sans-serif; font-size: 12px; font-weight: 200;" fill="rgb(50, 49, 63)" stroke="none" stroke-width="1px">50</text><text x="823.3021500323849" y="0" dx="0em" dy="0.95em" style="text-anchor: middle; visibility: inherit; font-family: Roboto, sans-serif; font-size: 12px; font-weight: 200;" fill="rgb(50, 49, 63)" stroke="none" stroke-width="1px">60</text><text x="930.4713893488307" y="0" dx="0em" dy="0.95em" style="text-anchor: middle; visibility: inherit; font-family: Roboto, sans-serif; font-size: 12px; font-weight: 200;" fill="rgb(50, 49, 63)" stroke="none" stroke-width="1px">70</text><text x="1037.6406286652764" y="0" dx="0em" dy="0.95em" style="text-anchor: middle; visibility: inherit; font-family: Roboto, sans-serif; font-size: 12px; font-weight: 200;" fill="rgb(50, 49, 63)" stroke="none" stroke-width="1px">80</text></g><line x1="0" y1="0" x2="1081.41875" y2="0" fill="rgb(0, 0, 0)" stroke="rgb(204, 204, 204)" stroke-width="1px"></line></g></g></g></g></svg>