<svg viewBox="0 0 1112.2000732421875 400" xmlns="http://www.w3.org/2000/svg"><g><g><g><g><g><line x1="50" y1="369.7140415396476" x2="45" y2="369.7140415396476" style="visibility: inherit;" fill="rgb(0, 0, 0)" stroke="rgb(204, 204, 204)" stroke-width="1px"></line><line x1="50" y1="331.5302753555736" x2="45" y2="331.5302753555736" style="visibility: inherit;" fill="rgb(0, 0, 0)" stroke="rgb(204, 204, 204)" stroke-width="1px"></line><line x1="50" y1="293.3465091714996" x2="45" y2="293.3465091714996" style="visibility: inherit;" fill="rgb(0, 0, 0)" stroke="rgb(204, 204, 204)" stroke-width="1px"></line><line x1="50" y1="255.1627429874256" x2="45" y2="255.1627429874256" style="visibility: inherit;" fill="rgb(0, 0, 0)" stroke="rgb(204, 204, 204)" stroke-width="1px"></line><line x1="50" y1="216.97897680335166" x2="45" y2="216.97897680335166" style="visibility: inherit;" fill="rgb(0, 0, 0)" stroke="rgb(204, 204, 204)" stroke-width="1px"></line><line x1="50" y1="178.79521061927758" x2="45" y2="178.79521061927758" style="visibility: inherit;" fill="rgb(0, 0, 0)" stroke="rgb(204, 204, 204)" stroke-width="1px"></line><line x1="50" y1="140.61144443520362" x2="45" y2="140.61144443520362" style="visibility: inherit;" fill="rgb(0, 0, 0)" stroke="rgb(204, 204, 204)" stroke-width="1px"></line><line x1="50" y1="102.42767825112965" x2="45" y2="102.42767825112965" style="visibility: inherit;" fill="rgb(0, 0, 0)" stroke="rgb(204, 204, 204)" stroke-width="1px"></line><line x1="50" y1="64.24391206705562" x2="45" y2="64.24391206705562" style="visibility: inherit;" fill="rgb(0, 0, 0)" stroke="rgb(204, 204, 204)" stroke-width="1px"></line><line x1="50" y1="26.06014588298154" x2="45" y2="26.06014588298154" style="visibility: inherit;" fill="rgb(0, 0, 0)" stroke="rgb(204, 204, 204)" stroke-width="1px"></line></g><g transform="translate(40, 0)"><text x="0" y="369.7140415396476" dx="0em" dy="0.3em" style="text-anchor: end; visibility: inherit; font-family: Roboto, sans-serif; font-size: 12px; font-weight: 200;" fill="rgb(50, 49, 63)" stroke="none" stroke-width="1px">0.05</text><text x="0" y="331.5302753555736" dx="0em" dy="0.3em" style="text-anchor: end; visibility: inherit; font-family: Roboto, sans-serif; font-size: 12px; font-weight: 200;" fill="rgb(50, 49, 63)" stroke="none" stroke-width="1px">0.06</text><text x="0" y="293.3465091714996" dx="0em" dy="0.3em" style="text-anchor: end; visibility: inherit; font-family: Roboto, sans-serif; font-size: 12px; font-weight: 200;" fill="rgb(50, 49, 63)" stroke="none" stroke-width="1px">0.07</text><text x="0" y="255.1627429874256" dx="0em" dy="0.3em" style="text-anchor: end; visibility: inherit; font-family: Roboto, sans-serif; font-size: 12px; font-weight: 200;" fill="rgb(50, 49, 63)" stroke="none" stroke-width="1px">0.08</text><text x="0" y="216.97897680335166" dx="0em" dy="0.3em" style="text-anchor: end; visibility: inherit; font-family: Roboto, sans-serif; font-size: 12px; font-weight: 200;" fill="rgb(50, 49, 63)" stroke="none" stroke-width="1px">0.09</text><text x="0" y="178.79521061927758" dx="0em" dy="0.3em" style="text-anchor: end; visibility: inherit; font-family: Roboto, sans-serif; font-size: 12px; font-weight: 200;" fill="rgb(50, 49, 63)" stroke="none" stroke-width="1px">0.1</text><text x="0" y="140.61144443520362" dx="0em" dy="0.3em" style="text-anchor: end; visibility: inherit; font-family: Roboto, sans-serif; font-size: 12px; font-weight: 200;" fill="rgb(50, 49, 63)" stroke="none" stroke-width="1px">0.11</text><text x="0" y="102.42767825112965" dx="0em" dy="0.3em" style="text-anchor: end; visibility: inherit; font-family: Roboto, sans-serif; font-size: 12px; font-weight: 200;" fill="rgb(50, 49, 63)" stroke="none" stroke-width="1px">0.12</text><text x="0" y="64.24391206705562" dx="0em" dy="0.3em" style="text-anchor: end; visibility: inherit; font-family: Roboto, sans-serif; font-size: 12px; font-weight: 200;" fill="rgb(50, 49, 63)" stroke="none" stroke-width="1px">0.13</text><text x="0" y="26.06014588298154" dx="0em" dy="0.3em" style="text-anchor: end; visibility: inherit; font-family: Roboto, sans-serif; font-size: 12px; font-weight: 200;" fill="rgb(50, 49, 63)" stroke="none" stroke-width="1px">0.14</text></g><line x1="50" y1="0" x2="50" y2="378" fill="rgb(0, 0, 0)" stroke="rgb(204, 204, 204)" stroke-width="1px"></line></g></g><g transform="translate(50, 0)" clip-path="url(#clip_0)"><clipPath id="clip_0"><rect width="1062" height="378"></rect></clipPath><g><g><g><line x1="72.3729595422323" y1="0" x2="72.3729595422323" y2="378" fill="rgb(0, 0, 0)" stroke="rgb(60, 60, 60)" stroke-width="1px" opacity="0.25"></line><line x1="197.55443003829075" y1="0" x2="197.55443003829075" y2="378" fill="rgb(0, 0, 0)" stroke="rgb(60, 60, 60)" stroke-width="1px" opacity="0.25"></line><line x1="322.7359005343492" y1="0" x2="322.7359005343492" y2="378" fill="rgb(0, 0, 0)" stroke="rgb(60, 60, 60)" stroke-width="1px" opacity="0.25"></line><line x1="447.91737103040765" y1="0" x2="447.91737103040765" y2="378" fill="rgb(0, 0, 0)" stroke="rgb(60, 60, 60)" stroke-width="1px" opacity="0.25"></line><line x1="573.0988415264661" y1="0" x2="573.0988415264661" y2="378" fill="rgb(0, 0, 0)" stroke="rgb(60, 60, 60)" stroke-width="1px" opacity="0.25"></line><line x1="698.2803120225246" y1="0" x2="698.2803120225246" y2="378" fill="rgb(0, 0, 0)" stroke="rgb(60, 60, 60)" stroke-width="1px" opacity="0.25"></line><line x1="823.4617825185832" y1="0" x2="823.4617825185832" y2="378" fill="rgb(0, 0, 0)" stroke="rgb(60, 60, 60)" stroke-width="1px" opacity="0.25"></line><line x1="948.6432530146416" y1="0" x2="948.6432530146416" y2="378" fill="rgb(0, 0, 0)" stroke="rgb(60, 60, 60)" stroke-width="1px" opacity="0.25"></line></g><g><line x1="0" y1="369.7140415396476" x2="1062.2" y2="369.7140415396476" fill="rgb(0, 0, 0)" stroke="rgb(60, 60, 60)" stroke-width="1px" opacity="0.25"></line><line x1="0" y1="331.5302753555736" x2="1062.2" y2="331.5302753555736" fill="rgb(0, 0, 0)" stroke="rgb(60, 60, 60)" stroke-width="1px" opacity="0.25"></line><line x1="0" y1="293.3465091714996" x2="1062.2" y2="293.3465091714996" fill="rgb(0, 0, 0)" stroke="rgb(60, 60, 60)" stroke-width="1px" opacity="0.25"></line><line x1="0" y1="255.1627429874256" x2="1062.2" y2="255.1627429874256" fill="rgb(0, 0, 0)" stroke="rgb(60, 60, 60)" stroke-width="1px" opacity="0.25"></line><line x1="0" y1="216.97897680335166" x2="1062.2" y2="216.97897680335166" fill="rgb(0, 0, 0)" stroke="rgb(60, 60, 60)" stroke-width="1px" opacity="0.25"></line><line x1="0" y1="178.79521061927758" x2="1062.2" y2="178.79521061927758" fill="rgb(0, 0, 0)" stroke="rgb(60, 60, 60)" stroke-width="1px" opacity="0.25"></line><line x1="0" y1="140.61144443520362" x2="1062.2" y2="140.61144443520362" fill="rgb(0, 0, 0)" stroke="rgb(60, 60, 60)" stroke-width="1px" opacity="0.25"></line><line x1="0" y1="102.42767825112965" x2="1062.2" y2="102.42767825112965" fill="rgb(0, 0, 0)" stroke="rgb(60, 60, 60)" stroke-width="1px" opacity="0.25"></line><line x1="0" y1="64.24391206705562" x2="1062.2" y2="64.24391206705562" fill="rgb(0, 0, 0)" stroke="rgb(60, 60, 60)" stroke-width="1px" opacity="0.25"></line><line x1="0" y1="26.06014588298154" x2="1062.2" y2="26.06014588298154" fill="rgb(0, 0, 0)" stroke="rgb(60, 60, 60)" stroke-width="1px" opacity="0.25"></line></g></g></g><g><g><line x1="0" y1="560.6328724600176" x2="1062.2" y2="560.6328724600176" fill="rgb(0, 0, 0)" stroke="rgb(153, 153, 153)" stroke-width="1.5px"></line></g></g><g><g><line x1="197.55443003829075" y1="0" x2="197.55443003829075" y2="378" fill="rgb(0, 0, 0)" stroke="rgb(153, 153, 153)" stroke-width="1.5px"></line></g></g><g><g><g><g><g><path stroke="rgb(51, 187, 238)" stroke-width="2px" d="M197.55443003829075,332.04707301563735L210.07257708789658,360.8687654719578L222.59072413750243,289.3114836072639L235.10887118710826,233.6558104516833L247.62701823671412,188.93248083712683L260.1451652863199,304.21925066240846L272.6633123359258,131.2891243736088L285.1814593855317,235.6434937596207L297.69960643513747,167.0677653059557L310.21775348474335,239.6189172737411L322.7359005343492,187.93863918315813L335.25404758395507,305.21309231637713L347.77219463356084,250.55126081476527L360.29034168316673,310.18235748446625L372.80848873277256,270.4282930379989L385.32663578237845,168.0616069599244L397.8447828319843,267.44673962697004L410.3629298815901,259.495921047852L422.881076931196,307.2008040734373L435.3992239808018,272.4160047950591L447.91737103040765,285.3360600931435L460.4355180800135,338.01017983769515L472.95366512961937,353.9118027713698L485.4718121792252,381.7396393491602L497.989959228831,333.04092889416745L510.5081062784369,313.1639108954951L523.0262533280428,228.68654528359414L535.5444003776486,284.34221843917476L548.0625474272545,329.0655196046084L560.5806944768602,348.9425518278421L573.0988415264661,304.21925066240846L585.616988576072,315.1515942034326L598.1351356256779,350.9302493603409L610.6532826752837,339.0040357162253L623.1714297248894,311.176199138435L635.6895767744953,318.1331476144615L648.2077238241012,330.0593754831385L660.7258708737071,318.1331476144615L673.2440179233129,374.78267664857225L685.7621649729188,321.11470102549043L698.2803120225246,339.0040357162253L710.7984590721304,355.89951452843L723.3166061217362,312.1700407924037L735.8347531713421,295.2745904293217L748.352900220948,352.9179611174011L760.8710472705538,314.1577525494639L773.3891943201597,339.0040357162253L785.9073413697655,361.86262135048787L798.4254884193714,354.9056586498999L810.9436354689773,339.0040357162253" style="fill: none;" fill="none"></path></g><g><path stroke="rgb(204, 51, 17)" stroke-width="2px" d="M197.55443003829075,157.19304635209423L210.07257708789658,3.5016962177474116L222.59072413750243,209.70423797068614L235.10887118710826,183.23517416887418L247.62701823671412,152.06998522644642L260.1451652863199,211.8388609976008L272.6633123359258,217.38882965915784L285.1814593855317,222.51186233568285L297.69960643513747,239.58867585626328L310.21775348474335,261.78855050249155L322.7359005343492,266.05773965807526L335.25404758395507,276.3038334602481L347.77219463356084,286.12301972651164L360.29034168316673,292.9537394449193L372.80848873277256,311.311332471473L385.32663578237845,302.3459897261508L397.8447828319843,312.16517599241433L410.3629298815901,296.36911352868447L422.881076931196,323.69202085143775L435.3992239808018,313.8728345851742L447.91737103040765,325.3996936687589L460.4355180800135,316.4343651479981L472.95366512961937,327.1073807106415L485.4718121792252,339.9149908510769L497.989959228831,339.4880690906062L510.5081062784369,336.0727092314024L523.0262533280428,340.76883437201815L535.5444003776486,340.3419126115475L548.0625474272545,346.3188030335752L560.5806944768602,327.1073807106415L573.0988415264661,345.89188127310456L585.616988576072,341.19575613248884L598.1351356256779,336.49963099187306L610.6532826752837,345.89188127310456L623.1714297248894,349.3072411323084L635.6895767744953,361.6879437368344L648.2077238241012,343.3303507102807L660.7258708737071,326.6804589501709L673.2440179233129,336.49963099187306L685.7621649729188,349.3072411323084L698.2803120225246,369.799428736654L710.7984590721304,351.44184993466166L723.3166061217362,365.5302253565089L735.8347531713421,360.40717845542247L748.352900220948,370.22635049712466L760.8710472705538,372.7878668353872L773.3891943201597,371.080194018066L785.9073413697655,356.1379750752774L798.4254884193714,368.51866345524206L810.9436354689773,369.3725069761834" style="fill: none;" fill="none"></path></g></g></g></g></g></g><g transform="translate(50, 378)" clip-path="url(#clip_1)"><clipPath id="clip_1"><rect width="1062" height="22"></rect></clipPath><g><g><line x1="72.3729595422323" y1="0" x2="72.3729595422323" y2="5" style="visibility: inherit;" fill="rgb(0, 0, 0)" stroke="rgb(204, 204, 204)" stroke-width="1px"></line><line x1="197.55443003829075" y1="0" x2="197.55443003829075" y2="5" style="visibility: inherit;" fill="rgb(0, 0, 0)" stroke="rgb(204, 204, 204)" stroke-width="1px"></line><line x1="322.7359005343492" y1="0" x2="322.7359005343492" y2="5" style="visibility: inherit;" fill="rgb(0, 0, 0)" stroke="rgb(204, 204, 204)" stroke-width="1px"></line><line x1="447.91737103040765" y1="0" x2="447.91737103040765" y2="5" style="visibility: inherit;" fill="rgb(0, 0, 0)" stroke="rgb(204, 204, 204)" stroke-width="1px"></line><line x1="573.0988415264661" y1="0" x2="573.0988415264661" y2="5" style="visibility: inherit;" fill="rgb(0, 0, 0)" stroke="rgb(204, 204, 204)" stroke-width="1px"></line><line x1="698.2803120225246" y1="0" x2="698.2803120225246" y2="5" style="visibility: inherit;" fill="rgb(0, 0, 0)" stroke="rgb(204, 204, 204)" stroke-width="1px"></line><line x1="823.4617825185832" y1="0" x2="823.4617825185832" y2="5" style="visibility: inherit;" fill="rgb(0, 0, 0)" stroke="rgb(204, 204, 204)" stroke-width="1px"></line><line x1="948.6432530146416" y1="0" x2="948.6432530146416" y2="5" style="visibility: inherit;" fill="rgb(0, 0, 0)" stroke="rgb(204, 204, 204)" stroke-width="1px"></line></g><g transform="translate(0, 8)"><text x="72.3729595422323" y="0" dx="0em" dy="0.95em" style="text-anchor: middle; visibility: inherit; font-family: Roboto, sans-serif; font-size: 12px; font-weight: 200;" fill="rgb(50, 49, 63)" stroke="none" stroke-width="1px">-10</text><text x="197.55443003829075" y="0" dx="0em" dy="0.95em" style="text-anchor: middle; visibility: inherit; font-family: Roboto, sans-serif; font-size: 12px; font-weight: 200;" fill="rgb(50, 49, 63)" stroke="none" stroke-width="1px">0</text><text x="322.7359005343492" y="0" dx="0em" dy="0.95em" style="text-anchor: middle; visibility: inherit; font-family: Roboto, sans-serif; font-size: 12px; font-weight: 200;" fill="rgb(50, 49, 63)" stroke="none" stroke-width="1px">10</text><text x="447.91737103040765" y="0" dx="0em" dy="0.95em" style="text-anchor: middle; visibility: inherit; font-family: Roboto, sans-serif; font-size: 12px; font-weight: 200;" fill="rgb(50, 49, 63)" stroke="none" stroke-width="1px">20</text><text x="573.0988415264661" y="0" dx="0em" dy="0.95em" style="text-anchor: middle; visibility: inherit; font-family: Roboto, sans-serif; font-size: 12px; font-weight: 200;" fill="rgb(50, 49, 63)" stroke="none" stroke-width="1px">30</text><text x="698.2803120225246" y="0" dx="0em" dy="0.95em" style="text-anchor: middle; visibility: inherit; font-family: Roboto, sans-serif; font-size: 12px; font-weight: 200;" fill="rgb(50, 49, 63)" stroke="none" stroke-width="1px">40</text><text x="823.4617825185832" y="0" dx="0em" dy="0.95em" style="text-anchor: middle; visibility: inherit; font-family: Roboto, sans-serif; font-size: 12px; font-weight: 200;" fill="rgb(50, 49, 63)" stroke="none" stroke-width="1px">50</text><text x="948.6432530146416" y="0" dx="0em" dy="0.95em" style="text-anchor: middle; visibility: inherit; font-family: Roboto, sans-serif; font-size: 12px; font-weight: 200;" fill="rgb(50, 49, 63)" stroke="none" stroke-width="1px">60</text></g><line x1="0" y1="0" x2="1062.2" y2="0" fill="rgb(0, 0, 0)" stroke="rgb(204, 204, 204)" stroke-width="1px"></line></g></g></g></g></svg>