<svg viewBox="0 0 330 200" xmlns="http://www.w3.org/2000/svg"><g><g><g><g><g><line x1="40" y1="174.01729134464443" x2="35" y2="174.01729134464443" style="visibility: inherit;" fill="rgb(0, 0, 0)" stroke="rgb(204, 204, 204)" stroke-width="1px"></line><line x1="40" y1="156.03657605161501" x2="35" y2="156.03657605161501" style="visibility: inherit;" fill="rgb(0, 0, 0)" stroke="rgb(204, 204, 204)" stroke-width="1px"></line><line x1="40" y1="138.0558607585856" x2="35" y2="138.0558607585856" style="visibility: inherit;" fill="rgb(0, 0, 0)" stroke="rgb(204, 204, 204)" stroke-width="1px"></line><line x1="40" y1="120.07514546555616" x2="35" y2="120.07514546555616" style="visibility: inherit;" fill="rgb(0, 0, 0)" stroke="rgb(204, 204, 204)" stroke-width="1px"></line><line x1="40" y1="102.09443017252673" x2="35" y2="102.09443017252673" style="visibility: inherit;" fill="rgb(0, 0, 0)" stroke="rgb(204, 204, 204)" stroke-width="1px"></line><line x1="40" y1="84.11371487949732" x2="35" y2="84.11371487949732" style="visibility: inherit;" fill="rgb(0, 0, 0)" stroke="rgb(204, 204, 204)" stroke-width="1px"></line><line x1="40" y1="66.1329995864679" x2="35" y2="66.1329995864679" style="visibility: inherit;" fill="rgb(0, 0, 0)" stroke="rgb(204, 204, 204)" stroke-width="1px"></line><line x1="40" y1="48.15228429343848" x2="35" y2="48.15228429343848" style="visibility: inherit;" fill="rgb(0, 0, 0)" stroke="rgb(204, 204, 204)" stroke-width="1px"></line><line x1="40" y1="30.17156900040906" x2="35" y2="30.17156900040906" style="visibility: inherit;" fill="rgb(0, 0, 0)" stroke="rgb(204, 204, 204)" stroke-width="1px"></line><line x1="40" y1="12.19085370737965" x2="35" y2="12.19085370737965" style="visibility: inherit;" fill="rgb(0, 0, 0)" stroke="rgb(204, 204, 204)" stroke-width="1px"></line></g><g transform="translate(30, 0)"><text x="0" y="174.01729134464443" dx="0em" dy="0.3em" style="text-anchor: end; visibility: hidden; font-family: Roboto, sans-serif; font-size: 12px; font-weight: 200;" fill="rgb(50, 49, 63)" stroke="none" stroke-width="1px">0</text><text x="0" y="156.03657605161501" dx="0em" dy="0.3em" style="text-anchor: end; visibility: inherit; font-family: Roboto, sans-serif; font-size: 12px; font-weight: 200;" fill="rgb(50, 49, 63)" stroke="none" stroke-width="1px">0.5</text><text x="0" y="138.0558607585856" dx="0em" dy="0.3em" style="text-anchor: end; visibility: hidden; font-family: Roboto, sans-serif; font-size: 12px; font-weight: 200;" fill="rgb(50, 49, 63)" stroke="none" stroke-width="1px">1</text><text x="0" y="120.07514546555616" dx="0em" dy="0.3em" style="text-anchor: end; visibility: inherit; font-family: Roboto, sans-serif; font-size: 12px; font-weight: 200;" fill="rgb(50, 49, 63)" stroke="none" stroke-width="1px">1.5</text><text x="0" y="102.09443017252673" dx="0em" dy="0.3em" style="text-anchor: end; visibility: hidden; font-family: Roboto, sans-serif; font-size: 12px; font-weight: 200;" fill="rgb(50, 49, 63)" stroke="none" stroke-width="1px">2</text><text x="0" y="84.11371487949732" dx="0em" dy="0.3em" style="text-anchor: end; visibility: inherit; font-family: Roboto, sans-serif; font-size: 12px; font-weight: 200;" fill="rgb(50, 49, 63)" stroke="none" stroke-width="1px">2.5</text><text x="0" y="66.1329995864679" dx="0em" dy="0.3em" style="text-anchor: end; visibility: hidden; font-family: Roboto, sans-serif; font-size: 12px; font-weight: 200;" fill="rgb(50, 49, 63)" stroke="none" stroke-width="1px">3</text><text x="0" y="48.15228429343848" dx="0em" dy="0.3em" style="text-anchor: end; visibility: inherit; font-family: Roboto, sans-serif; font-size: 12px; font-weight: 200;" fill="rgb(50, 49, 63)" stroke="none" stroke-width="1px">3.5</text><text x="0" y="30.17156900040906" dx="0em" dy="0.3em" style="text-anchor: end; visibility: hidden; font-family: Roboto, sans-serif; font-size: 12px; font-weight: 200;" fill="rgb(50, 49, 63)" stroke="none" stroke-width="1px">4</text><text x="0" y="12.19085370737965" dx="0em" dy="0.3em" style="text-anchor: end; visibility: inherit; font-family: Roboto, sans-serif; font-size: 12px; font-weight: 200;" fill="rgb(50, 49, 63)" stroke="none" stroke-width="1px">4.5</text></g><line x1="40" y1="0" x2="40" y2="178" fill="rgb(0, 0, 0)" stroke="rgb(204, 204, 204)" stroke-width="1px"></line></g></g><g transform="translate(40, 0)" clip-path="url(#clip_0)"><clipPath id="clip_0"><rect width="290" height="178"></rect></clipPath><g><g><g><line x1="19.525276798600885" y1="0" x2="19.525276798600885" y2="178" fill="rgb(0, 0, 0)" stroke="rgb(60, 60, 60)" stroke-width="1px" opacity="0.25"></line><line x1="53.702104555950726" y1="0" x2="53.702104555950726" y2="178" fill="rgb(0, 0, 0)" stroke="rgb(60, 60, 60)" stroke-width="1px" opacity="0.25"></line><line x1="87.87893231330057" y1="0" x2="87.87893231330057" y2="178" fill="rgb(0, 0, 0)" stroke="rgb(60, 60, 60)" stroke-width="1px" opacity="0.25"></line><line x1="122.05576007065041" y1="0" x2="122.05576007065041" y2="178" fill="rgb(0, 0, 0)" stroke="rgb(60, 60, 60)" stroke-width="1px" opacity="0.25"></line><line x1="156.23258782800025" y1="0" x2="156.23258782800025" y2="178" fill="rgb(0, 0, 0)" stroke="rgb(60, 60, 60)" stroke-width="1px" opacity="0.25"></line><line x1="190.4094155853501" y1="0" x2="190.4094155853501" y2="178" fill="rgb(0, 0, 0)" stroke="rgb(60, 60, 60)" stroke-width="1px" opacity="0.25"></line><line x1="224.58624334269996" y1="0" x2="224.58624334269996" y2="178" fill="rgb(0, 0, 0)" stroke="rgb(60, 60, 60)" stroke-width="1px" opacity="0.25"></line><line x1="258.7630711000498" y1="0" x2="258.7630711000498" y2="178" fill="rgb(0, 0, 0)" stroke="rgb(60, 60, 60)" stroke-width="1px" opacity="0.25"></line></g><g><line x1="0" y1="174.01729134464443" x2="290" y2="174.01729134464443" fill="rgb(0, 0, 0)" stroke="rgb(60, 60, 60)" stroke-width="1px" opacity="0.25"></line><line x1="0" y1="156.03657605161501" x2="290" y2="156.03657605161501" fill="rgb(0, 0, 0)" stroke="rgb(60, 60, 60)" stroke-width="1px" opacity="0.25"></line><line x1="0" y1="138.0558607585856" x2="290" y2="138.0558607585856" fill="rgb(0, 0, 0)" stroke="rgb(60, 60, 60)" stroke-width="1px" opacity="0.25"></line><line x1="0" y1="120.07514546555616" x2="290" y2="120.07514546555616" fill="rgb(0, 0, 0)" stroke="rgb(60, 60, 60)" stroke-width="1px" opacity="0.25"></line><line x1="0" y1="102.09443017252673" x2="290" y2="102.09443017252673" fill="rgb(0, 0, 0)" stroke="rgb(60, 60, 60)" stroke-width="1px" opacity="0.25"></line><line x1="0" y1="84.11371487949732" x2="290" y2="84.11371487949732" fill="rgb(0, 0, 0)" stroke="rgb(60, 60, 60)" stroke-width="1px" opacity="0.25"></line><line x1="0" y1="66.1329995864679" x2="290" y2="66.1329995864679" fill="rgb(0, 0, 0)" stroke="rgb(60, 60, 60)" stroke-width="1px" opacity="0.25"></line><line x1="0" y1="48.15228429343848" x2="290" y2="48.15228429343848" fill="rgb(0, 0, 0)" stroke="rgb(60, 60, 60)" stroke-width="1px" opacity="0.25"></line><line x1="0" y1="30.17156900040906" x2="290" y2="30.17156900040906" fill="rgb(0, 0, 0)" stroke="rgb(60, 60, 60)" stroke-width="1px" opacity="0.25"></line><line x1="0" y1="12.19085370737965" x2="290" y2="12.19085370737965" fill="rgb(0, 0, 0)" stroke="rgb(60, 60, 60)" stroke-width="1px" opacity="0.25"></line></g></g></g><g><g><line x1="0" y1="174.01729134464443" x2="290" y2="174.01729134464443" fill="rgb(0, 0, 0)" stroke="rgb(153, 153, 153)" stroke-width="1.5px"></line></g></g><g><g><line x1="53.702104555950726" y1="0" x2="53.702104555950726" y2="178" fill="rgb(0, 0, 0)" stroke="rgb(153, 153, 153)" stroke-width="1.5px"></line></g></g><g><g><g><g><g><path stroke="rgb(0, 153, 136)" stroke-width="2px" d="M53.702104555950726,126.131995271946L57.119787331685714,125.69020073458331L60.537470107420695,120.50389056793465L63.95515288315568,92.81424131694106L67.37283565889066,90.96092146362288L70.79051843462564,86.93425336656577L74.20820121036063,88.42506128784252L77.6258839860956,75.266626653867L81.04356676183059,92.0740674189442L84.46124953756559,92.82627046101652L87.87893231330057,82.65696238250261L91.29661508903556,98.72789886730519L94.71429786477054,101.49252712734868L98.13198064050552,103.69047381324901L101.5496634162405,103.98430473415975L104.9673461919755,103.99541647380465L108.38502896771047,104.66283677090898L111.80271174344546,107.79518559095246L115.22039451918045,107.10947293541265L118.63807729491542,59.57023124518132L122.05576007065041,6.26344366443035L125.4734428463854,115.08535275919358L128.89112562212037,111.40232121236598L132.30880839785536,103.32255176722923L135.72649117359035,124.20571604477888L139.14417394932534,127.27109005445502L142.56185672506032,127.86997080933617L145.9795395007953,128.69331556414267L149.3972222765303,129.31294509212614L152.8149050522653,129.22665334547796L156.23258782800025,129.9304868819896L159.65027060373524,131.07918440246334L163.06795337947023,132.32023968486206L166.4856361552052,132.77681986652846L169.9033189309402,134.0163189909445L173.3210017066752,122.44436812909244L176.73868448241018,120.56310173613497L180.15636725814514,123.74299268297702L183.57405003388013,139.20989122817903L186.99173280961512,141.0585254598028L190.4094155853501,144.07344222579826L193.8270983610851,144.3517222842237L197.24478113682008,145.91980009409204L200.66246391255504,124.0329610740189L204.08014668829003,141.15978075862324L207.49782946402502,146.30595233796672L210.91551223976,147.6838616406408L214.333195015495,148.2642849900277L217.75087779122998,149.68589961125102L221.16856056696497,150.33671874640518" style="fill: none;" fill="none"></path></g><g><path stroke="rgb(238, 51, 119)" stroke-width="2px" d="M53.702104555950726,135.5165838943419L57.119787331685714,150.1159950986558L60.537470107420695,155.15585493746931L63.95515288315568,155.96137460992878L67.37283565889066,155.13534194587947L70.79051843462564,153.29775729332L74.20820121036063,152.45711046243062L77.6258839860956,150.50387069104025L81.04356676183059,148.66765357125342L84.46124953756559,150.3400539830733L87.87893231330057,149.66940347924736L91.29661508903556,148.7882965408084L94.71429786477054,147.76944604275138L98.13198064050552,149.95458550558496L101.5496634162405,150.22901375148302L104.9673461919755,150.55273319430896L108.38502896771047,150.76536739271037L111.80271174344546,151.5775468211646L115.22039451918045,151.77781535096813L118.63807729491542,151.4909699932331L122.05576007065041,148.12602271108204L125.4734428463854,145.96602613135704L128.89112562212037,147.75182030295588L132.30880839785536,147.96292406499416L135.72649117359035,148.75265709345587L139.14417394932534,150.13125444945285L142.56185672506032,150.92781442443635L145.9795395007953,151.91749231898893L149.3972222765303,152.25128391933634L152.8149050522653,152.66964820475874L156.23258782800025,153.42209774568508L159.65027060373524,153.90394513162116L163.06795337947023,154.29027313989607L166.4856361552052,154.83096301748563L169.9033189309402,155.75956706988893L173.3210017066752,155.58569963908346L176.73868448241018,152.62089501837312L180.15636725814514,146.54510123918593L183.57405003388013,148.53099889352956L186.99173280961512,151.40147376148286L190.4094155853501,151.23091798919427L193.8270983610851,152.86567695427343L197.24478113682008,153.73388878744544L200.66246391255504,150.4146252450806L204.08014668829003,150.80170132379072L207.49782946402502,153.210031566382L210.91551223976,153.77274343724156L214.333195015495,154.56890901405862L217.75087779122998,155.08474323329125L221.16856056696497,155.81733139698966" style="fill: none;" fill="none"></path></g></g></g></g></g></g><g transform="translate(40, 178)" clip-path="url(#clip_1)"><clipPath id="clip_1"><rect width="290" height="22"></rect></clipPath><g><g><line x1="19.525276798600885" y1="0" x2="19.525276798600885" y2="5" style="visibility: inherit;" fill="rgb(0, 0, 0)" stroke="rgb(204, 204, 204)" stroke-width="1px"></line><line x1="53.702104555950726" y1="0" x2="53.702104555950726" y2="5" style="visibility: inherit;" fill="rgb(0, 0, 0)" stroke="rgb(204, 204, 204)" stroke-width="1px"></line><line x1="87.87893231330057" y1="0" x2="87.87893231330057" y2="5" style="visibility: inherit;" fill="rgb(0, 0, 0)" stroke="rgb(204, 204, 204)" stroke-width="1px"></line><line x1="122.05576007065041" y1="0" x2="122.05576007065041" y2="5" style="visibility: inherit;" fill="rgb(0, 0, 0)" stroke="rgb(204, 204, 204)" stroke-width="1px"></line><line x1="156.23258782800025" y1="0" x2="156.23258782800025" y2="5" style="visibility: inherit;" fill="rgb(0, 0, 0)" stroke="rgb(204, 204, 204)" stroke-width="1px"></line><line x1="190.4094155853501" y1="0" x2="190.4094155853501" y2="5" style="visibility: inherit;" fill="rgb(0, 0, 0)" stroke="rgb(204, 204, 204)" stroke-width="1px"></line><line x1="224.58624334269996" y1="0" x2="224.58624334269996" y2="5" style="visibility: inherit;" fill="rgb(0, 0, 0)" stroke="rgb(204, 204, 204)" stroke-width="1px"></line><line x1="258.7630711000498" y1="0" x2="258.7630711000498" y2="5" style="visibility: inherit;" fill="rgb(0, 0, 0)" stroke="rgb(204, 204, 204)" stroke-width="1px"></line></g><g transform="translate(0, 8)"><text x="19.525276798600885" y="0" dx="0em" dy="0.95em" style="text-anchor: middle; visibility: inherit; font-family: Roboto, sans-serif; font-size: 12px; font-weight: 200;" fill="rgb(50, 49, 63)" stroke="none" stroke-width="1px">-10</text><text x="53.702104555950726" y="0" dx="0em" dy="0.95em" style="text-anchor: middle; visibility: inherit; font-family: Roboto, sans-serif; font-size: 12px; font-weight: 200;" fill="rgb(50, 49, 63)" stroke="none" stroke-width="1px">0</text><text x="87.87893231330057" y="0" dx="0em" dy="0.95em" style="text-anchor: middle; visibility: inherit; font-family: Roboto, sans-serif; font-size: 12px; font-weight: 200;" fill="rgb(50, 49, 63)" stroke="none" stroke-width="1px">10</text><text x="122.05576007065041" y="0" dx="0em" dy="0.95em" style="text-anchor: middle; visibility: inherit; font-family: Roboto, sans-serif; font-size: 12px; font-weight: 200;" fill="rgb(50, 49, 63)" stroke="none" stroke-width="1px">20</text><text x="156.23258782800025" y="0" dx="0em" dy="0.95em" style="text-anchor: middle; visibility: inherit; font-family: Roboto, sans-serif; font-size: 12px; font-weight: 200;" fill="rgb(50, 49, 63)" stroke="none" stroke-width="1px">30</text><text x="190.4094155853501" y="0" dx="0em" dy="0.95em" style="text-anchor: middle; visibility: inherit; font-family: Roboto, sans-serif; font-size: 12px; font-weight: 200;" fill="rgb(50, 49, 63)" stroke="none" stroke-width="1px">40</text><text x="224.58624334269996" y="0" dx="0em" dy="0.95em" style="text-anchor: middle; visibility: inherit; font-family: Roboto, sans-serif; font-size: 12px; font-weight: 200;" fill="rgb(50, 49, 63)" stroke="none" stroke-width="1px">50</text><text x="258.7630711000498" y="0" dx="0em" dy="0.95em" style="text-anchor: middle; visibility: inherit; font-family: Roboto, sans-serif; font-size: 12px; font-weight: 200;" fill="rgb(50, 49, 63)" stroke="none" stroke-width="1px">60</text></g><line x1="0" y1="0" x2="290" y2="0" fill="rgb(0, 0, 0)" stroke="rgb(204, 204, 204)" stroke-width="1px"></line></g></g></g></g></svg>