<svg viewBox="0 0 1112.2000732421875 400" xmlns="http://www.w3.org/2000/svg"><g><g><g><g><g><line x1="40" y1="377.5491600584072" x2="35" y2="377.5491600584072" style="visibility: inherit;" fill="rgb(0, 0, 0)" stroke="rgb(204, 204, 204)" stroke-width="1px"></line><line x1="40" y1="336.6836791974047" x2="35" y2="336.6836791974047" style="visibility: inherit;" fill="rgb(0, 0, 0)" stroke="rgb(204, 204, 204)" stroke-width="1px"></line><line x1="40" y1="295.818198336402" x2="35" y2="295.818198336402" style="visibility: inherit;" fill="rgb(0, 0, 0)" stroke="rgb(204, 204, 204)" stroke-width="1px"></line><line x1="40" y1="254.95271747539945" x2="35" y2="254.95271747539945" style="visibility: inherit;" fill="rgb(0, 0, 0)" stroke="rgb(204, 204, 204)" stroke-width="1px"></line><line x1="40" y1="214.08723661439683" x2="35" y2="214.08723661439683" style="visibility: inherit;" fill="rgb(0, 0, 0)" stroke="rgb(204, 204, 204)" stroke-width="1px"></line><line x1="40" y1="173.22175575339423" x2="35" y2="173.22175575339423" style="visibility: inherit;" fill="rgb(0, 0, 0)" stroke="rgb(204, 204, 204)" stroke-width="1px"></line><line x1="40" y1="132.35627489239164" x2="35" y2="132.35627489239164" style="visibility: inherit;" fill="rgb(0, 0, 0)" stroke="rgb(204, 204, 204)" stroke-width="1px"></line><line x1="40" y1="91.49079403138906" x2="35" y2="91.49079403138906" style="visibility: inherit;" fill="rgb(0, 0, 0)" stroke="rgb(204, 204, 204)" stroke-width="1px"></line><line x1="40" y1="50.62531317038646" x2="35" y2="50.62531317038646" style="visibility: inherit;" fill="rgb(0, 0, 0)" stroke="rgb(204, 204, 204)" stroke-width="1px"></line><line x1="40" y1="9.759832309383873" x2="35" y2="9.759832309383873" style="visibility: inherit;" fill="rgb(0, 0, 0)" stroke="rgb(204, 204, 204)" stroke-width="1px"></line></g><g transform="translate(30, 0)"><text x="0" y="377.5491600584072" dx="0em" dy="0.3em" style="text-anchor: end; visibility: hidden; font-family: Roboto, sans-serif; font-size: 12px; font-weight: 200;" fill="rgb(50, 49, 63)" stroke="none" stroke-width="1px">0</text><text x="0" y="336.6836791974047" dx="0em" dy="0.3em" style="text-anchor: end; visibility: inherit; font-family: Roboto, sans-serif; font-size: 12px; font-weight: 200;" fill="rgb(50, 49, 63)" stroke="none" stroke-width="1px">0.5</text><text x="0" y="295.818198336402" dx="0em" dy="0.3em" style="text-anchor: end; visibility: inherit; font-family: Roboto, sans-serif; font-size: 12px; font-weight: 200;" fill="rgb(50, 49, 63)" stroke="none" stroke-width="1px">1</text><text x="0" y="254.95271747539945" dx="0em" dy="0.3em" style="text-anchor: end; visibility: inherit; font-family: Roboto, sans-serif; font-size: 12px; font-weight: 200;" fill="rgb(50, 49, 63)" stroke="none" stroke-width="1px">1.5</text><text x="0" y="214.08723661439683" dx="0em" dy="0.3em" style="text-anchor: end; visibility: inherit; font-family: Roboto, sans-serif; font-size: 12px; font-weight: 200;" fill="rgb(50, 49, 63)" stroke="none" stroke-width="1px">2</text><text x="0" y="173.22175575339423" dx="0em" dy="0.3em" style="text-anchor: end; visibility: inherit; font-family: Roboto, sans-serif; font-size: 12px; font-weight: 200;" fill="rgb(50, 49, 63)" stroke="none" stroke-width="1px">2.5</text><text x="0" y="132.35627489239164" dx="0em" dy="0.3em" style="text-anchor: end; visibility: inherit; font-family: Roboto, sans-serif; font-size: 12px; font-weight: 200;" fill="rgb(50, 49, 63)" stroke="none" stroke-width="1px">3</text><text x="0" y="91.49079403138906" dx="0em" dy="0.3em" style="text-anchor: end; visibility: inherit; font-family: Roboto, sans-serif; font-size: 12px; font-weight: 200;" fill="rgb(50, 49, 63)" stroke="none" stroke-width="1px">3.5</text><text x="0" y="50.62531317038646" dx="0em" dy="0.3em" style="text-anchor: end; visibility: inherit; font-family: Roboto, sans-serif; font-size: 12px; font-weight: 200;" fill="rgb(50, 49, 63)" stroke="none" stroke-width="1px">4</text><text x="0" y="9.759832309383873" dx="0em" dy="0.3em" style="text-anchor: end; visibility: inherit; font-family: Roboto, sans-serif; font-size: 12px; font-weight: 200;" fill="rgb(50, 49, 63)" stroke="none" stroke-width="1px">4.5</text></g><line x1="40" y1="0" x2="40" y2="378" fill="rgb(0, 0, 0)" stroke="rgb(204, 204, 204)" stroke-width="1px"></line></g></g><g transform="translate(40, 0)" clip-path="url(#clip_0)"><clipPath id="clip_0"><rect width="1072" height="378"></rect></clipPath><g><g><g><line x1="88.7508342137103" y1="0" x2="88.7508342137103" y2="378" fill="rgb(0, 0, 0)" stroke="rgb(60, 60, 60)" stroke-width="1px" opacity="0.25"></line><line x1="195.00648993920342" y1="0" x2="195.00648993920342" y2="378" fill="rgb(0, 0, 0)" stroke="rgb(60, 60, 60)" stroke-width="1px" opacity="0.25"></line><line x1="301.26214566469656" y1="0" x2="301.26214566469656" y2="378" fill="rgb(0, 0, 0)" stroke="rgb(60, 60, 60)" stroke-width="1px" opacity="0.25"></line><line x1="407.5178013901896" y1="0" x2="407.5178013901896" y2="378" fill="rgb(0, 0, 0)" stroke="rgb(60, 60, 60)" stroke-width="1px" opacity="0.25"></line><line x1="513.7734571156827" y1="0" x2="513.7734571156827" y2="378" fill="rgb(0, 0, 0)" stroke="rgb(60, 60, 60)" stroke-width="1px" opacity="0.25"></line><line x1="620.0291128411759" y1="0" x2="620.0291128411759" y2="378" fill="rgb(0, 0, 0)" stroke="rgb(60, 60, 60)" stroke-width="1px" opacity="0.25"></line><line x1="726.284768566669" y1="0" x2="726.284768566669" y2="378" fill="rgb(0, 0, 0)" stroke="rgb(60, 60, 60)" stroke-width="1px" opacity="0.25"></line><line x1="832.5404242921621" y1="0" x2="832.5404242921621" y2="378" fill="rgb(0, 0, 0)" stroke="rgb(60, 60, 60)" stroke-width="1px" opacity="0.25"></line><line x1="938.7960800176553" y1="0" x2="938.7960800176553" y2="378" fill="rgb(0, 0, 0)" stroke="rgb(60, 60, 60)" stroke-width="1px" opacity="0.25"></line><line x1="1045.0517357431484" y1="0" x2="1045.0517357431484" y2="378" fill="rgb(0, 0, 0)" stroke="rgb(60, 60, 60)" stroke-width="1px" opacity="0.25"></line></g><g><line x1="0" y1="377.5491600584072" x2="1072.2" y2="377.5491600584072" fill="rgb(0, 0, 0)" stroke="rgb(60, 60, 60)" stroke-width="1px" opacity="0.25"></line><line x1="0" y1="336.6836791974047" x2="1072.2" y2="336.6836791974047" fill="rgb(0, 0, 0)" stroke="rgb(60, 60, 60)" stroke-width="1px" opacity="0.25"></line><line x1="0" y1="295.818198336402" x2="1072.2" y2="295.818198336402" fill="rgb(0, 0, 0)" stroke="rgb(60, 60, 60)" stroke-width="1px" opacity="0.25"></line><line x1="0" y1="254.95271747539945" x2="1072.2" y2="254.95271747539945" fill="rgb(0, 0, 0)" stroke="rgb(60, 60, 60)" stroke-width="1px" opacity="0.25"></line><line x1="0" y1="214.08723661439683" x2="1072.2" y2="214.08723661439683" fill="rgb(0, 0, 0)" stroke="rgb(60, 60, 60)" stroke-width="1px" opacity="0.25"></line><line x1="0" y1="173.22175575339423" x2="1072.2" y2="173.22175575339423" fill="rgb(0, 0, 0)" stroke="rgb(60, 60, 60)" stroke-width="1px" opacity="0.25"></line><line x1="0" y1="132.35627489239164" x2="1072.2" y2="132.35627489239164" fill="rgb(0, 0, 0)" stroke="rgb(60, 60, 60)" stroke-width="1px" opacity="0.25"></line><line x1="0" y1="91.49079403138906" x2="1072.2" y2="91.49079403138906" fill="rgb(0, 0, 0)" stroke="rgb(60, 60, 60)" stroke-width="1px" opacity="0.25"></line><line x1="0" y1="50.62531317038646" x2="1072.2" y2="50.62531317038646" fill="rgb(0, 0, 0)" stroke="rgb(60, 60, 60)" stroke-width="1px" opacity="0.25"></line><line x1="0" y1="9.759832309383873" x2="1072.2" y2="9.759832309383873" fill="rgb(0, 0, 0)" stroke="rgb(60, 60, 60)" stroke-width="1px" opacity="0.25"></line></g></g></g><g><g><line x1="0" y1="377.5491600584072" x2="1072.2" y2="377.5491600584072" fill="rgb(0, 0, 0)" stroke="rgb(153, 153, 153)" stroke-width="1.5px"></line></g></g><g><g><line x1="-17.504821511782822" y1="0" x2="-17.504821511782822" y2="378" fill="rgb(0, 0, 0)" stroke="rgb(153, 153, 153)" stroke-width="1.5px"></line></g></g><g><g><g><g><g><path stroke="rgb(187, 187, 187)" stroke-width="2px" d="M-17.504821511782822,4.234993706079663L3.7463096333158035,28.255412637348964L24.99744077841443,-95.68277033937613L46.24857192351305,-86.7600486261894L67.49970306861168,43.011010483523414L88.7508342137103,46.65831669436429L110.00196535880893,45.31334159480635L131.25309650390756,14.753282790568424L152.5042276490062,14.405493454169713L173.7553587941048,58.567938500065615L195.00648993920342,59.208059505259264L216.25762108430206,66.1824750210858L237.50875222940067,54.85488591870653L258.7598833744993,68.05433693523831L280.0110145195979,68.20198371929774L301.26214566469656,58.9859365421481L322.5132768097952,67.77229396935786L343.7644079548938,65.2886439553861L365.0155390999924,64.2662235894346L386.266670245091,74.31883194996234L407.5178013901896,76.34508286637207L428.76893253528823,72.14376507870746L450.02006368038684,71.53016476417032L471.27119482548557,73.03660234923925L492.5223259705842,74.89572030182715L513.7734571156827,75.01216971208704L535.0245882607813,77.58132508285601L556.2757194058801,74.95651718268574L577.5268505509787,75.74465520935433L598.7779816960773,74.7896570253806L620.0291128411759,74.33623310849012L641.2802439862745,76.31261889088796L662.5313751313731,75.85634999175221L683.7825062764717,75.08231995923157L705.0336374215703,75.44230764416146L726.284768566669,76.11417163618806L747.5358997117677,75.96256915763684L768.7870308568663,75.40288710250223L790.0381620019649,75.1547306032285L811.2892931470635,75.69213995489477L832.5404242921621,75.29600540650566L853.7915554372607,75.52270762186102L875.0426865823594,75.24154153406985L896.2938177274581,75.65361577750456L917.5449488725566,75.38651871150184L938.7960800176553,75.30795043469998L960.0472111627539,75.19440446522468L981.2983423078525,74.97407423065164L1002.5494734529511,75.02801197623384L1023.8006045980497,74.95113899707131" style="fill: none;" fill="none"></path></g><g><path stroke="rgb(204, 51, 17)" stroke-width="2px" d="M-17.504821511782822,337.0077903896196L3.7463096333158035,339.6266087252854L24.99744077841443,337.39824471660796L46.24857192351305,331.6915440333541L67.49970306861168,338.98173552800216L88.7508342137103,338.83240806093823L110.00196535880893,337.4804301155282L131.25309650390756,338.7036799216556L152.5042276490062,335.6503465707862L173.7553587941048,338.255268824509L195.00648993920342,337.7792385033217L216.25762108430206,336.69432839464474L237.50875222940067,335.6635776868448L258.7598833744993,335.99795078847717L280.0110145195979,336.3907190993123L301.26214566469656,336.1282500010031L322.5132768097952,335.82148881609413L343.7644079548938,336.0199847862434L365.0155390999924,334.3873157286739L386.266670245091,335.7319108477265L407.5178013901896,335.4567854756617L428.76893253528823,335.09710956960794L450.02006368038684,334.9014342239792L471.27119482548557,334.8073354619068L492.5223259705842,334.81308388493665L513.7734571156827,334.6722913646086L535.0245882607813,334.250615306096L556.2757194058801,334.2980008237331L577.5268505509787,334.29184319092826L598.7779816960773,334.2892758867446L620.0291128411759,334.3353948026971L641.2802439862745,334.2930562056184L662.5313751313731,334.327532129163L683.7825062764717,334.35355592223567L705.0336374215703,334.33121988868305L726.284768566669,334.3782400404496L747.5358997117677,334.393132353333L768.7870308568663,334.4527649349508L790.0381620019649,334.41062607121466L811.2892931470635,334.42241033842595L832.5404242921621,334.3699827717753L853.7915554372607,334.4207881139607L875.0426865823594,334.37482508744625L896.2938177274581,334.40794672149735L917.5449488725566,334.3920752280809L938.7960800176553,334.3938874427988L960.0472111627539,334.4072208613012L981.2983423078525,334.36691857000767L1002.5494734529511,334.3483287545144L1023.8006045980497,334.36241726248255" style="fill: none;" fill="none"></path></g><g><path stroke="rgb(0, 119, 187)" stroke-width="2px" d="M-17.504821511782822,337.9354786926563L3.7463096333158035,335.77214493739086L24.99744077841443,338.18593943268695L46.24857192351305,328.89706996599284L67.49970306861168,331.97858033279863L88.7508342137103,326.78548906840376L110.00196535880893,318.71621331335916L131.25309650390756,316.77958420922147L152.5042276490062,315.7483512184724L173.7553587941048,322.1499802232741L195.00648993920342,323.4710555233535L216.25762108430206,321.03528792460287L237.50875222940067,318.5708464123319L258.7598833744993,318.29693405495726L280.0110145195979,322.74443049464975L301.26214566469656,319.325322063461L322.5132768097952,314.6153954978189L343.7644079548938,311.9388079464751L365.0155390999924,310.3426267605106L386.266670245091,315.4898865301044L407.5178013901896,316.3397129303557L428.76893253528823,315.32398119560764L450.02006368038684,313.43503964489344L471.27119482548557,313.9386843185764L492.5223259705842,313.1688730439743L513.7734571156827,315.08758947736544L535.0245882607813,313.58160494597604L556.2757194058801,314.0174913010804L577.5268505509787,314.5854062671646L598.7779816960773,313.8761921400785L620.0291128411759,313.3528371955659L641.2802439862745,312.4732359126377L662.5313751313731,312.96116011079744L683.7825062764717,313.5171641495019L705.0336374215703,312.69343948704227L726.284768566669,311.8884751441489L747.5358997117677,311.48990482328946L768.7870308568663,312.52680829234936L790.0381620019649,311.68842515116353L811.2892931470635,311.9506945161301L832.5404242921621,311.5831705511771L853.7915554372607,311.50715009237916L875.0426865823594,311.4701263508307L896.2938177274581,310.6404389173638L917.5449488725566,311.41354822789066L938.7960800176553,311.0239756505365L960.0472111627539,310.905772484098L981.2983423078525,311.1549666224441L1002.5494734529511,310.40684346591746L1023.8006045980497,310.74484586853055" style="fill: none;" fill="none"></path></g><g><path stroke="rgb(238, 51, 119)" stroke-width="2px" d="M-17.504821511782822,333.01954667033897L3.7463096333158035,340.13578747402096L24.99744077841443,331.3960312457129L46.24857192351305,330.48603152235535L67.49970306861168,341.6399256898779L88.7508342137103,342.60984298023214L110.00196535880893,342.28993836707343L131.25309650390756,341.0623333997691L152.5042276490062,341.07088296113983L173.7553587941048,342.4449825921251L195.00648993920342,342.5274554121969L216.25762108430206,342.08253964854515L237.50875222940067,342.640441154004L258.7598833744993,342.42096100402307L280.0110145195979,342.55582972570335L301.26214566469656,342.73557755514884L322.5132768097952,342.42232747237887L343.7644079548938,342.2521108206097L365.0155390999924,342.2712852214959L386.266670245091,342.29890200976405L407.5178013901896,342.22019976547637L428.76893253528823,342.2628403983414L450.02006368038684,342.22510541123154L471.27119482548557,342.19124573812195L492.5223259705842,342.1905929510999L513.7734571156827,342.2045767208519L535.0245882607813,342.18104715878883L556.2757194058801,342.1842087914553L577.5268505509787,342.1685175452016L598.7779816960773,342.17798052124874L620.0291128411759,342.1754400105622L641.2802439862745,342.1658089662146L662.5313751313731,342.186527646847L683.7825062764717,342.175376680478L705.0336374215703,342.1718253242163L726.284768566669,342.17106292743307L747.5358997117677,342.1714891876154L768.7870308568663,342.1709387030371L790.0381620019649,342.17482863167214L811.2892931470635,342.1749041406187L832.5404242921621,342.1764167553228L853.7915554372607,342.1751525894107L875.0426865823594,342.17495529184066L896.2938177274581,342.17477991622275L917.5449488725566,342.1747117145936L938.7960800176553,342.17504297964956L960.0472111627539,342.1750308007872L981.2983423078525,342.1752670707168L1002.5494734529511,342.17570063821654L1023.8006045980497,342.1757176886238" style="fill: none;" fill="none"></path></g><g><path stroke="rgb(255, 112, 67)" stroke-width="2px" d="M-17.504821511782822,345.12664872906953L3.7463096333158035,350.37982075721675L24.99744077841443,352.52093539600816L46.24857192351305,353.86037154896866L67.49970306861168,355.1032780389313L88.7508342137103,355.45681823413236L110.00196535880893,355.5791475991356L131.25309650390756,356.1517709134049L152.5042276490062,356.4009358224813L173.7553587941048,356.66585043635064L195.00648993920342,356.6801752142485L216.25762108430206,356.7592403886342L237.50875222940067,356.8309617090221L258.7598833744993,356.77083222982037L280.0110145195979,356.7888545103281L301.26214566469656,356.92670461751203L322.5132768097952,356.9181526203688L343.7644079548938,356.94323133372296L365.0155390999924,356.83991804439535L386.266670245091,356.89219459315285L407.5178013901896,356.8869211457547L428.76893253528823,356.93290122267643L450.02006368038684,356.885503526177L471.27119482548557,356.88058813733187L492.5223259705842,356.90375233352444L513.7734571156827,356.8977895625171L535.0245882607813,356.92176730671474L556.2757194058801,356.93866426034117L577.5268505509787,356.95004662509484L598.7779816960773,356.947820329057L620.0291128411759,356.9565379587282L641.2802439862745,356.9473209957006L662.5313751313731,356.9439328361944L683.7825062764717,356.941916016589L705.0336374215703,356.943185054046L726.284768566669,356.9464148883417L747.5358997117677,356.95244829675056L768.7870308568663,356.9450118833987L790.0381620019649,356.93889322295337L811.2892931470635,356.9411438767159L832.5404242921621,356.94096119378065L853.7915554372607,356.9422034377405L875.0426865823594,356.9381356977151L896.2938177274581,356.94263213369527L917.5449488725566,356.9424153499454L938.7960800176553,356.9439084784697L960.0472111627539,356.9448608655056L981.2983423078525,356.9450411126684L1002.5494734529511,356.94494855331453L1023.8006045980497,356.94656834200725" style="fill: none;" fill="none"></path></g></g></g></g></g></g><g transform="translate(40, 378)" clip-path="url(#clip_1)"><clipPath id="clip_1"><rect width="1072" height="22"></rect></clipPath><g><g><line x1="88.7508342137103" y1="0" x2="88.7508342137103" y2="5" style="visibility: inherit;" fill="rgb(0, 0, 0)" stroke="rgb(204, 204, 204)" stroke-width="1px"></line><line x1="195.00648993920342" y1="0" x2="195.00648993920342" y2="5" style="visibility: inherit;" fill="rgb(0, 0, 0)" stroke="rgb(204, 204, 204)" stroke-width="1px"></line><line x1="301.26214566469656" y1="0" x2="301.26214566469656" y2="5" style="visibility: inherit;" fill="rgb(0, 0, 0)" stroke="rgb(204, 204, 204)" stroke-width="1px"></line><line x1="407.5178013901896" y1="0" x2="407.5178013901896" y2="5" style="visibility: inherit;" fill="rgb(0, 0, 0)" stroke="rgb(204, 204, 204)" stroke-width="1px"></line><line x1="513.7734571156827" y1="0" x2="513.7734571156827" y2="5" style="visibility: inherit;" fill="rgb(0, 0, 0)" stroke="rgb(204, 204, 204)" stroke-width="1px"></line><line x1="620.0291128411759" y1="0" x2="620.0291128411759" y2="5" style="visibility: inherit;" fill="rgb(0, 0, 0)" stroke="rgb(204, 204, 204)" stroke-width="1px"></line><line x1="726.284768566669" y1="0" x2="726.284768566669" y2="5" style="visibility: inherit;" fill="rgb(0, 0, 0)" stroke="rgb(204, 204, 204)" stroke-width="1px"></line><line x1="832.5404242921621" y1="0" x2="832.5404242921621" y2="5" style="visibility: inherit;" fill="rgb(0, 0, 0)" stroke="rgb(204, 204, 204)" stroke-width="1px"></line><line x1="938.7960800176553" y1="0" x2="938.7960800176553" y2="5" style="visibility: inherit;" fill="rgb(0, 0, 0)" stroke="rgb(204, 204, 204)" stroke-width="1px"></line><line x1="1045.0517357431484" y1="0" x2="1045.0517357431484" y2="5" style="visibility: inherit;" fill="rgb(0, 0, 0)" stroke="rgb(204, 204, 204)" stroke-width="1px"></line></g><g transform="translate(0, 8)"><text x="88.7508342137103" y="0" dx="0em" dy="0.95em" style="text-anchor: middle; visibility: inherit; font-family: Roboto, sans-serif; font-size: 12px; font-weight: 200;" fill="rgb(50, 49, 63)" stroke="none" stroke-width="1px">5</text><text x="195.00648993920342" y="0" dx="0em" dy="0.95em" style="text-anchor: middle; visibility: inherit; font-family: Roboto, sans-serif; font-size: 12px; font-weight: 200;" fill="rgb(50, 49, 63)" stroke="none" stroke-width="1px">10</text><text x="301.26214566469656" y="0" dx="0em" dy="0.95em" style="text-anchor: middle; visibility: inherit; font-family: Roboto, sans-serif; font-size: 12px; font-weight: 200;" fill="rgb(50, 49, 63)" stroke="none" stroke-width="1px">15</text><text x="407.5178013901896" y="0" dx="0em" dy="0.95em" style="text-anchor: middle; visibility: inherit; font-family: Roboto, sans-serif; font-size: 12px; font-weight: 200;" fill="rgb(50, 49, 63)" stroke="none" stroke-width="1px">20</text><text x="513.7734571156827" y="0" dx="0em" dy="0.95em" style="text-anchor: middle; visibility: inherit; font-family: Roboto, sans-serif; font-size: 12px; font-weight: 200;" fill="rgb(50, 49, 63)" stroke="none" stroke-width="1px">25</text><text x="620.0291128411759" y="0" dx="0em" dy="0.95em" style="text-anchor: middle; visibility: inherit; font-family: Roboto, sans-serif; font-size: 12px; font-weight: 200;" fill="rgb(50, 49, 63)" stroke="none" stroke-width="1px">30</text><text x="726.284768566669" y="0" dx="0em" dy="0.95em" style="text-anchor: middle; visibility: inherit; font-family: Roboto, sans-serif; font-size: 12px; font-weight: 200;" fill="rgb(50, 49, 63)" stroke="none" stroke-width="1px">35</text><text x="832.5404242921621" y="0" dx="0em" dy="0.95em" style="text-anchor: middle; visibility: inherit; font-family: Roboto, sans-serif; font-size: 12px; font-weight: 200;" fill="rgb(50, 49, 63)" stroke="none" stroke-width="1px">40</text><text x="938.7960800176553" y="0" dx="0em" dy="0.95em" style="text-anchor: middle; visibility: inherit; font-family: Roboto, sans-serif; font-size: 12px; font-weight: 200;" fill="rgb(50, 49, 63)" stroke="none" stroke-width="1px">45</text><text x="1045.0517357431484" y="0" dx="0em" dy="0.95em" style="text-anchor: middle; visibility: inherit; font-family: Roboto, sans-serif; font-size: 12px; font-weight: 200;" fill="rgb(50, 49, 63)" stroke="none" stroke-width="1px">50</text></g><line x1="0" y1="0" x2="1072.2" y2="0" fill="rgb(0, 0, 0)" stroke="rgb(204, 204, 204)" stroke-width="1px"></line></g></g></g></g></svg>