<svg viewBox="0 0 1112.2000732421875 400" xmlns="http://www.w3.org/2000/svg"><g><g><g><g><g><line x1="40" y1="377.5491600584072" x2="35" y2="377.5491600584072" style="visibility: inherit;" fill="rgb(0, 0, 0)" stroke="rgb(204, 204, 204)" stroke-width="1px"></line><line x1="40" y1="336.6836791974047" x2="35" y2="336.6836791974047" style="visibility: inherit;" fill="rgb(0, 0, 0)" stroke="rgb(204, 204, 204)" stroke-width="1px"></line><line x1="40" y1="295.818198336402" x2="35" y2="295.818198336402" style="visibility: inherit;" fill="rgb(0, 0, 0)" stroke="rgb(204, 204, 204)" stroke-width="1px"></line><line x1="40" y1="254.95271747539945" x2="35" y2="254.95271747539945" style="visibility: inherit;" fill="rgb(0, 0, 0)" stroke="rgb(204, 204, 204)" stroke-width="1px"></line><line x1="40" y1="214.08723661439683" x2="35" y2="214.08723661439683" style="visibility: inherit;" fill="rgb(0, 0, 0)" stroke="rgb(204, 204, 204)" stroke-width="1px"></line><line x1="40" y1="173.22175575339423" x2="35" y2="173.22175575339423" style="visibility: inherit;" fill="rgb(0, 0, 0)" stroke="rgb(204, 204, 204)" stroke-width="1px"></line><line x1="40" y1="132.35627489239164" x2="35" y2="132.35627489239164" style="visibility: inherit;" fill="rgb(0, 0, 0)" stroke="rgb(204, 204, 204)" stroke-width="1px"></line><line x1="40" y1="91.49079403138906" x2="35" y2="91.49079403138906" style="visibility: inherit;" fill="rgb(0, 0, 0)" stroke="rgb(204, 204, 204)" stroke-width="1px"></line><line x1="40" y1="50.62531317038646" x2="35" y2="50.62531317038646" style="visibility: inherit;" fill="rgb(0, 0, 0)" stroke="rgb(204, 204, 204)" stroke-width="1px"></line><line x1="40" y1="9.759832309383873" x2="35" y2="9.759832309383873" style="visibility: inherit;" fill="rgb(0, 0, 0)" stroke="rgb(204, 204, 204)" stroke-width="1px"></line></g><g transform="translate(30, 0)"><text x="0" y="377.5491600584072" dx="0em" dy="0.3em" style="text-anchor: end; visibility: hidden; font-family: Roboto, sans-serif; font-size: 12px; font-weight: 200;" fill="rgb(50, 49, 63)" stroke="none" stroke-width="1px">0</text><text x="0" y="336.6836791974047" dx="0em" dy="0.3em" style="text-anchor: end; visibility: inherit; font-family: Roboto, sans-serif; font-size: 12px; font-weight: 200;" fill="rgb(50, 49, 63)" stroke="none" stroke-width="1px">0.5</text><text x="0" y="295.818198336402" dx="0em" dy="0.3em" style="text-anchor: end; visibility: inherit; font-family: Roboto, sans-serif; font-size: 12px; font-weight: 200;" fill="rgb(50, 49, 63)" stroke="none" stroke-width="1px">1</text><text x="0" y="254.95271747539945" dx="0em" dy="0.3em" style="text-anchor: end; visibility: inherit; font-family: Roboto, sans-serif; font-size: 12px; font-weight: 200;" fill="rgb(50, 49, 63)" stroke="none" stroke-width="1px">1.5</text><text x="0" y="214.08723661439683" dx="0em" dy="0.3em" style="text-anchor: end; visibility: inherit; font-family: Roboto, sans-serif; font-size: 12px; font-weight: 200;" fill="rgb(50, 49, 63)" stroke="none" stroke-width="1px">2</text><text x="0" y="173.22175575339423" dx="0em" dy="0.3em" style="text-anchor: end; visibility: inherit; font-family: Roboto, sans-serif; font-size: 12px; font-weight: 200;" fill="rgb(50, 49, 63)" stroke="none" stroke-width="1px">2.5</text><text x="0" y="132.35627489239164" dx="0em" dy="0.3em" style="text-anchor: end; visibility: inherit; font-family: Roboto, sans-serif; font-size: 12px; font-weight: 200;" fill="rgb(50, 49, 63)" stroke="none" stroke-width="1px">3</text><text x="0" y="91.49079403138906" dx="0em" dy="0.3em" style="text-anchor: end; visibility: inherit; font-family: Roboto, sans-serif; font-size: 12px; font-weight: 200;" fill="rgb(50, 49, 63)" stroke="none" stroke-width="1px">3.5</text><text x="0" y="50.62531317038646" dx="0em" dy="0.3em" style="text-anchor: end; visibility: inherit; font-family: Roboto, sans-serif; font-size: 12px; font-weight: 200;" fill="rgb(50, 49, 63)" stroke="none" stroke-width="1px">4</text><text x="0" y="9.759832309383873" dx="0em" dy="0.3em" style="text-anchor: end; visibility: inherit; font-family: Roboto, sans-serif; font-size: 12px; font-weight: 200;" fill="rgb(50, 49, 63)" stroke="none" stroke-width="1px">4.5</text></g><line x1="40" y1="0" x2="40" y2="378" fill="rgb(0, 0, 0)" stroke="rgb(204, 204, 204)" stroke-width="1px"></line></g></g><g transform="translate(40, 0)" clip-path="url(#clip_0)"><clipPath id="clip_0"><rect width="1072" height="378"></rect></clipPath><g><g><g><line x1="88.7508342137103" y1="0" x2="88.7508342137103" y2="378" fill="rgb(0, 0, 0)" stroke="rgb(60, 60, 60)" stroke-width="1px" opacity="0.25"></line><line x1="195.00648993920342" y1="0" x2="195.00648993920342" y2="378" fill="rgb(0, 0, 0)" stroke="rgb(60, 60, 60)" stroke-width="1px" opacity="0.25"></line><line x1="301.26214566469656" y1="0" x2="301.26214566469656" y2="378" fill="rgb(0, 0, 0)" stroke="rgb(60, 60, 60)" stroke-width="1px" opacity="0.25"></line><line x1="407.5178013901896" y1="0" x2="407.5178013901896" y2="378" fill="rgb(0, 0, 0)" stroke="rgb(60, 60, 60)" stroke-width="1px" opacity="0.25"></line><line x1="513.7734571156827" y1="0" x2="513.7734571156827" y2="378" fill="rgb(0, 0, 0)" stroke="rgb(60, 60, 60)" stroke-width="1px" opacity="0.25"></line><line x1="620.0291128411759" y1="0" x2="620.0291128411759" y2="378" fill="rgb(0, 0, 0)" stroke="rgb(60, 60, 60)" stroke-width="1px" opacity="0.25"></line><line x1="726.284768566669" y1="0" x2="726.284768566669" y2="378" fill="rgb(0, 0, 0)" stroke="rgb(60, 60, 60)" stroke-width="1px" opacity="0.25"></line><line x1="832.5404242921621" y1="0" x2="832.5404242921621" y2="378" fill="rgb(0, 0, 0)" stroke="rgb(60, 60, 60)" stroke-width="1px" opacity="0.25"></line><line x1="938.7960800176553" y1="0" x2="938.7960800176553" y2="378" fill="rgb(0, 0, 0)" stroke="rgb(60, 60, 60)" stroke-width="1px" opacity="0.25"></line><line x1="1045.0517357431484" y1="0" x2="1045.0517357431484" y2="378" fill="rgb(0, 0, 0)" stroke="rgb(60, 60, 60)" stroke-width="1px" opacity="0.25"></line></g><g><line x1="0" y1="377.5491600584072" x2="1072.2" y2="377.5491600584072" fill="rgb(0, 0, 0)" stroke="rgb(60, 60, 60)" stroke-width="1px" opacity="0.25"></line><line x1="0" y1="336.6836791974047" x2="1072.2" y2="336.6836791974047" fill="rgb(0, 0, 0)" stroke="rgb(60, 60, 60)" stroke-width="1px" opacity="0.25"></line><line x1="0" y1="295.818198336402" x2="1072.2" y2="295.818198336402" fill="rgb(0, 0, 0)" stroke="rgb(60, 60, 60)" stroke-width="1px" opacity="0.25"></line><line x1="0" y1="254.95271747539945" x2="1072.2" y2="254.95271747539945" fill="rgb(0, 0, 0)" stroke="rgb(60, 60, 60)" stroke-width="1px" opacity="0.25"></line><line x1="0" y1="214.08723661439683" x2="1072.2" y2="214.08723661439683" fill="rgb(0, 0, 0)" stroke="rgb(60, 60, 60)" stroke-width="1px" opacity="0.25"></line><line x1="0" y1="173.22175575339423" x2="1072.2" y2="173.22175575339423" fill="rgb(0, 0, 0)" stroke="rgb(60, 60, 60)" stroke-width="1px" opacity="0.25"></line><line x1="0" y1="132.35627489239164" x2="1072.2" y2="132.35627489239164" fill="rgb(0, 0, 0)" stroke="rgb(60, 60, 60)" stroke-width="1px" opacity="0.25"></line><line x1="0" y1="91.49079403138906" x2="1072.2" y2="91.49079403138906" fill="rgb(0, 0, 0)" stroke="rgb(60, 60, 60)" stroke-width="1px" opacity="0.25"></line><line x1="0" y1="50.62531317038646" x2="1072.2" y2="50.62531317038646" fill="rgb(0, 0, 0)" stroke="rgb(60, 60, 60)" stroke-width="1px" opacity="0.25"></line><line x1="0" y1="9.759832309383873" x2="1072.2" y2="9.759832309383873" fill="rgb(0, 0, 0)" stroke="rgb(60, 60, 60)" stroke-width="1px" opacity="0.25"></line></g></g></g><g><g><line x1="0" y1="377.5491600584072" x2="1072.2" y2="377.5491600584072" fill="rgb(0, 0, 0)" stroke="rgb(153, 153, 153)" stroke-width="1.5px"></line></g></g><g><g><line x1="-17.504821511782822" y1="0" x2="-17.504821511782822" y2="378" fill="rgb(0, 0, 0)" stroke="rgb(153, 153, 153)" stroke-width="1.5px"></line></g></g><g><g><g><g><g><path stroke="rgb(204, 51, 17)" stroke-width="2px" d="M-17.504821511782822,337.0077903896196L3.7463096333158035,339.6266087252854L24.99744077841443,337.39824471660796L46.24857192351305,331.6915440333541L67.49970306861168,338.98173552800216L88.7508342137103,338.83240806093823L110.00196535880893,337.4804301155282L131.25309650390756,338.7036799216556L152.5042276490062,335.6503465707862L173.7553587941048,338.255268824509L195.00648993920342,337.7792385033217L216.25762108430206,336.69432839464474L237.50875222940067,335.6635776868448L258.7598833744993,335.99795078847717L280.0110145195979,336.3907190993123L301.26214566469656,336.1282500010031L322.5132768097952,335.82148881609413L343.7644079548938,336.0199847862434L365.0155390999924,334.3873157286739L386.266670245091,335.7319108477265L407.5178013901896,335.4567854756617L428.76893253528823,335.09710956960794L450.02006368038684,334.9014342239792L471.27119482548557,334.8073354619068L492.5223259705842,334.81308388493665L513.7734571156827,334.6722913646086L535.0245882607813,334.250615306096L556.2757194058801,334.2980008237331L577.5268505509787,334.29184319092826L598.7779816960773,334.2892758867446L620.0291128411759,334.3353948026971L641.2802439862745,334.2930562056184L662.5313751313731,334.327532129163L683.7825062764717,334.35355592223567L705.0336374215703,334.33121988868305L726.284768566669,334.3782400404496L747.5358997117677,334.393132353333L768.7870308568663,334.4527649349508L790.0381620019649,334.41062607121466L811.2892931470635,334.42241033842595L832.5404242921621,334.3699827717753L853.7915554372607,334.4207881139607L875.0426865823594,334.37482508744625L896.2938177274581,334.40794672149735L917.5449488725566,334.3920752280809L938.7960800176553,334.3938874427988L960.0472111627539,334.4072208613012L981.2983423078525,334.36691857000767L1002.5494734529511,334.3483287545144L1023.8006045980497,334.36241726248255" style="fill: none;" fill="none"></path></g><g><path stroke="rgb(0, 119, 187)" stroke-width="2px" d="M-17.504821511782822,344.8343779545863L3.7463096333158035,349.9984713477223L24.99744077841443,352.4181384904443L46.24857192351305,353.5257719204966L67.49970306861168,354.75746167823354L88.7508342137103,355.1408936731901L110.00196535880893,355.6525471667555L131.25309650390756,355.6775893435226L152.5042276490062,355.6651230600196L173.7553587941048,355.76702116554196L195.00648993920342,355.8825985692574L216.25762108430206,355.8380020110988L237.50875222940067,355.10197246488724L258.7598833744993,355.39628685247305L280.0110145195979,355.0483221404565L301.26214566469656,354.7380997228672L322.5132768097952,353.6761589485851L343.7644079548938,353.6470806968348L365.0155390999924,352.9451129928478L386.266670245091,352.8942638067579L407.5178013901896,352.49830463398666L428.76893253528823,352.1693145895137L450.02006368038684,352.17882628101023L471.27119482548557,351.43656846459214L492.5223259705842,351.48259238541834L513.7734571156827,350.7214597681279L535.0245882607813,350.2486203088767L556.2757194058801,350.45203410364354L577.5268505509787,349.5129098488588L598.7779816960773,349.40494910565786L620.0291128411759,349.22766871372477L641.2802439862745,348.77618123594823L662.5313751313731,348.1458544718576L683.7825062764717,347.30201763611075L705.0336374215703,346.94387139516834L726.284768566669,346.89759902555016L747.5358997117677,346.60799055037694L768.7870308568663,345.51917346265765L790.0381620019649,346.15558478637905L811.2892931470635,345.2994643500645L832.5404242921621,344.84870029671157L853.7915554372607,345.0487161888824L875.0426865823594,344.24173989792854L896.2938177274581,343.9098853850305L917.5449488725566,343.587956644949L938.7960800176553,343.453063565544L960.0472111627539,343.01329458912204L981.2983423078525,342.38623663168653L1002.5494734529511,342.2111167699346L1023.8006045980497,342.0072767149855" style="fill: none;" fill="none"></path></g><g><path stroke="rgb(51, 187, 238)" stroke-width="2px" d="M-17.504821511782822,-42.74984910277689L3.7463096333158035,118.46136212014108L24.99744077841443,186.61809513024497L46.24857192351305,214.87315321657255L67.49970306861168,226.26486159345984L88.7508342137103,229.4031108441887L110.00196535880893,232.9651552754793L131.25309650390756,233.011181632078L152.5042276490062,233.0961413758419L173.7553587941048,234.26121032074383L195.00648993920342,235.24538905891168L216.25762108430206,235.826583856504L237.50875222940067,235.63400194191254L258.7598833744993,235.64237125612047L280.0110145195979,235.73274815785828L301.26214566469656,235.73189076594878L322.5132768097952,235.79073902883113L343.7644079548938,235.8395811384055L365.0155390999924,235.87025238535145L386.266670245091,235.87734535478492L407.5178013901896,235.87321428467536L428.76893253528823,235.87282456108008L450.02006368038684,235.87349683428187L471.27119482548557,235.87376964079854L492.5223259705842,235.87372092534918L513.7734571156827,235.87359426518069L535.0245882607813,235.8737891269783L556.2757194058801,235.87376964079854L577.5268505509787,235.8737891269783L598.7779816960773,235.8737891269783L620.0291128411759,235.87379887006819L641.2802439862745,235.87383784242772L662.5313751313731,235.87382809933783L683.7825062764717,235.87381835624797L705.0336374215703,235.87381835624797L726.284768566669,235.87379887006819L747.5358997117677,235.87379887006819L768.7870308568663,235.87379887006819L790.0381620019649,235.87379887006819L811.2892931470635,235.87379887006819L832.5404242921621,235.87379887006819L853.7915554372607,235.87379887006819L875.0426865823594,235.87379887006819L896.2938177274581,235.87379887006819L917.5449488725566,235.87379887006819L938.7960800176553,235.87379887006819L960.0472111627539,235.87379887006819L981.2983423078525,235.87379887006819L1002.5494734529511,235.87379887006819L1023.8006045980497,235.87379887006819" style="fill: none;" fill="none"></path></g></g></g></g></g></g><g transform="translate(40, 378)" clip-path="url(#clip_1)"><clipPath id="clip_1"><rect width="1072" height="22"></rect></clipPath><g><g><line x1="88.7508342137103" y1="0" x2="88.7508342137103" y2="5" style="visibility: inherit;" fill="rgb(0, 0, 0)" stroke="rgb(204, 204, 204)" stroke-width="1px"></line><line x1="195.00648993920342" y1="0" x2="195.00648993920342" y2="5" style="visibility: inherit;" fill="rgb(0, 0, 0)" stroke="rgb(204, 204, 204)" stroke-width="1px"></line><line x1="301.26214566469656" y1="0" x2="301.26214566469656" y2="5" style="visibility: inherit;" fill="rgb(0, 0, 0)" stroke="rgb(204, 204, 204)" stroke-width="1px"></line><line x1="407.5178013901896" y1="0" x2="407.5178013901896" y2="5" style="visibility: inherit;" fill="rgb(0, 0, 0)" stroke="rgb(204, 204, 204)" stroke-width="1px"></line><line x1="513.7734571156827" y1="0" x2="513.7734571156827" y2="5" style="visibility: inherit;" fill="rgb(0, 0, 0)" stroke="rgb(204, 204, 204)" stroke-width="1px"></line><line x1="620.0291128411759" y1="0" x2="620.0291128411759" y2="5" style="visibility: inherit;" fill="rgb(0, 0, 0)" stroke="rgb(204, 204, 204)" stroke-width="1px"></line><line x1="726.284768566669" y1="0" x2="726.284768566669" y2="5" style="visibility: inherit;" fill="rgb(0, 0, 0)" stroke="rgb(204, 204, 204)" stroke-width="1px"></line><line x1="832.5404242921621" y1="0" x2="832.5404242921621" y2="5" style="visibility: inherit;" fill="rgb(0, 0, 0)" stroke="rgb(204, 204, 204)" stroke-width="1px"></line><line x1="938.7960800176553" y1="0" x2="938.7960800176553" y2="5" style="visibility: inherit;" fill="rgb(0, 0, 0)" stroke="rgb(204, 204, 204)" stroke-width="1px"></line><line x1="1045.0517357431484" y1="0" x2="1045.0517357431484" y2="5" style="visibility: inherit;" fill="rgb(0, 0, 0)" stroke="rgb(204, 204, 204)" stroke-width="1px"></line></g><g transform="translate(0, 8)"><text x="88.7508342137103" y="0" dx="0em" dy="0.95em" style="text-anchor: middle; visibility: inherit; font-family: Roboto, sans-serif; font-size: 12px; font-weight: 200;" fill="rgb(50, 49, 63)" stroke="none" stroke-width="1px">5</text><text x="195.00648993920342" y="0" dx="0em" dy="0.95em" style="text-anchor: middle; visibility: inherit; font-family: Roboto, sans-serif; font-size: 12px; font-weight: 200;" fill="rgb(50, 49, 63)" stroke="none" stroke-width="1px">10</text><text x="301.26214566469656" y="0" dx="0em" dy="0.95em" style="text-anchor: middle; visibility: inherit; font-family: Roboto, sans-serif; font-size: 12px; font-weight: 200;" fill="rgb(50, 49, 63)" stroke="none" stroke-width="1px">15</text><text x="407.5178013901896" y="0" dx="0em" dy="0.95em" style="text-anchor: middle; visibility: inherit; font-family: Roboto, sans-serif; font-size: 12px; font-weight: 200;" fill="rgb(50, 49, 63)" stroke="none" stroke-width="1px">20</text><text x="513.7734571156827" y="0" dx="0em" dy="0.95em" style="text-anchor: middle; visibility: inherit; font-family: Roboto, sans-serif; font-size: 12px; font-weight: 200;" fill="rgb(50, 49, 63)" stroke="none" stroke-width="1px">25</text><text x="620.0291128411759" y="0" dx="0em" dy="0.95em" style="text-anchor: middle; visibility: inherit; font-family: Roboto, sans-serif; font-size: 12px; font-weight: 200;" fill="rgb(50, 49, 63)" stroke="none" stroke-width="1px">30</text><text x="726.284768566669" y="0" dx="0em" dy="0.95em" style="text-anchor: middle; visibility: inherit; font-family: Roboto, sans-serif; font-size: 12px; font-weight: 200;" fill="rgb(50, 49, 63)" stroke="none" stroke-width="1px">35</text><text x="832.5404242921621" y="0" dx="0em" dy="0.95em" style="text-anchor: middle; visibility: inherit; font-family: Roboto, sans-serif; font-size: 12px; font-weight: 200;" fill="rgb(50, 49, 63)" stroke="none" stroke-width="1px">40</text><text x="938.7960800176553" y="0" dx="0em" dy="0.95em" style="text-anchor: middle; visibility: inherit; font-family: Roboto, sans-serif; font-size: 12px; font-weight: 200;" fill="rgb(50, 49, 63)" stroke="none" stroke-width="1px">45</text><text x="1045.0517357431484" y="0" dx="0em" dy="0.95em" style="text-anchor: middle; visibility: inherit; font-family: Roboto, sans-serif; font-size: 12px; font-weight: 200;" fill="rgb(50, 49, 63)" stroke="none" stroke-width="1px">50</text></g><line x1="0" y1="0" x2="1072.2" y2="0" fill="rgb(0, 0, 0)" stroke="rgb(204, 204, 204)" stroke-width="1px"></line></g></g></g></g></svg>