<svg viewBox="0 0 1281 400" xmlns="http://www.w3.org/2000/svg"><g><g><g><g><g><line x1="50" y1="376.3719362663199" x2="45" y2="376.3719362663199" style="visibility: inherit;" fill="rgb(0, 0, 0)" stroke="rgb(204, 204, 204)" stroke-width="1px"></line><line x1="50" y1="330.9635298426176" x2="45" y2="330.9635298426176" style="visibility: inherit;" fill="rgb(0, 0, 0)" stroke="rgb(204, 204, 204)" stroke-width="1px"></line><line x1="50" y1="285.55512341891534" x2="45" y2="285.55512341891534" style="visibility: inherit;" fill="rgb(0, 0, 0)" stroke="rgb(204, 204, 204)" stroke-width="1px"></line><line x1="50" y1="240.146716995213" x2="45" y2="240.146716995213" style="visibility: inherit;" fill="rgb(0, 0, 0)" stroke="rgb(204, 204, 204)" stroke-width="1px"></line><line x1="50" y1="194.73831057151074" x2="45" y2="194.73831057151074" style="visibility: inherit;" fill="rgb(0, 0, 0)" stroke="rgb(204, 204, 204)" stroke-width="1px"></line><line x1="50" y1="149.32990414780866" x2="45" y2="149.32990414780866" style="visibility: inherit;" fill="rgb(0, 0, 0)" stroke="rgb(204, 204, 204)" stroke-width="1px"></line><line x1="50" y1="103.9214977241064" x2="45" y2="103.9214977241064" style="visibility: inherit;" fill="rgb(0, 0, 0)" stroke="rgb(204, 204, 204)" stroke-width="1px"></line><line x1="50" y1="58.513091300404085" x2="45" y2="58.513091300404085" style="visibility: inherit;" fill="rgb(0, 0, 0)" stroke="rgb(204, 204, 204)" stroke-width="1px"></line><line x1="50" y1="13.104684876701812" x2="45" y2="13.104684876701812" style="visibility: inherit;" fill="rgb(0, 0, 0)" stroke="rgb(204, 204, 204)" stroke-width="1px"></line></g><g transform="translate(40, 0)"><text x="0" y="376.3719362663199" dx="0em" dy="0.3em" style="text-anchor: end; visibility: hidden; font-family: Roboto, sans-serif; font-size: 12px; font-weight: 200;" fill="rgb(50, 49, 63)" stroke="none" stroke-width="1px">0.72</text><text x="0" y="330.9635298426176" dx="0em" dy="0.3em" style="text-anchor: end; visibility: inherit; font-family: Roboto, sans-serif; font-size: 12px; font-weight: 200;" fill="rgb(50, 49, 63)" stroke="none" stroke-width="1px">0.74</text><text x="0" y="285.55512341891534" dx="0em" dy="0.3em" style="text-anchor: end; visibility: inherit; font-family: Roboto, sans-serif; font-size: 12px; font-weight: 200;" fill="rgb(50, 49, 63)" stroke="none" stroke-width="1px">0.76</text><text x="0" y="240.146716995213" dx="0em" dy="0.3em" style="text-anchor: end; visibility: inherit; font-family: Roboto, sans-serif; font-size: 12px; font-weight: 200;" fill="rgb(50, 49, 63)" stroke="none" stroke-width="1px">0.78</text><text x="0" y="194.73831057151074" dx="0em" dy="0.3em" style="text-anchor: end; visibility: inherit; font-family: Roboto, sans-serif; font-size: 12px; font-weight: 200;" fill="rgb(50, 49, 63)" stroke="none" stroke-width="1px">0.8</text><text x="0" y="149.32990414780866" dx="0em" dy="0.3em" style="text-anchor: end; visibility: inherit; font-family: Roboto, sans-serif; font-size: 12px; font-weight: 200;" fill="rgb(50, 49, 63)" stroke="none" stroke-width="1px">0.82</text><text x="0" y="103.9214977241064" dx="0em" dy="0.3em" style="text-anchor: end; visibility: inherit; font-family: Roboto, sans-serif; font-size: 12px; font-weight: 200;" fill="rgb(50, 49, 63)" stroke="none" stroke-width="1px">0.84</text><text x="0" y="58.513091300404085" dx="0em" dy="0.3em" style="text-anchor: end; visibility: inherit; font-family: Roboto, sans-serif; font-size: 12px; font-weight: 200;" fill="rgb(50, 49, 63)" stroke="none" stroke-width="1px">0.86</text><text x="0" y="13.104684876701812" dx="0em" dy="0.3em" style="text-anchor: end; visibility: inherit; font-family: Roboto, sans-serif; font-size: 12px; font-weight: 200;" fill="rgb(50, 49, 63)" stroke="none" stroke-width="1px">0.88</text></g><line x1="50" y1="0" x2="50" y2="378" fill="rgb(0, 0, 0)" stroke="rgb(204, 204, 204)" stroke-width="1px"></line></g></g><g transform="translate(50, 0)" clip-path="url(#clip_0)"><clipPath id="clip_0"><rect width="1231" height="378"></rect></clipPath><g><g><g><line x1="122.84813097317684" y1="0" x2="122.84813097317684" y2="378" fill="rgb(0, 0, 0)" stroke="rgb(60, 60, 60)" stroke-width="1px" opacity="0.25"></line><line x1="295.3720455027302" y1="0" x2="295.3720455027302" y2="378" fill="rgb(0, 0, 0)" stroke="rgb(60, 60, 60)" stroke-width="1px" opacity="0.25"></line><line x1="467.89596003228365" y1="0" x2="467.89596003228365" y2="378" fill="rgb(0, 0, 0)" stroke="rgb(60, 60, 60)" stroke-width="1px" opacity="0.25"></line><line x1="640.4198745618371" y1="0" x2="640.4198745618371" y2="378" fill="rgb(0, 0, 0)" stroke="rgb(60, 60, 60)" stroke-width="1px" opacity="0.25"></line><line x1="812.9437890913905" y1="0" x2="812.9437890913905" y2="378" fill="rgb(0, 0, 0)" stroke="rgb(60, 60, 60)" stroke-width="1px" opacity="0.25"></line><line x1="985.4677036209439" y1="0" x2="985.4677036209439" y2="378" fill="rgb(0, 0, 0)" stroke="rgb(60, 60, 60)" stroke-width="1px" opacity="0.25"></line><line x1="1157.9916181504975" y1="0" x2="1157.9916181504975" y2="378" fill="rgb(0, 0, 0)" stroke="rgb(60, 60, 60)" stroke-width="1px" opacity="0.25"></line></g><g><line x1="0" y1="376.3719362663199" x2="1231" y2="376.3719362663199" fill="rgb(0, 0, 0)" stroke="rgb(60, 60, 60)" stroke-width="1px" opacity="0.25"></line><line x1="0" y1="330.9635298426176" x2="1231" y2="330.9635298426176" fill="rgb(0, 0, 0)" stroke="rgb(60, 60, 60)" stroke-width="1px" opacity="0.25"></line><line x1="0" y1="285.55512341891534" x2="1231" y2="285.55512341891534" fill="rgb(0, 0, 0)" stroke="rgb(60, 60, 60)" stroke-width="1px" opacity="0.25"></line><line x1="0" y1="240.146716995213" x2="1231" y2="240.146716995213" fill="rgb(0, 0, 0)" stroke="rgb(60, 60, 60)" stroke-width="1px" opacity="0.25"></line><line x1="0" y1="194.73831057151074" x2="1231" y2="194.73831057151074" fill="rgb(0, 0, 0)" stroke="rgb(60, 60, 60)" stroke-width="1px" opacity="0.25"></line><line x1="0" y1="149.32990414780866" x2="1231" y2="149.32990414780866" fill="rgb(0, 0, 0)" stroke="rgb(60, 60, 60)" stroke-width="1px" opacity="0.25"></line><line x1="0" y1="103.9214977241064" x2="1231" y2="103.9214977241064" fill="rgb(0, 0, 0)" stroke="rgb(60, 60, 60)" stroke-width="1px" opacity="0.25"></line><line x1="0" y1="58.513091300404085" x2="1231" y2="58.513091300404085" fill="rgb(0, 0, 0)" stroke="rgb(60, 60, 60)" stroke-width="1px" opacity="0.25"></line><line x1="0" y1="13.104684876701812" x2="1231" y2="13.104684876701812" fill="rgb(0, 0, 0)" stroke="rgb(60, 60, 60)" stroke-width="1px" opacity="0.25"></line></g></g></g><g><g><line x1="0" y1="2011.074567519601" x2="1231" y2="2011.074567519601" fill="rgb(0, 0, 0)" stroke="rgb(153, 153, 153)" stroke-width="1.5px"></line></g></g><g><g><line x1="122.84813097317684" y1="0" x2="122.84813097317684" y2="378" fill="rgb(0, 0, 0)" stroke="rgb(153, 153, 153)" stroke-width="1.5px"></line></g></g><g><g><g><g><g><path stroke="rgb(255, 112, 67)" stroke-width="2px" d="M122.84813097317684,214.59408980934742L140.1005224261322,123.58817559136921L157.3529138790875,141.31663207404995L174.60530533204286,130.08863670053813L191.85769678499818,91.086140700718L209.11008823795356,119.45161694196842L226.3624796909089,110.58738870062808L243.61487114386424,83.994703976607L260.86726259681956,85.17665520649109L278.11965404977485,69.22112556863648L295.3720455027302,62.12968884452551L312.62443695568555,71.5848927008079L329.8768284086409,57.402154580182675L347.12921986159625,94.63185906277347L364.3816113145516,57.402154580182675L381.63400276750696,53.26546060318516L398.88639422046225,61.538713229583465L416.1387856734176,67.44819872381039L433.39117712637295,55.62922773535658L450.6435685793283,50.90169347101374L467.89596003228365,46.17415920667091L485.14835148523895,47.94695072390028L502.4007429381943,58.58397048247004L519.6531343911497,42.037465229673394L536.905525844105,43.810256746902766L554.1579172970604,66.26638282152302L571.4103087500157,39.08272248255993L588.662700202971,42.037465229673394L605.9150916559264,53.26546060318516L623.1674831088817,34.355188218217094L640.4198745618371,51.49266908595579L657.6722660147924,49.12890195378437L674.9246574677478,53.26546060318516L692.177048920703,43.810256746902766L709.4294403736584,42.037465229673394L726.6818318266137,27.854727109048167L743.9342232795691,46.76499949401623L761.1866147325244,42.62844084461544L778.4390061854798,43.21941645955744L795.6913976384352,23.12719284470533L812.9437890913905,30.218494241219584L830.1961805443459,17.80868296542049L847.4485719973012,30.80946985616163L864.7009634502566,33.173236988333045L881.9533549032118,36.71895535038851L899.2057463561672,37.900906580272604L916.4581378091225,34.94616383315914L933.7105292620779,34.355188218217094L950.9629207150332,42.037465229673394L968.2153121679886,53.26546060318516" style="fill: none;" fill="none"></path></g><g><path stroke="rgb(0, 153, 136)" stroke-width="2px" d="M122.84813097317684,160.2270397866147L140.1005224261322,94.63185906277347L157.3529138790875,101.72316045928773L174.60530533204286,87.5404223386625L191.85769678499818,61.538713229583465L209.11008823795356,76.90340258009279L226.3624796909089,95.8136749650608L243.61487114386424,82.81288807431967L260.86726259681956,65.08443159163897L278.11965404977485,70.99391708586586L295.3720455027302,82.22191245937762L312.62443695568555,60.35689732729614L329.8768284086409,37.900906580272604L347.12921986159625,82.22191245937762L364.3816113145516,49.71974224112965L381.63400276750696,44.99220797678686L398.88639422046225,30.80946985616163L416.1387856734176,42.037465229673394L433.39117712637295,53.26546060318516L450.6435685793283,55.03838744801126L467.89596003228365,42.037465229673394L485.14835148523895,42.037465229673394L502.4007429381943,59.76592171235409L519.6531343911497,54.44741183306925L536.905525844105,32.582261373391L554.1579172970604,55.03838744801126L571.4103087500157,36.127979735446466L588.662700202971,38.491746867617884L605.9150916559264,33.76421260327505L623.1674831088817,34.355188218217094L640.4198745618371,44.40123236184481L657.6722660147924,53.85643621812721L674.9246574677478,38.491746867617884L692.177048920703,39.673698097501976L709.4294403736584,62.72066445946756L726.6818318266137,44.40123236184481L743.9342232795691,42.037465229673394L761.1866147325244,24.899984361934703L778.4390061854798,35.53700412050446L795.6913976384352,37.30993096533056L812.9437890913905,66.26638282152302L830.1961805443459,36.71895535038851L847.4485719973012,38.491746867617884L864.7009634502566,36.71895535038851L881.9533549032118,32.582261373391L899.2057463561672,46.76499949401623L916.4581378091225,27.854727109048167L933.7105292620779,39.673698097501976L950.9629207150332,26.081935591818795L968.2153121679886,44.99220797678686" style="fill: none;" fill="none"></path></g><g><path stroke="rgb(0, 119, 187)" stroke-width="2px" d="M122.84813097317684,136.5890978097071L140.1005224261322,105.2688788213432L157.3529138790875,80.44912094214826L174.60530533204286,63.90248036175488L191.85769678499818,52.083644700897835L209.11008823795356,51.49266908595579L226.3624796909089,44.99220797678686L243.61487114386424,33.76421260327505L260.86726259681956,40.26467371244402L278.11965404977485,27.26375149410612L295.3720455027302,23.12719284470533L312.62443695568555,21.354265999879235L329.8768284086409,23.718168459647377L347.12921986159625,17.217707350478445L364.3816113145516,18.990498867707817L381.63400276750696,16.6267317355364L398.88639422046225,17.217707350478445L416.1387856734176,11.899197471193567L433.39117712637295,18.990498867707817L450.6435685793283,13.671988988422937L467.89596003228365,14.262964603364983L485.14835148523895,12.490037758538888L502.4007429381943,15.444780505652309L519.6531343911497,11.899197471193567L536.905525844105,3.6259448447952645L554.1579172970604,13.081013373480891L571.4103087500157,10.717246241309475L588.662700202971,4.80776074708259L605.9150916559264,11.30822185625152L623.1674831088817,13.671988988422937L640.4198745618371,15.444780505652309L657.6722660147924,6.580687591908686L674.9246574677478,8.944454724080103L692.177048920703,13.081013373480891L709.4294403736584,20.763425712533913L726.6818318266137,14.262964603364983L743.9342232795691,13.081013373480891L761.1866147325244,17.217707350478445L778.4390061854798,10.717246241309475L795.6913976384352,17.80868296542049L812.9437890913905,13.081013373480891L830.1961805443459,18.39952325276577L847.4485719973012,23.718168459647377L864.7009634502566,16.035756120594353L881.9533549032118,16.035756120594353L899.2057463561672,20.763425712533913L916.4581378091225,16.035756120594353L933.7105292620779,12.490037758538888L950.9629207150332,14.262964603364983L968.2153121679886,16.6267317355364" style="fill: none;" fill="none"></path></g><g><path stroke="rgb(51, 187, 238)" stroke-width="2px" d="M122.84813097317684,368.2404420040535L140.1005224261322,245.91430879771136L157.3529138790875,203.9570700507777L174.60530533204286,175.00061819458526L191.85769678499818,156.68132142455923L209.11008823795356,140.7256564591079L226.3624796909089,128.9068207982508L243.61487114386424,118.26966571208438L260.86726259681956,110.58738870062808L278.11965404977485,108.8145971833987L295.3720455027302,105.2688788213432L312.62443695568555,99.95036894205836L329.8768284086409,92.26795660300533L347.12921986159625,87.5404223386625L364.3816113145516,83.40386368926171L381.63400276750696,79.2671697122642L398.88639422046225,73.35768421803728L416.1387856734176,72.17573298815323L433.39117712637295,69.81196585598181L450.6435685793283,65.67540720658101L467.89596003228365,65.08443159163897L485.14835148523895,59.17494609741205L502.4007429381943,59.76592171235409L519.6531343911497,58.58397048247004L536.905525844105,57.402154580182675L554.1579172970604,55.03838744801126L571.4103087500157,50.3107178560717L588.662700202971,48.537926338842325L605.9150916559264,49.12890195378437L623.1674831088817,46.76499949401623L640.4198745618371,46.76499949401623L657.6722660147924,40.26467371244402L674.9246574677478,39.673698097501976L692.177048920703,39.08272248255993L709.4294403736584,37.30993096533056L726.6818318266137,36.71895535038851L743.9342232795691,33.76421260327505L761.1866147325244,30.218494241219584L778.4390061854798,32.582261373391L795.6913976384352,30.218494241219584L812.9437890913905,31.99142108604568L830.1961805443459,29.03667833893226L847.4485719973012,30.218494241219584L864.7009634502566,29.03667833893226L881.9533549032118,27.26375149410612L899.2057463561672,26.672775879164075L916.4581378091225,26.672775879164075L933.7105292620779,29.03667833893226L950.9629207150332,26.672775879164075L968.2153121679886,25.49095997687675" style="fill: none;" fill="none"></path></g></g></g></g></g></g><g transform="translate(50, 378)" clip-path="url(#clip_1)"><clipPath id="clip_1"><rect width="1231" height="22"></rect></clipPath><g><g><line x1="122.84813097317684" y1="0" x2="122.84813097317684" y2="5" style="visibility: inherit;" fill="rgb(0, 0, 0)" stroke="rgb(204, 204, 204)" stroke-width="1px"></line><line x1="295.3720455027302" y1="0" x2="295.3720455027302" y2="5" style="visibility: inherit;" fill="rgb(0, 0, 0)" stroke="rgb(204, 204, 204)" stroke-width="1px"></line><line x1="467.89596003228365" y1="0" x2="467.89596003228365" y2="5" style="visibility: inherit;" fill="rgb(0, 0, 0)" stroke="rgb(204, 204, 204)" stroke-width="1px"></line><line x1="640.4198745618371" y1="0" x2="640.4198745618371" y2="5" style="visibility: inherit;" fill="rgb(0, 0, 0)" stroke="rgb(204, 204, 204)" stroke-width="1px"></line><line x1="812.9437890913905" y1="0" x2="812.9437890913905" y2="5" style="visibility: inherit;" fill="rgb(0, 0, 0)" stroke="rgb(204, 204, 204)" stroke-width="1px"></line><line x1="985.4677036209439" y1="0" x2="985.4677036209439" y2="5" style="visibility: inherit;" fill="rgb(0, 0, 0)" stroke="rgb(204, 204, 204)" stroke-width="1px"></line><line x1="1157.9916181504975" y1="0" x2="1157.9916181504975" y2="5" style="visibility: inherit;" fill="rgb(0, 0, 0)" stroke="rgb(204, 204, 204)" stroke-width="1px"></line></g><g transform="translate(0, 8)"><text x="122.84813097317684" y="0" dx="0em" dy="0.95em" style="text-anchor: middle; visibility: inherit; font-family: Roboto, sans-serif; font-size: 12px; font-weight: 200;" fill="rgb(50, 49, 63)" stroke="none" stroke-width="1px">0</text><text x="295.3720455027302" y="0" dx="0em" dy="0.95em" style="text-anchor: middle; visibility: inherit; font-family: Roboto, sans-serif; font-size: 12px; font-weight: 200;" fill="rgb(50, 49, 63)" stroke="none" stroke-width="1px">10</text><text x="467.89596003228365" y="0" dx="0em" dy="0.95em" style="text-anchor: middle; visibility: inherit; font-family: Roboto, sans-serif; font-size: 12px; font-weight: 200;" fill="rgb(50, 49, 63)" stroke="none" stroke-width="1px">20</text><text x="640.4198745618371" y="0" dx="0em" dy="0.95em" style="text-anchor: middle; visibility: inherit; font-family: Roboto, sans-serif; font-size: 12px; font-weight: 200;" fill="rgb(50, 49, 63)" stroke="none" stroke-width="1px">30</text><text x="812.9437890913905" y="0" dx="0em" dy="0.95em" style="text-anchor: middle; visibility: inherit; font-family: Roboto, sans-serif; font-size: 12px; font-weight: 200;" fill="rgb(50, 49, 63)" stroke="none" stroke-width="1px">40</text><text x="985.4677036209439" y="0" dx="0em" dy="0.95em" style="text-anchor: middle; visibility: inherit; font-family: Roboto, sans-serif; font-size: 12px; font-weight: 200;" fill="rgb(50, 49, 63)" stroke="none" stroke-width="1px">50</text><text x="1157.9916181504975" y="0" dx="0em" dy="0.95em" style="text-anchor: middle; visibility: inherit; font-family: Roboto, sans-serif; font-size: 12px; font-weight: 200;" fill="rgb(50, 49, 63)" stroke="none" stroke-width="1px">60</text></g><line x1="0" y1="0" x2="1231" y2="0" fill="rgb(0, 0, 0)" stroke="rgb(204, 204, 204)" stroke-width="1px"></line></g></g></g></g></svg>