<svg viewBox="0 0 1112.2000732421875 400" xmlns="http://www.w3.org/2000/svg"><g><g><g><g><g><line x1="40" y1="343.9446291107208" x2="35" y2="343.9446291107208" style="visibility: inherit;" fill="rgb(0, 0, 0)" stroke="rgb(204, 204, 204)" stroke-width="1px"></line><line x1="40" y1="305.760862926647" x2="35" y2="305.760862926647" style="visibility: inherit;" fill="rgb(0, 0, 0)" stroke="rgb(204, 204, 204)" stroke-width="1px"></line><line x1="40" y1="267.5770967425733" x2="35" y2="267.5770967425733" style="visibility: inherit;" fill="rgb(0, 0, 0)" stroke="rgb(204, 204, 204)" stroke-width="1px"></line><line x1="40" y1="229.39333055849954" x2="35" y2="229.39333055849954" style="visibility: inherit;" fill="rgb(0, 0, 0)" stroke="rgb(204, 204, 204)" stroke-width="1px"></line><line x1="40" y1="191.20956437442578" x2="35" y2="191.20956437442578" style="visibility: inherit;" fill="rgb(0, 0, 0)" stroke="rgb(204, 204, 204)" stroke-width="1px"></line><line x1="40" y1="153.02579819035205" x2="35" y2="153.02579819035205" style="visibility: inherit;" fill="rgb(0, 0, 0)" stroke="rgb(204, 204, 204)" stroke-width="1px"></line><line x1="40" y1="114.84203200627826" x2="35" y2="114.84203200627826" style="visibility: inherit;" fill="rgb(0, 0, 0)" stroke="rgb(204, 204, 204)" stroke-width="1px"></line><line x1="40" y1="76.65826582220453" x2="35" y2="76.65826582220453" style="visibility: inherit;" fill="rgb(0, 0, 0)" stroke="rgb(204, 204, 204)" stroke-width="1px"></line><line x1="40" y1="38.474499638130744" x2="35" y2="38.474499638130744" style="visibility: inherit;" fill="rgb(0, 0, 0)" stroke="rgb(204, 204, 204)" stroke-width="1px"></line><line x1="40" y1="0.29073345405700457" x2="35" y2="0.29073345405700457" style="visibility: inherit;" fill="rgb(0, 0, 0)" stroke="rgb(204, 204, 204)" stroke-width="1px"></line></g><g transform="translate(30, 0)"><text x="0" y="343.9446291107208" dx="0em" dy="0.3em" style="text-anchor: end; visibility: inherit; font-family: Roboto, sans-serif; font-size: 12px; font-weight: 200;" fill="rgb(50, 49, 63)" stroke="none" stroke-width="1px">0.5</text><text x="0" y="305.760862926647" dx="0em" dy="0.3em" style="text-anchor: end; visibility: inherit; font-family: Roboto, sans-serif; font-size: 12px; font-weight: 200;" fill="rgb(50, 49, 63)" stroke="none" stroke-width="1px">1</text><text x="0" y="267.5770967425733" dx="0em" dy="0.3em" style="text-anchor: end; visibility: inherit; font-family: Roboto, sans-serif; font-size: 12px; font-weight: 200;" fill="rgb(50, 49, 63)" stroke="none" stroke-width="1px">1.5</text><text x="0" y="229.39333055849954" dx="0em" dy="0.3em" style="text-anchor: end; visibility: inherit; font-family: Roboto, sans-serif; font-size: 12px; font-weight: 200;" fill="rgb(50, 49, 63)" stroke="none" stroke-width="1px">2</text><text x="0" y="191.20956437442578" dx="0em" dy="0.3em" style="text-anchor: end; visibility: inherit; font-family: Roboto, sans-serif; font-size: 12px; font-weight: 200;" fill="rgb(50, 49, 63)" stroke="none" stroke-width="1px">2.5</text><text x="0" y="153.02579819035205" dx="0em" dy="0.3em" style="text-anchor: end; visibility: inherit; font-family: Roboto, sans-serif; font-size: 12px; font-weight: 200;" fill="rgb(50, 49, 63)" stroke="none" stroke-width="1px">3</text><text x="0" y="114.84203200627826" dx="0em" dy="0.3em" style="text-anchor: end; visibility: inherit; font-family: Roboto, sans-serif; font-size: 12px; font-weight: 200;" fill="rgb(50, 49, 63)" stroke="none" stroke-width="1px">3.5</text><text x="0" y="76.65826582220453" dx="0em" dy="0.3em" style="text-anchor: end; visibility: inherit; font-family: Roboto, sans-serif; font-size: 12px; font-weight: 200;" fill="rgb(50, 49, 63)" stroke="none" stroke-width="1px">4</text><text x="0" y="38.474499638130744" dx="0em" dy="0.3em" style="text-anchor: end; visibility: inherit; font-family: Roboto, sans-serif; font-size: 12px; font-weight: 200;" fill="rgb(50, 49, 63)" stroke="none" stroke-width="1px">4.5</text><text x="0" y="0.29073345405700457" dx="0em" dy="0.3em" style="text-anchor: end; visibility: hidden; font-family: Roboto, sans-serif; font-size: 12px; font-weight: 200;" fill="rgb(50, 49, 63)" stroke="none" stroke-width="1px">5</text></g><line x1="40" y1="0" x2="40" y2="378" fill="rgb(0, 0, 0)" stroke="rgb(204, 204, 204)" stroke-width="1px"></line></g></g><g transform="translate(40, 0)" clip-path="url(#clip_0)"><clipPath id="clip_0"><rect width="1072" height="378"></rect></clipPath><g><g><g><line x1="50.24756925992287" y1="0" x2="50.24756925992287" y2="378" fill="rgb(0, 0, 0)" stroke="rgb(60, 60, 60)" stroke-width="1px" opacity="0.25"></line><line x1="176.60755105795857" y1="0" x2="176.60755105795857" y2="378" fill="rgb(0, 0, 0)" stroke="rgb(60, 60, 60)" stroke-width="1px" opacity="0.25"></line><line x1="302.9675328559943" y1="0" x2="302.9675328559943" y2="378" fill="rgb(0, 0, 0)" stroke="rgb(60, 60, 60)" stroke-width="1px" opacity="0.25"></line><line x1="429.32751465403004" y1="0" x2="429.32751465403004" y2="378" fill="rgb(0, 0, 0)" stroke="rgb(60, 60, 60)" stroke-width="1px" opacity="0.25"></line><line x1="555.6874964520658" y1="0" x2="555.6874964520658" y2="378" fill="rgb(0, 0, 0)" stroke="rgb(60, 60, 60)" stroke-width="1px" opacity="0.25"></line><line x1="682.0474782501014" y1="0" x2="682.0474782501014" y2="378" fill="rgb(0, 0, 0)" stroke="rgb(60, 60, 60)" stroke-width="1px" opacity="0.25"></line><line x1="808.4074600481371" y1="0" x2="808.4074600481371" y2="378" fill="rgb(0, 0, 0)" stroke="rgb(60, 60, 60)" stroke-width="1px" opacity="0.25"></line><line x1="934.7674418461728" y1="0" x2="934.7674418461728" y2="378" fill="rgb(0, 0, 0)" stroke="rgb(60, 60, 60)" stroke-width="1px" opacity="0.25"></line><line x1="1061.1274236442086" y1="0" x2="1061.1274236442086" y2="378" fill="rgb(0, 0, 0)" stroke="rgb(60, 60, 60)" stroke-width="1px" opacity="0.25"></line></g><g><line x1="0" y1="343.9446291107208" x2="1072.2" y2="343.9446291107208" fill="rgb(0, 0, 0)" stroke="rgb(60, 60, 60)" stroke-width="1px" opacity="0.25"></line><line x1="0" y1="305.760862926647" x2="1072.2" y2="305.760862926647" fill="rgb(0, 0, 0)" stroke="rgb(60, 60, 60)" stroke-width="1px" opacity="0.25"></line><line x1="0" y1="267.5770967425733" x2="1072.2" y2="267.5770967425733" fill="rgb(0, 0, 0)" stroke="rgb(60, 60, 60)" stroke-width="1px" opacity="0.25"></line><line x1="0" y1="229.39333055849954" x2="1072.2" y2="229.39333055849954" fill="rgb(0, 0, 0)" stroke="rgb(60, 60, 60)" stroke-width="1px" opacity="0.25"></line><line x1="0" y1="191.20956437442578" x2="1072.2" y2="191.20956437442578" fill="rgb(0, 0, 0)" stroke="rgb(60, 60, 60)" stroke-width="1px" opacity="0.25"></line><line x1="0" y1="153.02579819035205" x2="1072.2" y2="153.02579819035205" fill="rgb(0, 0, 0)" stroke="rgb(60, 60, 60)" stroke-width="1px" opacity="0.25"></line><line x1="0" y1="114.84203200627826" x2="1072.2" y2="114.84203200627826" fill="rgb(0, 0, 0)" stroke="rgb(60, 60, 60)" stroke-width="1px" opacity="0.25"></line><line x1="0" y1="76.65826582220453" x2="1072.2" y2="76.65826582220453" fill="rgb(0, 0, 0)" stroke="rgb(60, 60, 60)" stroke-width="1px" opacity="0.25"></line><line x1="0" y1="38.474499638130744" x2="1072.2" y2="38.474499638130744" fill="rgb(0, 0, 0)" stroke="rgb(60, 60, 60)" stroke-width="1px" opacity="0.25"></line><line x1="0" y1="0.29073345405700457" x2="1072.2" y2="0.29073345405700457" fill="rgb(0, 0, 0)" stroke="rgb(60, 60, 60)" stroke-width="1px" opacity="0.25"></line></g></g></g><g><g><line x1="0" y1="382.1283952947945" x2="1072.2" y2="382.1283952947945" fill="rgb(0, 0, 0)" stroke="rgb(153, 153, 153)" stroke-width="1.5px"></line></g></g><g><g><line x1="176.60755105795857" y1="0" x2="176.60755105795857" y2="378" fill="rgb(0, 0, 0)" stroke="rgb(153, 153, 153)" stroke-width="1.5px"></line></g></g><g><g><g><g><g><path style="fill: none;" stroke="rgb(51, 187, 238)" stroke-width="2px" d="M176.60755105795857,-10.589339944765543L189.24354923776212,140.04271101591422L201.87954741756573,203.72679602595167L214.51554559736928,230.12767297036862L227.15154377717283,240.77182348409264L239.78754195697644,243.70413146365016L252.42354013678,247.03242392065823L265.05953831658354,247.07542989052922L277.6955364963871,247.1548143226364L290.33153467619076,248.24342797022265L302.9675328559943,249.1630219656869L315.60353103579786,249.70607702807925L328.2395292156014,249.5261329128233L340.87552739540496,249.5339530076834L353.5115255752085,249.61839910770942L366.1475237550122,249.6175979804129L378.7835219348157,249.67258444485418L391.4195201146193,249.71822138959655L404.0555182944228,249.74687989788478L416.69151647422643,249.75350740551943L429.32751465403004,249.74964742854544L441.9635128338336,249.74928327977432L454.5995110136372,249.7499114364045L467.23550919344075,249.75016634054427L479.8715073732443,249.7501208219479L492.50750555304785,249.75000247359728L505.14350373285146,249.75018454798283L517.7795019126551,249.75016634054427L530.4155000924586,249.75018454798283L543.0514982722622,249.75018454798283L555.6874964520658,249.75019365170215L568.3234946318693,249.75023006657923L580.9594928116729,249.75022096286L593.5954909914764,249.75021185914068L606.23148917128,249.75021185914068L618.8674873510836,249.75019365170215L631.5034855308871,249.75019365170215L644.1394837106908,249.75019365170215L656.7754818904942,249.75019365170215L669.4114800702979,249.75019365170215L682.0474782501014,249.75019365170215L694.683476429905,249.75019365170215L707.3194746097087,249.75019365170215L719.9554727895121,249.75019365170215L732.5914709693158,249.75019365170215L745.2274691491192,249.75019365170215L757.8634673289229,249.75019365170215L770.4994655087265,249.75019365170215L783.13546368853,249.75019365170215L795.7714618683336,249.75019365170215" fill="none"></path></g><g><path style="fill: none;" stroke="rgb(0, 153, 136)" stroke-width="2px" d="M176.60755105795857,5.6562835223327665L189.24354923776212,76.95968996751078L201.87954741756573,144.0796096703915L214.51554559736928,162.45073309972258L227.15154377717283,173.1309252380696L239.78754195697644,166.33055618177116L252.42354013678,193.71265019744754L265.05953831658354,201.6218886767265L277.6955364963871,204.15754760732622L290.33153467619076,209.89602243212047L302.9675328559943,199.31852024723327L315.60353103579786,204.0070267127779L328.2395292156014,205.51168943510416L340.87552739540496,206.9615295599361L353.5115255752085,204.63449146031914L366.1475237550122,205.44958386218718L378.7835219348157,206.16078461965077L391.4195201146193,205.17725520369456L404.0555182944228,206.2426270559631L416.69151647422643,205.84173567382155L429.32751465403004,205.55609737774395L441.9635128338336,205.83443449096035L454.5995110136372,206.35467563284112L467.23550919344075,206.6610522014348L479.8715073732443,206.2541159496924L492.50750555304785,206.16850457359877L505.14350373285146,205.90254851860098L517.7795019126551,206.13818918840187L530.4155000924586,206.06038880344906L543.0514982722622,206.1600016997928L555.6874964520658,206.15266410205447L568.3234946318693,206.15595964843317L580.9594928116729,206.1692146637025L593.5954909914764,206.1297591443501L606.23148917128,206.13296365353608L618.8674873510836,206.16404375115238L631.5034855308871,206.17522311842617L644.1394837106908,206.171781912539L656.7754818904942,206.17631556473958L669.4114800702979,206.17942903673278L682.0474782501014,206.17622452754682L694.683476429905,206.1761516977926L707.3194746097087,206.17524132586476L719.9554727895121,206.17464048039238L732.5914709693158,206.1765340540023L745.2274691491192,206.17706206972045L757.8634673289229,206.17775395238556L770.4994655087265,206.17697103252763L783.13546368853,206.1766615060722L795.7714618683336,206.17655226144083" fill="none"></path></g><g><path style="fill: none;" stroke="rgb(204, 51, 17)" stroke-width="2px" d="M176.60755105795857,345.0013296703767L189.24354923776212,355.28983201084276L201.87954741756573,356.139411577267L214.51554559736928,358.0404206498851L227.15154377717283,359.1627180588012L239.78754195697644,359.2387750815122L252.42354013678,359.3328711239733L265.05953831658354,359.24837722942107L277.6955364963871,359.1290798160677L290.33153467619076,359.2280873150794L302.9675328559943,359.16924770145357L315.60353103579786,359.1966794835691L328.2395292156014,359.19696625072635L340.87552739540496,359.1818927675312L353.5115255752085,359.18943292302356L366.1475237550122,359.191419809756L378.7835219348157,359.19952211991375L391.4195201146193,359.19949708468573L404.0555182944228,359.19935597703693L416.69151647422643,359.1998384741587L429.32751465403004,359.19948570503664L441.9635128338336,359.19941742714207L454.5995110136372,359.1995858459487L467.23550919344075,359.1997246776677L479.8715073732443,359.19976336847463L492.50750555304785,359.19981571486045L505.14350373285146,359.1998384741587L517.7795019126551,359.19984302601836L530.4155000924586,359.1998453019482L543.0514982722622,359.1998453019482L555.6874964520658,359.19984757787796L568.3234946318693,359.1998453019482L580.9594928116729,359.1998521297376L593.5954909914764,359.1998498538078L606.23148917128,359.1998498538078L618.8674873510836,359.1998498538078L631.5034855308871,359.1998498538078L644.1394837106908,359.1998498538078L656.7754818904942,359.1998498538078L669.4114800702979,359.1998498538078L682.0474782501014,359.1998498538078L694.683476429905,359.1998498538078L707.3194746097087,359.1998498538078L719.9554727895121,359.1998498538078L732.5914709693158,359.1998498538078L745.2274691491192,359.1998498538078L757.8634673289229,359.1998498538078L770.4994655087265,359.1998498538078L783.13546368853,359.1998498538078L795.7714618683336,359.1998498538078" fill="none"></path></g><g><path style="fill: none;" stroke="rgb(238, 51, 119)" stroke-width="2px" d="M176.60755105795857,344.680332528622L189.24354923776212,350.8334499035277L201.87954741756573,351.7834821843992L214.51554559736928,354.21283470905576L227.15154377717283,353.65950837538765L239.78754195697644,352.42094281570803L252.42354013678,353.9470971433206L265.05953831658354,354.6472300540715L277.6955364963871,354.4374234636527L290.33153467619076,354.4199966690241L302.9675328559943,354.0033990951976L315.60353103579786,354.2299292179307L328.2395292156014,354.1970306523885L340.87552739540496,354.0764223034591L353.5115255752085,354.21670378974903L366.1475237550122,354.19035535022766L378.7835219348157,354.22068894286315L391.4195201146193,354.15153026343535L404.0555182944228,354.13309750782645L416.69151647422643,354.1417642485795L429.32751465403004,354.13424457645556L441.9635128338336,354.11140562071597L454.5995110136372,354.11335154071173L467.23550919344075,354.0846179267394L479.8715073732443,354.071212700102L492.50750555304785,354.05156459796956L505.14350373285146,354.04930915151834L517.7795019126551,354.0349366547076L530.4155000924586,354.03545556670645L543.0514982722622,354.03147496545205L555.6874964520658,354.0381684750514L568.3234946318693,354.040469440099L580.9594928116729,354.0424904657788L593.5954909914764,354.04403127026666L606.23148917128,354.04428617440647L618.8674873510836,354.042501845428L631.5034855308871,354.0428614423394L644.1394837106908,354.04205121132367L656.7754818904942,354.0426475049364L669.4114800702979,354.042627021568L682.0474782501014,354.04322331518074L694.683476429905,354.0428250274623L707.3194746097087,354.04310951868973L719.9554727895121,354.0433735265488L732.5914709693158,354.04356470465365L745.2274691491192,354.04350325454857L757.8634673289229,354.04357608430274L770.4994655087265,354.04361932696935L783.13546368853,354.0436580177763L795.7714618683336,354.0436352584781" fill="none"></path></g><g><path style="fill: none;" stroke="rgb(187, 187, 187)" stroke-width="2px" d="M176.60755105795857,351.6267935200398L189.24354923776212,355.71825304008206L201.87954741756573,357.2985813251903L214.51554559736928,358.04061637984955L227.15154377717283,358.4283050931077L239.78754195697644,358.6186320002006L252.42354013678,358.74501665901215L265.05953831658354,358.8293125476701L277.6955364963871,358.8809716027151L290.33153467619076,358.89825728969487L302.9675328559943,358.915866158709L315.60353103579786,358.92976526211726L328.2395292156014,358.9392763728333L340.87552739540496,358.9445861171024L353.5115255752085,358.94677328565905L366.1475237550122,358.9478020059375L378.7835219348157,358.94844154221676L391.4195201146193,358.9489354189877L404.0555182944228,358.94922673800454L416.69151647422643,358.9494406754076L429.32751465403004,358.9495385403898L441.9635128338336,358.9495840589862L454.5995110136372,358.9496295775826L467.23550919344075,358.94961592200366L479.8715073732443,358.9496318535124L492.50750555304785,358.949636405372L505.14350373285146,358.949636405372L517.7795019126551,358.949636405372L530.4155000924586,358.94963868130185L543.0514982722622,358.94963868130185L555.6874964520658,358.94963868130185L568.3234946318693,358.949636405372L580.9594928116729,358.949636405372L593.5954909914764,358.949636405372L606.23148917128,358.949636405372L618.8674873510836,358.949636405372L631.5034855308871,358.949636405372L644.1394837106908,358.949636405372L656.7754818904942,358.949636405372L669.4114800702979,358.949636405372L682.0474782501014,358.949636405372L694.683476429905,358.949636405372L707.3194746097087,358.949636405372L719.9554727895121,358.949636405372L732.5914709693158,358.949636405372L745.2274691491192,358.949636405372L757.8634673289229,358.949636405372L770.4994655087265,358.949636405372L783.13546368853,358.949636405372L795.7714618683336,358.949636405372" fill="none"></path></g><g><path style="fill: none;" stroke="rgb(0, 119, 187)" stroke-width="2px" d="M176.60755105795857,351.92105531420384L189.24354923776212,356.34355793022445L201.87954741756573,358.2755401317573L214.51554559736928,359.73099042359456L227.15154377717283,360.5558488403185L239.78754195697644,361.0754663774287L252.42354013678,361.7424549222169L265.05953831658354,361.97275853659085L277.6955364963871,362.36152604058344L290.33153467619076,362.4413406234266L302.9675328559943,362.71292505286823L315.60353103579786,362.7165369534919L328.2395292156014,362.6775411719631L340.87552739540496,362.7867402847069L353.5115255752085,362.76796386369534L366.1475237550122,362.8622260490332L378.7835219348157,362.72969410377897L391.4195201146193,362.74298780985515L404.0555182944228,362.79572337970484L416.69151647422643,362.77858562816334L429.32751465403004,362.7373548835517L441.9635128338336,362.73827891105844L454.5995110136372,362.67844244017164L467.23550919344075,362.69751928391946L479.8715073732443,362.6959147533966L492.50750555304785,362.7425485554L505.14350373285146,362.6585394338993L517.7795019126551,362.65621343362375L530.4155000924586,362.67457335947836L543.0514982722622,362.7197869812743L555.6874964520658,362.72028540990476L568.3234946318693,362.69299701136794L580.9594928116729,362.702116662155L593.5954909914764,362.6949178961356L606.23148917128,362.706531966005L618.8674873510836,362.71116120725804L631.5034855308871,362.7147640041625L644.1394837106908,362.7204492768518L656.7754818904942,362.7277937023796L669.4114800702979,362.75217346260706L682.0474782501014,362.7437570741342L694.683476429905,362.73710680720137L707.3194746097087,362.7127884970791L719.9554727895121,362.708298087545L732.5914709693158,362.70598574284827L745.2274691491192,362.70017984587855L757.8634673289229,362.6948473423112L770.4994655087265,362.7011562197711L783.13546368853,362.6957850253969L795.7714618683336,362.6959261330457" fill="none"></path></g></g></g></g></g></g><g transform="translate(40, 378)" clip-path="url(#clip_1)"><clipPath id="clip_1"><rect width="1072" height="22"></rect></clipPath><g><g><line x1="50.24756925992287" y1="0" x2="50.24756925992287" y2="5" style="visibility: inherit;" fill="rgb(0, 0, 0)" stroke="rgb(204, 204, 204)" stroke-width="1px"></line><line x1="176.60755105795857" y1="0" x2="176.60755105795857" y2="5" style="visibility: inherit;" fill="rgb(0, 0, 0)" stroke="rgb(204, 204, 204)" stroke-width="1px"></line><line x1="302.9675328559943" y1="0" x2="302.9675328559943" y2="5" style="visibility: inherit;" fill="rgb(0, 0, 0)" stroke="rgb(204, 204, 204)" stroke-width="1px"></line><line x1="429.32751465403004" y1="0" x2="429.32751465403004" y2="5" style="visibility: inherit;" fill="rgb(0, 0, 0)" stroke="rgb(204, 204, 204)" stroke-width="1px"></line><line x1="555.6874964520658" y1="0" x2="555.6874964520658" y2="5" style="visibility: inherit;" fill="rgb(0, 0, 0)" stroke="rgb(204, 204, 204)" stroke-width="1px"></line><line x1="682.0474782501014" y1="0" x2="682.0474782501014" y2="5" style="visibility: inherit;" fill="rgb(0, 0, 0)" stroke="rgb(204, 204, 204)" stroke-width="1px"></line><line x1="808.4074600481371" y1="0" x2="808.4074600481371" y2="5" style="visibility: inherit;" fill="rgb(0, 0, 0)" stroke="rgb(204, 204, 204)" stroke-width="1px"></line><line x1="934.7674418461728" y1="0" x2="934.7674418461728" y2="5" style="visibility: inherit;" fill="rgb(0, 0, 0)" stroke="rgb(204, 204, 204)" stroke-width="1px"></line><line x1="1061.1274236442086" y1="0" x2="1061.1274236442086" y2="5" style="visibility: inherit;" fill="rgb(0, 0, 0)" stroke="rgb(204, 204, 204)" stroke-width="1px"></line></g><g transform="translate(0, 8)"><text x="50.24756925992287" y="0" dx="0em" dy="0.95em" style="text-anchor: middle; visibility: inherit; font-family: Roboto, sans-serif; font-size: 12px; font-weight: 200;" fill="rgb(50, 49, 63)" stroke="none" stroke-width="1px">-10</text><text x="176.60755105795857" y="0" dx="0em" dy="0.95em" style="text-anchor: middle; visibility: inherit; font-family: Roboto, sans-serif; font-size: 12px; font-weight: 200;" fill="rgb(50, 49, 63)" stroke="none" stroke-width="1px">0</text><text x="302.9675328559943" y="0" dx="0em" dy="0.95em" style="text-anchor: middle; visibility: inherit; font-family: Roboto, sans-serif; font-size: 12px; font-weight: 200;" fill="rgb(50, 49, 63)" stroke="none" stroke-width="1px">10</text><text x="429.32751465403004" y="0" dx="0em" dy="0.95em" style="text-anchor: middle; visibility: inherit; font-family: Roboto, sans-serif; font-size: 12px; font-weight: 200;" fill="rgb(50, 49, 63)" stroke="none" stroke-width="1px">20</text><text x="555.6874964520658" y="0" dx="0em" dy="0.95em" style="text-anchor: middle; visibility: inherit; font-family: Roboto, sans-serif; font-size: 12px; font-weight: 200;" fill="rgb(50, 49, 63)" stroke="none" stroke-width="1px">30</text><text x="682.0474782501014" y="0" dx="0em" dy="0.95em" style="text-anchor: middle; visibility: inherit; font-family: Roboto, sans-serif; font-size: 12px; font-weight: 200;" fill="rgb(50, 49, 63)" stroke="none" stroke-width="1px">40</text><text x="808.4074600481371" y="0" dx="0em" dy="0.95em" style="text-anchor: middle; visibility: inherit; font-family: Roboto, sans-serif; font-size: 12px; font-weight: 200;" fill="rgb(50, 49, 63)" stroke="none" stroke-width="1px">50</text><text x="934.7674418461728" y="0" dx="0em" dy="0.95em" style="text-anchor: middle; visibility: inherit; font-family: Roboto, sans-serif; font-size: 12px; font-weight: 200;" fill="rgb(50, 49, 63)" stroke="none" stroke-width="1px">60</text><text x="1061.1274236442086" y="0" dx="0em" dy="0.95em" style="text-anchor: middle; visibility: inherit; font-family: Roboto, sans-serif; font-size: 12px; font-weight: 200;" fill="rgb(50, 49, 63)" stroke="none" stroke-width="1px">70</text></g><line x1="0" y1="0" x2="1072.2" y2="0" fill="rgb(0, 0, 0)" stroke="rgb(204, 204, 204)" stroke-width="1px"></line></g></g></g></g></svg>