<svg viewBox="0 0 1112.2000732421875 400" xmlns="http://www.w3.org/2000/svg"><g><g><g><g><g><line x1="60" y1="370.00000000000205" x2="55" y2="370.00000000000205" style="visibility: inherit;" fill="rgb(0, 0, 0)" stroke="rgb(204, 204, 204)" stroke-width="1px"></line><line x1="60" y1="332.20000000000107" x2="55" y2="332.20000000000107" style="visibility: inherit;" fill="rgb(0, 0, 0)" stroke="rgb(204, 204, 204)" stroke-width="1px"></line><line x1="60" y1="294.40000000000003" x2="55" y2="294.40000000000003" style="visibility: inherit;" fill="rgb(0, 0, 0)" stroke="rgb(204, 204, 204)" stroke-width="1px"></line><line x1="60" y1="256.59999999999906" x2="55" y2="256.59999999999906" style="visibility: inherit;" fill="rgb(0, 0, 0)" stroke="rgb(204, 204, 204)" stroke-width="1px"></line><line x1="60" y1="218.79999999999802" x2="55" y2="218.79999999999802" style="visibility: inherit;" fill="rgb(0, 0, 0)" stroke="rgb(204, 204, 204)" stroke-width="1px"></line><line x1="60" y1="180.99999999999702" x2="55" y2="180.99999999999702" style="visibility: inherit;" fill="rgb(0, 0, 0)" stroke="rgb(204, 204, 204)" stroke-width="1px"></line><line x1="60" y1="143.199999999996" x2="55" y2="143.199999999996" style="visibility: inherit;" fill="rgb(0, 0, 0)" stroke="rgb(204, 204, 204)" stroke-width="1px"></line><line x1="60" y1="105.39999999999502" x2="55" y2="105.39999999999502" style="visibility: inherit;" fill="rgb(0, 0, 0)" stroke="rgb(204, 204, 204)" stroke-width="1px"></line><line x1="60" y1="67.59999999999398" x2="55" y2="67.59999999999398" style="visibility: inherit;" fill="rgb(0, 0, 0)" stroke="rgb(204, 204, 204)" stroke-width="1px"></line><line x1="60" y1="29.799999999992984" x2="55" y2="29.799999999992984" style="visibility: inherit;" fill="rgb(0, 0, 0)" stroke="rgb(204, 204, 204)" stroke-width="1px"></line></g><g transform="translate(50, 0)"><text x="0" y="370.00000000000205" dx="0em" dy="0.3em" style="text-anchor: end; visibility: inherit; font-family: Roboto, sans-serif; font-size: 12px; font-weight: 200;" fill="rgb(50, 49, 63)" stroke="none" stroke-width="1px">0.84</text><text x="0" y="332.20000000000107" dx="0em" dy="0.3em" style="text-anchor: end; visibility: inherit; font-family: Roboto, sans-serif; font-size: 12px; font-weight: 200;" fill="rgb(50, 49, 63)" stroke="none" stroke-width="1px">0.845</text><text x="0" y="294.40000000000003" dx="0em" dy="0.3em" style="text-anchor: end; visibility: inherit; font-family: Roboto, sans-serif; font-size: 12px; font-weight: 200;" fill="rgb(50, 49, 63)" stroke="none" stroke-width="1px">0.85</text><text x="0" y="256.59999999999906" dx="0em" dy="0.3em" style="text-anchor: end; visibility: inherit; font-family: Roboto, sans-serif; font-size: 12px; font-weight: 200;" fill="rgb(50, 49, 63)" stroke="none" stroke-width="1px">0.855</text><text x="0" y="218.79999999999802" dx="0em" dy="0.3em" style="text-anchor: end; visibility: inherit; font-family: Roboto, sans-serif; font-size: 12px; font-weight: 200;" fill="rgb(50, 49, 63)" stroke="none" stroke-width="1px">0.86</text><text x="0" y="180.99999999999702" dx="0em" dy="0.3em" style="text-anchor: end; visibility: inherit; font-family: Roboto, sans-serif; font-size: 12px; font-weight: 200;" fill="rgb(50, 49, 63)" stroke="none" stroke-width="1px">0.865</text><text x="0" y="143.199999999996" dx="0em" dy="0.3em" style="text-anchor: end; visibility: inherit; font-family: Roboto, sans-serif; font-size: 12px; font-weight: 200;" fill="rgb(50, 49, 63)" stroke="none" stroke-width="1px">0.87</text><text x="0" y="105.39999999999502" dx="0em" dy="0.3em" style="text-anchor: end; visibility: inherit; font-family: Roboto, sans-serif; font-size: 12px; font-weight: 200;" fill="rgb(50, 49, 63)" stroke="none" stroke-width="1px">0.875</text><text x="0" y="67.59999999999398" dx="0em" dy="0.3em" style="text-anchor: end; visibility: inherit; font-family: Roboto, sans-serif; font-size: 12px; font-weight: 200;" fill="rgb(50, 49, 63)" stroke="none" stroke-width="1px">0.88</text><text x="0" y="29.799999999992984" dx="0em" dy="0.3em" style="text-anchor: end; visibility: inherit; font-family: Roboto, sans-serif; font-size: 12px; font-weight: 200;" fill="rgb(50, 49, 63)" stroke="none" stroke-width="1px">0.885</text></g><line x1="60" y1="0" x2="60" y2="378" fill="rgb(0, 0, 0)" stroke="rgb(204, 204, 204)" stroke-width="1px"></line></g></g><g transform="translate(60, 0)" clip-path="url(#clip_0)"><clipPath id="clip_0"><rect width="1052" height="378"></rect></clipPath><g><g><g><line x1="76.68333333333325" y1="0" x2="76.68333333333325" y2="378" fill="rgb(0, 0, 0)" stroke="rgb(60, 60, 60)" stroke-width="1px" opacity="0.25"></line><line x1="164.36666666666665" y1="0" x2="164.36666666666665" y2="378" fill="rgb(0, 0, 0)" stroke="rgb(60, 60, 60)" stroke-width="1px" opacity="0.25"></line><line x1="252.05000000000007" y1="0" x2="252.05000000000007" y2="378" fill="rgb(0, 0, 0)" stroke="rgb(60, 60, 60)" stroke-width="1px" opacity="0.25"></line><line x1="339.73333333333346" y1="0" x2="339.73333333333346" y2="378" fill="rgb(0, 0, 0)" stroke="rgb(60, 60, 60)" stroke-width="1px" opacity="0.25"></line><line x1="427.4166666666669" y1="0" x2="427.4166666666669" y2="378" fill="rgb(0, 0, 0)" stroke="rgb(60, 60, 60)" stroke-width="1px" opacity="0.25"></line><line x1="515.1000000000003" y1="0" x2="515.1000000000003" y2="378" fill="rgb(0, 0, 0)" stroke="rgb(60, 60, 60)" stroke-width="1px" opacity="0.25"></line><line x1="602.7833333333338" y1="0" x2="602.7833333333338" y2="378" fill="rgb(0, 0, 0)" stroke="rgb(60, 60, 60)" stroke-width="1px" opacity="0.25"></line><line x1="690.466666666667" y1="0" x2="690.466666666667" y2="378" fill="rgb(0, 0, 0)" stroke="rgb(60, 60, 60)" stroke-width="1px" opacity="0.25"></line><line x1="778.1500000000004" y1="0" x2="778.1500000000004" y2="378" fill="rgb(0, 0, 0)" stroke="rgb(60, 60, 60)" stroke-width="1px" opacity="0.25"></line><line x1="865.8333333333339" y1="0" x2="865.8333333333339" y2="378" fill="rgb(0, 0, 0)" stroke="rgb(60, 60, 60)" stroke-width="1px" opacity="0.25"></line><line x1="953.5166666666673" y1="0" x2="953.5166666666673" y2="378" fill="rgb(0, 0, 0)" stroke="rgb(60, 60, 60)" stroke-width="1px" opacity="0.25"></line><line x1="1041.2000000000007" y1="0" x2="1041.2000000000007" y2="378" fill="rgb(0, 0, 0)" stroke="rgb(60, 60, 60)" stroke-width="1px" opacity="0.25"></line></g><g><line x1="0" y1="370.00000000000205" x2="1052.2" y2="370.00000000000205" fill="rgb(0, 0, 0)" stroke="rgb(60, 60, 60)" stroke-width="1px" opacity="0.25"></line><line x1="0" y1="332.20000000000107" x2="1052.2" y2="332.20000000000107" fill="rgb(0, 0, 0)" stroke="rgb(60, 60, 60)" stroke-width="1px" opacity="0.25"></line><line x1="0" y1="294.40000000000003" x2="1052.2" y2="294.40000000000003" fill="rgb(0, 0, 0)" stroke="rgb(60, 60, 60)" stroke-width="1px" opacity="0.25"></line><line x1="0" y1="256.59999999999906" x2="1052.2" y2="256.59999999999906" fill="rgb(0, 0, 0)" stroke="rgb(60, 60, 60)" stroke-width="1px" opacity="0.25"></line><line x1="0" y1="218.79999999999802" x2="1052.2" y2="218.79999999999802" fill="rgb(0, 0, 0)" stroke="rgb(60, 60, 60)" stroke-width="1px" opacity="0.25"></line><line x1="0" y1="180.99999999999702" x2="1052.2" y2="180.99999999999702" fill="rgb(0, 0, 0)" stroke="rgb(60, 60, 60)" stroke-width="1px" opacity="0.25"></line><line x1="0" y1="143.199999999996" x2="1052.2" y2="143.199999999996" fill="rgb(0, 0, 0)" stroke="rgb(60, 60, 60)" stroke-width="1px" opacity="0.25"></line><line x1="0" y1="105.39999999999502" x2="1052.2" y2="105.39999999999502" fill="rgb(0, 0, 0)" stroke="rgb(60, 60, 60)" stroke-width="1px" opacity="0.25"></line><line x1="0" y1="67.59999999999398" x2="1052.2" y2="67.59999999999398" fill="rgb(0, 0, 0)" stroke="rgb(60, 60, 60)" stroke-width="1px" opacity="0.25"></line><line x1="0" y1="29.799999999992984" x2="1052.2" y2="29.799999999992984" fill="rgb(0, 0, 0)" stroke="rgb(60, 60, 60)" stroke-width="1px" opacity="0.25"></line></g></g></g><g><g><line x1="0" y1="6720.400000000165" x2="1052.2" y2="6720.400000000165" fill="rgb(0, 0, 0)" stroke="rgb(153, 153, 153)" stroke-width="1.5px"></line></g></g><g><g><line x1="76.68333333333325" y1="0" x2="76.68333333333325" y2="378" fill="rgb(0, 0, 0)" stroke="rgb(153, 153, 153)" stroke-width="1.5px"></line></g></g><g><g><g><g><g><path stroke="rgb(51, 187, 238)" stroke-width="2px" d="M94.21999999999993,468.93727579117257L111.75666666666662,303.6481622695924L129.2933333333333,134.42386188506657L146.82999999999996,163.93979110717427L164.36666666666665,110.8113888740491L181.90333333333334,67.52117910384534L199.44000000000003,83.26327838897149L216.97666666666672,61.61817350386962L234.51333333333338,55.71471729277937L252.05000000000007,57.68253602980944L269.58666666666676,47.84389295577354L287.12333333333345,45.87652482985797L304.6600000000001,45.87652482985797L322.19666666666683,47.84389295577354L339.73333333333346,47.84389295577354L357.27000000000015,53.7473491668638L374.80666666666684,47.84389295577354L392.34333333333353,43.9087060928279L409.88000000000017,43.9087060928279L427.4166666666669,43.9087060928279L444.95333333333355,41.94088735579783L462.49000000000024,43.9087060928279L480.0266666666669,43.9087060928279L497.5633333333336,43.9087060928279L515.1000000000003,43.9087060928279L532.636666666667,43.9087060928279L550.1733333333336,43.9087060928279L567.7100000000004,43.9087060928279L585.246666666667,43.9087060928279L602.7833333333338,43.9087060928279L620.3200000000004,43.9087060928279L637.856666666667,43.9087060928279L655.3933333333338,43.9087060928279L672.9300000000005,43.9087060928279L690.466666666667,43.9087060928279L708.0033333333338,43.9087060928279L725.5400000000004,43.9087060928279L743.0766666666672,43.9087060928279L760.6133333333339,43.9087060928279L778.1500000000004,43.9087060928279L795.6866666666672,43.9087060928279L813.2233333333339,43.9087060928279L830.7600000000006,43.9087060928279L848.2966666666672,43.9087060928279L865.8333333333339,43.9087060928279L883.3700000000006,43.9087060928279L900.9066666666673,43.9087060928279L918.443333333334,43.9087060928279L935.9800000000006,43.9087060928279" style="fill: none;" fill="none"></path></g><g><path stroke="rgb(0, 153, 136)" stroke-width="2px" d="M94.21999999999993,559.4524315834112L111.75666666666662,337.0997289657603L129.2933333333333,252.48757877349735L146.82999999999996,260.35840311050316L164.36666666666665,246.58412256240712L181.90333333333334,116.71439447402486L199.44000000000003,83.26327838897149L216.97666666666672,100.97274580001321L234.51333333333338,61.61817350386962L252.05000000000007,91.13410272597731L269.58666666666676,28.16660680770175L287.12333333333345,57.68253602980944L304.6600000000001,45.87652482985797L322.19666666666683,43.9087060928279L339.73333333333346,63.58599224089969L357.27000000000015,59.65035476683955L374.80666666666684,63.58599224089969L392.34333333333353,59.65035476683955L409.88000000000017,59.65035476683955L427.4166666666669,55.71471729277937L444.95333333333355,57.68253602980944L462.49000000000024,59.65035476683955L480.0266666666669,59.65035476683955L497.5633333333336,53.7473491668638L515.1000000000003,53.7473491668638L532.636666666667,57.68253602980944L550.1733333333336,49.811711692803655L567.7100000000004,51.77953042983373L585.246666666667,51.77953042983373L602.7833333333338,53.7473491668638L620.3200000000004,53.7473491668638L637.856666666667,53.7473491668638L655.3933333333338,53.7473491668638L672.9300000000005,53.7473491668638L690.466666666667,53.7473491668638L708.0033333333338,55.71471729277937L725.5400000000004,53.7473491668638L743.0766666666672,55.71471729277937L760.6133333333339,55.71471729277937L778.1500000000004,55.71471729277937L795.6866666666672,55.71471729277937L813.2233333333339,55.71471729277937L830.7600000000006,55.71471729277937L848.2966666666672,55.71471729277937L865.8333333333339,55.71471729277937L883.3700000000006,55.71471729277937L900.9066666666673,55.71471729277937L918.443333333334,55.71471729277937L935.9800000000006,55.71471729277937" style="fill: none;" fill="none"></path></g><g><path stroke="rgb(204, 51, 17)" stroke-width="2px" d="M76.68333333333325,510.2596668243462L94.21999999999993,262.32622184753325L111.75666666666662,199.35872592925767L129.2933333333333,140.3273180961568L146.82999999999996,99.00492706298314L164.36666666666665,87.19846525191717L181.90333333333334,63.58599224089969L199.44000000000003,77.35982217788123L216.97666666666672,83.26327838897149L234.51333333333338,83.26327838897149L252.05000000000007,75.39200344085116L269.58666666666676,73.42463531493559L287.12333333333345,85.23064651488706L304.6600000000001,81.29545965194141L322.19666666666683,81.29545965194141L339.73333333333346,81.29545965194141L357.27000000000015,81.29545965194141L374.80666666666684,81.29545965194141L392.34333333333353,81.29545965194141L409.88000000000017,81.29545965194141L427.4166666666669,81.29545965194141L444.95333333333355,81.29545965194141L462.49000000000024,81.29545965194141L480.0266666666669,81.29545965194141L497.5633333333336,81.29545965194141L515.1000000000003,81.29545965194141L532.636666666667,81.29545965194141L550.1733333333336,81.29545965194141L567.7100000000004,81.29545965194141L585.246666666667,81.29545965194141L602.7833333333338,81.29545965194141L620.3200000000004,81.29545965194141L637.856666666667,81.29545965194141L655.3933333333338,81.29545965194141L672.9300000000005,81.29545965194141L690.466666666667,81.29545965194141L708.0033333333338,81.29545965194141L725.5400000000004,81.29545965194141L743.0766666666672,81.29545965194141L760.6133333333339,81.29545965194141L778.1500000000004,81.29545965194141L795.6866666666672,81.29545965194141L813.2233333333339,81.29545965194141L830.7600000000006,81.29545965194141L848.2966666666672,81.29545965194141L865.8333333333339,81.29545965194141L883.3700000000006,81.29545965194141L900.9066666666673,81.29545965194141L918.443333333334,81.29545965194141L935.9800000000006,81.29545965194141" style="fill: none;" fill="none"></path></g><g><path stroke="rgb(238, 51, 119)" stroke-width="2px" d="M76.68333333333325,465.00163831711245L94.21999999999993,350.8735589027418L111.75666666666662,254.4553975105274L129.2933333333333,197.3913578033421L146.82999999999996,120.650031948085L164.36666666666665,179.68143978118587L181.90333333333334,118.68221321105493L199.44000000000003,65.55336036681527L216.97666666666672,71.45681657790551L234.51333333333338,75.39200344085116L252.05000000000007,77.35982217788123L269.58666666666676,67.52117910384534L287.12333333333345,45.87652482985797L304.6600000000001,71.45681657790551L322.19666666666683,43.9087060928279L339.73333333333346,41.94088735579783L357.27000000000015,61.61817350386962L374.80666666666684,49.811711692803655L392.34333333333353,53.7473491668638L409.88000000000017,53.7473491668638L427.4166666666669,49.811711692803655L444.95333333333355,49.811711692803655L462.49000000000024,55.71471729277937L480.0266666666669,47.84389295577354L497.5633333333336,47.84389295577354L515.1000000000003,53.7473491668638L532.636666666667,53.7473491668638L550.1733333333336,53.7473491668638L567.7100000000004,49.811711692803655L585.246666666667,49.811711692803655L602.7833333333338,49.811711692803655L620.3200000000004,51.77953042983373L637.856666666667,51.77953042983373L655.3933333333338,51.77953042983373L672.9300000000005,51.77953042983373L690.466666666667,51.77953042983373L708.0033333333338,51.77953042983373L725.5400000000004,51.77953042983373L743.0766666666672,51.77953042983373L760.6133333333339,51.77953042983373L778.1500000000004,51.77953042983373L795.6866666666672,51.77953042983373L813.2233333333339,51.77953042983373L830.7600000000006,51.77953042983373L848.2966666666672,51.77953042983373L865.8333333333339,51.77953042983373L883.3700000000006,51.77953042983373L900.9066666666673,51.77953042983373L918.443333333334,51.77953042983373L935.9800000000006,51.77953042983373" style="fill: none;" fill="none"></path></g><g><path stroke="rgb(187, 187, 187)" stroke-width="2px" d="M76.68333333333325,518.1304911613521L94.21999999999993,364.64783945083786L111.75666666666662,309.55161848068263L129.2933333333333,285.9386948585507L146.82999999999996,268.22922744750895L164.36666666666665,254.4553975105274L181.90333333333334,256.42276563644305L199.44000000000003,252.48757877349735L216.97666666666672,248.55194129943715L234.51333333333338,252.48757877349735L252.05000000000007,252.48757877349735L269.58666666666676,254.4553975105274L287.12333333333345,248.55194129943715L304.6600000000001,248.55194129943715L322.19666666666683,248.55194129943715L339.73333333333346,248.55194129943715L357.27000000000015,248.55194129943715L374.80666666666684,248.55194129943715L392.34333333333353,248.55194129943715L409.88000000000017,248.55194129943715L427.4166666666669,248.55194129943715L444.95333333333355,248.55194129943715L462.49000000000024,248.55194129943715L480.0266666666669,248.55194129943715L497.5633333333336,248.55194129943715L515.1000000000003,248.55194129943715L532.636666666667,248.55194129943715L550.1733333333336,248.55194129943715L567.7100000000004,248.55194129943715L585.246666666667,248.55194129943715L602.7833333333338,248.55194129943715L620.3200000000004,248.55194129943715L637.856666666667,248.55194129943715L655.3933333333338,248.55194129943715L672.9300000000005,248.55194129943715L690.466666666667,248.55194129943715L708.0033333333338,248.55194129943715L725.5400000000004,248.55194129943715L743.0766666666672,248.55194129943715L760.6133333333339,248.55194129943715L778.1500000000004,248.55194129943715L795.6866666666672,248.55194129943715L813.2233333333339,248.55194129943715L830.7600000000006,248.55194129943715L848.2966666666672,248.55194129943715L865.8333333333339,248.55194129943715L883.3700000000006,248.55194129943715L900.9066666666673,248.55194129943715L918.443333333334,248.55194129943715L935.9800000000006,248.55194129943715" style="fill: none;" fill="none"></path></g><g><path stroke="rgb(0, 119, 187)" stroke-width="2px" d="M76.68333333333325,465.00163831711245L94.21999999999993,348.90619077682624L111.75666666666662,295.7773379325866L129.2933333333333,238.71329822540125L146.82999999999996,209.19736900329357L164.36666666666665,183.61707725524607L181.90333333333334,163.93979110717427L199.44000000000003,142.29468622207236L216.97666666666672,144.26250495910247L234.51333333333338,134.42386188506657L252.05000000000007,110.8113888740491L269.58666666666676,114.74657573699474L287.12333333333345,100.97274580001321L304.6600000000001,100.97274580001321L322.19666666666683,93.10192146300739L339.73333333333346,79.32764091491134L357.27000000000015,75.39200344085116L374.80666666666684,81.29545965194141L392.34333333333353,79.32764091491134L409.88000000000017,75.39200344085116L427.4166666666669,69.48899784087544L444.95333333333355,65.55336036681527L462.49000000000024,77.35982217788123L480.0266666666669,73.42463531493559L497.5633333333336,69.48899784087544L515.1000000000003,71.45681657790551L532.636666666667,79.32764091491134L550.1733333333336,75.39200344085116L567.7100000000004,71.45681657790551L585.246666666667,73.42463531493559L602.7833333333338,67.52117910384534L620.3200000000004,63.58599224089969L637.856666666667,67.52117910384534L655.3933333333338,67.52117910384534L672.9300000000005,69.48899784087544L690.466666666667,53.7473491668638L708.0033333333338,65.55336036681527L725.5400000000004,67.52117910384534L743.0766666666672,65.55336036681527L760.6133333333339,73.42463531493559L778.1500000000004,71.45681657790551L795.6866666666672,69.48899784087544L813.2233333333339,73.42463531493559L830.7600000000006,67.52117910384534L848.2966666666672,67.52117910384534L865.8333333333339,65.55336036681527L883.3700000000006,67.52117910384534L900.9066666666673,67.52117910384534L918.443333333334,65.55336036681527L935.9800000000006,65.55336036681527" style="fill: none;" fill="none"></path></g></g></g></g></g></g><g transform="translate(60, 378)" clip-path="url(#clip_1)"><clipPath id="clip_1"><rect width="1052" height="22"></rect></clipPath><g><g><line x1="76.68333333333325" y1="0" x2="76.68333333333325" y2="5" style="visibility: inherit;" fill="rgb(0, 0, 0)" stroke="rgb(204, 204, 204)" stroke-width="1px"></line><line x1="164.36666666666665" y1="0" x2="164.36666666666665" y2="5" style="visibility: inherit;" fill="rgb(0, 0, 0)" stroke="rgb(204, 204, 204)" stroke-width="1px"></line><line x1="252.05000000000007" y1="0" x2="252.05000000000007" y2="5" style="visibility: inherit;" fill="rgb(0, 0, 0)" stroke="rgb(204, 204, 204)" stroke-width="1px"></line><line x1="339.73333333333346" y1="0" x2="339.73333333333346" y2="5" style="visibility: inherit;" fill="rgb(0, 0, 0)" stroke="rgb(204, 204, 204)" stroke-width="1px"></line><line x1="427.4166666666669" y1="0" x2="427.4166666666669" y2="5" style="visibility: inherit;" fill="rgb(0, 0, 0)" stroke="rgb(204, 204, 204)" stroke-width="1px"></line><line x1="515.1000000000003" y1="0" x2="515.1000000000003" y2="5" style="visibility: inherit;" fill="rgb(0, 0, 0)" stroke="rgb(204, 204, 204)" stroke-width="1px"></line><line x1="602.7833333333338" y1="0" x2="602.7833333333338" y2="5" style="visibility: inherit;" fill="rgb(0, 0, 0)" stroke="rgb(204, 204, 204)" stroke-width="1px"></line><line x1="690.466666666667" y1="0" x2="690.466666666667" y2="5" style="visibility: inherit;" fill="rgb(0, 0, 0)" stroke="rgb(204, 204, 204)" stroke-width="1px"></line><line x1="778.1500000000004" y1="0" x2="778.1500000000004" y2="5" style="visibility: inherit;" fill="rgb(0, 0, 0)" stroke="rgb(204, 204, 204)" stroke-width="1px"></line><line x1="865.8333333333339" y1="0" x2="865.8333333333339" y2="5" style="visibility: inherit;" fill="rgb(0, 0, 0)" stroke="rgb(204, 204, 204)" stroke-width="1px"></line><line x1="953.5166666666673" y1="0" x2="953.5166666666673" y2="5" style="visibility: inherit;" fill="rgb(0, 0, 0)" stroke="rgb(204, 204, 204)" stroke-width="1px"></line><line x1="1041.2000000000007" y1="0" x2="1041.2000000000007" y2="5" style="visibility: inherit;" fill="rgb(0, 0, 0)" stroke="rgb(204, 204, 204)" stroke-width="1px"></line></g><g transform="translate(0, 8)"><text x="76.68333333333325" y="0" dx="0em" dy="0.95em" style="text-anchor: middle; visibility: inherit; font-family: Roboto, sans-serif; font-size: 12px; font-weight: 200;" fill="rgb(50, 49, 63)" stroke="none" stroke-width="1px">0</text><text x="164.36666666666665" y="0" dx="0em" dy="0.95em" style="text-anchor: middle; visibility: inherit; font-family: Roboto, sans-serif; font-size: 12px; font-weight: 200;" fill="rgb(50, 49, 63)" stroke="none" stroke-width="1px">5</text><text x="252.05000000000007" y="0" dx="0em" dy="0.95em" style="text-anchor: middle; visibility: inherit; font-family: Roboto, sans-serif; font-size: 12px; font-weight: 200;" fill="rgb(50, 49, 63)" stroke="none" stroke-width="1px">10</text><text x="339.73333333333346" y="0" dx="0em" dy="0.95em" style="text-anchor: middle; visibility: inherit; font-family: Roboto, sans-serif; font-size: 12px; font-weight: 200;" fill="rgb(50, 49, 63)" stroke="none" stroke-width="1px">15</text><text x="427.4166666666669" y="0" dx="0em" dy="0.95em" style="text-anchor: middle; visibility: inherit; font-family: Roboto, sans-serif; font-size: 12px; font-weight: 200;" fill="rgb(50, 49, 63)" stroke="none" stroke-width="1px">20</text><text x="515.1000000000003" y="0" dx="0em" dy="0.95em" style="text-anchor: middle; visibility: inherit; font-family: Roboto, sans-serif; font-size: 12px; font-weight: 200;" fill="rgb(50, 49, 63)" stroke="none" stroke-width="1px">25</text><text x="602.7833333333338" y="0" dx="0em" dy="0.95em" style="text-anchor: middle; visibility: inherit; font-family: Roboto, sans-serif; font-size: 12px; font-weight: 200;" fill="rgb(50, 49, 63)" stroke="none" stroke-width="1px">30</text><text x="690.466666666667" y="0" dx="0em" dy="0.95em" style="text-anchor: middle; visibility: inherit; font-family: Roboto, sans-serif; font-size: 12px; font-weight: 200;" fill="rgb(50, 49, 63)" stroke="none" stroke-width="1px">35</text><text x="778.1500000000004" y="0" dx="0em" dy="0.95em" style="text-anchor: middle; visibility: inherit; font-family: Roboto, sans-serif; font-size: 12px; font-weight: 200;" fill="rgb(50, 49, 63)" stroke="none" stroke-width="1px">40</text><text x="865.8333333333339" y="0" dx="0em" dy="0.95em" style="text-anchor: middle; visibility: inherit; font-family: Roboto, sans-serif; font-size: 12px; font-weight: 200;" fill="rgb(50, 49, 63)" stroke="none" stroke-width="1px">45</text><text x="953.5166666666673" y="0" dx="0em" dy="0.95em" style="text-anchor: middle; visibility: inherit; font-family: Roboto, sans-serif; font-size: 12px; font-weight: 200;" fill="rgb(50, 49, 63)" stroke="none" stroke-width="1px">50</text><text x="1041.2000000000007" y="0" dx="0em" dy="0.95em" style="text-anchor: middle; visibility: inherit; font-family: Roboto, sans-serif; font-size: 12px; font-weight: 200;" fill="rgb(50, 49, 63)" stroke="none" stroke-width="1px">55</text></g><line x1="0" y1="0" x2="1052.2" y2="0" fill="rgb(0, 0, 0)" stroke="rgb(204, 204, 204)" stroke-width="1px"></line></g></g></g></g></svg>