<svg viewBox="0 0 1112.2000732421875 400" xmlns="http://www.w3.org/2000/svg"><g><g><g><g><g><line x1="50" y1="378" x2="45" y2="378" style="visibility: inherit;" fill="rgb(0, 0, 0)" stroke="rgb(204, 204, 204)" stroke-width="1px"></line><line x1="50" y1="346.5" x2="45" y2="346.5" style="visibility: inherit;" fill="rgb(0, 0, 0)" stroke="rgb(204, 204, 204)" stroke-width="1px"></line><line x1="50" y1="315" x2="45" y2="315" style="visibility: inherit;" fill="rgb(0, 0, 0)" stroke="rgb(204, 204, 204)" stroke-width="1px"></line><line x1="50" y1="283.5" x2="45" y2="283.5" style="visibility: inherit;" fill="rgb(0, 0, 0)" stroke="rgb(204, 204, 204)" stroke-width="1px"></line><line x1="50" y1="252.00000000000003" x2="45" y2="252.00000000000003" style="visibility: inherit;" fill="rgb(0, 0, 0)" stroke="rgb(204, 204, 204)" stroke-width="1px"></line><line x1="50" y1="220.5" x2="45" y2="220.5" style="visibility: inherit;" fill="rgb(0, 0, 0)" stroke="rgb(204, 204, 204)" stroke-width="1px"></line><line x1="50" y1="189.00000000000003" x2="45" y2="189.00000000000003" style="visibility: inherit;" fill="rgb(0, 0, 0)" stroke="rgb(204, 204, 204)" stroke-width="1px"></line><line x1="50" y1="157.50000000000003" x2="45" y2="157.50000000000003" style="visibility: inherit;" fill="rgb(0, 0, 0)" stroke="rgb(204, 204, 204)" stroke-width="1px"></line><line x1="50" y1="126.00000000000006" x2="45" y2="126.00000000000006" style="visibility: inherit;" fill="rgb(0, 0, 0)" stroke="rgb(204, 204, 204)" stroke-width="1px"></line><line x1="50" y1="94.50000000000004" x2="45" y2="94.50000000000004" style="visibility: inherit;" fill="rgb(0, 0, 0)" stroke="rgb(204, 204, 204)" stroke-width="1px"></line><line x1="50" y1="63.00000000000003" x2="45" y2="63.00000000000003" style="visibility: inherit;" fill="rgb(0, 0, 0)" stroke="rgb(204, 204, 204)" stroke-width="1px"></line><line x1="50" y1="31.500000000000014" x2="45" y2="31.500000000000014" style="visibility: inherit;" fill="rgb(0, 0, 0)" stroke="rgb(204, 204, 204)" stroke-width="1px"></line><line x1="50" y1="0" x2="45" y2="0" style="visibility: inherit;" fill="rgb(0, 0, 0)" stroke="rgb(204, 204, 204)" stroke-width="1px"></line></g><g transform="translate(40, 0)"><text x="0" y="378" dx="0em" dy="0.3em" style="text-anchor: end; visibility: hidden; font-family: Roboto, sans-serif; font-size: 12px; font-weight: 200;" fill="rgb(50, 49, 63)" stroke="none" stroke-width="1px">-0.2</text><text x="0" y="346.5" dx="0em" dy="0.3em" style="text-anchor: end; visibility: inherit; font-family: Roboto, sans-serif; font-size: 12px; font-weight: 200;" fill="rgb(50, 49, 63)" stroke="none" stroke-width="1px">0</text><text x="0" y="315" dx="0em" dy="0.3em" style="text-anchor: end; visibility: inherit; font-family: Roboto, sans-serif; font-size: 12px; font-weight: 200;" fill="rgb(50, 49, 63)" stroke="none" stroke-width="1px">0.2</text><text x="0" y="283.5" dx="0em" dy="0.3em" style="text-anchor: end; visibility: inherit; font-family: Roboto, sans-serif; font-size: 12px; font-weight: 200;" fill="rgb(50, 49, 63)" stroke="none" stroke-width="1px">0.4</text><text x="0" y="252.00000000000003" dx="0em" dy="0.3em" style="text-anchor: end; visibility: inherit; font-family: Roboto, sans-serif; font-size: 12px; font-weight: 200;" fill="rgb(50, 49, 63)" stroke="none" stroke-width="1px">0.6</text><text x="0" y="220.5" dx="0em" dy="0.3em" style="text-anchor: end; visibility: inherit; font-family: Roboto, sans-serif; font-size: 12px; font-weight: 200;" fill="rgb(50, 49, 63)" stroke="none" stroke-width="1px">0.8</text><text x="0" y="189.00000000000003" dx="0em" dy="0.3em" style="text-anchor: end; visibility: inherit; font-family: Roboto, sans-serif; font-size: 12px; font-weight: 200;" fill="rgb(50, 49, 63)" stroke="none" stroke-width="1px">1</text><text x="0" y="157.50000000000003" dx="0em" dy="0.3em" style="text-anchor: end; visibility: inherit; font-family: Roboto, sans-serif; font-size: 12px; font-weight: 200;" fill="rgb(50, 49, 63)" stroke="none" stroke-width="1px">1.2</text><text x="0" y="126.00000000000006" dx="0em" dy="0.3em" style="text-anchor: end; visibility: inherit; font-family: Roboto, sans-serif; font-size: 12px; font-weight: 200;" fill="rgb(50, 49, 63)" stroke="none" stroke-width="1px">1.4</text><text x="0" y="94.50000000000004" dx="0em" dy="0.3em" style="text-anchor: end; visibility: inherit; font-family: Roboto, sans-serif; font-size: 12px; font-weight: 200;" fill="rgb(50, 49, 63)" stroke="none" stroke-width="1px">1.6</text><text x="0" y="63.00000000000003" dx="0em" dy="0.3em" style="text-anchor: end; visibility: inherit; font-family: Roboto, sans-serif; font-size: 12px; font-weight: 200;" fill="rgb(50, 49, 63)" stroke="none" stroke-width="1px">1.8</text><text x="0" y="31.500000000000014" dx="0em" dy="0.3em" style="text-anchor: end; visibility: inherit; font-family: Roboto, sans-serif; font-size: 12px; font-weight: 200;" fill="rgb(50, 49, 63)" stroke="none" stroke-width="1px">2</text><text x="0" y="0" dx="0em" dy="0.3em" style="text-anchor: end; visibility: hidden; font-family: Roboto, sans-serif; font-size: 12px; font-weight: 200;" fill="rgb(50, 49, 63)" stroke="none" stroke-width="1px">2.2</text></g><line x1="50" y1="0" x2="50" y2="378" fill="rgb(0, 0, 0)" stroke="rgb(204, 204, 204)" stroke-width="1px"></line></g></g><g transform="translate(50, 0)" clip-path="url(#clip_0)"><clipPath id="clip_0"><rect width="1062" height="378"></rect></clipPath><g><g><g><line x1="0" y1="0" x2="0" y2="378" fill="rgb(0, 0, 0)" stroke="rgb(60, 60, 60)" stroke-width="1px" opacity="0.25"></line><line x1="88.51666666666667" y1="0" x2="88.51666666666667" y2="378" fill="rgb(0, 0, 0)" stroke="rgb(60, 60, 60)" stroke-width="1px" opacity="0.25"></line><line x1="177.03333333333333" y1="0" x2="177.03333333333333" y2="378" fill="rgb(0, 0, 0)" stroke="rgb(60, 60, 60)" stroke-width="1px" opacity="0.25"></line><line x1="265.55" y1="0" x2="265.55" y2="378" fill="rgb(0, 0, 0)" stroke="rgb(60, 60, 60)" stroke-width="1px" opacity="0.25"></line><line x1="354.06666666666666" y1="0" x2="354.06666666666666" y2="378" fill="rgb(0, 0, 0)" stroke="rgb(60, 60, 60)" stroke-width="1px" opacity="0.25"></line><line x1="442.58333333333337" y1="0" x2="442.58333333333337" y2="378" fill="rgb(0, 0, 0)" stroke="rgb(60, 60, 60)" stroke-width="1px" opacity="0.25"></line><line x1="531.1" y1="0" x2="531.1" y2="378" fill="rgb(0, 0, 0)" stroke="rgb(60, 60, 60)" stroke-width="1px" opacity="0.25"></line><line x1="619.6166666666668" y1="0" x2="619.6166666666668" y2="378" fill="rgb(0, 0, 0)" stroke="rgb(60, 60, 60)" stroke-width="1px" opacity="0.25"></line><line x1="708.1333333333333" y1="0" x2="708.1333333333333" y2="378" fill="rgb(0, 0, 0)" stroke="rgb(60, 60, 60)" stroke-width="1px" opacity="0.25"></line><line x1="796.6500000000001" y1="0" x2="796.6500000000001" y2="378" fill="rgb(0, 0, 0)" stroke="rgb(60, 60, 60)" stroke-width="1px" opacity="0.25"></line><line x1="885.1666666666667" y1="0" x2="885.1666666666667" y2="378" fill="rgb(0, 0, 0)" stroke="rgb(60, 60, 60)" stroke-width="1px" opacity="0.25"></line><line x1="973.6833333333333" y1="0" x2="973.6833333333333" y2="378" fill="rgb(0, 0, 0)" stroke="rgb(60, 60, 60)" stroke-width="1px" opacity="0.25"></line><line x1="1062.2" y1="0" x2="1062.2" y2="378" fill="rgb(0, 0, 0)" stroke="rgb(60, 60, 60)" stroke-width="1px" opacity="0.25"></line></g><g><line x1="0" y1="378" x2="1062.2" y2="378" fill="rgb(0, 0, 0)" stroke="rgb(60, 60, 60)" stroke-width="1px" opacity="0.25"></line><line x1="0" y1="346.5" x2="1062.2" y2="346.5" fill="rgb(0, 0, 0)" stroke="rgb(60, 60, 60)" stroke-width="1px" opacity="0.25"></line><line x1="0" y1="315" x2="1062.2" y2="315" fill="rgb(0, 0, 0)" stroke="rgb(60, 60, 60)" stroke-width="1px" opacity="0.25"></line><line x1="0" y1="283.5" x2="1062.2" y2="283.5" fill="rgb(0, 0, 0)" stroke="rgb(60, 60, 60)" stroke-width="1px" opacity="0.25"></line><line x1="0" y1="252.00000000000003" x2="1062.2" y2="252.00000000000003" fill="rgb(0, 0, 0)" stroke="rgb(60, 60, 60)" stroke-width="1px" opacity="0.25"></line><line x1="0" y1="220.5" x2="1062.2" y2="220.5" fill="rgb(0, 0, 0)" stroke="rgb(60, 60, 60)" stroke-width="1px" opacity="0.25"></line><line x1="0" y1="189.00000000000003" x2="1062.2" y2="189.00000000000003" fill="rgb(0, 0, 0)" stroke="rgb(60, 60, 60)" stroke-width="1px" opacity="0.25"></line><line x1="0" y1="157.50000000000003" x2="1062.2" y2="157.50000000000003" fill="rgb(0, 0, 0)" stroke="rgb(60, 60, 60)" stroke-width="1px" opacity="0.25"></line><line x1="0" y1="126.00000000000006" x2="1062.2" y2="126.00000000000006" fill="rgb(0, 0, 0)" stroke="rgb(60, 60, 60)" stroke-width="1px" opacity="0.25"></line><line x1="0" y1="94.50000000000004" x2="1062.2" y2="94.50000000000004" fill="rgb(0, 0, 0)" stroke="rgb(60, 60, 60)" stroke-width="1px" opacity="0.25"></line><line x1="0" y1="63.00000000000003" x2="1062.2" y2="63.00000000000003" fill="rgb(0, 0, 0)" stroke="rgb(60, 60, 60)" stroke-width="1px" opacity="0.25"></line><line x1="0" y1="31.500000000000014" x2="1062.2" y2="31.500000000000014" fill="rgb(0, 0, 0)" stroke="rgb(60, 60, 60)" stroke-width="1px" opacity="0.25"></line><line x1="0" y1="0" x2="1062.2" y2="0" fill="rgb(0, 0, 0)" stroke="rgb(60, 60, 60)" stroke-width="1px" opacity="0.25"></line></g></g></g><g><g><line x1="0" y1="346.5" x2="1062.2" y2="346.5" fill="rgb(0, 0, 0)" stroke="rgb(153, 153, 153)" stroke-width="1.5px"></line></g></g><g><g><line x1="88.51666666666667" y1="0" x2="88.51666666666667" y2="378" fill="rgb(0, 0, 0)" stroke="rgb(153, 153, 153)" stroke-width="1.5px"></line></g></g><g><g><g><g><g><path stroke="rgb(204, 51, 17)" stroke-width="2px" d="M88.51666666666667,268.37457986176014L106.22000000000001,273.42118495702744L123.92333333333335,269.1270065456629L141.62666666666667,258.1298845410347L159.33,272.17847929894924L177.03333333333333,271.890717163682L194.73666666666665,269.285382270813L212.44000000000003,271.6426510512829L230.14333333333335,265.75871193408966L247.8466666666667,270.7785385251045L265.55,269.8612022548914L283.25333333333333,267.77052158117294L300.95666666666665,265.78420901298523L318.66,266.4285641312599L336.36333333333334,267.1854499876499L354.06666666666666,266.6796577870846L371.77,266.08851233124733L389.4733333333333,266.4710248410702L407.17666666666673,263.3247829377651L424.88000000000005,265.9158907234669L442.58333333333337,265.3857091963291L460.2866666666667,264.6925942003727L477.99,264.31551718711853L495.6933333333334,264.1341837644577L513.3966666666666,264.1452612876892L531.1,263.8739464581013L548.8033333333334,263.06135380268097L566.5066666666667,263.1526682674885L584.21,263.1408021748066L601.9133333333333,263.1358548402786L619.6166666666668,263.2247284948826L637.32,263.1431397199631L655.0233333333334,263.20957669615746L672.7266666666667,263.2597259581089L690.4300000000001,263.2166832089424L708.1333333333333,263.3072935938835L725.8366666666667,263.33599188923836L743.54,263.4509071111679L761.2433333333333,263.36970323324203L778.9466666666666,263.3924121558666L796.6500000000001,263.29138138890266L814.3533333333335,263.38928604125977L832.0566666666667,263.3007127940655L849.7600000000001,263.36453998088837L867.4633333333334,263.33395475149155L885.1666666666667,263.33744698762894L902.87,263.3631412088871L920.5733333333334,263.2854765057564L938.2766666666666,263.2496529221535L955.98,263.2768022418022" style="fill: none;" fill="none"></path></g><g><path stroke="rgb(0, 119, 187)" stroke-width="2px" d="M88.51666666666667,283.45683896541595L106.22000000000001,293.4083272665739L123.92333333333335,298.0711572021246L141.62666666666667,300.20562694966793L159.33,302.5791599750519L177.03333333333333,303.31805424392223L194.73666666666665,304.30403830111027L212.44000000000003,304.35229593515396L230.14333333333335,304.3282727301121L247.8466666666667,304.52463591098785L265.55,304.747359842062L283.25333333333333,304.6614198535681L300.95666666666665,303.24305096268654L318.66,303.8102107644081L336.36333333333334,303.139663875103L354.06666666666666,302.54184843599796L371.77,300.4954309165478L389.4733333333333,300.43939554691315L407.17666666666673,299.08666567504406L424.88000000000005,298.988676533103L442.58333333333337,298.22564171254635L460.2866666666667,297.59166003763676L477.99,297.6099895834923L495.6933333333334,296.17961847782135L513.3966666666666,296.26830907166004L531.1,294.8015652000904L548.8033333333334,293.8903778940439L566.5066666666667,294.28236731886864L584.21,292.47262389957905L601.9133333333333,292.26457768678665L619.6166666666668,291.9229487478733L637.32,291.0529078692198L655.0233333333334,289.83823397755623L672.7266666666667,288.2121145874262L690.4300000000001,287.52194733917713L708.1333333333333,287.4327779710293L725.8366666666667,286.87468671798706L743.54,284.7764770835638L761.2433333333333,286.00287625193596L778.9466666666666,284.35308569669724L796.6500000000001,283.4844388961792L814.3533333333335,283.8698803782463L832.0566666666667,282.3147932589054L849.7600000000001,281.67529159784317L867.4633333333334,281.0549174398184L885.1666666666667,280.79497115314007L902.87,279.9475124627352L920.5733333333334,278.7391377389431L938.2766666666666,278.4016722589731L955.98,278.0088614076376" style="fill: none;" fill="none"></path></g><g><path stroke="rgb(238, 51, 119)" stroke-width="2px" d="M88.51666666666667,269.26731088757515L106.22000000000001,281.9574680328369L123.92333333333335,283.9168096482754L141.62666666666667,288.9270936101675L159.33,287.78591626882553L177.03333333333333,285.23150512576103L194.73666666666665,288.3790378421545L212.44000000000003,289.8229883015156L230.14333333333335,289.3902842849493L247.8466666666667,289.354343354702L265.55,288.4951546937227L283.25333333333333,288.9623492360115L300.95666666666665,288.89449940621853L318.66,288.6457573771477L336.36333333333334,288.9350731819868L354.06666666666666,288.88073229789734L371.77,288.9432921409607L389.4733333333333,288.8006596416235L407.17666666666673,288.76264402270317L424.88000000000005,288.7805182635784L442.58333333333337,288.7650097310543L460.2866666666667,288.7179067879915L477.99,288.72192004323006L495.6933333333334,288.6626599878073L513.3966666666666,288.63501311838627L531.1,288.5944909751415L548.8033333333334,288.58983935415745L566.5066666666667,288.5601975917816L584.21,288.56126779317856L601.9133333333333,288.5530582219362L619.6166666666668,288.5668628811836L637.32,288.5716083794832L655.0233333333334,288.57577653229237L672.7266666666667,288.57895427942276L690.4300000000001,288.5794799923897L708.1333333333333,288.57580000162125L725.8366666666667,288.57654163241386L743.54,288.5748706161976L761.2433333333333,288.5761004090309L778.9466666666666,288.57605816423893L796.6500000000001,288.57728795707226L814.3533333333335,288.57646653056145L832.0566666666667,288.57705326378345L849.7600000000001,288.5775977522135L867.4633333333334,288.57799203693867L885.1666666666667,288.5778653025627L902.87,288.57801550626755L920.5733333333334,288.5781046897173L938.2766666666666,288.5781844854355L955.98,288.5781375467777" style="fill: none;" fill="none"></path></g></g></g></g></g></g><g transform="translate(50, 378)" clip-path="url(#clip_1)"><clipPath id="clip_1"><rect width="1062" height="22"></rect></clipPath><g><g><line x1="0" y1="0" x2="0" y2="5" style="visibility: inherit;" fill="rgb(0, 0, 0)" stroke="rgb(204, 204, 204)" stroke-width="1px"></line><line x1="88.51666666666667" y1="0" x2="88.51666666666667" y2="5" style="visibility: inherit;" fill="rgb(0, 0, 0)" stroke="rgb(204, 204, 204)" stroke-width="1px"></line><line x1="177.03333333333333" y1="0" x2="177.03333333333333" y2="5" style="visibility: inherit;" fill="rgb(0, 0, 0)" stroke="rgb(204, 204, 204)" stroke-width="1px"></line><line x1="265.55" y1="0" x2="265.55" y2="5" style="visibility: inherit;" fill="rgb(0, 0, 0)" stroke="rgb(204, 204, 204)" stroke-width="1px"></line><line x1="354.06666666666666" y1="0" x2="354.06666666666666" y2="5" style="visibility: inherit;" fill="rgb(0, 0, 0)" stroke="rgb(204, 204, 204)" stroke-width="1px"></line><line x1="442.58333333333337" y1="0" x2="442.58333333333337" y2="5" style="visibility: inherit;" fill="rgb(0, 0, 0)" stroke="rgb(204, 204, 204)" stroke-width="1px"></line><line x1="531.1" y1="0" x2="531.1" y2="5" style="visibility: inherit;" fill="rgb(0, 0, 0)" stroke="rgb(204, 204, 204)" stroke-width="1px"></line><line x1="619.6166666666668" y1="0" x2="619.6166666666668" y2="5" style="visibility: inherit;" fill="rgb(0, 0, 0)" stroke="rgb(204, 204, 204)" stroke-width="1px"></line><line x1="708.1333333333333" y1="0" x2="708.1333333333333" y2="5" style="visibility: inherit;" fill="rgb(0, 0, 0)" stroke="rgb(204, 204, 204)" stroke-width="1px"></line><line x1="796.6500000000001" y1="0" x2="796.6500000000001" y2="5" style="visibility: inherit;" fill="rgb(0, 0, 0)" stroke="rgb(204, 204, 204)" stroke-width="1px"></line><line x1="885.1666666666667" y1="0" x2="885.1666666666667" y2="5" style="visibility: inherit;" fill="rgb(0, 0, 0)" stroke="rgb(204, 204, 204)" stroke-width="1px"></line><line x1="973.6833333333333" y1="0" x2="973.6833333333333" y2="5" style="visibility: inherit;" fill="rgb(0, 0, 0)" stroke="rgb(204, 204, 204)" stroke-width="1px"></line><line x1="1062.2" y1="0" x2="1062.2" y2="5" style="visibility: inherit;" fill="rgb(0, 0, 0)" stroke="rgb(204, 204, 204)" stroke-width="1px"></line></g><g transform="translate(0, 8)"><text x="0" y="0" dx="0em" dy="0.95em" style="text-anchor: middle; visibility: hidden; font-family: Roboto, sans-serif; font-size: 12px; font-weight: 200;" fill="rgb(50, 49, 63)" stroke="none" stroke-width="1px">-5</text><text x="88.51666666666667" y="0" dx="0em" dy="0.95em" style="text-anchor: middle; visibility: inherit; font-family: Roboto, sans-serif; font-size: 12px; font-weight: 200;" fill="rgb(50, 49, 63)" stroke="none" stroke-width="1px">0</text><text x="177.03333333333333" y="0" dx="0em" dy="0.95em" style="text-anchor: middle; visibility: inherit; font-family: Roboto, sans-serif; font-size: 12px; font-weight: 200;" fill="rgb(50, 49, 63)" stroke="none" stroke-width="1px">5</text><text x="265.55" y="0" dx="0em" dy="0.95em" style="text-anchor: middle; visibility: inherit; font-family: Roboto, sans-serif; font-size: 12px; font-weight: 200;" fill="rgb(50, 49, 63)" stroke="none" stroke-width="1px">10</text><text x="354.06666666666666" y="0" dx="0em" dy="0.95em" style="text-anchor: middle; visibility: inherit; font-family: Roboto, sans-serif; font-size: 12px; font-weight: 200;" fill="rgb(50, 49, 63)" stroke="none" stroke-width="1px">15</text><text x="442.58333333333337" y="0" dx="0em" dy="0.95em" style="text-anchor: middle; visibility: inherit; font-family: Roboto, sans-serif; font-size: 12px; font-weight: 200;" fill="rgb(50, 49, 63)" stroke="none" stroke-width="1px">20</text><text x="531.1" y="0" dx="0em" dy="0.95em" style="text-anchor: middle; visibility: inherit; font-family: Roboto, sans-serif; font-size: 12px; font-weight: 200;" fill="rgb(50, 49, 63)" stroke="none" stroke-width="1px">25</text><text x="619.6166666666668" y="0" dx="0em" dy="0.95em" style="text-anchor: middle; visibility: inherit; font-family: Roboto, sans-serif; font-size: 12px; font-weight: 200;" fill="rgb(50, 49, 63)" stroke="none" stroke-width="1px">30</text><text x="708.1333333333333" y="0" dx="0em" dy="0.95em" style="text-anchor: middle; visibility: inherit; font-family: Roboto, sans-serif; font-size: 12px; font-weight: 200;" fill="rgb(50, 49, 63)" stroke="none" stroke-width="1px">35</text><text x="796.6500000000001" y="0" dx="0em" dy="0.95em" style="text-anchor: middle; visibility: inherit; font-family: Roboto, sans-serif; font-size: 12px; font-weight: 200;" fill="rgb(50, 49, 63)" stroke="none" stroke-width="1px">40</text><text x="885.1666666666667" y="0" dx="0em" dy="0.95em" style="text-anchor: middle; visibility: inherit; font-family: Roboto, sans-serif; font-size: 12px; font-weight: 200;" fill="rgb(50, 49, 63)" stroke="none" stroke-width="1px">45</text><text x="973.6833333333333" y="0" dx="0em" dy="0.95em" style="text-anchor: middle; visibility: inherit; font-family: Roboto, sans-serif; font-size: 12px; font-weight: 200;" fill="rgb(50, 49, 63)" stroke="none" stroke-width="1px">50</text><text x="1062.2" y="0" dx="0em" dy="0.95em" style="text-anchor: middle; visibility: hidden; font-family: Roboto, sans-serif; font-size: 12px; font-weight: 200;" fill="rgb(50, 49, 63)" stroke="none" stroke-width="1px">55</text></g><line x1="0" y1="0" x2="1062.2" y2="0" fill="rgb(0, 0, 0)" stroke="rgb(204, 204, 204)" stroke-width="1px"></line></g></g></g></g></svg>