<svg viewBox="0 0 1112.2000732421875 400" xmlns="http://www.w3.org/2000/svg"><g><g><g><g><g><line x1="50" y1="345.12930977695675" x2="45" y2="345.12930977695675" style="visibility: inherit;" fill="rgb(0, 0, 0)" stroke="rgb(204, 204, 204)" stroke-width="1px"></line><line x1="50" y1="307.66928565437064" x2="45" y2="307.66928565437064" style="visibility: inherit;" fill="rgb(0, 0, 0)" stroke="rgb(204, 204, 204)" stroke-width="1px"></line><line x1="50" y1="270.20926153178493" x2="45" y2="270.20926153178493" style="visibility: inherit;" fill="rgb(0, 0, 0)" stroke="rgb(204, 204, 204)" stroke-width="1px"></line><line x1="50" y1="232.74923740919886" x2="45" y2="232.74923740919886" style="visibility: inherit;" fill="rgb(0, 0, 0)" stroke="rgb(204, 204, 204)" stroke-width="1px"></line><line x1="50" y1="195.28921328661275" x2="45" y2="195.28921328661275" style="visibility: inherit;" fill="rgb(0, 0, 0)" stroke="rgb(204, 204, 204)" stroke-width="1px"></line><line x1="50" y1="157.82918916402667" x2="45" y2="157.82918916402667" style="visibility: inherit;" fill="rgb(0, 0, 0)" stroke="rgb(204, 204, 204)" stroke-width="1px"></line><line x1="50" y1="120.36916504144057" x2="45" y2="120.36916504144057" style="visibility: inherit;" fill="rgb(0, 0, 0)" stroke="rgb(204, 204, 204)" stroke-width="1px"></line><line x1="50" y1="82.90914091885442" x2="45" y2="82.90914091885442" style="visibility: inherit;" fill="rgb(0, 0, 0)" stroke="rgb(204, 204, 204)" stroke-width="1px"></line><line x1="50" y1="45.44911679626833" x2="45" y2="45.44911679626833" style="visibility: inherit;" fill="rgb(0, 0, 0)" stroke="rgb(204, 204, 204)" stroke-width="1px"></line><line x1="50" y1="7.989092673682229" x2="45" y2="7.989092673682229" style="visibility: inherit;" fill="rgb(0, 0, 0)" stroke="rgb(204, 204, 204)" stroke-width="1px"></line></g><g transform="translate(40, 0)"><text x="0" y="345.12930977695675" dx="0em" dy="0.3em" style="text-anchor: end; visibility: inherit; font-family: Roboto, sans-serif; font-size: 12px; font-weight: 200;" fill="rgb(50, 49, 63)" stroke="none" stroke-width="1px">0.8</text><text x="0" y="307.66928565437064" dx="0em" dy="0.3em" style="text-anchor: end; visibility: inherit; font-family: Roboto, sans-serif; font-size: 12px; font-weight: 200;" fill="rgb(50, 49, 63)" stroke="none" stroke-width="1px">0.81</text><text x="0" y="270.20926153178493" dx="0em" dy="0.3em" style="text-anchor: end; visibility: inherit; font-family: Roboto, sans-serif; font-size: 12px; font-weight: 200;" fill="rgb(50, 49, 63)" stroke="none" stroke-width="1px">0.82</text><text x="0" y="232.74923740919886" dx="0em" dy="0.3em" style="text-anchor: end; visibility: inherit; font-family: Roboto, sans-serif; font-size: 12px; font-weight: 200;" fill="rgb(50, 49, 63)" stroke="none" stroke-width="1px">0.83</text><text x="0" y="195.28921328661275" dx="0em" dy="0.3em" style="text-anchor: end; visibility: inherit; font-family: Roboto, sans-serif; font-size: 12px; font-weight: 200;" fill="rgb(50, 49, 63)" stroke="none" stroke-width="1px">0.84</text><text x="0" y="157.82918916402667" dx="0em" dy="0.3em" style="text-anchor: end; visibility: inherit; font-family: Roboto, sans-serif; font-size: 12px; font-weight: 200;" fill="rgb(50, 49, 63)" stroke="none" stroke-width="1px">0.85</text><text x="0" y="120.36916504144057" dx="0em" dy="0.3em" style="text-anchor: end; visibility: inherit; font-family: Roboto, sans-serif; font-size: 12px; font-weight: 200;" fill="rgb(50, 49, 63)" stroke="none" stroke-width="1px">0.86</text><text x="0" y="82.90914091885442" dx="0em" dy="0.3em" style="text-anchor: end; visibility: inherit; font-family: Roboto, sans-serif; font-size: 12px; font-weight: 200;" fill="rgb(50, 49, 63)" stroke="none" stroke-width="1px">0.87</text><text x="0" y="45.44911679626833" dx="0em" dy="0.3em" style="text-anchor: end; visibility: inherit; font-family: Roboto, sans-serif; font-size: 12px; font-weight: 200;" fill="rgb(50, 49, 63)" stroke="none" stroke-width="1px">0.88</text><text x="0" y="7.989092673682229" dx="0em" dy="0.3em" style="text-anchor: end; visibility: inherit; font-family: Roboto, sans-serif; font-size: 12px; font-weight: 200;" fill="rgb(50, 49, 63)" stroke="none" stroke-width="1px">0.89</text></g><line x1="50" y1="0" x2="50" y2="378" fill="rgb(0, 0, 0)" stroke="rgb(204, 204, 204)" stroke-width="1px"></line></g></g><g transform="translate(50, 0)" clip-path="url(#clip_0)"><clipPath id="clip_0"><rect width="1062" height="378"></rect></clipPath><g><g><g><line x1="9.737807967304114" y1="0" x2="9.737807967304114" y2="378" fill="rgb(0, 0, 0)" stroke="rgb(60, 60, 60)" stroke-width="1px" opacity="0.25"></line><line x1="115.00245776362812" y1="0" x2="115.00245776362812" y2="378" fill="rgb(0, 0, 0)" stroke="rgb(60, 60, 60)" stroke-width="1px" opacity="0.25"></line><line x1="220.2671075599521" y1="0" x2="220.2671075599521" y2="378" fill="rgb(0, 0, 0)" stroke="rgb(60, 60, 60)" stroke-width="1px" opacity="0.25"></line><line x1="325.5317573562761" y1="0" x2="325.5317573562761" y2="378" fill="rgb(0, 0, 0)" stroke="rgb(60, 60, 60)" stroke-width="1px" opacity="0.25"></line><line x1="430.7964071526001" y1="0" x2="430.7964071526001" y2="378" fill="rgb(0, 0, 0)" stroke="rgb(60, 60, 60)" stroke-width="1px" opacity="0.25"></line><line x1="536.0610569489241" y1="0" x2="536.0610569489241" y2="378" fill="rgb(0, 0, 0)" stroke="rgb(60, 60, 60)" stroke-width="1px" opacity="0.25"></line><line x1="641.3257067452481" y1="0" x2="641.3257067452481" y2="378" fill="rgb(0, 0, 0)" stroke="rgb(60, 60, 60)" stroke-width="1px" opacity="0.25"></line><line x1="746.5903565415721" y1="0" x2="746.5903565415721" y2="378" fill="rgb(0, 0, 0)" stroke="rgb(60, 60, 60)" stroke-width="1px" opacity="0.25"></line><line x1="851.855006337896" y1="0" x2="851.855006337896" y2="378" fill="rgb(0, 0, 0)" stroke="rgb(60, 60, 60)" stroke-width="1px" opacity="0.25"></line><line x1="957.1196561342201" y1="0" x2="957.1196561342201" y2="378" fill="rgb(0, 0, 0)" stroke="rgb(60, 60, 60)" stroke-width="1px" opacity="0.25"></line></g><g><line x1="0" y1="345.12930977695675" x2="1062.2" y2="345.12930977695675" fill="rgb(0, 0, 0)" stroke="rgb(60, 60, 60)" stroke-width="1px" opacity="0.25"></line><line x1="0" y1="307.66928565437064" x2="1062.2" y2="307.66928565437064" fill="rgb(0, 0, 0)" stroke="rgb(60, 60, 60)" stroke-width="1px" opacity="0.25"></line><line x1="0" y1="270.20926153178493" x2="1062.2" y2="270.20926153178493" fill="rgb(0, 0, 0)" stroke="rgb(60, 60, 60)" stroke-width="1px" opacity="0.25"></line><line x1="0" y1="232.74923740919886" x2="1062.2" y2="232.74923740919886" fill="rgb(0, 0, 0)" stroke="rgb(60, 60, 60)" stroke-width="1px" opacity="0.25"></line><line x1="0" y1="195.28921328661275" x2="1062.2" y2="195.28921328661275" fill="rgb(0, 0, 0)" stroke="rgb(60, 60, 60)" stroke-width="1px" opacity="0.25"></line><line x1="0" y1="157.82918916402667" x2="1062.2" y2="157.82918916402667" fill="rgb(0, 0, 0)" stroke="rgb(60, 60, 60)" stroke-width="1px" opacity="0.25"></line><line x1="0" y1="120.36916504144057" x2="1062.2" y2="120.36916504144057" fill="rgb(0, 0, 0)" stroke="rgb(60, 60, 60)" stroke-width="1px" opacity="0.25"></line><line x1="0" y1="82.90914091885442" x2="1062.2" y2="82.90914091885442" fill="rgb(0, 0, 0)" stroke="rgb(60, 60, 60)" stroke-width="1px" opacity="0.25"></line><line x1="0" y1="45.44911679626833" x2="1062.2" y2="45.44911679626833" fill="rgb(0, 0, 0)" stroke="rgb(60, 60, 60)" stroke-width="1px" opacity="0.25"></line><line x1="0" y1="7.989092673682229" x2="1062.2" y2="7.989092673682229" fill="rgb(0, 0, 0)" stroke="rgb(60, 60, 60)" stroke-width="1px" opacity="0.25"></line></g></g></g><g><g><line x1="0" y1="3341.931239583842" x2="1062.2" y2="3341.931239583842" fill="rgb(0, 0, 0)" stroke="rgb(153, 153, 153)" stroke-width="1.5px"></line></g></g><g><g><line x1="9.737807967304114" y1="0" x2="9.737807967304114" y2="378" fill="rgb(0, 0, 0)" stroke="rgb(153, 153, 153)" stroke-width="1.5px"></line></g></g><g><g><g><g><g><path stroke="rgb(187, 187, 187)" stroke-width="2px" d="M9.737807967304114,357.4145301333504L30.790737926568912,268.6883108024137L51.84366788583372,307.6887020086557L72.89659784509851,267.71325078445045L93.94952780436331,124.38612651814589L115.00245776362812,149.73657058947484L136.0553877228929,112.68607614001623L157.1083176821577,119.51104970747276L178.1612476414225,160.46178422878438L199.2141776006873,79.53559848326746L220.2671075599521,62.960471294464675L241.3200375192169,61.01035125853818L262.3729674784817,61.01035125853818L283.4258974377465,68.81038484395793L304.4788273970113,50.285137619228635L325.5317573562761,65.8854280692113L346.5846873155409,56.13527444786501L367.6376172748057,47.36018084448197L388.6905472340705,62.960471294464675L409.7434771933353,56.13527444786501L430.7964071526001,54.18515441193851L451.8493371118649,50.285137619228635L472.9022670711297,43.46016405177209L493.9551970303945,45.41006080855547L515.0081269896593,44.43500079059223L536.0610569489241,45.41006080855547L557.113986908189,44.43500079059223L578.1669168674537,46.385120826518715L599.2198468267185,47.36018084448197L620.2727767859834,44.43500079059223L641.3257067452481,45.41006080855547L662.3786367045129,46.385120826518715L683.4315666637776,46.385120826518715L704.4844966230424,49.31007760126539L725.5374265823074,49.31007760126539L746.5903565415721,46.385120826518715L767.6432865008369,42.485104033808845L788.6962164601017,48.335240862445254L809.7491464193665,50.285137619228635L830.8020763786313,46.385120826518715L851.855006337896,39.5599239799191L872.9079362971609,45.41006080855547L893.9608662564258,40.53498399788235L915.0137962156905,47.36018084448197L936.0667261749553,48.335240862445254L957.1196561342201,45.41006080855547L978.1725860934848,42.485104033808845L999.2255160527498,48.335240862445254L1020.2784460120145,48.335240862445254L1041.3313759712794,49.31007760126539" style="fill: none;" fill="none"></path></g><g><path stroke="rgb(204, 51, 17)" stroke-width="2px" d="M9.737807967304114,263.81323399174056L30.790737926568912,212.13750911026247L51.84366788583372,175.08701466080385L72.89659784509851,178.01197143555046L93.94952780436331,107.81099932934309L115.00245776362812,96.1107256720703L136.0553877228929,102.93592251866993L157.1083176821577,75.63558169055759L178.1612476414225,105.8608792934166L199.2141776006873,56.13527444786501L220.2671075599521,58.085394483791504L241.3200375192169,78.56053846530422L262.3729674784817,84.41067529394064L283.4258974377465,52.23525765515513L304.4788273970113,38.58508724109897L325.5317573562761,53.21031767311838L346.5846873155409,56.13527444786501L367.6376172748057,54.18515441193851L388.6905472340705,47.36018084448197L409.7434771933353,35.65990718720918L430.7964071526001,39.5599239799191L451.8493371118649,45.41006080855547L472.9022670711297,38.58508724109897L493.9551970303945,38.58508724109897L515.0081269896593,29.809993637715923L536.0610569489241,36.63496720517247L557.113986908189,36.63496720517247L578.1669168674537,34.68507044838905L599.2198468267185,39.5599239799191L620.2727767859834,37.61002722313572L641.3257067452481,32.73495041246255L662.3786367045129,38.58508724109897L683.4315666637776,30.784830376536057L704.4844966230424,33.7100104304258L725.5374265823074,37.61002722313572L746.5903565415721,33.7100104304258L767.6432865008369,33.7100104304258L788.6962164601017,32.73495041246255L809.7491464193665,31.759890394499305L830.8020763786313,31.759890394499305L851.855006337896,32.73495041246255L872.9079362971609,32.73495041246255L893.9608662564258,33.7100104304258L915.0137962156905,32.73495041246255L936.0667261749553,33.7100104304258L957.1196561342201,32.73495041246255L978.1725860934848,32.73495041246255L999.2255160527498,33.7100104304258L1020.2784460120145,34.68507044838905L1041.3313759712794,33.7100104304258" style="fill: none;" fill="none"></path></g><g><path stroke="rgb(0, 119, 187)" stroke-width="2px" d="M9.737807967304114,256.9880371451409L30.790737926568912,226.76273954228188L51.84366788583372,137.06146019338192L72.89659784509851,172.16183460691406L93.94952780436331,132.1863833827088L115.00245776362812,148.7615105715116L136.0553877228929,173.1368946248773L157.1083176821577,166.31169777827768L178.1612476414225,117.56115295068939L199.2141776006873,81.48571851919397L220.2671075599521,71.73556489784771L241.3200375192169,91.23564886139714L262.3729674784817,55.160214429901764L283.4258974377465,85.38573531190389L304.4788273970113,52.23525765515513L325.5317573562761,74.66052167259434L346.5846873155409,108.78605934730635L367.6376172748057,113.66113615797947L388.6905472340705,113.66113615797947L409.7434771933353,61.985411276501424L430.7964071526001,53.21031767311838L451.8493371118649,78.56053846530422L472.9022670711297,60.03529124057493L493.9551970303945,66.86048808717455L515.0081269896593,61.985411276501424L536.0610569489241,65.8854280692113L557.113986908189,56.13527444786501L578.1669168674537,61.01035125853818L599.2198468267185,50.285137619228635L620.2727767859834,64.91036805124806L641.3257067452481,74.66052167259434L662.3786367045129,69.78544486192118L683.4315666637776,53.21031767311838L704.4844966230424,57.11033446582826L725.5374265823074,56.13527444786501L746.5903565415721,60.03529124057493L767.6432865008369,64.91036805124806L788.6962164601017,61.985411276501424L809.7491464193665,61.985411276501424L830.8020763786313,62.960471294464675L851.855006337896,58.085394483791504L872.9079362971609,59.060231222611684L893.9608662564258,59.060231222611684L915.0137962156905,60.03529124057493L936.0667261749553,57.11033446582826L957.1196561342201,53.21031767311838L978.1725860934848,55.160214429901764L999.2255160527498,54.18515441193851L1020.2784460120145,58.085394483791504L1041.3313759712794,53.21031767311838" style="fill: none;" fill="none"></path></g><g><path stroke="rgb(238, 51, 119)" stroke-width="2px" d="M9.737807967304114,280.38836118054337L30.790737926568912,178.9870314535137L51.84366788583372,210.18738907433593L72.89659784509851,211.16244909229923L93.94952780436331,84.41067529394064L115.00245776362812,69.78544486192118L136.0553877228929,59.060231222611684L157.1083176821577,77.58547844734098L178.1612476414225,77.58547844734098L199.2141776006873,35.65990718720918L220.2671075599521,40.53498399788235L241.3200375192169,44.43500079059223L262.3729674784817,44.43500079059223L283.4258974377465,47.36018084448197L304.4788273970113,45.41006080855547L325.5317573562761,41.510044015845594L346.5846873155409,38.58508724109897L367.6376172748057,45.41006080855547L388.6905472340705,43.46016405177209L409.7434771933353,28.834933619752675L430.7964071526001,40.53498399788235L451.8493371118649,36.63496720517247L472.9022670711297,38.58508724109897L493.9551970303945,40.53498399788235L515.0081269896593,37.61002722313572L536.0610569489241,36.63496720517247L557.113986908189,38.58508724109897L578.1669168674537,38.58508724109897L599.2198468267185,38.58508724109897L620.2727767859834,38.58508724109897L641.3257067452481,37.61002722313572L662.3786367045129,37.61002722313572L683.4315666637776,37.61002722313572L704.4844966230424,39.5599239799191L725.5374265823074,39.5599239799191L746.5903565415721,39.5599239799191L767.6432865008369,39.5599239799191L788.6962164601017,39.5599239799191L809.7491464193665,39.5599239799191L830.8020763786313,39.5599239799191L851.855006337896,39.5599239799191L872.9079362971609,39.5599239799191L893.9608662564258,39.5599239799191L915.0137962156905,39.5599239799191L936.0667261749553,39.5599239799191L957.1196561342201,39.5599239799191L978.1725860934848,39.5599239799191L999.2255160527498,39.5599239799191L1020.2784460120145,39.5599239799191L1041.3313759712794,39.5599239799191" style="fill: none;" fill="none"></path></g><g><path stroke="rgb(255, 112, 67)" stroke-width="2px" d="M9.737807967304114,258.93815718106737L30.790737926568912,189.71224509282325L51.84366788583372,149.73657058947484L72.89659784509851,131.21132336474557L93.94952780436331,99.03590572596005L115.00245776362812,92.2107088793604L136.0553877228929,93.18576889732368L157.1083176821577,66.86048808717455L178.1612476414225,60.03529124057493L199.2141776006873,53.21031767311838L220.2671075599521,53.21031767311838L241.3200375192169,60.03529124057493L262.3729674784817,47.36018084448197L283.4258974377465,46.385120826518715L304.4788273970113,42.485104033808845L325.5317573562761,40.53498399788235L346.5846873155409,44.43500079059223L367.6376172748057,46.385120826518715L388.6905472340705,47.36018084448197L409.7434771933353,47.36018084448197L430.7964071526001,45.41006080855547L451.8493371118649,47.36018084448197L472.9022670711297,45.41006080855547L493.9551970303945,41.510044015845594L515.0081269896593,46.385120826518715L536.0610569489241,45.41006080855547L557.113986908189,44.43500079059223L578.1669168674537,45.41006080855547L599.2198468267185,43.46016405177209L620.2727767859834,43.46016405177209L641.3257067452481,42.485104033808845L662.3786367045129,42.485104033808845L683.4315666637776,44.43500079059223L704.4844966230424,45.41006080855547L725.5374265823074,45.41006080855547L746.5903565415721,45.41006080855547L767.6432865008369,45.41006080855547L788.6962164601017,45.41006080855547L809.7491464193665,45.41006080855547L830.8020763786313,45.41006080855547L851.855006337896,45.41006080855547L872.9079362971609,45.41006080855547L893.9608662564258,45.41006080855547L915.0137962156905,45.41006080855547L936.0667261749553,45.41006080855547L957.1196561342201,45.41006080855547L978.1725860934848,45.41006080855547L999.2255160527498,45.41006080855547L1020.2784460120145,45.41006080855547L1041.3313759712794,45.41006080855547" style="fill: none;" fill="none"></path></g></g></g></g></g></g><g transform="translate(50, 378)" clip-path="url(#clip_1)"><clipPath id="clip_1"><rect width="1062" height="22"></rect></clipPath><g><g><line x1="9.737807967304114" y1="0" x2="9.737807967304114" y2="5" style="visibility: inherit;" fill="rgb(0, 0, 0)" stroke="rgb(204, 204, 204)" stroke-width="1px"></line><line x1="115.00245776362812" y1="0" x2="115.00245776362812" y2="5" style="visibility: inherit;" fill="rgb(0, 0, 0)" stroke="rgb(204, 204, 204)" stroke-width="1px"></line><line x1="220.2671075599521" y1="0" x2="220.2671075599521" y2="5" style="visibility: inherit;" fill="rgb(0, 0, 0)" stroke="rgb(204, 204, 204)" stroke-width="1px"></line><line x1="325.5317573562761" y1="0" x2="325.5317573562761" y2="5" style="visibility: inherit;" fill="rgb(0, 0, 0)" stroke="rgb(204, 204, 204)" stroke-width="1px"></line><line x1="430.7964071526001" y1="0" x2="430.7964071526001" y2="5" style="visibility: inherit;" fill="rgb(0, 0, 0)" stroke="rgb(204, 204, 204)" stroke-width="1px"></line><line x1="536.0610569489241" y1="0" x2="536.0610569489241" y2="5" style="visibility: inherit;" fill="rgb(0, 0, 0)" stroke="rgb(204, 204, 204)" stroke-width="1px"></line><line x1="641.3257067452481" y1="0" x2="641.3257067452481" y2="5" style="visibility: inherit;" fill="rgb(0, 0, 0)" stroke="rgb(204, 204, 204)" stroke-width="1px"></line><line x1="746.5903565415721" y1="0" x2="746.5903565415721" y2="5" style="visibility: inherit;" fill="rgb(0, 0, 0)" stroke="rgb(204, 204, 204)" stroke-width="1px"></line><line x1="851.855006337896" y1="0" x2="851.855006337896" y2="5" style="visibility: inherit;" fill="rgb(0, 0, 0)" stroke="rgb(204, 204, 204)" stroke-width="1px"></line><line x1="957.1196561342201" y1="0" x2="957.1196561342201" y2="5" style="visibility: inherit;" fill="rgb(0, 0, 0)" stroke="rgb(204, 204, 204)" stroke-width="1px"></line></g><g transform="translate(0, 8)"><text x="9.737807967304114" y="0" dx="0em" dy="0.95em" style="text-anchor: middle; visibility: inherit; font-family: Roboto, sans-serif; font-size: 12px; font-weight: 200;" fill="rgb(50, 49, 63)" stroke="none" stroke-width="1px">0</text><text x="115.00245776362812" y="0" dx="0em" dy="0.95em" style="text-anchor: middle; visibility: inherit; font-family: Roboto, sans-serif; font-size: 12px; font-weight: 200;" fill="rgb(50, 49, 63)" stroke="none" stroke-width="1px">5</text><text x="220.2671075599521" y="0" dx="0em" dy="0.95em" style="text-anchor: middle; visibility: inherit; font-family: Roboto, sans-serif; font-size: 12px; font-weight: 200;" fill="rgb(50, 49, 63)" stroke="none" stroke-width="1px">10</text><text x="325.5317573562761" y="0" dx="0em" dy="0.95em" style="text-anchor: middle; visibility: inherit; font-family: Roboto, sans-serif; font-size: 12px; font-weight: 200;" fill="rgb(50, 49, 63)" stroke="none" stroke-width="1px">15</text><text x="430.7964071526001" y="0" dx="0em" dy="0.95em" style="text-anchor: middle; visibility: inherit; font-family: Roboto, sans-serif; font-size: 12px; font-weight: 200;" fill="rgb(50, 49, 63)" stroke="none" stroke-width="1px">20</text><text x="536.0610569489241" y="0" dx="0em" dy="0.95em" style="text-anchor: middle; visibility: inherit; font-family: Roboto, sans-serif; font-size: 12px; font-weight: 200;" fill="rgb(50, 49, 63)" stroke="none" stroke-width="1px">25</text><text x="641.3257067452481" y="0" dx="0em" dy="0.95em" style="text-anchor: middle; visibility: inherit; font-family: Roboto, sans-serif; font-size: 12px; font-weight: 200;" fill="rgb(50, 49, 63)" stroke="none" stroke-width="1px">30</text><text x="746.5903565415721" y="0" dx="0em" dy="0.95em" style="text-anchor: middle; visibility: inherit; font-family: Roboto, sans-serif; font-size: 12px; font-weight: 200;" fill="rgb(50, 49, 63)" stroke="none" stroke-width="1px">35</text><text x="851.855006337896" y="0" dx="0em" dy="0.95em" style="text-anchor: middle; visibility: inherit; font-family: Roboto, sans-serif; font-size: 12px; font-weight: 200;" fill="rgb(50, 49, 63)" stroke="none" stroke-width="1px">40</text><text x="957.1196561342201" y="0" dx="0em" dy="0.95em" style="text-anchor: middle; visibility: inherit; font-family: Roboto, sans-serif; font-size: 12px; font-weight: 200;" fill="rgb(50, 49, 63)" stroke="none" stroke-width="1px">45</text></g><line x1="0" y1="0" x2="1062.2" y2="0" fill="rgb(0, 0, 0)" stroke="rgb(204, 204, 204)" stroke-width="1px"></line></g></g></g></g></svg>