<svg viewBox="0 0 1112.2000732421875 400" xmlns="http://www.w3.org/2000/svg"><g><g><g><g><g><line x1="50" y1="345.12930977695675" x2="45" y2="345.12930977695675" style="visibility: inherit;" fill="rgb(0, 0, 0)" stroke="rgb(204, 204, 204)" stroke-width="1px"></line><line x1="50" y1="307.66928565437064" x2="45" y2="307.66928565437064" style="visibility: inherit;" fill="rgb(0, 0, 0)" stroke="rgb(204, 204, 204)" stroke-width="1px"></line><line x1="50" y1="270.20926153178493" x2="45" y2="270.20926153178493" style="visibility: inherit;" fill="rgb(0, 0, 0)" stroke="rgb(204, 204, 204)" stroke-width="1px"></line><line x1="50" y1="232.74923740919886" x2="45" y2="232.74923740919886" style="visibility: inherit;" fill="rgb(0, 0, 0)" stroke="rgb(204, 204, 204)" stroke-width="1px"></line><line x1="50" y1="195.28921328661275" x2="45" y2="195.28921328661275" style="visibility: inherit;" fill="rgb(0, 0, 0)" stroke="rgb(204, 204, 204)" stroke-width="1px"></line><line x1="50" y1="157.82918916402667" x2="45" y2="157.82918916402667" style="visibility: inherit;" fill="rgb(0, 0, 0)" stroke="rgb(204, 204, 204)" stroke-width="1px"></line><line x1="50" y1="120.36916504144057" x2="45" y2="120.36916504144057" style="visibility: inherit;" fill="rgb(0, 0, 0)" stroke="rgb(204, 204, 204)" stroke-width="1px"></line><line x1="50" y1="82.90914091885442" x2="45" y2="82.90914091885442" style="visibility: inherit;" fill="rgb(0, 0, 0)" stroke="rgb(204, 204, 204)" stroke-width="1px"></line><line x1="50" y1="45.44911679626833" x2="45" y2="45.44911679626833" style="visibility: inherit;" fill="rgb(0, 0, 0)" stroke="rgb(204, 204, 204)" stroke-width="1px"></line><line x1="50" y1="7.989092673682229" x2="45" y2="7.989092673682229" style="visibility: inherit;" fill="rgb(0, 0, 0)" stroke="rgb(204, 204, 204)" stroke-width="1px"></line></g><g transform="translate(40, 0)"><text x="0" y="345.12930977695675" dx="0em" dy="0.3em" style="text-anchor: end; visibility: inherit; font-family: Roboto, sans-serif; font-size: 12px; font-weight: 200;" fill="rgb(50, 49, 63)" stroke="none" stroke-width="1px">0.8</text><text x="0" y="307.66928565437064" dx="0em" dy="0.3em" style="text-anchor: end; visibility: inherit; font-family: Roboto, sans-serif; font-size: 12px; font-weight: 200;" fill="rgb(50, 49, 63)" stroke="none" stroke-width="1px">0.81</text><text x="0" y="270.20926153178493" dx="0em" dy="0.3em" style="text-anchor: end; visibility: inherit; font-family: Roboto, sans-serif; font-size: 12px; font-weight: 200;" fill="rgb(50, 49, 63)" stroke="none" stroke-width="1px">0.82</text><text x="0" y="232.74923740919886" dx="0em" dy="0.3em" style="text-anchor: end; visibility: inherit; font-family: Roboto, sans-serif; font-size: 12px; font-weight: 200;" fill="rgb(50, 49, 63)" stroke="none" stroke-width="1px">0.83</text><text x="0" y="195.28921328661275" dx="0em" dy="0.3em" style="text-anchor: end; visibility: inherit; font-family: Roboto, sans-serif; font-size: 12px; font-weight: 200;" fill="rgb(50, 49, 63)" stroke="none" stroke-width="1px">0.84</text><text x="0" y="157.82918916402667" dx="0em" dy="0.3em" style="text-anchor: end; visibility: inherit; font-family: Roboto, sans-serif; font-size: 12px; font-weight: 200;" fill="rgb(50, 49, 63)" stroke="none" stroke-width="1px">0.85</text><text x="0" y="120.36916504144057" dx="0em" dy="0.3em" style="text-anchor: end; visibility: inherit; font-family: Roboto, sans-serif; font-size: 12px; font-weight: 200;" fill="rgb(50, 49, 63)" stroke="none" stroke-width="1px">0.86</text><text x="0" y="82.90914091885442" dx="0em" dy="0.3em" style="text-anchor: end; visibility: inherit; font-family: Roboto, sans-serif; font-size: 12px; font-weight: 200;" fill="rgb(50, 49, 63)" stroke="none" stroke-width="1px">0.87</text><text x="0" y="45.44911679626833" dx="0em" dy="0.3em" style="text-anchor: end; visibility: inherit; font-family: Roboto, sans-serif; font-size: 12px; font-weight: 200;" fill="rgb(50, 49, 63)" stroke="none" stroke-width="1px">0.88</text><text x="0" y="7.989092673682229" dx="0em" dy="0.3em" style="text-anchor: end; visibility: inherit; font-family: Roboto, sans-serif; font-size: 12px; font-weight: 200;" fill="rgb(50, 49, 63)" stroke="none" stroke-width="1px">0.89</text></g><line x1="50" y1="0" x2="50" y2="378" fill="rgb(0, 0, 0)" stroke="rgb(204, 204, 204)" stroke-width="1px"></line></g></g><g transform="translate(50, 0)" clip-path="url(#clip_0)"><clipPath id="clip_0"><rect width="1062" height="378"></rect></clipPath><g><g><g><line x1="9.737807967304114" y1="0" x2="9.737807967304114" y2="378" fill="rgb(0, 0, 0)" stroke="rgb(60, 60, 60)" stroke-width="1px" opacity="0.25"></line><line x1="115.00245776362812" y1="0" x2="115.00245776362812" y2="378" fill="rgb(0, 0, 0)" stroke="rgb(60, 60, 60)" stroke-width="1px" opacity="0.25"></line><line x1="220.2671075599521" y1="0" x2="220.2671075599521" y2="378" fill="rgb(0, 0, 0)" stroke="rgb(60, 60, 60)" stroke-width="1px" opacity="0.25"></line><line x1="325.5317573562761" y1="0" x2="325.5317573562761" y2="378" fill="rgb(0, 0, 0)" stroke="rgb(60, 60, 60)" stroke-width="1px" opacity="0.25"></line><line x1="430.7964071526001" y1="0" x2="430.7964071526001" y2="378" fill="rgb(0, 0, 0)" stroke="rgb(60, 60, 60)" stroke-width="1px" opacity="0.25"></line><line x1="536.0610569489241" y1="0" x2="536.0610569489241" y2="378" fill="rgb(0, 0, 0)" stroke="rgb(60, 60, 60)" stroke-width="1px" opacity="0.25"></line><line x1="641.3257067452481" y1="0" x2="641.3257067452481" y2="378" fill="rgb(0, 0, 0)" stroke="rgb(60, 60, 60)" stroke-width="1px" opacity="0.25"></line><line x1="746.5903565415721" y1="0" x2="746.5903565415721" y2="378" fill="rgb(0, 0, 0)" stroke="rgb(60, 60, 60)" stroke-width="1px" opacity="0.25"></line><line x1="851.855006337896" y1="0" x2="851.855006337896" y2="378" fill="rgb(0, 0, 0)" stroke="rgb(60, 60, 60)" stroke-width="1px" opacity="0.25"></line><line x1="957.1196561342201" y1="0" x2="957.1196561342201" y2="378" fill="rgb(0, 0, 0)" stroke="rgb(60, 60, 60)" stroke-width="1px" opacity="0.25"></line></g><g><line x1="0" y1="345.12930977695675" x2="1062.2" y2="345.12930977695675" fill="rgb(0, 0, 0)" stroke="rgb(60, 60, 60)" stroke-width="1px" opacity="0.25"></line><line x1="0" y1="307.66928565437064" x2="1062.2" y2="307.66928565437064" fill="rgb(0, 0, 0)" stroke="rgb(60, 60, 60)" stroke-width="1px" opacity="0.25"></line><line x1="0" y1="270.20926153178493" x2="1062.2" y2="270.20926153178493" fill="rgb(0, 0, 0)" stroke="rgb(60, 60, 60)" stroke-width="1px" opacity="0.25"></line><line x1="0" y1="232.74923740919886" x2="1062.2" y2="232.74923740919886" fill="rgb(0, 0, 0)" stroke="rgb(60, 60, 60)" stroke-width="1px" opacity="0.25"></line><line x1="0" y1="195.28921328661275" x2="1062.2" y2="195.28921328661275" fill="rgb(0, 0, 0)" stroke="rgb(60, 60, 60)" stroke-width="1px" opacity="0.25"></line><line x1="0" y1="157.82918916402667" x2="1062.2" y2="157.82918916402667" fill="rgb(0, 0, 0)" stroke="rgb(60, 60, 60)" stroke-width="1px" opacity="0.25"></line><line x1="0" y1="120.36916504144057" x2="1062.2" y2="120.36916504144057" fill="rgb(0, 0, 0)" stroke="rgb(60, 60, 60)" stroke-width="1px" opacity="0.25"></line><line x1="0" y1="82.90914091885442" x2="1062.2" y2="82.90914091885442" fill="rgb(0, 0, 0)" stroke="rgb(60, 60, 60)" stroke-width="1px" opacity="0.25"></line><line x1="0" y1="45.44911679626833" x2="1062.2" y2="45.44911679626833" fill="rgb(0, 0, 0)" stroke="rgb(60, 60, 60)" stroke-width="1px" opacity="0.25"></line><line x1="0" y1="7.989092673682229" x2="1062.2" y2="7.989092673682229" fill="rgb(0, 0, 0)" stroke="rgb(60, 60, 60)" stroke-width="1px" opacity="0.25"></line></g></g></g><g><g><line x1="0" y1="3341.931239583842" x2="1062.2" y2="3341.931239583842" fill="rgb(0, 0, 0)" stroke="rgb(153, 153, 153)" stroke-width="1.5px"></line></g></g><g><g><line x1="9.737807967304114" y1="0" x2="9.737807967304114" y2="378" fill="rgb(0, 0, 0)" stroke="rgb(153, 153, 153)" stroke-width="1.5px"></line></g></g><g><g><g><g><g><path stroke="rgb(204, 51, 17)" stroke-width="2px" d="M9.737807967304114,263.81323399174056L30.790737926568912,212.13750911026247L51.84366788583372,175.08701466080385L72.89659784509851,178.01197143555046L93.94952780436331,107.81099932934309L115.00245776362812,96.1107256720703L136.0553877228929,102.93592251866993L157.1083176821577,75.63558169055759L178.1612476414225,105.8608792934166L199.2141776006873,56.13527444786501L220.2671075599521,58.085394483791504L241.3200375192169,78.56053846530422L262.3729674784817,84.41067529394064L283.4258974377465,52.23525765515513L304.4788273970113,38.58508724109897L325.5317573562761,53.21031767311838L346.5846873155409,56.13527444786501L367.6376172748057,54.18515441193851L388.6905472340705,47.36018084448197L409.7434771933353,35.65990718720918L430.7964071526001,39.5599239799191L451.8493371118649,45.41006080855547L472.9022670711297,38.58508724109897L493.9551970303945,38.58508724109897L515.0081269896593,29.809993637715923L536.0610569489241,36.63496720517247L557.113986908189,36.63496720517247L578.1669168674537,34.68507044838905L599.2198468267185,39.5599239799191L620.2727767859834,37.61002722313572L641.3257067452481,32.73495041246255L662.3786367045129,38.58508724109897L683.4315666637776,30.784830376536057L704.4844966230424,33.7100104304258L725.5374265823074,37.61002722313572L746.5903565415721,33.7100104304258L767.6432865008369,33.7100104304258L788.6962164601017,32.73495041246255L809.7491464193665,31.759890394499305L830.8020763786313,31.759890394499305L851.855006337896,32.73495041246255L872.9079362971609,32.73495041246255L893.9608662564258,33.7100104304258L915.0137962156905,32.73495041246255L936.0667261749553,33.7100104304258L957.1196561342201,32.73495041246255L978.1725860934848,32.73495041246255L999.2255160527498,33.7100104304258L1020.2784460120145,34.68507044838905L1041.3313759712794,33.7100104304258" style="fill: none;" fill="none"></path></g><g><path stroke="rgb(0, 119, 187)" stroke-width="2px" d="M9.737807967304114,249.1880035597211L30.790737926568912,197.51227867824306L51.84366788583372,156.56176743607452L72.89659784509851,129.26120332881905L93.94952780436331,109.7611193652696L115.00245776362812,108.78605934730635L136.0553877228929,98.0608457079968L157.1083176821577,79.53559848326746L178.1612476414225,90.26081212257701L199.2141776006873,68.81038484395793L220.2671075599521,61.985411276501424L241.3200375192169,59.060231222611684L262.3729674784817,62.960471294464675L283.4258974377465,52.23525765515513L304.4788273970113,55.160214429901764L325.5317573562761,51.26019763719189L346.5846873155409,52.23525765515513L367.6376172748057,43.46016405177209L388.6905472340705,55.160214429901764L409.7434771933353,46.385120826518715L430.7964071526001,47.36018084448197L451.8493371118649,44.43500079059223L472.9022670711297,49.31007760126539L493.9551970303945,43.46016405177209L515.0081269896593,29.809993637715923L536.0610569489241,45.41006080855547L557.113986908189,41.510044015845594L578.1669168674537,31.759890394499305L599.2198468267185,42.485104033808845L620.2727767859834,46.385120826518715L641.3257067452481,49.31007760126539L662.3786367045129,34.68507044838905L683.4315666637776,38.58508724109897L704.4844966230424,45.41006080855547L725.5374265823074,58.085394483791504L746.5903565415721,47.36018084448197L767.6432865008369,45.41006080855547L788.6962164601017,52.23525765515513L809.7491464193665,41.510044015845594L830.8020763786313,53.21031767311838L851.855006337896,45.41006080855547L872.9079362971609,54.18515441193851L893.9608662564258,62.960471294464675L915.0137962156905,50.285137619228635L936.0667261749553,50.285137619228635L957.1196561342201,58.085394483791504L978.1725860934848,50.285137619228635L999.2255160527498,44.43500079059223L1020.2784460120145,47.36018084448197L1041.3313759712794,51.26019763719189" style="fill: none;" fill="none"></path></g><g><path stroke="rgb(51, 187, 238)" stroke-width="2px" d="M9.737807967304114,367.1646837546966L30.790737926568912,244.31292674904796L51.84366788583372,162.4116809855678L72.89659784509851,78.56053846530422L93.94952780436331,93.18576889732368L115.00245776362812,66.86048808717455L136.0553877228929,45.41006080855547L157.1083176821577,53.21031767311838L178.1612476414225,42.485104033808845L199.2141776006873,39.5599239799191L220.2671075599521,40.53498399788235L241.3200375192169,35.65990718720918L262.3729674784817,34.68507044838905L283.4258974377465,34.68507044838905L304.4788273970113,35.65990718720918L325.5317573562761,35.65990718720918L346.5846873155409,38.58508724109897L367.6376172748057,35.65990718720918L388.6905472340705,33.7100104304258L409.7434771933353,33.7100104304258L430.7964071526001,33.7100104304258L451.8493371118649,32.73495041246255L472.9022670711297,33.7100104304258L493.9551970303945,33.7100104304258L515.0081269896593,33.7100104304258L536.0610569489241,33.7100104304258L557.113986908189,33.7100104304258L578.1669168674537,33.7100104304258L599.2198468267185,33.7100104304258L620.2727767859834,33.7100104304258L641.3257067452481,33.7100104304258L662.3786367045129,33.7100104304258L683.4315666637776,33.7100104304258L704.4844966230424,33.7100104304258L725.5374265823074,33.7100104304258L746.5903565415721,33.7100104304258L767.6432865008369,33.7100104304258L788.6962164601017,33.7100104304258L809.7491464193665,33.7100104304258L830.8020763786313,33.7100104304258L851.855006337896,33.7100104304258L872.9079362971609,33.7100104304258L893.9608662564258,33.7100104304258L915.0137962156905,33.7100104304258L936.0667261749553,33.7100104304258L957.1196561342201,33.7100104304258L978.1725860934848,33.7100104304258L999.2255160527498,33.7100104304258L1020.2784460120145,33.7100104304258L1041.3313759712794,33.7100104304258" style="fill: none;" fill="none"></path></g></g></g></g></g></g><g transform="translate(50, 378)" clip-path="url(#clip_1)"><clipPath id="clip_1"><rect width="1062" height="22"></rect></clipPath><g><g><line x1="9.737807967304114" y1="0" x2="9.737807967304114" y2="5" style="visibility: inherit;" fill="rgb(0, 0, 0)" stroke="rgb(204, 204, 204)" stroke-width="1px"></line><line x1="115.00245776362812" y1="0" x2="115.00245776362812" y2="5" style="visibility: inherit;" fill="rgb(0, 0, 0)" stroke="rgb(204, 204, 204)" stroke-width="1px"></line><line x1="220.2671075599521" y1="0" x2="220.2671075599521" y2="5" style="visibility: inherit;" fill="rgb(0, 0, 0)" stroke="rgb(204, 204, 204)" stroke-width="1px"></line><line x1="325.5317573562761" y1="0" x2="325.5317573562761" y2="5" style="visibility: inherit;" fill="rgb(0, 0, 0)" stroke="rgb(204, 204, 204)" stroke-width="1px"></line><line x1="430.7964071526001" y1="0" x2="430.7964071526001" y2="5" style="visibility: inherit;" fill="rgb(0, 0, 0)" stroke="rgb(204, 204, 204)" stroke-width="1px"></line><line x1="536.0610569489241" y1="0" x2="536.0610569489241" y2="5" style="visibility: inherit;" fill="rgb(0, 0, 0)" stroke="rgb(204, 204, 204)" stroke-width="1px"></line><line x1="641.3257067452481" y1="0" x2="641.3257067452481" y2="5" style="visibility: inherit;" fill="rgb(0, 0, 0)" stroke="rgb(204, 204, 204)" stroke-width="1px"></line><line x1="746.5903565415721" y1="0" x2="746.5903565415721" y2="5" style="visibility: inherit;" fill="rgb(0, 0, 0)" stroke="rgb(204, 204, 204)" stroke-width="1px"></line><line x1="851.855006337896" y1="0" x2="851.855006337896" y2="5" style="visibility: inherit;" fill="rgb(0, 0, 0)" stroke="rgb(204, 204, 204)" stroke-width="1px"></line><line x1="957.1196561342201" y1="0" x2="957.1196561342201" y2="5" style="visibility: inherit;" fill="rgb(0, 0, 0)" stroke="rgb(204, 204, 204)" stroke-width="1px"></line></g><g transform="translate(0, 8)"><text x="9.737807967304114" y="0" dx="0em" dy="0.95em" style="text-anchor: middle; visibility: inherit; font-family: Roboto, sans-serif; font-size: 12px; font-weight: 200;" fill="rgb(50, 49, 63)" stroke="none" stroke-width="1px">0</text><text x="115.00245776362812" y="0" dx="0em" dy="0.95em" style="text-anchor: middle; visibility: inherit; font-family: Roboto, sans-serif; font-size: 12px; font-weight: 200;" fill="rgb(50, 49, 63)" stroke="none" stroke-width="1px">5</text><text x="220.2671075599521" y="0" dx="0em" dy="0.95em" style="text-anchor: middle; visibility: inherit; font-family: Roboto, sans-serif; font-size: 12px; font-weight: 200;" fill="rgb(50, 49, 63)" stroke="none" stroke-width="1px">10</text><text x="325.5317573562761" y="0" dx="0em" dy="0.95em" style="text-anchor: middle; visibility: inherit; font-family: Roboto, sans-serif; font-size: 12px; font-weight: 200;" fill="rgb(50, 49, 63)" stroke="none" stroke-width="1px">15</text><text x="430.7964071526001" y="0" dx="0em" dy="0.95em" style="text-anchor: middle; visibility: inherit; font-family: Roboto, sans-serif; font-size: 12px; font-weight: 200;" fill="rgb(50, 49, 63)" stroke="none" stroke-width="1px">20</text><text x="536.0610569489241" y="0" dx="0em" dy="0.95em" style="text-anchor: middle; visibility: inherit; font-family: Roboto, sans-serif; font-size: 12px; font-weight: 200;" fill="rgb(50, 49, 63)" stroke="none" stroke-width="1px">25</text><text x="641.3257067452481" y="0" dx="0em" dy="0.95em" style="text-anchor: middle; visibility: inherit; font-family: Roboto, sans-serif; font-size: 12px; font-weight: 200;" fill="rgb(50, 49, 63)" stroke="none" stroke-width="1px">30</text><text x="746.5903565415721" y="0" dx="0em" dy="0.95em" style="text-anchor: middle; visibility: inherit; font-family: Roboto, sans-serif; font-size: 12px; font-weight: 200;" fill="rgb(50, 49, 63)" stroke="none" stroke-width="1px">35</text><text x="851.855006337896" y="0" dx="0em" dy="0.95em" style="text-anchor: middle; visibility: inherit; font-family: Roboto, sans-serif; font-size: 12px; font-weight: 200;" fill="rgb(50, 49, 63)" stroke="none" stroke-width="1px">40</text><text x="957.1196561342201" y="0" dx="0em" dy="0.95em" style="text-anchor: middle; visibility: inherit; font-family: Roboto, sans-serif; font-size: 12px; font-weight: 200;" fill="rgb(50, 49, 63)" stroke="none" stroke-width="1px">45</text></g><line x1="0" y1="0" x2="1062.2" y2="0" fill="rgb(0, 0, 0)" stroke="rgb(204, 204, 204)" stroke-width="1px"></line></g></g></g></g></svg>